<svg xmlns="http://www.w3.org/2000/svg" width="228" height="80" viewBox="0 0 228 80">
    <g fill="none" fill-rule="evenodd">
        <path d="M0 0h228v80H0z"/>
        <g fill-rule="nonzero">
            <path fill="#99A5B3" d="M92.073 43.468l1.336.404c-.09.373-.231.686-.423.937a1.822 1.822 0 0 1-.72.57c-.285.126-.648.19-1.09.19-.537 0-.976-.077-1.317-.23-.338-.158-.63-.432-.879-.824-.246-.392-.37-.894-.37-1.506 0-.815.217-1.44.65-1.877.437-.44 1.051-.659 1.844-.659.622 0 1.11.126 1.465.378.358.252.623.637.796 1.155l-1.347.297a1.038 1.038 0 0 0-.148-.327.84.84 0 0 0-.31-.267.898.898 0 0 0-.415-.095.898.898 0 0 0-.795.416c-.139.207-.209.53-.209.972 0 .547.084.922.25 1.125.168.202.402.303.703.303.292 0 .512-.08.66-.243.151-.162.26-.398.328-.709l-.01-.01zm1.882-.447c0-.803.224-1.429.673-1.877.448-.448 1.073-.672 1.874-.672.822 0 1.455.22 1.9.662.445.439.668 1.055.668 1.849 0 .576-.098 1.048-.293 1.417a2.073 2.073 0 0 1-.84.86c-.364.205-.82.307-1.366.307-.555 0-1.015-.088-1.38-.264a2.081 2.081 0 0 1-.884-.84c-.225-.382-.338-.862-.338-1.438l-.014-.004zm1.524.007c0 .497.092.854.276 1.072.185.217.436.326.754.326.328 0 .581-.107.762-.322.178-.214.267-.596.267-1.145 0-.464-.095-.802-.284-1.014-.187-.217-.441-.325-.761-.325-.31 0-.556.108-.741.325-.188.213-.281.572-.281 1.077l.008.006zm4.4-2.472h2.005l.775 2.996.77-2.996h2v4.924h-1.245v-3.755l-.964 3.755h-1.127l-.961-3.755v3.755H99.88v-4.924h-.002zm6.512 0h2.535c.552 0 .965.13 1.238.393.277.262.415.634.415 1.117 0 .497-.15.885-.451 1.164-.3.279-.756.418-1.37.418h-.835v1.829h-1.532V40.55v.006zm1.532 2.099h.373c.294 0 .5-.05.62-.15a.496.496 0 0 0 .178-.394.546.546 0 0 0-.155-.393c-.103-.108-.297-.162-.582-.162h-.435v1.099zm3.457-2.1h1.522v3.713h2.379v1.212h-3.905v-4.924h.004zm4.662 0h1.526v4.925h-1.53v-4.924h.004zm5.654 4.113h-1.74l-.24.813h-1.56l1.855-4.924h1.661l1.854 4.927h-1.593l-.244-.81.007-.006zm-.322-1.065l-.548-1.77-.544 1.77h1.092zm2.653-3.047h1.425l1.857 2.724v-2.724h1.438v4.924h-1.438l-1.847-2.704v2.705h-1.435v-4.926zm5.39 0h4.635v1.216h-1.556v3.708h-1.523v-3.707h-1.556v-1.217z"/>
            <path fill="#94A9C1" d="M65.512 42.914V30.14h-7.863v17.133c-1.089-.736-2.233-1.253-3.335-1.437v-.856c0-.066-.044-.09-.101-.056 0 0-.85.683-4.581 1.044-1.06.118-1.56.064-1.942 0-5.292-.888-5.546-4.758-5.546-4.758a2.689 2.689 0 0 1-.014-.233v-1.475c0-.065.007-.17.014-.233 0 0 .355-4.147 5.542-4.586h1.939c2.29.307 4.128 1.439 4.128 1.439l.013-.002c.054.033.102.006.102-.059v-5.19a.22.22 0 0 0-.105-.177s-1.032-.67-4.179-.857c-.169-.093-2.91-.107-3.667 0-11.437.915-11.86 9.171-11.86 9.549v2.004c0 .245 0 8.687 11.86 9.434 1.157.087 3.427 0 3.667 0h.052c.252 1.381.937 2.862 1.887 4.229l-33.81 10.635L.147 17.857l63.4-3.592 8.66 19.255h.001c-.982 1.351-3.925 5.41-6.697 9.394zm8.201 5.159l-.001-.003c.876-1.564 1.924-3.259 2.988-4.565l1.43 3.179-4.417 1.389zM61.58 28.177c2.654 0 4.805-2.025 4.805-4.523 0-2.498-2.153-4.522-4.806-4.522-2.655 0-4.806 2.025-4.806 4.524 0 2.498 2.151 4.523 4.806 4.523l.001-.002zm-49.332 22.37c0 .066.052.118.118.118h7.659a.117.117 0 0 0 .118-.115v-5.948c0-.062.052-.112.118-.11 0 0 12.227.882 12.227-7.31 0-6.463-7.671-7.171-10.197-7.053-.05.003-9.924 0-9.924 0a.121.121 0 0 0-.119.119v20.3zm7.76-10.599v-5.357h1.873s2.727.123 2.94 1.973c.051.145.038 1.05 0 1.101-.348 2.177-2.717 2.284-2.717 2.284l-2.09-.003-.007.002z"/>
            <path fill="#94A9C1" d="M61.796 60.522c.64 0 1.129 0 1.937-.358 2.792-1.465 12.19-24.369 22.1-31.414a.974.974 0 0 0 .188-.178.384.384 0 0 0 .066-.187s0-.47-1.47-.47c-8.824-.24-18 18.22-22.821 25.524-.061.081-.393 0-.393 0s-3.23-3.805-6.04-5.264a1.722 1.722 0 0 0-.71-.105c-.22 0-1.526.26-2.135.905-.717.757-.703 1.182-.697 2.104.004.074.051.382.14.537.686 1.199 3.822 5.5 6.39 7.874.4.284 1.005 1.037 3.448 1.037l-.003-.005zM88.44 21.809h7.342c1.448 0 2.615.196 3.502.587a5.691 5.691 0 0 1 2.215 1.689 6.955 6.955 0 0 1 1.265 2.557c.262.972.393 2.002.393 3.09 0 1.703-.196 3.028-.589 3.974-.385.936-.923 1.724-1.614 2.363-.691.63-1.433 1.05-2.226 1.26-1.084.288-2.066.432-2.946.432H88.44V21.803v.006zm4.942 3.614v8.722h1.209c1.033 0 1.767-.112 2.204-.337.436-.232.777-.63 1.023-1.196.247-.574.37-1.499.37-2.775 0-1.69-.277-2.848-.831-3.471-.553-.624-1.47-.936-2.75-.936h-1.233l.008-.007zm11.12 7.068l4.699-.294c.101.763.308 1.344.619 1.742.507.646 1.235.97 2.182.97.706 0 1.248-.164 1.624-.49.384-.333.576-.718.576-1.155 0-.412-.183-.781-.549-1.108-.365-.326-1.209-.633-2.53-.921-2.168-.487-3.714-1.133-4.64-1.939-.93-.803-1.396-1.83-1.396-3.079 0-.82.236-1.592.71-2.316.478-.732 1.194-1.305 2.149-1.72.96-.42 2.273-.63 3.938-.63 2.041 0 3.596.381 4.666 1.144 1.073.757 1.713 1.962 1.918 3.617l-4.659.273c-.124-.718-.387-1.24-.788-1.567-.395-.326-.94-.49-1.638-.49-.575 0-1.008.124-1.3.372-.292.24-.439.535-.439.881 0 .255.12.483.359.686.232.211.785.408 1.658.59 2.16.467 3.706.94 4.636 1.419.939.473 1.619 1.061 2.04 1.766.431.704.647 1.492.647 2.364a5.053 5.053 0 0 1-.853 2.833c-.568.864-1.361 1.52-2.378 1.97-1.016.44-2.297.659-3.846.659-2.72 0-4.604-.522-5.653-1.567-1.048-1.044-1.642-2.372-1.78-3.984l.027-.026zm15.763 0l4.7-.294c.1.763.307 1.344.618 1.742.508.646 1.235.97 2.183.97.706 0 1.247-.164 1.624-.49.386-.333.578-.718.578-1.155 0-.412-.182-.781-.548-1.108-.365-.326-1.209-.633-2.53-.921-2.168-.487-3.714-1.133-4.64-1.939-.93-.803-1.397-1.83-1.397-3.079 0-.82.236-1.592.708-2.316.48-.732 1.196-1.305 2.148-1.72.959-.42 2.271-.63 3.938-.63 2.042 0 3.597.381 4.666 1.144 1.076.757 1.716 1.962 1.919 3.617l-4.656.27c-.126-.718-.39-1.24-.788-1.567-.393-.327-.939-.49-1.638-.49-.575 0-1.008.124-1.3.372-.292.24-.44.535-.44.884 0 .255.12.483.36.686.232.211.785.408 1.657.59 2.161.464 3.708.936 4.64 1.416.935.472 1.615 1.06 2.04 1.766.428.704.642 1.492.642 2.363a5.067 5.067 0 0 1-.849 2.833c-.568.865-1.362 1.522-2.382 1.972-1.015.441-2.296.662-3.844.662-2.72 0-4.604-.523-5.653-1.57-1.047-1.045-1.64-2.373-1.78-3.985l.024-.023z"/>
        </g>
    </g>
</svg>
