<svg xmlns="http://www.w3.org/2000/svg" width="228" height="80" viewBox="0 0 228 80">
    <g fill="none" fill-rule="evenodd">
        <path fill="#F1F5F9" d="M-683-5920H683V872H-683z"/>
        <path d="M-683-296H683v496H-683z"/>
        <path d="M0 0h228v80H0z"/>
        <g fill="#94A9C1">
            <path d="M5.606 33.208L0 16.187h2.396l2.678 8.386c.738 2.296 1.376 4.368 1.834 6.363h.053c.484-1.972 1.198-4.12 1.961-6.34l2.907-8.41h2.37L8.055 33.209H5.606zM21.952 25.91c.03-1.415-.586-3.613-3.11-3.613-2.269 0-3.262 2.071-3.44 3.612h6.55zm-6.577 1.59c.052 3.007 1.988 4.243 4.233 4.243 1.607 0 2.574-.279 3.418-.632l.383 1.592c-.792.353-2.141.759-4.106.759-3.8 0-6.07-2.478-6.07-6.165s2.194-6.59 5.786-6.59c4.03 0 5.103 3.512 5.103 5.757 0 .453-.052.807-.078 1.037h-8.669zM25.88 24.797c0-1.437-.025-2.676-.1-3.814h1.963l.076 2.4h.101c.56-1.641 1.913-2.675 3.419-2.675.252 0 .435.026.635.074v2.098a3.34 3.34 0 0 0-.766-.078c-1.579 0-2.699 1.187-3.006 2.854a6.127 6.127 0 0 0-.105 1.037v6.515h-2.216v-8.411zM33.3 33.206h2.248V20.984H33.3v12.222zM35.8 17.549c.026.759-.537 1.365-1.428 1.365-.789 0-1.352-.606-1.352-1.365 0-.781.586-1.388 1.405-1.388.838 0 1.375.607 1.375 1.388zM38.479 33.208V22.676h-1.735v-1.693h1.735v-.58c0-1.716.383-3.282 1.427-4.268.842-.807 1.961-1.135 3.01-1.135.791 0 1.476.175 1.911.354l-.304 1.715c-.334-.152-.792-.276-1.43-.276-1.91 0-2.394 1.667-2.394 3.535v.655h2.98v1.693h-2.98v10.532h-2.22zM45.892 33.206h2.243V20.984h-2.243v12.222zm2.495-15.657c.03.759-.537 1.365-1.427 1.365-.79 0-1.352-.606-1.352-1.365 0-.781.589-1.388 1.404-1.388.838 0 1.375.607 1.375 1.388zM58.664 25.91c.023-1.415-.586-3.613-3.11-3.613-2.269 0-3.262 2.071-3.444 3.612h6.554zm-6.577 1.59c.052 3.007 1.987 4.243 4.233 4.243 1.607 0 2.573-.279 3.417-.632l.384 1.592c-.793.353-2.147.759-4.106.759-3.801 0-6.07-2.478-6.07-6.165s2.194-6.59 5.785-6.59c4.03 0 5.101 3.512 5.101 5.757 0 .453-.05.807-.078 1.037h-8.666zM71.007 25.96c0-.278-.026-.658-.102-.936-.33-1.414-1.558-2.575-3.238-2.575-2.321 0-3.696 2.02-3.696 4.725 0 2.474 1.221 4.517 3.647 4.517 1.5 0 2.878-.983 3.287-2.653.076-.3.102-.603.102-.957v-2.12zm2.246-10.681V30.05c0 1.086.023 2.322.098 3.159h-2.01l-.105-2.121h-.052c-.688 1.361-2.19 2.396-4.207 2.396-2.983 0-5.275-2.5-5.275-6.213-.027-4.066 2.524-6.563 5.533-6.563 1.883 0 3.16.884 3.72 1.868h.052v-7.297h2.246zM83.88 28.309c0 .275.053.554.105.807.432 1.54 1.73 2.6 3.363 2.6 2.347 0 3.749-1.893 3.749-4.695 0-2.448-1.278-4.546-3.67-4.546-1.53 0-2.958 1.034-3.419 2.727-.052.253-.128.555-.128.908v2.199zm-2.32 4.9a55.4 55.4 0 0 0 .1-3.159V15.279h2.22v7.676h.053c.789-1.362 2.216-2.247 4.207-2.247 3.06 0 5.225 2.525 5.202 6.236 0 4.368-2.78 6.54-5.533 6.54-1.787 0-3.215-.68-4.132-2.296h-.075l-.105 2.02H81.56zM95.791 20.983l2.7 7.225c.283.808.59 1.767.79 2.5h.052c.232-.733.485-1.67.793-2.552l2.446-7.173h2.373l-3.369 8.714c-1.604 4.193-2.701 6.34-4.23 7.653-1.097.957-2.194 1.336-2.753 1.44l-.563-1.871a5.892 5.892 0 0 0 1.964-1.087c.612-.48 1.375-1.336 1.89-2.474.1-.227.176-.402.176-.529 0-.126-.052-.304-.154-.58l-4.564-11.266h2.449zM37.217 41.548l-6.801 17.036-2.754-14.483c-.316-1.616-1.592-2.553-3.012-2.553H13.53l-.151.724c2.28.498 4.874 1.285 6.446 2.127.96.523 1.237.974 1.547 2.204l5.217 19.973H33.5l10.59-25.028h-6.873zM46.89 41.548l-5.402 25.028h6.537l5.393-25.028zM61.998 48.485c.02-.896.885-1.85 2.774-2.103.94-.118 3.516-.207 6.446 1.12l1.147-5.301c-1.57-.567-3.601-1.116-6.114-1.116-6.464 0-11.005 3.409-11.049 8.283-.034 3.598 3.25 5.61 5.722 6.81 2.548 1.222 3.407 2.006 3.39 3.113-.013 1.679-2.032 2.414-3.906 2.442-3.29.052-5.197-.876-6.72-1.574l-1.178 5.483c1.52.693 4.343 1.299 7.27 1.328 6.858 0 11.352-3.362 11.375-8.564.03-6.61-9.22-6.972-9.157-9.92M83.405 41.548a2.976 2.976 0 0 0-2.786 1.836l-9.804 23.192h6.868l1.363-3.738h8.366l.785 3.738h6.062l-5.272-25.028h-5.582zm-2.481 16.165l3.473-9.4 1.955 9.4h-5.428z"/>
        </g>
    </g>
</svg>
