<svg xmlns="http://www.w3.org/2000/svg" width="228" height="80" viewBox="0 0 228 80">
    <defs>
        <linearGradient id="a" x1="100%" x2="0%" y1="50%" y2="50%">
            <stop offset="0%" stop-color="#202229"/>
            <stop offset="100%" stop-color="#009DE0"/>
        </linearGradient>
    </defs>
    <g fill="none" fill-rule="evenodd">
        <path d="M0 0h228v80H0z"/>
        <g fill-rule="nonzero">
            <g fill="#009DE0">
                <path d="M117.95 24.728h10.74c1.607 0 3.022.195 4.241.582 1.217.388 2.236.943 3.053 1.663a6.932 6.932 0 0 1 1.85 2.589c.418 1.003.627 2.12.627 3.347 0 .832-.108 1.573-.325 2.227a6.107 6.107 0 0 1-.882 1.749 6.386 6.386 0 0 1-1.307 1.32 8.232 8.232 0 0 1-1.542.926v.077c.67.163 1.302.435 1.904.827.605.387 1.142.87 1.611 1.442a6.682 6.682 0 0 1 1.105 2.032c.266.776.4 1.632.4 2.566 0 1.39-.256 2.63-.765 3.712a7.918 7.918 0 0 1-2.152 2.771c-.926.765-2.036 1.346-3.319 1.75-1.286.4-2.705.6-4.263.6h-10.979l.003-30.18zm9.693 12.392c1.448 0 2.612-.315 3.482-.946.873-.63 1.308-1.544 1.308-2.747 0-1.259-.408-2.166-1.228-2.73-.82-.56-1.836-.838-3.04-.838h-4.188v7.261h3.666zm.32 12.658c1.903 0 3.245-.367 4.022-1.103.778-.736 1.169-1.64 1.169-2.71 0-.485-.082-.959-.242-1.429a3.274 3.274 0 0 0-.802-1.266c-.378-.374-.864-.676-1.448-.904-.594-.228-1.33-.339-2.215-.339h-4.47v7.754l3.986-.003zM154.628 52.208l-.088.03c-.965 1.255-2.082 2.108-3.356 2.565-1.27.453-2.51.679-3.71.679-.805 0-1.636-.106-2.496-.319a7.06 7.06 0 0 1-2.348-1.067 5.653 5.653 0 0 1-1.728-1.947c-.439-.807-.661-1.792-.661-2.973 0-.562.081-1.182.24-1.866.16-.684.535-1.332 1.126-1.948.585-.618 1.47-1.16 2.649-1.63 1.175-.466 2.77-.766 4.777-.898l5.343-.324v-.964c0-1.234-.355-2.15-1.068-2.752-.703-.605-1.704-.903-2.992-.903-1.206 0-2.141.277-2.81.829-.67.554-1.034 1.3-1.09 2.245h-5.54c.05-.805.247-1.632.579-2.474.338-.841.88-1.624 1.632-2.333.746-.707 1.725-1.292 2.93-1.748 1.203-.452 2.72-.685 4.538-.685 1.29 0 2.497.13 3.62.38 1.129.255 2.117.65 2.98 1.183a6.085 6.085 0 0 1 2.03 2.067c.499.839.747 1.85.747 3.029v11.95c0 .538.027 1.007.077 1.41.053.405.117.792.197 1.168h-5.58v-2.704h.002zm-.245-6.27l-4.826.438c-1.339.134-2.261.402-2.769.805-.512.398-.767.976-.767 1.726 0 .455.1.835.301 1.143.2.308.46.555.782.744.32.187.701.321 1.145.403.443.078.9.118 1.385.118.455 0 .958-.065 1.502-.2.551-.134 1.07-.34 1.552-.62a3.907 3.907 0 0 0 1.205-1.087c.318-.44.485-.966.485-1.584l.005-1.886zM175.502 42.355c0-.752-.099-1.38-.3-1.89-.2-.503-.475-.915-.824-1.222a3.201 3.201 0 0 0-1.166-.665 4.459 4.459 0 0 0-1.324-.2c-1.176 0-2.102.45-2.771 1.347-.67.897-1.007 2.05-1.007 3.469v11.713h-5.774v-20.64h5.53v2.707h.098c.857-1.256 1.792-2.115 2.812-2.568a8.005 8.005 0 0 1 3.29-.684c1.231 0 2.303.188 3.21.566.904.37 1.662.89 2.267 1.544a6.178 6.178 0 0 1 1.323 2.288 9.08 9.08 0 0 1 .421 2.789v14.003h-5.78V42.357h-.005v-.002zM189.4 44.802l-.086-.007V54.91h-5.773V24.728h5.773v18.584l.085-.002 6.232-9.043 6.707.016-6.907 9.3 7.192 11.326h-7.112z"/>
            </g>
            <path fill="#009DE0" d="M14.497 31.234c0 3.9-3.174 7.07-7.079 7.07a7.075 7.075 0 0 1-7.077-7.07c0-3.91 3.17-7.07 7.077-7.07 3.905 0 7.08 3.16 7.08 7.07m17.207 0c0-3.91-3.17-7.07-7.076-7.07a7.07 7.07 0 1 0 0 14.14c3.908-.002 7.076-3.168 7.076-7.07M14.497 48.429c0-3.904-3.174-7.066-7.079-7.066-3.907 0-7.077 3.162-7.077 7.066s3.17 7.07 7.077 7.07c3.905 0 7.08-3.165 7.08-7.07m17.207 0c0-3.904-3.17-7.066-7.076-7.066a7.069 7.069 0 0 0-7.073 7.066 7.073 7.073 0 0 0 7.073 7.07 7.073 7.073 0 0 0 7.076-7.07M198.884 44.491a2.826 2.826 0 0 1 .839-2.03c.26-.258.567-.464.913-.613a2.779 2.779 0 0 1 1.113-.226c.397 0 .772.077 1.12.226a2.876 2.876 0 0 1 1.75 2.643c0 .397-.077.767-.228 1.112a2.873 2.873 0 0 1-1.523 1.522 2.691 2.691 0 0 1-1.12.229c-.396 0-.768-.072-1.112-.23a2.88 2.88 0 0 1-1.53-1.522 2.797 2.797 0 0 1-.222-1.11zm5.312 0c0-.361-.062-.69-.194-.993a2.435 2.435 0 0 0-.507-.784c-.221-.22-.48-.39-.774-.519a2.505 2.505 0 0 0-.967-.187c-.351 0-.67.062-.968.187-.298.128-.552.301-.768.519-.22.217-.388.483-.516.784a2.612 2.612 0 0 0-.184.993 2.455 2.455 0 0 0 .7 1.771c.219.223.474.392.768.519.298.125.617.187.968.187a2.5 2.5 0 0 0 .967-.187c.298-.127.557-.3.774-.519a2.4 2.4 0 0 0 .507-.784c.13-.3.194-.633.194-.987zm-2.44.227h-.699v1.452h-.43v-3.388h1.332c.397 0 .693.079.882.234.194.16.29.397.29.717 0 .16-.029.299-.072.413a1.068 1.068 0 0 1-.197.292.922.922 0 0 1-.293.19 1.36 1.36 0 0 1-.328.089l.959 1.454h-.513l-.932-1.453zm.049-.38c.144 0 .269-.008.381-.026a.845.845 0 0 0 .282-.083.4.4 0 0 0 .173-.168.649.649 0 0 0 .06-.298.808.808 0 0 0-.049-.3.445.445 0 0 0-.152-.185.765.765 0 0 0-.239-.09 1.85 1.85 0 0 0-.315-.026h-.889v1.17h.748v.006z"/>
            <path fill="url(#a)" d="M37.917.728h6.025v30.18h-6.025V.729zM62.528 28.01l-.091.016c-.831 1.233-1.823 2.113-2.971 2.65-1.153.535-2.4.802-3.738.802-1.448 0-2.76-.3-3.94-.902a9.595 9.595 0 0 1-3.032-2.408c-.847-1.002-1.502-2.16-1.971-3.472a12.177 12.177 0 0 1-.702-4.133c0-1.446.221-2.819.662-4.113.443-1.3 1.073-2.45 1.893-3.452a8.925 8.925 0 0 1 2.993-2.388c1.176-.588 2.515-.885 4.017-.885 1.339 0 2.524.243 3.557.725 1.035.483 2.03 1.368 2.996 2.65h.079V.729h5.777v30.18H62.53l-.002-2.898zm-.05-7.368c0-.773-.105-1.524-.323-2.244a5.736 5.736 0 0 0-.983-1.924 4.856 4.856 0 0 0-1.648-1.343c-.657-.334-1.439-.5-2.35-.5-.831 0-1.561.17-2.192.52a5.093 5.093 0 0 0-1.586 1.366 5.906 5.906 0 0 0-.964 1.945 8.125 8.125 0 0 0-.322 2.264c0 .804.115 1.572.341 2.308a5.996 5.996 0 0 0 1.008 1.944 4.884 4.884 0 0 0 1.625 1.342c.644.334 1.393.5 2.254.5.828 0 1.558-.16 2.189-.482a4.775 4.775 0 0 0 1.606-1.324 6.08 6.08 0 0 0 1.006-1.964c.224-.75.34-1.55.34-2.408zm13.374 1.592c.052.62.197 1.219.422 1.795a5.31 5.31 0 0 0 .925 1.53c.389.438.87.804 1.443 1.086.58.283 1.254.422 2.035.422.881 0 1.691-.208 2.43-.62.735-.417 1.303-1.026 1.707-1.831l5.625.442c-.697 2.112-1.933 3.708-3.718 4.793-1.777 1.085-3.89 1.624-6.326 1.624-1.555 0-2.98-.253-4.28-.763-1.3-.509-2.41-1.237-3.335-2.189-.924-.947-1.647-2.085-2.169-3.41-.522-1.326-.781-2.817-.781-4.476 0-1.658.26-3.167.781-4.514.522-1.355 1.245-2.499 2.169-3.451a9.313 9.313 0 0 1 3.336-2.187c1.299-.507 2.724-.767 4.28-.767 1.554 0 2.977.255 4.28.767a9.286 9.286 0 0 1 3.333 2.18c.923.954 1.645 2.101 2.17 3.449.522 1.355.782 2.859.782 4.515v1.601l-15.11.004zm9.32-3.688A5.641 5.641 0 0 0 84.777 17a5.173 5.173 0 0 0-.89-1.424 4.314 4.314 0 0 0-1.367-1.04c-.535-.267-1.152-.403-1.843-.403-.753 0-1.41.121-1.972.363a4.586 4.586 0 0 0-1.445.96 4.346 4.346 0 0 0-.945 1.403 6.579 6.579 0 0 0-.462 1.687h9.32zm21.484 9.662l-.088.03c-.967 1.255-2.085 2.108-3.357 2.565-1.272.453-2.506.679-3.714.679-.8 0-1.634-.106-2.49-.319a7.069 7.069 0 0 1-2.35-1.067 5.653 5.653 0 0 1-1.728-1.947c-.439-.807-.661-1.792-.661-2.973 0-.562.081-1.182.24-1.866.16-.684.533-1.332 1.123-1.948.59-.618 1.473-1.16 2.655-1.63 1.174-.466 2.767-.766 4.776-.898l5.34-.324v-.964c0-1.234-.355-2.15-1.064-2.752-.708-.607-1.706-.906-2.992-.906-1.206 0-2.143.277-2.812.829-.67.553-1.03 1.299-1.086 2.245h-5.541a8.139 8.139 0 0 1 .583-2.474c.334-.842.874-1.624 1.627-2.333.75-.707 1.726-1.293 2.934-1.749 1.204-.45 2.716-.684 4.539-.684 1.287 0 2.492.13 3.616.38 1.13.255 2.119.65 2.977 1.183a6.037 6.037 0 0 1 2.034 2.067c.498.838.748 1.85.748 3.029v11.95c0 .538.026 1.007.076 1.41.05.405.118.792.197 1.168h-5.579l-.003-2.701zm-.25-6.27l-4.82.438c-1.34.134-2.267.402-2.774.805-.51.398-.764.976-.764 1.726 0 .455.099.835.3 1.143.2.308.462.555.784.744.319.187.701.321 1.147.403.442.078.905.118 1.383.118.457 0 .96-.065 1.507-.2a5.814 5.814 0 0 0 1.544-.62 3.9 3.9 0 0 0 1.208-1.087c.322-.44.484-.966.484-1.584l.001-1.886z" transform="translate(0 24)"/>
        </g>
    </g>
</svg>
