<svg xmlns="http://www.w3.org/2000/svg" width="228" height="80" viewBox="0 0 228 80">
    <g fill="none" fill-rule="evenodd">
        <path d="M0 0h228v80H0z"/>
        <path fill="#E1E32B" d="M0 79.868h159.855V39.934H0z"/>
        <path fill="#004B45" d="M0 39.934h159.855V0H0z"/>
        <path fill="#231F20" d="M20.814 55.638h.995l1.874 4.488 1.959-4.488h.995l1.186 7.061h-1.398l-.635-4.35-1.895 4.35h-.466l-1.81-4.35-.72 4.35H19.5zM29.284 62.7h1.377v-7.062h-1.377zM34.64 53.383c.223.592.816.614.954.614.137 0 .73-.022.953-.614l.952.38c-.275.72-.931 1.187-1.905 1.187s-1.631-.467-1.906-1.186l.952-.381zm-.782 2.255v4.7l3.874-4.7h.974v7.061H37.33v-4.721l-3.875 4.721h-.974v-7.061h1.377zM44.582 61.514h.657c1.101 0 1.313-.519 1.313-.922 0-.444-.244-.963-1.292-.963h-.678v1.885zm-1.375-5.876h4.086v1.185h-2.71v1.62h.953c.529 0 1.216.084 1.767.572.403.36.667.9.667 1.567 0 .477-.148.91-.392 1.26-.539.762-1.418.857-2.033.857h-2.338v-7.061zM53.01 60.095l-1.006-2.541-1.006 2.541h2.012zm.402 1.122h-2.848L49.94 62.7h-1.492l3.039-7.061h1.08l2.953 7.061h-1.482l-.625-1.482zM57.933 58.37h2.986v-2.732h1.376v7.061H60.92v-3.144h-2.986V62.7h-1.377v-7.061h1.377zM65.492 58.623l2.594-2.986h1.737l-2.986 3.261 3.145 3.801H68.16l-2.51-3.165-.158.159v3.006h-1.376v-7.062h1.376zM71.59 61.185c.466 0 .826.36.826.826 0 .466-.36.826-.826.826a.814.814 0 0 1-.826-.826c0-.466.36-.826.826-.826M77.572 55.638h.995l1.874 4.488 1.959-4.488h.995l1.186 7.061h-1.398l-.635-4.35-1.895 4.35h-.466l-1.81-4.35-.72 4.35h-1.398zM91.823 59.174c0-1.43-.974-2.446-2.35-2.446-1.377 0-2.351 1.016-2.351 2.446 0 1.43.974 2.434 2.35 2.434 1.377 0 2.35-1.005 2.35-2.434m1.419 0c0 2.149-1.546 3.684-3.769 3.684s-3.77-1.535-3.77-3.684c0-2.15 1.547-3.695 3.77-3.695s3.769 1.545 3.769 3.695M97.327 56.76c-.253 0-1.333.01-1.333 1.059 0 1.069 1.08 1.069 1.355 1.069h.402V56.76h-.424zm1.801 5.94h-1.377v-2.733h-.254l-1.8 2.732h-1.651l2.096-2.858a1.9 1.9 0 0 1-.773-.318c-.424-.307-.794-.89-.794-1.704 0-.773.329-1.314.7-1.641.55-.488 1.216-.54 1.81-.54h2.043v7.061zM105.003 58.623l2.594-2.986h1.737l-2.986 3.261 3.145 3.801h-1.821l-2.51-3.165-.159.159v3.006h-1.376v-7.062h1.376zM111.949 58.898h.56c.265 0 .604 0 .9-.222.255-.201.381-.519.381-.826a.973.973 0 0 0-.39-.804c-.287-.202-.647-.222-.976-.222h-.475v2.074zm.677-3.26c.794 0 1.345.085 1.864.54.57.508.72 1.196.72 1.704 0 .275-.043 1.037-.583 1.578-.392.391-.974.624-1.789.624h-.89V62.7h-1.376v-7.062h2.054zM119.762 60.095l-1.006-2.541-1.005 2.541h2.01zm.403 1.122h-2.85l-.623 1.482h-1.493l3.038-7.061h1.08l2.954 7.061h-1.482l-.624-1.482zM124.77 53.35c.339 0 .615.36.615.763 0 .402-.276.762-.615.762-.339 0-.614-.36-.614-.762 0-.403.275-.763.614-.763zm-1.461 9.35h1.377v-7.062h-1.377v7.061zm-.127-9.35c.338 0 .614.36.614.763 0 .402-.276.762-.614.762-.34 0-.614-.36-.614-.762 0-.403.275-.763.614-.763zM127.882 58.37h2.987v-2.732h1.375v7.061h-1.375v-3.144h-2.987V62.7h-1.375v-7.061h1.375zM137.845 60.095l-1.006-2.541-1.006 2.541h2.012zm.402 1.122H135.4l-.624 1.482h-1.493l3.039-7.061h1.08l2.953 7.061h-1.482l-.625-1.482z"/>
        <path fill="#FEFEFE" d="M26.034 26.166c-2.66 0-3.804-2.873-3.804-6.217 0-3.345 1.1-6.183 3.761-6.183 2.66 0 3.847 2.838 3.847 6.183 0 3.344-1.143 6.217-3.804 6.217m0-13.21c-4.464 0-6.648 3.13-6.648 6.993 0 3.862 2.184 6.993 6.648 6.993 4.464 0 6.648-3.131 6.648-6.993 0-3.863-2.184-6.994-6.648-6.994M52.008 25.682V13.3l-2.608.003-.012 12.379h-3.954V13.304h-2.625l-.003 12.365h-4.022V15.027c0-.87-.711-1.723-1.587-1.723h-2.213v.575c.584 0 1.169.575 1.169 1.15v11.59h15.916v3.424h1.17l.704-4.361h-1.935zM58.742 22.287l2.643-6.185 2.176 6.185h-4.819zm9.066 3.194c-.897-1.243-5.043-12.17-5.043-12.17l.003-.007h-1.293L55.361 26.62h1.438l1.523-3.395h5.615L65 25.566c.3.638.721 1.058 1.788 1.058h1.588v-.71c-.105 0-.41-.215-.567-.433zM101.05 22.287l2.642-6.185 2.176 6.185h-4.818zm9.065 3.194c-.897-1.243-5.042-12.17-5.042-12.17l.003-.007h-1.293L97.668 26.62h1.439l1.523-3.395h5.615l1.061 2.342c.3.638.722 1.058 1.788 1.058h1.588v-.71c-.105 0-.41-.215-.567-.433zM76.058 16.233l.042-.003 2.962 8.15c.322.772.717 1.194 1.233 1.393h-8.417l4.18-9.54zm7.183 9.54c-.404 0-.977-.552-1.336-1.294-1.31-2.71-4.478-11.175-4.478-11.175h-.002l-1.3-.017-5.676 12.395h-.792l.696 4.36h1.17V26.62h9.852v3.424h1.17l.696-4.27zM90.456 25.75H88.11v-5.296h2.371c2.031 0 2.605 1.27 2.605 2.425 0 1.072-.598 2.872-2.63 2.872m.521-6.234H88.11v-5.275h5.26l.005 3.388h1.085l.822-4.326-10.975-.005v.585c.584 0 1.17.576 1.17 1.15v11.59l5.5-.005c3.783 0 4.705-2.014 4.705-3.676 0-1.777-.922-3.426-4.705-3.426M121.476 13.304v6.213h-5.118V15.04c0-.869-.888-1.736-1.763-1.736h-2.15v.575c.585 0 1.17.575 1.17 1.15v11.59h2.743v-6.165h5.118v6.165h2.685V13.304h-2.685zM138.767 24.801c-1.263-1.3-4.762-5.2-4.762-5.2v-.105l5.466-6.2h-1.732l-5.48 6.2h-.886V15.04c0-.869-.888-1.736-1.762-1.736h-1.968v.575c.613 0 1.17.575 1.17 1.15v11.59h2.56v-6.085h.758c.615.785 3.898 4.845 3.898 4.845 1.006 1.158 2.182 1.435 3.375 1.435h1.059l.007-.747c-.311 0-.96-.502-1.703-1.266"/>
    </g>
</svg>
