<svg xmlns="http://www.w3.org/2000/svg" xmlns:xlink="http://www.w3.org/1999/xlink" width="228" height="80" viewBox="0 0 228 80">
    <defs>
        <path id="a" d="M1.255.51H16.37v12.823H1.255z"/>
        <path id="c" d="M0 34.714h203.586V.603H0z"/>
    </defs>
    <g fill="none" fill-rule="evenodd">
        <path d="M0 0h228v80H0z"/>
        <path fill="#5EBA46" d="M38.595 46.73h-5.021V29.06H51.64v17.67h-5.018V32.491h-8.028z"/>
        <g transform="translate(0 16.682)">
            <path fill="#5EBA46" d="M54.071 17.223v17.491h4.627v-5.986c1.549 1.675 4.074 1.796 4.683 1.796 4.409 0 7.115-2.798 7.115-6.867 0-4.238-2.671-6.913-7.024-6.913-1.095 0-3.225.179-4.99 2.021h-.092l.033-1.542H54.07zm4.411 6.388c0-3.582 2.222-4.29 3.62-4.29 1.37 0 3.591.708 3.591 4.29 0 2.222-.945 4.34-3.59 4.34-2.707 0-3.621-2.118-3.621-4.34zM81.964 28.505c-1.704 1.592-3.347 2.018-5.171 2.018-4.986 0-5.171-3.732-5.171-5.274v-8.025h4.624v7.422c0 2.547.881 3.305 2.588 3.305 2.916 0 3.13-2.6 3.13-3.533v-7.194h4.622v12.822h-4.622v-1.541zM93.216 24.646h2.828c2.193 0 2.644.652 2.644 1.512 0 .555-.302 1.312-2.585 1.312h-2.887v-2.824zm-4.623-7.422v12.822h9.183c3.348 0 5.66-.658 5.66-3.28 0-2.02-1.128-2.903-3.683-3.358v-.076c1.675-.225 3.134-1.26 3.134-3.002 0-3.106-3.649-3.106-5.08-3.106h-9.214zm4.623 2.577h2.495c1.306 0 2.43.2 2.43 1.26 0 1.16-1.762 1.186-2.523 1.186h-2.402v-2.446zM109.273 21.366c0-1.897 2.005-2.046 2.83-2.046.518 0 2.432.027 2.496 1.69v.356c-.093 1.26-1.312 1.005-4.716 1.436-2.8.378-5.749 1.086-5.749 4.012 0 1.06.458 3.71 5.383 3.71 1.887 0 3.953-.477 5.17-1.741h.094l.395 1.264h4.862v-.228c-.879-.177-.94-1.036-.909-2.425l.09-5.855c.033-1.486-.12-4.796-7.086-4.796-1.672 0-7.054.152-7.27 4.623h4.41zm5.353 3.38c0 2.575-2.248 3.205-3.375 3.205-.85 0-2.372-.276-2.372-1.488 0-1.442 1.731-1.717 2.709-1.846 1.79-.252 1.64-.173 3.038-.676v.805zM119.738 19.801v-2.578h14.84v2.578h-5.111v10.246h-4.621V19.801zM140.478 15.81h11.525V12.38H135.46v17.668h10.158c4.929 0 8.09-1.715 8.09-5.324 0-5.652-6.325-5.78-8.09-5.78h-5.14V15.81zm0 6.561h4.168c1.215 0 3.649.131 3.649 2.246 0 1.67-1.765 1.995-3.742 1.995h-4.075v-4.24zM159.73 21.366c0-1.897 2.007-2.046 2.826-2.046.52 0 2.437.027 2.497 1.69v.356c-.09 1.26-1.308 1.005-4.714 1.436-2.8.378-5.75 1.086-5.75 4.012 0 1.06.457 3.71 5.384 3.71 1.884 0 3.954-.477 5.17-1.741h.093l.394 1.264h4.869v-.228c-.886-.177-.947-1.036-.914-2.425l.09-5.855c.03-1.486-.123-4.796-7.088-4.796-1.672 0-7.054.152-7.268 4.623h4.412zm5.351 3.38c0 2.575-2.25 3.205-3.374 3.205-.853 0-2.374-.276-2.374-1.488 0-1.442 1.734-1.717 2.706-1.846 1.796-.252 1.644-.173 3.042-.676v.805zM176.275 30.047h-4.62V17.223h4.62v4.823h5.567v-4.823h4.624v12.824h-4.624v-5.43h-5.567z"/>
            <g transform="translate(187.215 16.714)">
                <mask id="b" fill="#fff">
                    <use xlink:href="#a"/>
                </mask>
                <path fill="#5EBA46" d="M10.925.51h5.144L9.711 6.515l6.66 6.817h-5.415L5.97 7.728h-.09v5.605H1.254V.509h4.623v5.148h.09z" mask="url(#b)"/>
            </g>
            <mask id="d" fill="#fff">
                <use xlink:href="#c"/>
            </mask>
            <path fill="#231F20" d="M0 30.09h11.582V18.56H0z" mask="url(#d)"/>
            <path fill="#5EBA46" d="M23.51 6.7v17.297h-2.362c-1.02-8.554-6.421-13.927-15.011-14.942V6.7h17.372zM.012.604v14.348h3.064c8.056 0 12.144 4.072 12.144 12.094v3.048h14.41V.604H.014z" mask="url(#d)"/>
        </g>
    </g>
</svg>
