<svg xmlns="http://www.w3.org/2000/svg" width="228" height="80" viewBox="0 0 228 80">
    <g fill="none" fill-rule="evenodd">
        <path d="M0 0h228v80H0z"/>
        <path fill="#CF333A" d="M39.859 0c21.85 0 39.738 17.892 39.738 39.702 0 21.974-17.889 39.746-39.738 39.746C17.933 79.44 0 61.676 0 39.702 0 17.892 17.933 0 39.859 0"/>
        <path fill="#FFF" d="M70.087 25.797h.375c-.127 1.168-.629 1.955-1.416 2.457-.92.502-1.917.787-3.453.787h-1.416c-5.16-.292-6.201 5.118-5.662 9.118.381 2.457 1.295 5.117 2.831 6.952 1.289 1.416 3.333 2.286 4.996.87 1.416-1.124 1.784-3.829 1.784-5.365 0-2.705-.997-6.953-4.368-6.953-.996 0-1.917.375-2.666 1.416-.54.75-.787 2.165-.787 3.581h-.628c-.42-3.333 1.123-6.031 4.621-6.158 4.114 0 6.659 3.333 6.659 7.447 0 4.12-2.54 7.988-6.78 7.988-2.209 0-3.999-.788-5.281-2.458-1.289-1.536-1.917-4.12-1.917-7.447 0-4.12.622-6.572 1.917-8.49 1.289-1.917 3.079-2.83 5.529-2.83h2.038c1.288.126 2.209 0 2.704-.122.38-.127.8-.374.92-.793M41.008 32.75l5.033 11.193 4.615-10.28.413-.92h3.828v.501h-.368c-.496 0-1.035.54-1.035 1.162v11.86c0 .623.54 1.124 1.035 1.124h.368v.42H49.66v-.42h.374c.495 0 1.041-.501 1.041-1.123v-10.94L45.42 47.943h-.292l-5.535-12.864v11.194c0 .622.501 1.124.997 1.124H41v.419h-3.866v-.42h.375c.54 0 1.04-.5 1.04-1.123v-11.86c0-.584-.336-1.162-1.167-1.124-.629 0-1.371.622-1.79 1.536L30.267 46.56c-.457.958-1.162 1.289-2.038 1.289l-1.206-.038s-.286-1.581-.247-1.581c.54.419.958.628 1.123.71.667.337 1.117-.082 1.333-.539l.667-1.498-4.787-9.943c-.54-1.042-.958-1.581-1.7-1.708v-.502h4.779v.502h-.413c-.374 0-.54.584-.247 1.162l3.618 7.74 3.415-7.493c.375-.749.083-1.333-.501-1.371v-.54h6.945zM19.037 42.902v-9.073h-6.824l.038.584V46.273c0 .622.502 1.124.997 1.124h.413v.419H8.379v-.42h.375c.54 0 1.034-.5 1.034-1.123V34.412c0-.622-.495-1.161-1.034-1.161h-.375v-.502h14.518v.502h-.362c-.546 0-1.041.54-1.041 1.162V46.273c0 .622.502 1.124 1.041 1.124h.375v.419h-5.282v-.42h.413c.501 0 .996-.5.996-1.123v-3.371z"/>
        <g fill="#77787B" fill-rule="nonzero">
            <path d="M105.42 25.111v.673l-.94.083-.279.228v9.067l.28.228.939.083v.673h-4v-.673l1.023-.083.279-.228v-9.289H97.39v9.295l.28.229 1.021.082v.673h-4v-.673l.94-.082.28-.229v-9.066l-.28-.229-.94-.083v-.673h10.729zM106.328 39.15l.907-.083.26-.26v-9.55h-1.167v-.508l1.923-.59h.628v.901c1.086-.825 1.79-.971 2.419-.971 1.612 0 3.142 1.2 3.142 3.835 0 1.593-.628 2.647-1.219 3.225-.64.629-1.548 1.054-2.799 1.054-.197 0-.705 0-1.549-.146v2.75l.28.26 1.053.082v.59h-3.878v-.59zm2.551-3.95c.578.248.972.28 1.22.28 1.923 0 2.862-1.563 2.862-3.36 0-1.593-.755-2.977-2.368-2.977-.64 0-1.314.298-1.707.527v5.53h-.007zM120.54 35.2c-1.269.908-2.075 1.105-2.697 1.105-1.48 0-2.108-1.118-2.108-2.153 0-1.231.889-1.746 1.663-2.057.59-.228 1.384-.495 3.143-.92v-.527c0-.642.082-1.829-1.448-1.829-.425 0-.888.102-1.301.248v1.384h-1.136c-.197 0-.508-.032-.508-.426 0-.87.889-1.923 3.288-1.923.38 0 1.384.019 1.955.622.508.546.527 1.384.527 1.727v4.768l.28.343h.87v.59h-2.305l-.222-.952zm0-3.454c-.704.197-1.624.495-2.202.756-.527.247-1.15.61-1.15 1.51 0 .61.312 1.366 1.315 1.366.425 0 .984-.134 2.038-.743v-2.889zM123.867 35.562l.889-.083.279-.26v-6.038l-.28-.26-.888-.083v-.59h3.618v.59l-.787.083-.28.26v6.216h3.39V29.18l-.279-.26-.787-.083v-.59h3.618v.59l-.888.083-.28.26v6.05l.197.166h1.067v3.06h-.838l-.299-2.038-.247-.26h-7.205zM137.769 31.644c.178-1.955 1.549-3.555 3.72-3.555 1.314 0 2.139.578 2.615 1.054.705.724 1.168 1.81 1.168 3.06 0 2.514-1.708 4.095-3.815 4.095-2.317 0-3.65-1.695-3.682-3.898h-1.872v2.813l.279.26.787.083v.59h-3.618v-.59l.888-.083.28-.26v-6.038l-.28-.26-.888-.083v-.59h3.618v.59l-.787.082-.28.26v2.47h1.867zm1.447.546c0 .508.051 1.385.425 2.153.56 1.136 1.448 1.232 1.81 1.232 1.942 0 2.272-2.483 2.272-3.372 0-1.676-.54-2.419-.704-2.616a2.092 2.092 0 0 0-1.581-.774c-1.58.006-2.222 1.695-2.222 3.377zM148.033 32.533c0 .394.299 2.781 2.73 2.781 1.149 0 2.152-.558 2.387-.704v.857c-1.397.743-2.336.838-2.946.838-2.202 0-3.713-1.581-3.713-4.045 0-3.238 2.317-4.165 4.145-4.165 2.006 0 2.514.622 2.514 1.384 0 .578-.425.807-.857.807-.362 0-.578-.146-.641-.197v-1.054a1.901 1.901 0 0 0-1.035-.28c-.559 0-1.301.102-1.904.89-.426.558-.66 1.415-.673 2.107h3.783v.788h-3.79v-.007zM157.397 28.241v.394l2.037 5.644 2.038-5.644v-.394h3.193v.59l-.889.083-.279.26v6.039l.28.26.888.083v.59h-3.618v-.59l.787-.083.28-.26v-6.299l-2.667 7.238h-.59l-2.698-7.238v6.299l.28.26.786.083v.59h-3.091v-.59l.888-.083.28-.26v-6.038l-.28-.26-.888-.083v-.59h3.263zM173.431 32.203c0 1.334-.507 2.337-1.136 2.99-.508.528-1.384 1.105-2.71 1.105-1.448 0-2.317-.673-2.78-1.187-.56-.61-1.035-1.562-1.035-2.914 0-2.12 1.18-4.114 3.846-4.114 2.387.006 3.815 1.854 3.815 4.12zm-5.427-2.628c-.508.673-.692 1.714-.692 2.615 0 .66.102 1.429.425 2.121.508 1.054 1.283 1.264 1.841 1.264.527 0 1.181-.312 1.695-1.067.508-.756.61-1.562.61-2.305 0-.692-.102-1.828-.724-2.635-.559-.705-1.232-.755-1.593-.755-.343.006-1.016.05-1.562.762zM102.119 45.244v.59l-.889.083-.28.26v6.052l.198.165h1.073v3.06h-.838l-.299-2.038-.247-.26h-5.46l-.247.26-.298 2.038h-.838v-3.06h.825c1.352-2.026 2.057-4.375 2.355-6.184l-.28-.299-1.021-.082v-.59h6.246v.005zM99.567 52.4V46h-1.549c-.349 1.911-1.149 4.457-2.253 6.4h3.802zM110.936 45.244v.59l-.889.083-.279.26v6.039l.28.26.888.083v.59h-3.618v-.59l.787-.083.28-.26V46h-1.81c-.05 1.2-.197 2.667-.444 3.784-.362 1.632-.838 2.4-1.18 2.794-.3.343-.775.724-1.43.724-.723 0-.9-.61-.9-.858 0-.38.196-.742.59-.94l1.034.693c.381-.464.788-1.168 1.118-2.762.197-1.003.33-2.286.362-3.225l-.28-.299-1.022-.082v-.59h6.513v.005zM119.373 45.835l-.89.082-.278.26v6.039l.279.26.889.083v.59h-3.619v-.59l.787-.083.28-.26v-2.584h-1.086c-.692 0-.984.463-1.231.952l-.94 2.038v.527h-2.304v-.59l.825-.115.28-.196.939-1.81c.165-.311.463-.825 1.168-1.067v-.031c-1.232-.064-2.057-.838-2.057-1.943 0-1.911 1.79-2.153 2.895-2.153h4.063v.59zm-2.546.216a6.162 6.162 0 0 0-1.035-.083c-.723 0-2.025.032-2.025 1.55 0 1.149.807 1.466 2.07 1.466.425 0 .704-.032.99-.063v-2.87zM128.437 42.114c.807 0 1.873.115 2.565.496.901.495 1.2 1.25 1.2 2.107 0 .642-.146 1.283-.756 1.79-.425.382-1.149.642-1.625.756v.032c.527.02 1.416.146 2.025.527.775.495 1.054 1.27 1.054 2.172 0 .704-.165 1.58-1.073 2.285-.971.775-2.387.87-3.237.87h-4.342v-.673l.94-.082.279-.229v-9.06l-.28-.229-.94-.082v-.673h4.19v-.007zm-1.498 5.003c.216.02.413.02.61.02 2.336 0 3.04-1.105 3.04-2.254 0-1.715-1.549-2.039-2.628-2.039-.463 0-.94.051-1.022.051v4.222zm0 5.213c.426.051.806.064 1.2.064 1.117 0 3.11-.083 3.11-2.369 0-.444-.063-1.104-.609-1.593-.622-.559-1.644-.59-2.107-.59-.464 0-1.25.063-1.594.1v4.388zM139.134 52.203c-1.27.908-2.076 1.105-2.698 1.105-1.48 0-2.108-1.118-2.108-2.152 0-1.232.889-1.746 1.663-2.058.59-.228 1.384-.495 3.143-.92v-.527c0-.641.082-1.829-1.448-1.829-.425 0-.888.102-1.301.248v1.384h-1.136c-.197 0-.508-.032-.508-.425 0-.87.889-1.924 3.288-1.924.381 0 1.384.019 1.955.622.508.546.527 1.384.527 1.727v4.768l.28.343h.87v.59h-2.305l-.222-.952zm0-3.454c-.705.197-1.625.495-2.203.756-.527.247-1.15.61-1.15 1.51 0 .61.312 1.366 1.315 1.366.425 0 .984-.133 2.038-.743V48.75zM148.954 52.463c-1.25.743-2.108.839-2.666.839-2.152 0-3.714-1.499-3.714-4.096 0-2.565 1.562-4.114 3.98-4.114 1.79 0 2.387.889 2.387 1.55 0 .545-.362.9-.889.9-.177 0-.495-.05-.774-.228v-1.346a1.52 1.52 0 0 0-.825-.216c-.394 0-1.054.115-1.594.756-.545.641-.774 1.632-.774 2.552 0 .54.032 3.257 2.761 3.257.857 0 1.613-.38 2.108-.704v.85z"/>
        </g>
    </g>
</svg>
