<svg xmlns="http://www.w3.org/2000/svg" width="228" height="80" viewBox="0 0 228 80">
    <g fill="none" fill-rule="evenodd">
        <path d="M0 0h228v80H0z"/>
        <path fill="#000" fill-rule="nonzero" d="M0 17.803h46.191v46.191H0z"/>
        <path fill="#FFF200" d="M1.336 19.138h43.519v43.52H1.336z"/>
        <path fill="#000" fill-rule="nonzero" d="M3.645 53.865l5.677 5.787 13.301-13.495L36.369 59.93l5.76-5.704L28.521 40.62l2.616-2.532V32.69l1.642-1.391v4.229l2.115 1.725 6.316-6.316 2.031 1.558c1.197-4.424-5.732-14.469-11.464-8.904l-6.679 6.622 1.364 1.642-3.395 3.311-3.283-3.228 1.725-1.559-7.318-7.067c-5.509-4.536-11.158 2.366-11.353 9.099l2.003-1.669 6.149 6.623 2.198-1.836v-4.063l1.363 1.029v5.315l2.671 2.671L3.645 53.865zM53.092 19.361v.001h7.18c6.261.083 8.487 7.986 2.532 10.88l5.147 7.262h-5.788l-4.174-5.899v5.899h-4.897V19.361zm4.897 3.979v4.007h1.725c2.365-.445 1.725-3.84 0-4.007h-1.725zm16.723 1.085a6.3 6.3 0 0 1 3.617 1.168v-.695h4.786l.028 12.605h-4.842l.028-.779a6.278 6.278 0 0 1-3.617 1.141c-3.562 0-6.483-3.005-6.483-6.706 0-3.701 2.922-6.734 6.483-6.734zm1.03 4.007c-1.586 0-2.894 1.224-2.894 2.727 0 1.502 1.308 2.727 2.894 2.727 1.613 0 2.921-1.225 2.921-2.727 0-1.503-1.307-2.727-2.921-2.727zm9.934-3.534h5.092v12.605h-5.092V24.898zm2.559-7.207c1.476 0 2.672 1.224 2.672 2.699 0 1.475-1.196 2.699-2.672 2.699a2.702 2.702 0 0 1-2.699-2.699 2.703 2.703 0 0 1 2.699-2.699zm38.651 7.207h5.092v12.605h-5.092V24.898zm2.532-7.207a2.701 2.701 0 0 1 2.699 2.699 2.701 2.701 0 0 1-2.699 2.699c-1.475 0-2.671-1.225-2.671-2.699 0-1.474 1.196-2.699 2.671-2.699zm-37.704 7.207v4.007h1.753v8.598h4.926v-8.598h4.619v8.598h5.092V28.85h3.172v-3.896h-3.312v-2.81c-.083-1.029 2.338-1.447 3.173-.612v-4.119c-4.675-1.475-8.459 1.169-8.432 5.259v2.226h-4.341v-2.754c-.056-1.029 2.06-1.447 3.283-.612v-4.119c-4.063-1.196-8.403.779-8.375 5.231v2.226l-1.558.028zm26.824 12.967c4.369-.028 5.982-1.836 6.929-4.48h-4.424c-2.004 2.56-4.926.696-4.786-1.391h9.35c0-5.12-2.728-7.541-7.068-7.541s-7.067 3.061-7.067 6.79 3.171 6.65 7.066 6.622zm-1.642-8.848c.056-1.531 3.395-1.531 3.617 0h-3.617zm36.313 8.848c4.396-.028 6.011-1.836 6.956-4.48h-4.452c-2.003 2.56-4.925.696-4.785-1.391h9.35c0-5.12-2.699-7.541-7.068-7.541-4.341 0-7.067 3.061-7.067 6.79s3.17 6.65 7.066 6.622zm-1.642-8.848c.056-1.531 3.395-1.531 3.617 0h-3.617zm-6.761-3.868l-1.503 3.061c-1.892-.585-3.729-.473-3.673.055.056.334-.25.918 2.699 1.336 4.396.695 4.035 8.876-3.339 8.264-2.031-.139-3.673-.668-5.036-1.475l1.642-3.284c2.31 1.141 4.535 1.809 4.702.668.195-1.419-2.421-.918-4.007-2.115-2.838-1.753-1.225-7.179 3.423-7.235 1.641-.11 3.339.168 5.092.725zm17.419-.251h4.563v.946c4.202-2.81 8.849-.667 8.96 3.757v7.902h-4.813v-7.708c-.028-2.254-3.812-1.92-3.951 0v7.708h-4.759V24.898zM55.902 45.211l7.903-.083c3.979.056 5.871 5.203 2.17 8.626 4.341 2.588 1.837 10.156-4.257 10.156H52.73l3.172-18.699zm3.645 11.158l-.64 3.089h2.087c2.365.111 2.087-3.089.724-3.089h-2.171zm1.057-6.706l-.528 2.505.64.027c1.92.111 3.033-2.532.723-2.532h-.835zm7.402 14.275l9.711-18.616h5.148l4.368 18.672h-5.036l-.918-3.34h-6.177l-1.642 3.284h-5.454zm8.877-7.207h3.395l-1.085-4.926-2.31 4.926zm12.076 7.263h5.037l1.279-11.715 7.207 11.659h5.398l2.254-18.728h-5.036l-1.419 11.715-7.208-11.771h-5.203l-2.309 18.84zm24.793-18.839l-3.534 18.783h5.315l1.419-7.013 4.758 7.013h6.984l-6.817-9.851 8.71-8.96h-6.762l-5.955 6.622.946-6.622-5.064.028z"/>
    </g>
</svg>
