<?xml version="1.0" encoding="UTF-8"?>
<svg id="a" data-name="Layer 2" xmlns="http://www.w3.org/2000/svg" viewBox="0 0 228 69.84">
  <rect width="228" height="69.84" rx="16" ry="16" fill="#3600ff"/>
  <g>
    <path d="m44.17,43.11c-3.64,0-6.34-2.51-6.69-6.07h14.31c1.59-6.3-1.93-11.02-8.24-11.02-5.34,0-9.71,4.6-9.71,10.25s4.45,10.25,10.33,10.25c4.45,0,7.85-2.28,9.4-5.76l-2.98-1.86c-.93,2.51-3.17,4.22-6.42,4.22Zm-.62-13.81c3.29,0,5.22,1.93,5.15,4.8h-11.03c.66-3.02,2.82-4.8,5.88-4.8Z" fill="#fff"/>
    <path d="m66.1,26.01c-2.59,0-4.76,1.2-6.31,2.86v-2.28h-3.48v19.34h3.48v-10.17c0-3.4,2.32-6.34,6.11-6.34,3.17,0,5.07,2.01,5.07,4.91v11.6h3.48v-11.91c0-5.14-3.21-8.01-8.36-8.01Z" fill="#fff"/>
    <path d="m106.77,46.51c4.45,0,7.85-2.28,9.4-5.76l-2.98-1.86c-.93,2.51-3.17,4.22-6.42,4.22-3.64,0-6.34-2.51-6.69-6.07h14.31c1.59-6.3-1.93-11.02-8.24-11.02-5.34,0-9.71,4.6-9.71,10.25s4.45,10.25,10.33,10.25Zm-.62-17.21c3.29,0,5.22,1.93,5.15,4.8h-11.03c.66-3.02,2.82-4.8,5.88-4.8Z" fill="#fff"/>
    <path d="m85.73,29.33c2.24,0,4.18.58,6.38,2.32l.1-.33,1.85-5.07-2.86-.93-.52,2.06c-1.41-.74-3.09-1.33-4.92-1.33-4.68,0-7.27,2.17-7.27,5.42s2.82,4.8,7.2,6.19c3.56,1.08,4.57,2.13,4.57,3.13,0,1.62-1.59,2.55-3.83,2.55-2.9,0-5.38-1.47-6.69-3.71l-2.67,2.2c1.62,2.63,4.87,4.72,9.21,4.72,5.11,0,7.58-2.71,7.58-6.11,0-2.24-1.51-4.1-7.27-6-2.59-.89-4.49-1.39-4.49-3.06,0-1.2.81-2.05,3.64-2.05Z" fill="#fff"/>
    <path d="m23.14,29.32c2.24,0,4.18.58,6.38,2.32l.1-.33,1.85-5.07-2.86-.93-.52,2.06c-1.41-.74-3.09-1.33-4.92-1.33-4.68,0-7.27,2.17-7.27,5.42s2.82,4.8,7.2,6.19c3.56,1.08,4.57,2.13,4.57,3.13,0,1.62-1.59,2.55-3.83,2.55-2.9,0-5.38-1.47-6.69-3.71l-2.67,2.2c1.62,2.63,4.87,4.72,9.21,4.72,5.11,0,7.58-2.71,7.58-6.11,0-2.24-1.51-4.1-7.27-6-2.59-.89-4.49-1.39-4.49-3.06,0-1.2.81-2.05,3.64-2.05Z" fill="#fff"/>
    <path d="m146.92,36.29c0,5.86-4.19,10.28-9.78,10.28-2.48,0-4.66-1.09-6.32-2.75v2.17h-3.49v-27h3.49v9.78c1.67-1.67,3.84-2.75,6.32-2.75,5.59,0,9.78,4.42,9.78,10.28Zm-3.65,0c0-4-2.64-6.87-6.29-6.87s-6.29,2.87-6.29,6.87,2.64,6.87,6.29,6.87,6.29-2.87,6.29-6.87Z" fill="#fff"/>
    <path d="m168.81,42.48c-.14,0-.28-.02-.39-.06-.38-.13-.61-.48-.61-.98l.43-5.12.18-1.79.78-7.95h-3.46l-.26,2.97s0,0,0,0c-.02-.03-.04-.06-.06-.09-.25-.37-.54-.69-.87-.99-1.59-1.42-3.59-2.33-5.84-2.33-5.54,0-9.69,4.38-9.69,10.19s4.15,10.19,9.69,10.19c2.42,0,4.54-1.04,6.18-2.64.03.24.05.34.12.52.01.03.01.04.01.04.19.36.42.67.74.9.38.29.86.48,1.42.56.22.03.44.05.68.05h1.85v-3.46h-.89Zm-9.97.66c-3.62,0-6.23-2.85-6.23-6.81s2.62-6.81,6.23-6.81,6.23,2.85,6.23,6.81-2.62,6.81-6.23,6.81Z" fill="#fff"/>
    <path d="m183.15,26.01c-2.59,0-4.76,1.2-6.31,2.86v-2.28h-3.48v19.34h3.48v-10.17c0-3.4,2.32-6.34,6.11-6.34,3.17,0,5.07,2.01,5.07,4.91v11.6h3.48v-11.91c0-5.14-3.21-8.01-8.36-8.01Z" fill="#fff"/>
    <polygon points="202.46 35.95 212.48 26.59 207.92 26.59 199.02 34.94 199.02 18.97 195.54 18.97 195.54 45.92 199.02 45.92 199.02 37.42 208.46 45.92 213.52 45.92 202.46 35.95" fill="#fff"/>
  </g>
</svg>