<svg xmlns="http://www.w3.org/2000/svg" width="228" height="80" viewBox="0 0 228 80">
    <g fill="none" fill-rule="evenodd">
        <path d="M0 0h228v80H0z"/>
        <g fill-rule="nonzero">
            <path fill="#373F5F" d="M141.059 23.724a.575.575 0 0 0-.663.535s-.842 1.975-2.33 2.737c-.679.347-.965.53-2.508.486h-7.764c-4.198-.299-4.632-4.69-4.632-4.69 0-.535-.057-1.247-.057-1.552v-4.985c.114-4.49 3.598-5.522 3.598-5.522a6.526 6.526 0 0 1 1.649-.16h7.766c3.522.115 4.45 3.958 4.45 3.958.105.275.36.465.655.484h14.105a.545.545 0 0 0 .541-.548v-1.51C155.66 2.52 146.175-.007 144.206.04c-.53 0-1.263-.04-1.568-.04h-21.933c-6.678.03-10.465 4.954-11.81 8.33a11.141 11.141 0 0 0-.788 3.293c-.027.61-.078 1.59-.078 1.895v11.579c.607 11.046 10.19 12.899 11.63 12.947.484.017 1.295.047 1.596.047h21.928c10.017-.535 12.602-9.314 12.644-12.123 0-.814.028-1.13.028-1.431v-.249a.55.55 0 0 0-.541-.557l-14.255-.007zM55.461.987c.154-.265.032-.471-.267-.471H.608a.543.543 0 0 0-.545.539v10.5a.545.545 0 0 0 .545.548h13.386a.545.545 0 0 1 .543.548v24.326a.55.55 0 0 0 .547.547h21.07a.55.55 0 0 0 .547-.547V12.659a.543.543 0 0 1 .541-.547h11.05c.333-.022.637-.196.824-.472L55.46.987zM64.27.524c-.344.017-.67.16-.912.404 0 0-9.684 9.624-9.653 23 .01 8.264 3.39 13.165 3.39 13.165.225.255.542.411.882.433H71.78c.299 0 .387-.19.198-.42 0 0-4.453-5.674-4.373-13.388.066-6.918 4.15-11.263 4.15-11.263.217-.26.532-.417.87-.436H81.3a.543.543 0 0 1 .543.545v24.421c0 .303.245.548.548.548h19.627a.55.55 0 0 0 .552-.548V1.063a.547.547 0 0 0-.552-.539h-37.75z"/>
            <path fill="#C64D4F" d="M67.606 23.724a21.72 21.72 0 0 0 .432 4.329H96.22l3.703-5.828H67.672c-.04.484-.066.986-.066 1.497M68.598 17.926a17.926 17.926 0 0 0-.855 3.567h32.649l2.267-3.567H68.598z"/>
            <path fill="#373F5F" d="M0 43.535c0-.3.242-.543.541-.546h154.714a.55.55 0 0 1 .545.546v14.49a.545.545 0 0 1-.545.548H.54A.541.541 0 0 1 0 58.025v-14.49z"/>
            <path fill="#FFF" d="M14.4 47.808h-2.343v8.021h-1.548v-8.02H8.158V46.52H14.6l-.2 1.288zM25.375 52.088a72.081 72.081 0 0 1-1.103-4.031c-.392 1.396-.798 2.737-1.18 4.031h2.283zm1.103 3.741l-.756-2.448h-3.01l-.75 2.45h-1.604l3.048-9.311h1.786l2.972 9.31h-1.686zM39.28 55.964a3.655 3.655 0 0 1-2.947-1.347c-.7-.842-1.07-1.981-1.07-3.28a5.878 5.878 0 0 1 .632-2.815 3.848 3.848 0 0 1 3.43-2.137c.907 0 1.763.268 2.315.729l-.716 1.006a2.547 2.547 0 0 0-1.587-.526 2.065 2.065 0 0 0-1.853 1.122c-.324.562-.486 1.343-.486 2.436 0 1.092.12 1.76.362 2.286a2.17 2.17 0 0 0 2.074 1.314 2.444 2.444 0 0 0 1.665-.588l.728.98c-.73.555-1.629.846-2.547.822M56.448 47.459l-.42.11a.981.981 0 0 0-.527.231 1.419 1.419 0 0 0-.284.602l-.24.966c-.09.394-.173.781-.55 1.133-.189.172-.413.3-.656.377v.027c.212.074.41.187.58.333.298.291.503.664.59 1.071l.421 1.493c.042.242.15.468.31.655.164.136.358.233.566.282l.404.12-.284 1.099-.51-.061c-.444-.04-1.052-.122-1.473-.52-.35-.356-.421-.821-.497-1.213l-.31-1.431c-.067-.276-.172-.678-.433-.91a1.322 1.322 0 0 0-.914-.286h-.886v4.295h-1.546V46.52h1.546v3.754h1.02c.342.03.681-.077.944-.297.24-.242.305-.61.373-.874l.256-1.137a2.03 2.03 0 0 1 .497-1.052c.318-.314.661-.354 1.2-.432l.55-.08.297 1.053-.024.004zM67.672 47.568c-1.605 0-2.198 1.264-2.198 3.487 0 2.393.61 3.724 2.235 3.724 1.386 0 2.106-1.023 2.106-3.526 0-2.264-.47-3.685-2.133-3.685m.038 8.396c-2.65 0-3.958-2.048-3.958-4.8 0-3.057 1.56-4.78 3.89-4.78 2.624 0 3.885 2.081 3.885 4.789 0 2.907-1.402 4.791-3.82 4.791M87.31 55.83l-.434-5.771a36.952 36.952 0 0 1-.065-1.613c-.066.306-.188.895-.363 1.489l-1.699 5.894h-1.315l-1.548-5.64a22.76 22.76 0 0 1-.408-1.76c0 .31-.05 1.203-.086 1.773l-.421 5.627h-1.518l.842-9.309h2.059l1.425 5.263c.142.523.256 1.053.343 1.588.046-.283.166-.918.343-1.56l1.474-5.3h2.059l.825 9.31-1.514.008zM100.038 54.558c.7 0 1.107-.21 1.32-.421.282-.298.43-.7.406-1.11.028-.41-.12-.812-.406-1.107-.369-.341-.9-.406-1.32-.406h-1.316v3.035l1.316.009zm2.737-8.036l-.21 1.263h-3.85v2.466h1.287c.703 0 1.895 0 2.724.808.655.646.752 1.518.752 2.046.037.68-.2 1.345-.657 1.849-.773.802-1.983.865-2.882.865h-2.773V46.52l5.609.002zM115.6 52.088a70.24 70.24 0 0 1-1.101-4.031 192.323 192.323 0 0 1-1.19 4.031h2.291zm1.097 3.741l-.754-2.45h-3.012l-.754 2.45h-1.598l3.055-9.309h1.79l2.972 9.31h-1.7zM130.625 55.83v-4.31h-3.174v4.31h-1.548v-9.31h1.548v3.739h3.174V46.52h1.543v9.31h-1.543zM147.467 47.459l-.433.11a.962.962 0 0 0-.52.231c-.146.173-.244.38-.285.602l-.248.966c-.09.394-.173.781-.554 1.133-.186.174-.409.303-.652.377v.027c.214.073.413.186.585.333.3.29.503.663.585 1.071l.421 1.493c.041.243.15.47.312.655.164.138.358.234.566.282l.402.12-.284 1.099-.51-.061c-.444-.04-1.063-.122-1.473-.52-.35-.356-.421-.821-.501-1.213l-.307-1.431c-.068-.276-.173-.678-.422-.91a1.326 1.326 0 0 0-.915-.286h-.889v4.295h-1.547V46.52h1.547v3.754h1.02c.341.03.681-.077.944-.297.202-.252.332-.554.375-.874l.261-1.137c.055-.393.228-.76.497-1.052.31-.314.657-.354 1.192-.432l.558-.08.296 1.053-.02.004z"/>
            <path fill="#373F5F" d="M13.213 71.724c.004.485-.067.968-.21 1.432a3.307 3.307 0 0 1-.599 1.12c-.258.31-.582.56-.95.728a3.196 3.196 0 0 1-1.35.261H8.955v4.295a.21.21 0 0 1-.021.095.154.154 0 0 1-.068.07.497.497 0 0 1-.126.043.964.964 0 0 1-.21.017.977.977 0 0 1-.198-.017.493.493 0 0 1-.13-.044.156.156 0 0 1-.07-.07.21.21 0 0 1-.021-.094V69.042a.566.566 0 0 1 .13-.42.385.385 0 0 1 .253-.119h1.796c.173 0 .347.01.52.03.2.027.398.07.591.13.252.08.486.206.69.373.238.185.44.41.599.667.17.28.298.585.378.903.096.365.144.741.144 1.118zm-.882.095a3.038 3.038 0 0 0-.226-1.236 1.895 1.895 0 0 0-.55-.756 1.587 1.587 0 0 0-.675-.311 3.67 3.67 0 0 0-.665-.065H8.952v4.875h1.202c.333.01.665-.053.97-.187.257-.121.483-.299.661-.52.186-.236.324-.505.407-.794.097-.33.144-.673.14-1.017l-.001.01zM21.802 79.366a.653.653 0 0 1 .038.21.181.181 0 0 1-.048.127.24.24 0 0 1-.137.057c-.078.01-.157.014-.236.013a1.598 1.598 0 0 1-.23-.013.421.421 0 0 1-.132-.04.173.173 0 0 1-.072-.07.632.632 0 0 1-.044-.103l-.842-2.993h-3.886l-.807 2.977a.335.335 0 0 1-.04.103.24.24 0 0 1-.075.073.404.404 0 0 1-.133.049c-.07.012-.14.018-.21.017-.081.001-.161-.005-.24-.017a.265.265 0 0 1-.142-.061.17.17 0 0 1-.048-.122c0-.072.013-.143.038-.21l3.095-10.68a.27.27 0 0 1 .166-.192.682.682 0 0 1 .158-.038c.07-.01.14-.014.21-.013.07 0 .141.004.21.013.055.006.108.019.159.038.04.015.076.04.103.073a.347.347 0 0 1 .059.118l3.086 10.684zm-3.67-9.734l-1.673 6.037h3.381l-1.707-6.037zM28.284 76.634c.004.433-.061.863-.193 1.275-.123.38-.325.73-.592 1.028-.275.3-.613.534-.99.686a3.615 3.615 0 0 1-1.393.246 3.217 3.217 0 0 1-.8-.09 3.09 3.09 0 0 1-.609-.21 2.768 2.768 0 0 1-.39-.226 1.343 1.343 0 0 1-.186-.156.482.482 0 0 1-.078-.113.514.514 0 0 1-.04-.135c0-.053-.017-.114-.024-.187-.006-.074 0-.156 0-.247a.886.886 0 0 1 .034-.299.112.112 0 0 1 .103-.082.432.432 0 0 1 .23.118c.098.079.226.17.385.274.185.116.385.208.594.273.277.085.565.125.854.118.31.004.617-.05.906-.16.533-.199.956-.615 1.164-1.145.112-.285.168-.59.164-.897a2.842 2.842 0 0 0-.154-.953 2.07 2.07 0 0 0-.45-.746 2.038 2.038 0 0 0-.73-.486 2.644 2.644 0 0 0-.988-.173h-1.086a.221.221 0 0 1-.114-.025.21.21 0 0 1-.076-.082.442.442 0 0 1-.044-.143 1.408 1.408 0 0 1 0-.41.493.493 0 0 1 .044-.148.221.221 0 0 1 .078-.09c.033-.02.071-.031.11-.03h.991c.297.003.592-.045.872-.143.257-.089.49-.233.686-.421.197-.196.35-.431.449-.69.112-.303.166-.624.16-.946a2.606 2.606 0 0 0-.11-.777 1.615 1.615 0 0 0-.328-.598 1.461 1.461 0 0 0-.544-.38 1.96 1.96 0 0 0-.755-.136 2.413 2.413 0 0 0-.802.123c-.207.07-.405.16-.594.269a4.402 4.402 0 0 0-.421.278.514.514 0 0 1-.26.13.093.093 0 0 1-.064-.02.168.168 0 0 1-.042-.074.617.617 0 0 1-.024-.14v-.21-.168c.005-.052.012-.104.021-.156a.72.72 0 0 1 .038-.135.488.488 0 0 1 .072-.122c.072-.074.154-.138.242-.191.152-.098.314-.181.482-.247.213-.087.433-.157.657-.21.253-.062.512-.095.773-.1a2.68 2.68 0 0 1 1.096.211c.3.13.569.326.784.573.214.253.374.549.467.867.106.358.157.729.154 1.101a3.61 3.61 0 0 1-.141 1.053c-.083.283-.21.552-.38.794a2.08 2.08 0 0 1-.549.539 1.863 1.863 0 0 1-.646.273v.017a2 2 0 0 1 .772.308c.247.163.461.37.632.612.185.265.327.558.421.868.108.344.163.702.162 1.063zM37.665 73.979c.008.818-.073 1.634-.242 2.434a5.827 5.827 0 0 1-.728 1.856 3.602 3.602 0 0 1-4.632 1.207 3.177 3.177 0 0 1-1.162-1.129 5.434 5.434 0 0 1-.67-1.791c-.149-.786-.22-1.585-.21-2.385a11.05 11.05 0 0 1 .24-2.394c.133-.65.38-1.272.728-1.836.305-.486.726-.89 1.224-1.175a3.438 3.438 0 0 1 1.724-.42 3.383 3.383 0 0 1 1.667.389c.477.268.878.654 1.164 1.12.331.545.563 1.144.685 1.77.152.775.224 1.564.212 2.354zm-.888.095a11.267 11.267 0 0 0-.148-1.87 5.088 5.088 0 0 0-.484-1.518 2.667 2.667 0 0 0-.899-1.014 2.472 2.472 0 0 0-1.387-.369 2.39 2.39 0 0 0-1.383.385 2.905 2.905 0 0 0-.916 1.036c-.249.476-.42.988-.505 1.518a10.497 10.497 0 0 0-.154 1.832 12.12 12.12 0 0 0 .141 1.894c.076.532.236 1.05.474 1.53.204.413.512.764.895 1.02.42.258.907.387 1.4.368.496.018.985-.12 1.4-.393.386-.272.7-.633.915-1.053.246-.482.414-1 .5-1.535.102-.605.153-1.218.15-1.831zM49.238 79.547a.221.221 0 0 1-.021.095.152.152 0 0 1-.072.07.564.564 0 0 1-.13.044.968.968 0 0 1-.21.017.937.937 0 0 1-.192-.017.493.493 0 0 1-.13-.044.154.154 0 0 1-.07-.07.221.221 0 0 1-.021-.095V69.423h-.015l-3.478 10.185a.21.21 0 0 1-.042.066.21.21 0 0 1-.076.052.524.524 0 0 1-.114.036.798.798 0 0 1-.153.013.895.895 0 0 1-.165-.013.455.455 0 0 1-.1-.038.227.227 0 0 1-.072-.052.135.135 0 0 1-.034-.066l-3.307-10.185v10.124a.221.221 0 0 1-.021.095.152.152 0 0 1-.072.07.562.562 0 0 1-.13.044c-.07.013-.14.018-.21.017a.924.924 0 0 1-.195-.017.497.497 0 0 1-.126-.045.137.137 0 0 1-.065-.069.259.259 0 0 1-.017-.095V69.042a.566.566 0 0 1 .13-.42.383.383 0 0 1 .253-.119h.45a.87.87 0 0 1 .302.049.68.68 0 0 1 .23.139.808.808 0 0 1 .166.22c.048.095.089.194.122.295l2.918 8.918h.033l3.04-8.884c.038-.121.088-.24.148-.352.044-.083.099-.16.164-.23a.486.486 0 0 1 .185-.121.648.648 0 0 1 .21-.036h.5c.044 0 .088.009.13.025.048.02.09.05.122.09.04.051.072.108.093.17.027.083.04.172.038.26l.004 10.501zM60.156 76.634a4.04 4.04 0 0 1-.194 1.275c-.123.38-.324.73-.591 1.028-.276.3-.614.534-.992.686a3.615 3.615 0 0 1-1.394.246 3.217 3.217 0 0 1-.8-.09 3.09 3.09 0 0 1-.608-.21 2.764 2.764 0 0 1-.39-.226 1.335 1.335 0 0 1-.187-.156.48.48 0 0 1-.078-.113.505.505 0 0 1-.04-.135 1.747 1.747 0 0 1-.023-.434.88.88 0 0 1 .034-.299.112.112 0 0 1 .103-.082.421.421 0 0 1 .23.118c.098.079.226.17.385.274.185.116.384.208.593.273.277.085.566.125.855.118.309.004.616-.05.905-.16a2.002 2.002 0 0 0 1.164-1.145c.113-.285.169-.59.165-.897a2.838 2.838 0 0 0-.154-.953 2.065 2.065 0 0 0-.45-.746 2.038 2.038 0 0 0-.731-.486 2.644 2.644 0 0 0-.987-.173h-1.087a.21.21 0 0 1-.113-.025.21.21 0 0 1-.076-.082.442.442 0 0 1-.044-.143c-.01-.07-.014-.14-.013-.21a1.278 1.278 0 0 1 .013-.2.495.495 0 0 1 .044-.148.225.225 0 0 1 .078-.09.21.21 0 0 1 .11-.03h.99c.297.003.592-.045.872-.143.257-.089.491-.233.687-.421.196-.196.35-.431.448-.69.112-.303.166-.624.16-.946a2.606 2.606 0 0 0-.11-.777 1.617 1.617 0 0 0-.328-.598 1.461 1.461 0 0 0-.543-.38 1.962 1.962 0 0 0-.756-.136 2.415 2.415 0 0 0-.802.123c-.206.07-.405.16-.594.269a4.368 4.368 0 0 0-.42.278.514.514 0 0 1-.26.13.093.093 0 0 1-.065-.02.168.168 0 0 1-.04-.074.606.606 0 0 1-.023-.14v-.21-.168c.004-.052.011-.104.021-.156a.72.72 0 0 1 .038-.135.482.482 0 0 1 .071-.122c.073-.074.154-.138.243-.191a2.72 2.72 0 0 1 .482-.247c.213-.087.432-.157.657-.21.26-.06.525-.088.791-.087.376-.007.75.064 1.097.21.3.13.568.327.783.574.215.253.374.548.467.867.106.357.158.728.154 1.101.005.356-.042.71-.14 1.053-.083.283-.211.551-.38.793a2.082 2.082 0 0 1-.55.54 1.863 1.863 0 0 1-.646.273v.017a2 2 0 0 1 .773.307c.247.163.46.371.632.613.184.265.326.558.42.867.1.341.15.695.144 1.05zM71.661 79.547a.21.21 0 0 1-.021.095.152.152 0 0 1-.072.07.566.566 0 0 1-.13.044.964.964 0 0 1-.21.017.937.937 0 0 1-.192-.017.497.497 0 0 1-.13-.044.154.154 0 0 1-.068-.07.21.21 0 0 1-.021-.095V69.423h-.013l-3.478 10.185a.21.21 0 0 1-.115.118.524.524 0 0 1-.114.036.798.798 0 0 1-.154.013.893.893 0 0 1-.164-.013.448.448 0 0 1-.114-.036.225.225 0 0 1-.071-.052.133.133 0 0 1-.034-.066l-3.307-10.185v10.124a.21.21 0 0 1-.021.095.152.152 0 0 1-.072.07.564.564 0 0 1-.13.044c-.07.013-.14.018-.211.017a.926.926 0 0 1-.194-.017.493.493 0 0 1-.126-.044.135.135 0 0 1-.065-.07.255.255 0 0 1-.017-.095V69.042a.566.566 0 0 1 .13-.42.385.385 0 0 1 .253-.119h.45a.867.867 0 0 1 .302.049c.085.03.163.077.23.139a.802.802 0 0 1 .165.22c.05.095.091.194.125.295l2.913 8.91h.034l3.04-8.884c.038-.122.088-.24.147-.352.044-.084.1-.16.165-.23a.486.486 0 0 1 .185-.122.648.648 0 0 1 .21-.035h.5c.044 0 .088.009.13.025.048.02.09.05.122.09.04.05.072.108.093.169.027.084.04.172.037.26l.013 10.51zM81.648 73.979c.009.818-.073 1.634-.242 2.434a5.823 5.823 0 0 1-.728 1.856 3.602 3.602 0 0 1-4.632 1.207 3.177 3.177 0 0 1-1.162-1.129 5.438 5.438 0 0 1-.67-1.791c-.149-.786-.22-1.585-.21-2.385a11.05 11.05 0 0 1 .24-2.394c.133-.65.38-1.272.729-1.836.305-.486.725-.89 1.223-1.175a3.438 3.438 0 0 1 1.724-.42 3.383 3.383 0 0 1 1.667.389c.477.268.878.653 1.165 1.12a5.39 5.39 0 0 1 .684 1.77c.153.775.224 1.564.212 2.354zm-.888.095a11.265 11.265 0 0 0-.147-1.87 5.084 5.084 0 0 0-.485-1.518 2.665 2.665 0 0 0-.899-1.014 2.47 2.47 0 0 0-1.387-.369 2.39 2.39 0 0 0-1.383.385 2.903 2.903 0 0 0-.916 1.036c-.249.476-.42.988-.505 1.518a10.476 10.476 0 0 0-.154 1.832c-.003.634.043 1.267.14 1.894.076.533.236 1.05.475 1.53.204.413.513.764.895 1.02.42.258.907.387 1.4.368a2.39 2.39 0 0 0 1.402-.383c.386-.271.7-.633.916-1.052.245-.483.413-1 .499-1.535.102-.609.152-1.225.149-1.842zM92.968 79.53a.24.24 0 0 1-.02.104.183.183 0 0 1-.066.073.362.362 0 0 1-.122.049c-.14.025-.282.025-.421 0a.343.343 0 0 1-.133-.061.244.244 0 0 1-.071-.095.998.998 0 0 1-.044-.135l-.786-2.993a4.33 4.33 0 0 0-.339-.916 2.341 2.341 0 0 0-.478-.632 1.745 1.745 0 0 0-.642-.377 2.602 2.602 0 0 0-.823-.122h-.42v5.137a.21.21 0 0 1-.022.095.156.156 0 0 1-.07.07.495.495 0 0 1-.13.044.977.977 0 0 1-.198.016.924.924 0 0 1-.194-.016.497.497 0 0 1-.126-.045.135.135 0 0 1-.065-.07.255.255 0 0 1-.017-.094v-5.137h-.421c-.3-.006-.6.044-.882.148a1.895 1.895 0 0 0-.649.42 2.316 2.316 0 0 0-.456.651c-.13.27-.232.553-.308.842l-.772 2.994a1.03 1.03 0 0 1-.045.135.244.244 0 0 1-.071.094.343.343 0 0 1-.133.062c-.14.024-.282.024-.42 0a.358.358 0 0 1-.123-.049.185.185 0 0 1-.065-.074.242.242 0 0 1-.021-.103v-.06-.083c0-.031 0-.065.017-.099a.914.914 0 0 1 .031-.114l.724-2.715c.086-.334.195-.662.325-.981.102-.253.233-.493.39-.716.135-.191.301-.359.492-.495.195-.136.407-.246.631-.326a1.619 1.619 0 0 1-.526-.242 1.655 1.655 0 0 1-.421-.45 3.617 3.617 0 0 1-.345-.7 9.939 9.939 0 0 1-.308-.977l-.67-2.526a1.503 1.503 0 0 1-.043-.177.956.956 0 0 1-.017-.177.347.347 0 0 1 .012-.105.141.141 0 0 1 .06-.074.347.347 0 0 1 .12-.048.916.916 0 0 1 .197-.017.968.968 0 0 1 .23.021c.048.01.093.032.132.061a.21.21 0 0 1 .068.1c.014.04.027.086.042.138l.684 2.802c.067.281.159.555.276.82.098.22.235.422.406.593.168.164.371.289.594.364.272.087.556.129.842.122h.42V68.67c0-.032.006-.064.018-.094a.135.135 0 0 1 .065-.07.482.482 0 0 1 .126-.044.924.924 0 0 1 .194-.017.975.975 0 0 1 .198.017.48.48 0 0 1 .13.044c.03.015.055.04.07.07.014.03.021.062.021.094v4.798h.421c.28.006.56-.04.823-.139.227-.087.433-.221.604-.393.174-.177.316-.382.421-.607a3.96 3.96 0 0 0 .27-.776l.684-2.786c.015-.052.028-.099.042-.139a.21.21 0 0 1 .068-.099c.039-.03.084-.05.132-.06a.968.968 0 0 1 .23-.022.916.916 0 0 1 .198.017.35.35 0 0 1 .12.049.141.141 0 0 1 .059.073c.01.035.013.07.012.106 0 .06-.008.119-.023.176a1.764 1.764 0 0 0-.038.177l-.671 2.47c-.092.34-.185.64-.28.899a3.23 3.23 0 0 1-.329.663 1.99 1.99 0 0 1-.42.47 2.08 2.08 0 0 1-.571.31v.018c.233.088.453.21.652.36.19.147.356.322.493.52.155.227.282.471.379.728.122.323.227.651.313.985l.718 2.716c0 .04.02.078.028.114.008.036.017.067.023.099.006.027.01.054.013.082-.003.015-.003.036-.003.053zM99.979 79.253c0 .067-.005.133-.015.2a.499.499 0 0 1-.044.147.253.253 0 0 1-.072.09.145.145 0 0 1-.088.03h-4.143a.385.385 0 0 1-.253-.118.564.564 0 0 1-.13-.42v-10.14a.566.566 0 0 1 .13-.42.385.385 0 0 1 .253-.119h4.078c.032 0 .063.01.088.03.03.024.053.055.068.09.02.049.034.1.042.152.009.07.013.14.012.21.001.067-.003.134-.012.2a.514.514 0 0 1-.042.143.225.225 0 0 1-.068.087.145.145 0 0 1-.088.03h-3.623v3.942h3.124a.158.158 0 0 1 .097.03.234.234 0 0 1 .067.086c.02.047.034.097.04.148a1.457 1.457 0 0 1 0 .406.45.45 0 0 1-.04.135.21.21 0 0 1-.067.077.177.177 0 0 1-.097.026h-3.124v4.482h3.688c.032 0 .063.01.088.03.03.023.055.052.072.086a.453.453 0 0 1 .044.147c.01.07.015.141.015.213zM111.617 79.547a.221.221 0 0 1-.021.095.152.152 0 0 1-.072.07.564.564 0 0 1-.13.044.966.966 0 0 1-.21.017.937.937 0 0 1-.192-.017.493.493 0 0 1-.13-.044.154.154 0 0 1-.07-.07.221.221 0 0 1-.021-.095V69.423h-.015l-3.478 10.185a.21.21 0 0 1-.042.066.21.21 0 0 1-.076.052.524.524 0 0 1-.114.036.798.798 0 0 1-.153.013.895.895 0 0 1-.165-.013.455.455 0 0 1-.113-.036.227.227 0 0 1-.072-.052.135.135 0 0 1-.034-.066l-3.307-10.185v10.124a.21.21 0 0 1-.02.095.152.152 0 0 1-.073.07.564.564 0 0 1-.13.044c-.07.013-.14.018-.21.017a.924.924 0 0 1-.194-.017.497.497 0 0 1-.127-.044.137.137 0 0 1-.065-.07.259.259 0 0 1-.017-.095V69.042a.566.566 0 0 1 .13-.42.383.383 0 0 1 .253-.119h.447a.87.87 0 0 1 .3.049.68.68 0 0 1 .23.139.806.806 0 0 1 .167.22c.048.095.089.194.122.295l2.918 8.918h.052l3.04-8.884c.039-.121.088-.24.148-.352.044-.083.1-.16.164-.23a.486.486 0 0 1 .185-.121.648.648 0 0 1 .21-.036h.5c.044 0 .089.009.13.025.048.02.09.05.122.09.04.051.072.108.093.17.027.083.04.172.038.26l.002 10.501zM121.596 73.979c.008.818-.073 1.634-.242 2.434a5.827 5.827 0 0 1-.729 1.856 3.602 3.602 0 0 1-4.631 1.207 3.177 3.177 0 0 1-1.162-1.129 5.434 5.434 0 0 1-.67-1.791c-.15-.786-.22-1.585-.21-2.385a11.05 11.05 0 0 1 .24-2.394c.132-.65.379-1.272.728-1.836.305-.486.725-.89 1.223-1.175a3.438 3.438 0 0 1 1.724-.42 3.383 3.383 0 0 1 1.668.389c.477.268.877.654 1.164 1.12.33.545.563 1.144.684 1.77.153.775.224 1.564.213 2.354zm-.889.095a11.267 11.267 0 0 0-.147-1.87 5.09 5.09 0 0 0-.484-1.518 2.667 2.667 0 0 0-.9-1.014 2.472 2.472 0 0 0-1.387-.369 2.39 2.39 0 0 0-1.383.385 2.905 2.905 0 0 0-.915 1.036c-.249.476-.42.988-.506 1.518a10.497 10.497 0 0 0-.153 1.832c-.004.634.043 1.267.139 1.894a5.08 5.08 0 0 0 .473 1.53c.204.413.513.764.895 1.02.42.258.907.387 1.4.368.496.018.985-.12 1.4-.393.386-.272.7-.633.916-1.053.245-.482.414-1 .499-1.535.103-.605.154-1.218.153-1.831zM132.903 76.581c.002.31-.029.618-.092.92a3.368 3.368 0 0 1-.264.773c-.11.224-.252.432-.42.617-.163.177-.35.33-.556.454-.21.126-.437.22-.674.282-.276.068-.559.1-.842.095h-2.284a.383.383 0 0 1-.253-.118.564.564 0 0 1-.13-.42V69.041a.566.566 0 0 1 .13-.42.383.383 0 0 1 .253-.119h1.894a3.29 3.29 0 0 1 1.25.2c.306.123.577.318.79.569.216.262.375.567.466.894.106.38.158.773.153 1.167.001.256-.023.512-.071.764a3 3 0 0 1-.21.676 2.402 2.402 0 0 1-.359.564c-.145.167-.317.31-.51.42.244.062.472.173.67.327.217.167.403.371.55.602.165.261.29.545.372.842.094.343.14.698.137 1.053zm-1.463-5.187c.003-.27-.029-.54-.095-.802a1.623 1.623 0 0 0-.303-.617 1.356 1.356 0 0 0-.543-.394 2.385 2.385 0 0 0-.895-.139h-1.38v4.025h1.515a1.67 1.67 0 0 0 .806-.168c.202-.11.375-.266.506-.455.137-.201.237-.426.294-.663.065-.257.096-.522.095-.787zm.575 5.275a3.135 3.135 0 0 0-.141-.98 1.872 1.872 0 0 0-.41-.712 1.73 1.73 0 0 0-.666-.434 2.842 2.842 0 0 0-.983-.147h-1.592v4.38h1.92c.256.006.51-.04.748-.134a1.65 1.65 0 0 0 .574-.4c.175-.19.31-.415.396-.659.105-.294.157-.604.154-.916v.002zM140.958 78.194v.172c-.004.047-.011.093-.021.14a.587.587 0 0 1-.038.113.737.737 0 0 1-.088.135 2.394 2.394 0 0 1-.285.27c-.17.14-.354.264-.55.368-.242.13-.497.234-.761.311-.309.09-.629.134-.95.13a3.099 3.099 0 0 1-1.51-.368 3.257 3.257 0 0 1-1.15-1.08 5.505 5.505 0 0 1-.731-1.751 9.975 9.975 0 0 1-.263-2.383 10.13 10.13 0 0 1 .273-2.46 6.07 6.07 0 0 1 .769-1.848c.299-.476.707-.874 1.19-1.162.465-.27.995-.41 1.534-.404.259 0 .517.03.768.095.236.059.466.14.687.242.2.092.388.206.564.339.125.089.239.192.34.307.045.052.084.109.117.168.017.038.03.078.038.118.01.049.017.098.02.148v.187c.004.07.004.14 0 .21a.68.68 0 0 1-.033.156.28.28 0 0 1-.06.1.112.112 0 0 1-.081.033c-.063 0-.153-.059-.27-.177a4.421 4.421 0 0 0-.456-.394 3.31 3.31 0 0 0-.693-.393 2.444 2.444 0 0 0-.977-.177 2.15 2.15 0 0 0-1.141.316 2.695 2.695 0 0 0-.893.932 5.181 5.181 0 0 0-.58 1.518 10.419 10.419 0 0 0-.018 4.061c.104.514.29 1.008.554 1.461.218.373.525.685.895.908.367.21.785.318 1.208.311.331.008.66-.052.967-.177.25-.103.487-.235.707-.393.168-.122.33-.253.482-.394a.524.524 0 0 1 .29-.177c.025 0 .049.007.068.021a.158.158 0 0 1 .044.078c.014.05.023.1.028.152.006.079.008.158.006.238zM147.693 79.253c0 .067-.004.133-.013.2a.499.499 0 0 1-.044.147.253.253 0 0 1-.072.09.145.145 0 0 1-.088.03h-4.141a.385.385 0 0 1-.253-.118.564.564 0 0 1-.13-.42v-10.14a.566.566 0 0 1 .13-.42.385.385 0 0 1 .253-.119h4.071c.032 0 .063.01.089.03.03.024.053.055.067.09.02.049.035.1.042.152.01.07.014.14.013.21 0 .067-.003.134-.013.2a.52.52 0 0 1-.042.143.227.227 0 0 1-.067.087.145.145 0 0 1-.089.03h-3.62v3.942h3.128c.034 0 .067.01.094.03.03.023.054.052.07.086a.53.53 0 0 1 .04.148c.01.07.013.14.013.21 0 .066-.004.131-.013.196a.457.457 0 0 1-.04.135.21.21 0 0 1-.07.077.175.175 0 0 1-.094.026h-3.129v4.482h3.689c.032 0 .063.01.088.03.03.023.054.052.072.086a.453.453 0 0 1 .044.147c.01.07.015.141.015.213z"/>
        </g>
    </g>
</svg>
