<svg xmlns="http://www.w3.org/2000/svg" width="228" height="80" viewBox="0 0 228 80">
    <g fill="none" fill-rule="evenodd">
        <path d="M0 0h228v80H0z"/>
        <g fill-rule="nonzero">
            <path fill="#FDFBFC" d="M.186 44.727v.532z"/>
            <path fill="#FFF" d="M.186 28.198h30.391v26.139H.186z"/>
            <path fill="#FDFBFC" d="M.186 38.497h1v1.346h-1z"/>
            <g fill="#FF0034">
                <path d="M8.86 45.29l.093-.25H.186v1.096h7.342c.589 0 1.084-.313 1.332-.846zM17.658 39.405a1.156 1.156 0 0 0-1.022-.595H.186v1.347h17.782l-.31-.752z"/>
                <path d="M17.906 35.054c2.262.438 3.81 4.758 5.36 7.951h3.655c-.774-2.755-2.974-6.762-5.266-9.642-.682-.876-1.487-1.627-2.881-1.721H.186v3.35h16.76c.31 0 .96.062.96.062zM16.667 48.17c-.836 0-1.549.69-1.549 1.534 0 .188.031.345.093.501a1.55 1.55 0 0 0 1.456 1.033 1.55 1.55 0 0 0 1.456-1.033c.062-.156.093-.344.093-.5-.03-.846-.712-1.535-1.549-1.535z"/>
                <path d="M35.44 29.92c-4.181-7.763-6.536-7.763-7.434-7.763H4.709c-2.478 0-4.492 2.003-4.492 4.445v3.475h18.867c.774 0 1.672.093 2.633.939h4.554c.65 0 1.27.25 1.735.72.464.47.712 1.095.712 1.753V35.617c0 .69-.588 1.284-1.394 1.41l-.217.03v-3.662h.465c-.031-.689-.62-1.221-1.301-1.221h-3.439c3.129 3.569 6.289 9.892 6.289 12.396v.376H27.2v1.284h1.92v2.817c0 .344-.062.97-1.053.97h-7.002c.031-.156.031-.344.031-.5 0-1.19-.465-2.317-1.301-3.162a4.385 4.385 0 0 0-3.129-1.315c-2.416 0-4.399 2.003-4.399 4.445 0 .157 0 .313.03.501H.218v3.506c0 2.473 2.014 4.445 4.492 4.445h23.297c.898 0 3.253 0 7.435-7.857 1.704-3.193 3.686-7.763 3.686-10.111-.03-2.348-2.013-6.887-3.686-10.049zM19.92 50.237a3.318 3.318 0 0 1-3.284 2.817 3.213 3.213 0 0 1-2.323-.97c-.496-.501-.806-1.159-.93-1.847-.03-.157-.03-.345-.03-.501 0-1.847 1.486-3.35 3.314-3.35.898 0 1.704.344 2.355.97.62.627.96 1.472.96 2.38 0 .156-.031.344-.062.5z"/>
            </g>
            <g fill="#4F4F4F">
                <path d="M64.523 43.973c-.65-1.108-1.779-2.04-3.428-2.793 1.345-.797 2.3-1.684 2.951-2.748.608-1.063.911-2.437.911-4.166 0-2.083-.78-3.856-2.3-5.186-1.562-1.374-3.515-2.039-5.945-2.039h-9.808v28.5h11.24c2.083 0 3.819-.71 5.251-2.083 1.432-1.374 2.127-3.103 2.127-5.142 0-1.772-.348-3.235-.999-4.343m-6.205 5.895c-.564.62-1.389.975-2.387.975h-2.995v-19.28h2.04c2.517 0 3.819 1.285 3.819 3.855 0 1.109-.304 1.995-.911 2.66-.608.665-1.432.975-2.43.975h-.521v4.344h.477c2.517 0 3.776 1.24 3.776 3.767 0 1.152-.304 2.083-.868 2.704M86.656 47.474c0 2.704-.781 4.787-2.344 6.338-1.562 1.552-3.775 2.305-6.553 2.305-2.907 0-5.12-.798-6.683-2.349-1.562-1.551-2.343-3.812-2.343-6.737V26.997h6.075v19.059c0 1.33.26 2.393.782 3.103.52.709 1.215 1.108 2.17 1.108.867 0 1.562-.355 2.039-1.064.52-.71.738-1.64.738-2.837V27.041h6.119v20.433zM103.19 35.02c-1.606-1.906-3.125-2.837-4.6-2.837-.651 0-1.259.222-1.736.665-.52.443-.781.93-.781 1.507 0 .975.824 2.172 2.43 3.501 1.692 1.374 2.908 2.482 3.645 3.28.738.798 1.302 1.729 1.736 2.837.434 1.064.651 2.26.651 3.546 0 2.526-.781 4.565-2.343 6.205-1.563 1.595-3.602 2.438-6.076 2.438-2.04 0-4.036-.754-5.945-2.217v-6.737c1.866 2.084 3.732 3.103 5.598 3.103.825 0 1.519-.222 2.083-.71.564-.487.825-1.063.825-1.728 0-1.02-.738-2.172-2.17-3.413-2.3-1.994-3.776-3.501-4.47-4.476-.694-.975-1.259-1.995-1.606-2.97-.347-1.02-.52-1.994-.52-3.014 0-2.216.737-3.989 2.256-5.452 1.519-1.418 3.428-2.127 5.772-2.127 1.78 0 3.515.532 5.294 1.551v7.048h-.043zM120.809 32.582h-7.074v5.806h6.076v5.319h-6.076V55.54h-5.989V26.997h13.063zM124.02 41.136c0-3.989.434-6.959 1.259-8.82.868-1.862 1.996-3.324 3.385-4.388 1.388-1.02 3.211-1.551 5.337-1.551 1.78 0 3.212.31 4.297.886 1.085.62 2.083 1.463 3.038 2.615.91 1.153 1.605 2.57 2.04 4.255.433 1.684.65 3.945.65 6.737 0 5.762-.955 9.707-2.82 11.923-1.867 2.172-4.297 3.28-7.248 3.28-3.038 0-5.468-1.152-7.247-3.413-1.78-2.216-2.69-6.072-2.69-11.524m6.379-1.773v1.817c0 3.014.086 4.965.303 5.94.174.93.608 1.684 1.259 2.26.65.532 1.389.842 2.256.842.738 0 1.39-.266 1.953-.798.608-.531.998-1.33 1.259-2.437.217-1.108.347-3.014.347-5.807 0-2.482-.087-4.299-.304-5.318-.217-1.064-.607-1.906-1.215-2.571-.607-.665-1.345-.975-2.257-.975-1.301 0-2.213.576-2.777 1.684-.52 1.108-.824 2.925-.824 5.363M160.604 42.643c1.649-.93 2.82-1.95 3.602-3.103.737-1.152 1.128-2.57 1.128-4.343a9.524 9.524 0 0 0-.998-4.21c-.651-1.375-1.78-2.35-3.342-3.015-1.562-.62-3.124-.975-4.687-.975h-8.983v28.544h6.032V31.562h2.344c2.17 0 3.255 1.374 3.255 4.078 0 1.197-.26 2.216-.782 2.97-.434.665-1.345 1.063-2.82 1.152v3.768l4.079 11.967h6.162l-4.99-12.854z"/>
            </g>
        </g>
    </g>
</svg>
