<svg xmlns="http://www.w3.org/2000/svg" width="228" height="80" viewBox="0 0 228 80">
    <g fill="none" fill-rule="evenodd">
        <path d="M0 0h228v80H0z"/>
        <g fill="#111" fill-rule="nonzero" transform="translate(0 22)">
            <path d="M70.425 33.568l-.22-.064c.091-.022.181-.052.268-.088a.956.956 0 0 0 .547-.976c0-.688-.498-1.048-1.444-1.048h-1.255v4.384h1.215c.4 0 1.63-.12 1.63-1.28a.948.948 0 0 0-.741-.928zm-1.46-1.6h.081a5.17 5.17 0 0 1 .522 0c.506 0 .816.248.816.648a.666.666 0 0 1-.235.543.694.694 0 0 1-.58.153h-.645l.04-1.344zm.628 3.32a4.306 4.306 0 0 1-.547 0h-.081v-1.44h.669c.57 0 .897.24.897.664 0 .424-.335.776-.938.776zM29.904 31.4h-1.24v4.392h.644v-1.64h.693c.41.05.821-.073 1.133-.339.31-.265.492-.648.498-1.053-.016-.496-.236-1.36-1.728-1.36zm.073 2.2H29.308V32h.669c.815 0 .946.44.946.8a.794.794 0 0 1-.283.616.827.827 0 0 1-.663.184zM35.922 31.344c-1.277.013-2.302 1.038-2.292 2.29.01 1.253 1.053 2.261 2.33 2.254 1.277-.007 2.307-1.027 2.302-2.28a2.178 2.178 0 0 0-.667-1.633 2.267 2.267 0 0 0-1.673-.631zm0 4c-.45 0-.88-.18-1.19-.502a1.582 1.582 0 0 1-.441-1.194c-.025-.44.136-.87.445-1.189.308-.32.737-.5 1.186-.499.448 0 .877.18 1.186.5.308.319.47.749.445 1.188.01.431-.156.849-.463 1.157a1.647 1.647 0 0 1-1.168.483v.056zM43.302 34.432a1.27 1.27 0 0 0-.438-.975 1.322 1.322 0 0 0-1.038-.313 5.22 5.22 0 0 0-.612 0h-.098v-1.2h1.9v-.576h-2.544v4.392h1.117c1.101.072 1.713-.424 1.713-1.328zm-1.582.8a4.805 4.805 0 0 1-.473 0h-.13v-1.464h.073c.19-.024.38-.037.57-.04.563 0 .906.288.906.8 0 .248-.123.76-.946.76v-.056zM46.213 31.416h-.644v4.392h.587l2.569-3.416v3.416h.644v-4.392h-.587l-2.569 3.424zM52.574 31.416h-.693v4.392h.644v-3.456l1.614 2.184h.025l1.606-2.208v3.48h.636v-4.392h-.644l-1.557 2.192zM60.94 31.344c-1.276.013-2.301 1.038-2.29 2.29.01 1.253 1.052 2.261 2.329 2.254 1.276-.007 2.306-1.027 2.302-2.28a2.154 2.154 0 0 0-.659-1.64 2.242 2.242 0 0 0-1.681-.624zm0 4c-.45 0-.88-.18-1.189-.502a1.582 1.582 0 0 1-.441-1.194c-.025-.44.136-.87.444-1.189.309-.32.738-.5 1.187-.499.448 0 .877.18 1.186.5.308.319.47.749.444 1.188.011.431-.155.849-.463 1.157a1.647 1.647 0 0 1-1.167.483v.056zM74.86 31.4l-1.891 4.408h.628l.489-1.168h2.104l.49 1.168h.676L75.464 31.4h-.603zm-.537 2.664l.815-1.936.815 1.936h-1.63zM80.243 31.416h-.718l1.68 2.096-1.753 2.296h.717l1.705-2.288zM81.874 31.416h1v4.392h-1z"/>
            <path d="M84.858 31.416h-.725L82.51 33.52l1.696 2.288h.726l-1.753-2.304zM87.378 35.072a.487.487 0 0 1-.326.12v.624a.952.952 0 0 0 .75-.168c.433-.328.71-1.192.865-2.72l.106-.936h1.517v3.816h.636v-4.392h-2.773l-.065.8c-.163 2.184-.481 2.68-.71 2.856zM94.065 31.416h-.644v4.392h.587l2.569-3.416v3.416h.644v-4.392h-.587l-2.569 3.424zM101.829 33.568l-.213-.064c.09-.023.177-.052.261-.088a.957.957 0 0 0 .555-.976c0-.688-.497-1.048-1.443-1.048h-1.256v4.384h1.207c.497 0 1.63-.12 1.63-1.28a.948.948 0 0 0-.741-.928zm-1.452-1.6h.082a4.93 4.93 0 0 1 .513 0c.506 0 .816.248.816.648a.674.674 0 0 1-.238.54.703.703 0 0 1-.578.156h-.636l.041-1.344zm.628 3.256c-.185.011-.37.011-.555 0h-.073v-1.376h.669c.57 0 .897.24.897.664 0 .424-.335.776-.938.776v-.064zM105.53 33.88h1.672v-.584h-1.671v-1.304h1.875v-.576h-2.52v4.392h2.586v-.576h-1.941z"/>
            <ellipse cx="99.643" cy="2.544" rx="2.593" ry="2.544"/>
            <path d="M12.469 7.984a6.487 6.487 0 0 0-4.78-1.6C3.018 6.352 0 9.504 0 14.384s2.952 7.888 7.527 7.888a6.763 6.763 0 0 0 4.893-1.768 5.24 5.24 0 0 1-.604 2.32c-.693 1.16-2.202 1.824-4.15 1.824a4.285 4.285 0 0 1-3.923-1.88l-.196-.28-3.417 2.28.294.328c1.916 2.128 3.857 2.92 7.16 2.92 2.87 0 5.252-.64 6.703-1.808 1.688-1.4 2.447-3.52 2.447-6.896v-8.984a24.02 24.02 0 0 1 .187-3.304l.05-.432h-4.502v1.392zm-4.314 11a3.812 3.812 0 0 1-2.61-1.08 4.743 4.743 0 0 1-1.182-3.416c0-2.976 1.55-4.8 4.077-4.8a3.806 3.806 0 0 1 2.365.8 4.547 4.547 0 0 1 1.5 3.68c.039 1-.207 1.992-.709 2.864a4.183 4.183 0 0 1-3.441 1.952zM26.707 6.136c-5.187 0-8.538 3.36-8.538 8.568s3.36 8.584 8.562 8.584c5.073 0 8.457-3.488 8.457-8.64 0-5.152-3.327-8.512-8.481-8.512zm0 3.56c2.69 0 4.175 1.792 4.175 5.056 0 3.072-1.574 4.904-4.2 4.904-2.625 0-4.207-1.848-4.207-4.952s1.582-5.016 4.232-5.016v.008zM44.851 6.136c-5.186 0-8.538 3.36-8.538 8.568s3.344 8.584 8.538 8.584c5.056 0 8.457-3.464 8.457-8.616 0-5.152-3.327-8.536-8.457-8.536zm0 3.552c2.691 0 4.175 1.792 4.175 5.056 0 3.072-1.565 4.904-4.2 4.904-2.633 0-4.199-1.848-4.199-4.952s1.558-5.008 4.224-5.008zM71.558 18.752V4.616a30.615 30.615 0 0 1 .204-3.552V.64h-4.73l.05.424c.14 1.187.202 2.381.187 3.576V8.2a5.912 5.912 0 0 0-.71-.64 7.01 7.01 0 0 0-4.403-1.312c-4.722 0-7.772 3.296-7.772 8.4 0 3.024 1.093 5.6 2.993 7.032a7.437 7.437 0 0 0 4.803 1.456c2.324 0 3.808-.536 5.105-1.92v1.544h4.477v-.432a27.78 27.78 0 0 1-.204-3.576zm-8.701.744c-2.528 0-4.077-1.848-4.077-4.8s1.516-4.84 3.955-4.84a4.61 4.61 0 0 1 3.261 1.376 5.1 5.1 0 0 1 1.2 3.256 5.523 5.523 0 0 1-.996 3.368 4.203 4.203 0 0 1-3.343 1.64zM91.399 6.952a16.711 16.711 0 0 1-.588 3.112l-1.533 5.368c0 .08-.073.288-.13.52a8.62 8.62 0 0 0-.13-.456l-2.023-6.088c-.27-.8-.595-2.032-.677-2.488l-.049-.328h-3.596l-.049.328a18.798 18.798 0 0 1-.669 2.488l-1.965 5.88c0 .12-.122.376-.212.68a16.737 16.737 0 0 0-.163-.632l-1.509-5.232a17.906 17.906 0 0 1-.587-3.112v-.36h-4.974l.195.52c.392 1.016.816 2.128 1.142 3.304l3.01 9.528c.28.82.506 1.656.676 2.504l.065.312h3.817l.098-.312c.19-.846.424-1.682.7-2.504l2.064-6.296c0-.096.09-.296.163-.536.09.296.13.44.163.512l2.096 6.304c.277.82.503 1.657.677 2.504l.049.32h3.873l.057-.32c.166-.847.392-1.68.677-2.496l3.32-10.4c.448-1.416.53-1.664.815-2.4l.212-.528h-4.958l-.057.304zM102.032 7.032l.057-.44h-4.892l.065.44c.168 1.136.242 2.284.22 3.432v8.424a22.452 22.452 0 0 1-.22 3.432l-.057.44h4.893l-.05-.432a26.218 26.218 0 0 1-.187-3.464v-8.376c-.028-1.155.03-2.31.171-3.456zM119.5 18.888v-6.4c0-1.864-.286-3.016-1.003-4-1.068-1.44-2.7-2.16-4.966-2.16a6.313 6.313 0 0 0-5.13 2.12V6.592h-4.558l.065.44c.161 1.137.232 2.284.212 3.432v8.424a22.6 22.6 0 0 1-.212 3.432l-.065.44h4.836l-.066-.44a23.857 23.857 0 0 1-.212-3.432v-5.336c1.126-2.456 2.61-3.696 4.396-3.696a2.2 2.2 0 0 1 1.965.92c.332.668.473 1.412.408 2.152v5.96c.006 1.15-.06 2.298-.196 3.44l-.049.432h4.893l-.073-.448a19.957 19.957 0 0 1-.245-3.424zM132.645 17.64a3.08 3.08 0 0 1-.538.848 4.027 4.027 0 0 1-2.993 1.208 3.915 3.915 0 0 1-3.107-1.352 4.151 4.151 0 0 1-.888-2.4H137v-.416c-.049-.6-.049-.68-.049-.736a11.179 11.179 0 0 0-.815-4.2c-1.176-2.837-4.051-4.634-7.168-4.48-4.893 0-8.106 3.368-8.106 8.592s3.262 8.56 8.293 8.56a8.188 8.188 0 0 0 5.912-2.176 6.66 6.66 0 0 0 1.264-1.648l-3.686-1.8zm-3.783-8a3.53 3.53 0 0 1 2.674.96 3.49 3.49 0 0 1 1.012 1.92h-7.299c.331-1.687 1.845-2.9 3.596-2.88h.017z"/>
        </g>
    </g>
</svg>
