<svg xmlns="http://www.w3.org/2000/svg" width="228" height="80" viewBox="0 0 228 80">
    <g fill="none" fill-rule="evenodd">
        <path d="M0 0h228v80H0z"/>
        <g fill="#005BBB" fill-rule="nonzero">
            <path d="M94.174 39.255l-8.816-13.162H76.56V45.41H83V32.182l8.187 13.228h9.236V26.093h-6.25v13.162M67.092 39.305l-8.843-13.212h-8.77V45.41h6.44V32.237l8.164 13.173h9.258V26.093h-6.25v13.212M39.442 45.41h6.628V26.093h-6.628zM29.972 37.021l-5.805-15.853h-9.535v15.84L6.66 15.104l-6.643.005L11.013 45.41h9.68V28.93l5.902 16.48h9.627V21.168h-6.25v15.853M103.832 26.093V45.41h15.72v-4.545h-9.47v-2.84h8.144v-4.546h-8.144v-2.841h9.47v-4.545h-15.72M146.654 50.334l-10.042-12.065c2.074-1.031 3.69-3.048 3.69-5.603 0-3.549-3.01-6.573-6.575-6.573h-10.956V45.41h6.25v-7.895l10.58 12.819h7.053zm-14.206-15.72h-3.427v-3.976h3.427c1.034 0 1.876.88 1.876 1.988 0 1.109-.842 1.989-1.876 1.989z"/>
        </g>
    </g>
</svg>
