<svg xmlns="http://www.w3.org/2000/svg" xmlns:xlink="http://www.w3.org/1999/xlink" width="228" height="80" viewBox="0 0 228 80">
    <defs>
        <path id="a" d="M.116 1.682H11.4v12.996H.116z"/>
        <path id="c" d="M0 .981h37.024v37.114H0z"/>
    </defs>
    <g fill="none" fill-rule="evenodd">
        <path d="M0 0h228v80H0z"/>
        <path fill="#614733" d="M150.79 34.035h2.31v5.51h5.666v-5.51h2.588v12.994h-2.588v-5.223h-5.665v5.223h-2.31zM72.277 34.065h9.346v2.092h-6.842v3.607h4.87v2.092h-4.87v3.13h6.948v2.043h-9.452zM165.576 34.065h9.347v2.092h-6.842v3.607h4.871v2.092h-4.871v3.13h6.95v2.043h-9.455zM57.368 34.035h2.751l3.217 9.619h.177l3.167-9.62h2.776L64.698 47.03h-2.635zM44.12 34.035h2.95l3.216 5.743 3.27-5.743h2.774L51.55 41.97v5.059h-2.533v-5.06zM84.203 43.037h2.736c.105.7.407 1.22.906 1.562.5.339 1.224.506 2.17.506.806 0 1.412-.137 1.82-.41.41-.27.612-.672.612-1.207 0-.777-1.174-1.419-3.522-1.927l-.082-.018-.285-.06c-1.258-.263-2.157-.555-2.69-.879a2.886 2.886 0 0 1-1.091-1.171c-.249-.488-.374-1.065-.374-1.731 0-1.246.446-2.202 1.337-2.865.89-.663 2.178-.995 3.861-.995 1.575 0 2.806.353 3.694 1.06.887.708 1.356 1.702 1.406 2.99h-2.664c-.052-.621-.3-1.091-.75-1.415-.455-.324-1.097-.488-1.933-.488-.726 0-1.286.135-1.68.404-.393.27-.59.653-.59 1.15 0 .68.765 1.185 2.297 1.522.414.092.74.164.97.217.98.239 1.682.423 2.09.555a6.6 6.6 0 0 1 1.08.445c.545.292.96.673 1.233 1.151.275.476.414 1.05.414 1.72 0 1.33-.473 2.362-1.42 3.095-.947.732-2.277 1.101-3.999 1.101-1.697 0-3.028-.377-3.99-1.122-.965-.748-1.484-1.81-1.556-3.19M107.042 39.954h2.394c1.32 0 2.147-.051 2.476-.158.908-.291 1.172-1.083 1.172-1.948 0-.438-.245-.79-.49-1.06-.243-.27-.591-.445-1.038-.512-.22-.032-.893-.042-2.01-.042h-2.504v3.72zm-2.398 7.075V34.034h5.52c1.457 0 2.515.119 3.175.353.659.232 1.19.647 1.584 1.242a4.03 4.03 0 0 1 .688 2.076c.034.842-.431 2.053-.95 2.718-.471.604-.969.89-1.67 1.185l2.94 5.42h-2.87l-2.635-5.115-3.384-.021v5.137h-2.398z"/>
        <g transform="translate(178.6 32.352)">
            <mask id="b" fill="#fff">
                <use xlink:href="#a"/>
            </mask>
            <path fill="#614733" d="M2.512 7.602h2.396c1.319 0 2.145-.051 2.474-.158.908-.291 1.172-1.084 1.172-1.948 0-.438-.245-.79-.488-1.06-.245-.27-.59-.445-1.04-.512-.22-.032-.892-.042-2.01-.042H2.513v3.72zM.116 14.678V1.682h5.52c1.455 0 2.514.12 3.173.353.66.232 1.191.647 1.586 1.242.398.598.656 1.308.688 2.076.033.842-.431 2.053-.95 2.718-.475.604-.97.89-1.672 1.185l2.94 5.422H8.53L5.897 9.56l-3.384-.02v5.138H.116z" mask="url(#b)"/>
        </g>
        <path fill="#614733" d="M124.99 33.588c3.825 0 6.924 3.107 6.924 6.941 0 3.833-3.1 6.941-6.924 6.941-3.825 0-6.924-3.108-6.924-6.94 0-3.835 3.1-6.942 6.924-6.942m0 2.648a4.288 4.288 0 0 1 4.283 4.293 4.289 4.289 0 0 1-4.283 4.293 4.289 4.289 0 0 1-4.283-4.293 4.288 4.288 0 0 1 4.283-4.293M145.122 38.16h2.65c-.993-2.659-3.237-4.382-6.296-4.502-3.54-.141-6.759 2.299-7.108 6.569-.333 4.055 2.584 6.869 6.48 7.126 3.521.234 6.237-1.821 6.998-4.688h-2.688c-2.689 4.162-8.276 2.448-8.14-2.474.074-2.646 1.974-4.128 4.182-4.21 1.564-.057 2.765.88 3.922 2.18"/>
        <g transform="translate(0 20.924)">
            <mask id="d" fill="#fff">
                <use xlink:href="#c"/>
            </mask>
            <path fill="#899638" d="M18.512 3.579c8.791 0 15.92 7.145 15.92 15.96 0 8.815-7.129 15.96-15.92 15.96-8.793 0-15.92-7.145-15.92-15.96 0-8.815 7.127-15.96 15.92-15.96m0-2.598c10.224 0 18.512 8.31 18.512 18.558 0 10.25-8.288 18.556-18.512 18.556S0 29.788 0 19.539C0 9.29 8.288.98 18.512.98" mask="url(#d)"/>
        </g>
        <path fill="#899638" d="M5.34 37.678c-.86 8.118 2.93 13.484 9.483 15.56-.12-2.665.135-5.675-.59-8.553-.721-2.882-4.455-7.09-8.893-7.007M28.227 49.566c-2.99 3.224-6.62 4.525-10.79 4.207l-.036-11.885c.794-4.915 3.329-7.284 6.48-8.75.626 4.16-1.79 7.492-6.273 10.174 2.664 3.936 6.06 6.054 10.62 6.254"/>
        <path fill="#899638" d="M26.258 29.699c.974 7.14-.743 11.834-4.973 14.25 2.288 2.38 5.277 3.304 8.84 3.028 3.248-6.347 1.551-13.07-3.867-17.278M15.081 40.479c-2.525-3.45-5.477-4.992-8.69-5.39 4.147-8.444 13.341-10.06 19.72-5.519-6.985 2.479-10.355 5.661-11.03 10.909"/>
    </g>
</svg>
