<svg width="318" height="472" viewBox="0 0 318 472" fill="none" xmlns="http://www.w3.org/2000/svg">
<g clip-path="url(#clip0_21_6189)">
<path d="M159.306 65.9803C157.548 64.5672 154.874 66.326 152.056 65.8584C150.433 65.5891 150.53 63.6769 151.831 62.7188C168.74 50.2701 187.146 26.4483 195.431 14.3528C196.034 13.4723 197.03 13.2702 197.924 13.8846C203.835 17.945 225.794 33.4362 238.714 42.5687C239.677 43.2493 239.998 44.466 239.487 45.4959C223.885 76.8965 200.98 91.2679 190.062 95.0897C189.205 95.3896 188.153 95.224 187.899 94.4119C187.305 92.5064 189.109 89.938 187.201 88.4044C184.872 86.5318 181.703 89.9264 179.383 88.0617C177.054 86.1891 180.223 82.7945 177.903 80.9297C175.573 79.0571 172.404 82.4517 170.085 80.587C167.755 78.7144 170.924 75.3198 168.604 73.455C166.275 71.5824 163.106 74.977 160.786 73.1122C158.457 71.2396 161.626 67.845 159.306 65.9803Z" fill="#F0F9FF"/>
<path fill-rule="evenodd" clip-rule="evenodd" d="M239.92 41.1013C241.613 42.2978 242.179 44.4358 241.278 46.2482C225.469 78.0654 202.18 92.8004 190.739 96.8049C189.979 97.0712 189.066 97.1606 188.198 96.933C187.275 96.6908 186.35 96.055 186.001 94.9389C185.75 94.1343 185.776 93.3452 185.841 92.7251C185.874 92.4084 185.923 92.0981 185.966 91.8262C185.972 91.7852 185.979 91.7452 185.985 91.7061C186.023 91.4725 186.055 91.2694 186.081 91.0677C186.208 90.0854 186.057 89.9227 185.9 89.7963C185.671 89.6127 185.442 89.54 183.835 89.9864C183.776 90.0026 183.714 90.0201 183.649 90.0387C182.444 90.3806 180.072 91.0535 178.081 89.4535C176.085 87.8486 176.464 85.5718 176.657 84.4123C176.667 84.3515 176.676 84.2937 176.685 84.2393C176.933 82.6927 176.822 82.4994 176.601 82.3213C176.373 82.1378 176.143 82.065 174.536 82.5115C174.478 82.5277 174.416 82.5452 174.35 82.5637C173.145 82.9057 170.773 83.5786 168.782 81.9786C166.786 80.3737 167.165 78.0969 167.358 76.9374C167.368 76.8765 167.378 76.8188 167.386 76.7643C167.634 75.2178 167.524 75.0245 167.302 74.8464C167.074 74.6628 166.844 74.5901 165.237 75.0366C165.179 75.0527 165.117 75.0703 165.052 75.0888C163.846 75.4308 161.474 76.1037 159.484 74.5036C157.487 72.8987 157.866 70.622 158.059 69.4625C158.069 69.4016 158.079 69.3438 158.088 69.2894C158.336 67.7428 158.225 67.5495 158.003 67.3714C157.894 67.2834 157.69 67.1568 156.402 67.3694C156.262 67.3925 156.107 67.4202 155.941 67.4503C154.871 67.6428 153.286 67.9282 151.687 67.6629C150.86 67.5257 150.123 67.1485 149.601 66.539C149.093 65.9459 148.887 65.2493 148.871 64.6073C148.839 63.3605 149.501 62.101 150.613 61.283C167.242 49.0403 185.499 25.4467 193.767 13.3753C194.3 12.5971 195.124 11.9619 196.187 11.7577C197.261 11.5515 198.291 11.8405 199.108 12.4014C205.033 16.4714 227.007 31.9732 239.92 41.1013ZM237.696 44.7384C237.819 44.4909 237.742 44.1955 237.509 44.0307C224.739 35.0045 203.17 19.7878 196.962 15.5137C188.606 27.6797 170.189 51.5042 153.106 64.1055C153.704 64.1071 154.333 63.9988 155.127 63.8619C155.324 63.828 155.532 63.7923 155.751 63.7562C156.944 63.5594 158.956 63.26 160.604 64.5851C162.595 66.1852 162.215 68.4599 162.022 69.6158C162.012 69.6784 162.002 69.7377 161.993 69.7935C161.746 71.3335 161.856 71.5337 162.085 71.7173C162.306 71.8954 162.528 71.9696 164.142 71.5212C164.199 71.5054 164.26 71.4884 164.323 71.4704C165.532 71.1278 167.907 70.4552 169.903 72.0601C171.894 73.6601 171.514 75.9348 171.321 77.0907C171.311 77.1533 171.301 77.2126 171.292 77.2684C171.045 78.8084 171.155 79.0087 171.384 79.1922C171.605 79.3703 171.827 79.4445 173.441 78.9962C173.498 78.9804 173.558 78.9633 173.622 78.9453C174.831 78.6028 177.206 77.9301 179.202 79.535C181.192 81.135 180.813 83.4097 180.62 84.5656C180.61 84.6282 180.6 84.6876 180.591 84.7433C180.344 86.2833 180.454 86.4836 180.682 86.6672C180.904 86.8452 181.126 86.9195 182.74 86.4711C182.797 86.4553 182.857 86.4382 182.921 86.4203C184.13 86.0777 186.504 85.405 188.501 87.0099C190.251 88.4172 190.152 90.3055 190.002 91.4672C189.969 91.7259 189.927 91.9874 189.89 92.2181C189.884 92.2554 189.878 92.292 189.872 92.3275C189.829 92.5967 189.794 92.8266 189.772 93.0426C189.764 93.1129 189.759 93.1782 189.755 93.239C200.309 89.3999 222.482 75.3587 237.696 44.7384Z" fill="#BAE6FD"/>
<path d="M185.449 60.3859L183.921 59.1626C184.148 59.1168 184.371 59.0509 184.585 58.9658C185.024 58.7911 185.417 58.5271 185.733 58.1933C186.601 57.3303 186.978 56.139 186.749 54.9861C186.531 53.8507 185.797 52.7787 184.58 51.7817C183.454 50.8801 182.251 50.3873 180.991 50.3303C179.752 50.2536 178.532 50.6846 177.651 51.5103L177.308 51.8229L179.471 53.5544L179.76 53.3243C180.145 53.0181 180.652 52.8814 181.149 52.9498C181.773 53.0193 182.356 53.2702 182.815 53.667C183.338 54.0435 183.698 54.5815 183.832 55.1855C183.944 55.6638 183.8 56.1654 183.445 56.5322C183.014 56.9852 182.391 57.2394 181.744 57.2265L175.536 52.2134L173.893 53.9672L183.899 62.0496L185.449 60.3859Z" fill="#FECACA"/>
<path d="M176.889 64.2028C176.446 64.5416 175.875 64.6981 175.309 64.6355C174.722 64.5708 174.106 64.2777 173.474 63.7692C172.893 63.3484 172.479 62.7592 172.297 62.093C172.158 61.5947 172.3 61.0618 172.674 60.6765C172.833 60.5013 173.029 60.358 173.249 60.2557C173.468 60.1529 173.706 60.091 173.949 60.0734C174.18 60.0554 174.412 60.0704 174.636 60.1181L180.933 65.2047L182.567 63.4437L172.561 55.3613L171.026 57.0144L172.257 57.9994C172.031 58.0317 171.809 58.0876 171.596 58.1662C171.083 58.3592 170.627 58.6662 170.269 59.0602C169.413 59.9484 169.084 61.1704 169.394 62.3181C169.664 63.4858 170.416 64.5846 171.645 65.5885L171.724 65.6517C172.942 66.6266 174.213 67.1708 175.512 67.25C176.8 67.3448 178.076 66.9159 179.01 66.0739L179.363 65.7685L177.17 64.014L176.889 64.2028Z" fill="#FECACA"/>
<path fill-rule="evenodd" clip-rule="evenodd" d="M199.912 64.4879C198.529 65.7991 198.529 65.7992 198.529 65.7994L198.534 65.8036L198.543 65.8121L198.576 65.8411C198.603 65.8656 198.642 65.9004 198.693 65.9449C198.794 66.034 198.941 66.162 199.131 66.3239C199.512 66.6478 200.067 67.108 200.777 67.6656C202.195 68.78 204.24 70.2883 206.758 71.8757C207.661 72.445 208.89 72.2267 209.503 71.3881C210.116 70.5495 209.881 69.4082 208.978 68.8389C206.597 67.3376 204.663 65.9111 203.329 64.8629C202.662 64.3393 202.146 63.9113 201.801 63.6173C201.628 63.4703 201.498 63.3569 201.413 63.2818C201.37 63.2443 201.339 63.2163 201.319 63.1986L201.298 63.1798L201.294 63.1764" fill="#BAE6FD"/>
<path fill-rule="evenodd" clip-rule="evenodd" d="M208.898 55.0533C207.515 56.3645 207.515 56.3647 207.516 56.3648L207.52 56.369L207.53 56.3775L207.562 56.4065C207.589 56.431 207.628 56.4658 207.679 56.5104C207.78 56.5994 207.927 56.7274 208.117 56.8894C208.498 57.2132 209.053 57.6734 209.763 58.2311C211.182 59.3454 213.227 60.8537 215.745 62.4412C216.648 63.0105 217.877 62.7922 218.49 61.9536C219.103 61.115 218.868 59.9736 217.965 59.4043C215.583 57.903 213.65 56.4766 212.315 55.4284C211.648 54.9047 211.133 54.4768 210.787 54.1827C210.614 54.0357 210.484 53.9223 210.399 53.8472C210.356 53.8097 210.325 53.7818 210.305 53.764L210.284 53.7452L210.28 53.7418" fill="#BAE6FD"/>
<path fill-rule="evenodd" clip-rule="evenodd" d="M199.185 70.8008C199.185 70.8008 199.185 70.8007 199.185 70.8008L199.209 70.8185L199.283 70.8738C199.348 70.9226 199.444 70.9946 199.568 71.0861C199.815 71.2692 200.17 71.5303 200.597 71.8406C201.454 72.4625 202.596 73.2762 203.75 74.0539C204.633 74.6495 204.829 75.7971 204.188 76.6173C203.547 77.4376 202.311 77.6197 201.428 77.0242C200.223 76.2118 199.041 75.3694 198.164 74.7328C197.724 74.4138 197.359 74.1451 197.103 73.9556C196.975 73.8608 196.875 73.7858 196.806 73.7342L196.726 73.6748L196.698 73.6536C196.698 73.6536 196.697 73.6531 197.941 72.2269L196.698 73.6536C195.85 73.0157 195.718 71.8594 196.405 71.0718C197.092 70.2842 198.337 70.1628 199.185 70.8008Z" fill="#BAE6FD"/>
<path fill-rule="evenodd" clip-rule="evenodd" d="M187.913 39.0468C187.913 39.0469 187.913 39.0468 187.913 39.0468L187.937 39.0646L188.011 39.1199C188.076 39.1687 188.173 39.2407 188.297 39.3322C188.544 39.5153 188.898 39.7763 189.326 40.0866C190.183 40.7086 191.325 41.5223 192.478 42.3C193.362 42.8955 193.558 44.0432 192.916 44.8634C192.275 45.6836 191.039 45.8658 190.156 45.2703C188.951 44.4579 187.769 43.6155 186.892 42.9789C186.453 42.6599 186.088 42.3911 185.832 42.2017C185.704 42.1069 185.603 42.0319 185.534 41.9803L185.455 41.9209L185.427 41.8997C185.426 41.8997 185.426 41.8992 186.67 40.473L185.427 41.8997C184.578 41.2618 184.447 40.1055 185.134 39.3179C185.821 38.5303 187.065 38.4089 187.913 39.0468Z" fill="#BAE6FD"/>
<path fill-rule="evenodd" clip-rule="evenodd" d="M193.476 32.6709C193.476 32.6709 193.476 32.6709 193.476 32.6709L193.5 32.6887L193.574 32.744C193.639 32.7927 193.735 32.8647 193.859 32.9562C194.106 33.1393 194.461 33.4004 194.888 33.7107C195.745 34.3326 196.887 35.1463 198.041 35.9241C198.924 36.5196 199.12 37.6672 198.479 38.4875C197.838 39.3077 196.602 39.4898 195.719 38.8943C194.514 38.0819 193.332 37.2395 192.455 36.6029C192.015 36.284 191.65 36.0152 191.394 35.8257C191.266 35.7309 191.166 35.6559 191.097 35.6043L191.017 35.5449L190.989 35.5238C190.989 35.5237 190.988 35.5232 192.232 34.097L190.989 35.5238C190.141 34.8858 190.009 33.7296 190.696 32.9419C191.383 32.1543 192.628 32.033 193.476 32.6709Z" fill="#BAE6FD"/>
<path fill-rule="evenodd" clip-rule="evenodd" d="M197.751 26.0273C197.751 26.0273 197.751 26.0273 197.751 26.0273L197.775 26.0451L197.849 26.1004C197.914 26.1492 198.011 26.2211 198.134 26.3126C198.382 26.4957 198.736 26.7568 199.164 27.0671C200.021 27.689 201.163 28.5027 202.316 29.2805C203.199 29.876 203.396 31.0237 202.754 31.8439C202.113 32.6641 200.877 32.8463 199.994 32.2508C198.789 31.4383 197.607 30.596 196.73 29.9594C196.291 29.6404 195.926 29.3716 195.67 29.1821C195.542 29.0874 195.441 29.0124 195.372 28.9608L195.293 28.9013L195.264 28.8802C195.264 28.8802 195.264 28.8797 196.508 27.4535L195.264 28.8802C194.416 28.2422 194.285 27.086 194.972 26.2984C195.659 25.5107 196.903 25.3894 197.751 26.0273Z" fill="#BAE6FD"/>
<path fill-rule="evenodd" clip-rule="evenodd" d="M210.082 36.8002C210.825 36.0581 212.075 36.0159 212.875 36.7059C212.875 36.706 212.874 36.7058 212.875 36.7059L211.529 38.0501C212.875 36.7062 212.875 36.706 212.875 36.7059L212.877 36.708L212.889 36.7181L212.941 36.7624C212.988 36.8024 213.06 36.8633 213.155 36.9433C213.347 37.1034 213.633 37.3401 214.005 37.6408C214.751 38.2424 215.84 39.0992 217.206 40.1096C219.942 42.1334 223.767 44.76 228.139 47.1879C229.076 47.708 229.381 48.8349 228.821 49.7049C228.261 50.5749 227.048 50.8584 226.111 50.3383C221.544 47.8023 217.571 45.0723 214.743 42.9806C213.328 41.9333 212.195 41.0425 211.412 40.4111C211.021 40.0953 210.717 39.8441 210.51 39.6703C210.406 39.5835 210.326 39.5159 210.271 39.4694L210.208 39.4154L210.191 39.4006L210.184 39.3949C210.184 39.3947 210.183 39.394 211.529 38.0501L210.183 39.394C209.384 38.7037 209.339 37.5425 210.082 36.8002Z" fill="#BAE6FD"/>
<path fill-rule="evenodd" clip-rule="evenodd" d="M205.957 43.4721C206.7 42.73 207.95 42.6878 208.75 43.3778C208.75 43.3779 208.749 43.3777 208.75 43.3778L207.404 44.722C208.75 43.3781 208.75 43.3779 208.75 43.3778L208.752 43.3799L208.764 43.39L208.816 43.4343C208.863 43.4743 208.935 43.5352 209.03 43.6152C209.222 43.7752 209.508 44.012 209.88 44.3127C210.626 44.9143 211.715 45.771 213.081 46.7815C215.817 48.8053 219.642 51.4319 224.014 53.8598C224.951 54.3799 225.256 55.5068 224.696 56.3768C224.136 57.2467 222.923 57.5303 221.986 57.0101C217.419 54.4742 213.446 51.7442 210.618 49.6525C209.203 48.6052 208.07 47.7144 207.287 47.083C206.896 46.7671 206.592 46.516 206.385 46.3422C206.281 46.2554 206.201 46.1878 206.146 46.1412L206.083 46.0873L206.066 46.0724L206.059 46.0667C206.059 46.0666 206.058 46.0659 207.404 44.722L206.058 46.0659C205.259 45.3756 205.214 44.2143 205.957 43.4721Z" fill="#BAE6FD"/>
<path d="M185.875 29.986C212.225 48.3389 233.304 52.0094 233.963 52.0094L237.915 44.6683L196.415 15.3037L191.145 23.2566L185.875 29.986Z" fill="#F0F9FF"/>
</g>
<g clip-path="url(#clip1_21_6189)">
<path d="M34.5755 100.035C35.2831 98.4997 37.0126 97.622 38.7647 97.9995C44.9202 99.3257 60.9623 103.446 90.3334 115.119C119.704 126.793 133.989 134.726 139.272 137.946C140.776 138.863 141.286 140.63 140.578 142.166L122.303 181.823C121.362 183.864 118.711 184.682 116.638 183.579C108.503 179.25 88.8069 169.078 69.0803 161.238C49.3537 153.397 27.832 147.187 18.8438 144.711C16.5521 144.079 15.3596 141.733 16.3001 139.692L34.5755 100.035Z" fill="#F0F9FF"/>
<path fill-rule="evenodd" clip-rule="evenodd" d="M89.5541 116.807C60.2642 105.165 44.3342 101.084 38.3163 99.7875C37.5573 99.624 36.7463 99.9857 36.3906 100.758L18.1152 140.415C17.6418 141.442 18.2407 142.631 19.4041 142.951C28.4143 145.434 50.0231 151.668 69.8561 159.55C89.6892 167.433 109.464 177.647 117.618 181.987C118.671 182.547 120.011 182.128 120.484 181.101L138.76 141.444C139.115 140.672 138.837 139.878 138.186 139.481C133.021 136.333 118.844 128.448 89.5541 116.807ZM39.2095 96.2119C45.5027 97.5677 61.6569 101.726 91.1092 113.432C120.561 125.138 134.954 133.12 140.354 136.412C142.71 137.848 143.453 140.589 142.393 142.888L124.118 182.545C122.71 185.6 118.748 186.818 115.653 185.171C107.539 180.853 87.9212 170.723 68.301 162.925C48.6809 155.127 27.2461 148.94 18.28 146.47C14.8599 145.528 13.0739 142.025 14.4816 138.97L32.7569 99.3135C33.8165 97.0142 36.4643 95.6205 39.2095 96.2119Z" fill="#BAE6FD"/>
<path fill-rule="evenodd" clip-rule="evenodd" d="M41.4631 110.957L41.4815 110.961C41.4998 110.964 41.5302 110.97 41.573 110.978C41.6585 110.995 41.7936 111.022 41.9799 111.062C42.3525 111.141 42.9297 111.27 43.7251 111.465C45.316 111.853 47.7788 112.504 51.2216 113.543C58.1077 115.62 68.909 119.25 84.4887 125.442C100.068 131.634 110.353 136.385 116.725 139.577C119.911 141.173 122.118 142.378 123.52 143.179C124.22 143.579 124.719 143.878 125.038 144.074C125.197 144.171 125.312 144.243 125.384 144.289C125.42 144.312 125.446 144.329 125.461 144.338L125.476 144.348C125.476 144.348 125.476 144.349 125.476 144.348C125.476 144.349 125.477 144.349 125.478 144.349C125.478 144.349 125.478 144.349 125.478 144.349C126.367 144.936 127.6 144.743 128.232 143.917C128.865 143.091 128.657 141.946 127.768 141.358L126.781 142.646C127.768 141.358 127.768 141.358 127.768 141.358L127.762 141.354L127.753 141.348L127.723 141.329C127.699 141.313 127.664 141.29 127.618 141.261C127.527 141.203 127.394 141.12 127.216 141.01C126.86 140.792 126.326 140.472 125.59 140.053C124.12 139.213 121.848 137.973 118.602 136.346C112.109 133.094 101.716 128.296 86.0438 122.067C70.3718 115.838 59.4585 112.168 52.4428 110.052C48.9347 108.993 46.3999 108.323 44.7308 107.915C43.8962 107.711 43.2779 107.573 42.8624 107.484C42.6547 107.44 42.4976 107.408 42.3895 107.387C42.3355 107.376 42.2937 107.369 42.264 107.363L42.2284 107.356L42.2173 107.354L42.2119 107.353C42.2112 107.353 42.2106 107.353 41.8369 109.155L42.2119 107.353C41.1401 107.162 40.1027 107.813 39.8963 108.808C39.6899 109.803 40.3919 110.765 41.4631 110.957Z" fill="#BAE6FD"/>
<path fill-rule="evenodd" clip-rule="evenodd" d="M70.0818 127.162C69.6782 128.104 68.5289 128.564 67.5149 128.189C56.8591 124.25 49.4009 121.904 44.6244 120.546C42.2363 119.866 40.5193 119.434 39.409 119.174C38.8539 119.044 38.4505 118.956 38.1909 118.902C38.061 118.875 37.9671 118.857 37.9082 118.845L37.8458 118.834L37.8351 118.832C36.7639 118.64 36.062 117.677 36.2683 116.682C36.4748 115.687 37.5109 115.036 38.5827 115.227L38.2089 117.029C38.5827 115.227 38.5821 115.227 38.5827 115.227L38.588 115.228L38.5964 115.23L38.6228 115.235C38.6447 115.239 38.6751 115.244 38.7141 115.252C38.7921 115.267 38.9047 115.289 39.0529 115.32C39.3493 115.382 39.788 115.477 40.3771 115.615C41.5552 115.891 43.3354 116.34 45.7817 117.036C50.674 118.427 58.2342 120.808 68.9764 124.778C69.9905 125.153 70.4854 126.221 70.0818 127.162Z" fill="#BAE6FD"/>
<path fill-rule="evenodd" clip-rule="evenodd" d="M66.5232 134.886C66.1196 135.828 64.9703 136.287 63.9562 135.912C53.3005 131.974 45.8423 129.628 41.0658 128.269C38.6777 127.59 36.9607 127.158 35.8504 126.897C35.2953 126.767 34.8919 126.68 34.6323 126.626C34.5024 126.599 34.4085 126.58 34.3496 126.569L34.2872 126.557L34.2765 126.555C33.2053 126.363 32.5034 125.401 32.7098 124.406C32.9162 123.411 33.9523 122.759 35.0241 122.951L34.6503 124.753C35.0241 122.951 35.0235 122.951 35.0241 122.951L35.0294 122.952L35.0378 122.953L35.0642 122.958C35.0861 122.962 35.1165 122.968 35.1555 122.976C35.2335 122.991 35.3461 123.013 35.4943 123.044C35.7907 123.105 36.2294 123.2 36.8185 123.339C37.9966 123.615 39.7768 124.064 42.2231 124.759C47.1154 126.151 54.6756 128.532 65.4178 132.502C66.4319 132.877 66.9268 133.944 66.5232 134.886Z" fill="#BAE6FD"/>
<path fill-rule="evenodd" clip-rule="evenodd" d="M110.591 144.652C102.879 140.14 95.7085 139.324 89.3099 142.331C87.0061 141.435 84.5008 140.847 82.3889 140.796C81.3124 140.77 80.3182 140.884 79.4995 141.181C78.6753 141.481 78.0142 141.975 77.6498 142.708L76.7719 144.475C76.3098 144.432 75.8381 144.675 75.6252 145.103L74.2932 147.784C74.0305 148.313 74.2608 148.924 74.8073 149.15L114.985 165.718C115.532 165.944 116.188 165.697 116.451 165.169L117.783 162.488C117.996 162.06 117.885 161.577 117.545 161.289L119.421 157.511C119.626 157.099 119.536 156.62 119.196 156.323L116.001 153.528C115.859 152.036 115.559 150.499 114.788 149.006C113.996 147.471 112.713 145.999 110.624 144.672L110.599 144.656L110.591 144.652ZM77.091 144.554C76.9874 144.511 76.8799 144.485 76.7719 144.475L77.091 144.554ZM89.2643 142.313C89.2246 142.298 89.1845 142.282 89.2614 142.312C89.2402 142.304 89.2488 142.307 89.2643 142.313ZM103.245 148.072L105.112 144.314C106.492 144.879 107.907 145.578 109.361 146.429C110.032 146.856 110.598 147.297 111.082 147.75L109.587 150.688L103.245 148.072ZM101.265 147.256L92.0529 143.457C95.4911 142.299 99.143 142.331 103.091 143.581L101.265 147.256ZM111.568 151.504L112.56 149.553C113.078 150.42 113.4 151.344 113.6 152.342L111.568 151.504ZM81.0152 144.096C81.2139 143.696 81.1305 143.249 80.8416 142.957C81.4836 142.846 82.3491 142.828 83.4032 142.95C84.9131 143.126 86.7713 143.586 88.8343 144.437L114.304 154.94L117.098 157.385L116.918 157.748L116.523 157.585C115.976 157.359 115.32 157.605 115.057 158.134C114.794 158.663 115.025 159.275 115.571 159.5L115.967 159.663L115.11 161.386C114.898 161.815 115.008 162.298 115.349 162.586L114.947 163.395L76.749 147.643L77.1511 146.833C77.6132 146.877 78.0849 146.634 78.2978 146.205L79.1539 144.482L79.5494 144.645C80.0959 144.871 80.7524 144.625 81.0152 144.096Z" fill="#BAE6FD"/>
<path fill-rule="evenodd" clip-rule="evenodd" d="M110.223 145.189C102.631 140.75 95.7072 140.015 89.5853 142.892L89.3123 143.02L89.0398 142.914C86.7852 142.038 84.359 141.474 82.3485 141.426C81.3225 141.401 80.4246 141.511 79.7185 141.768C79.0176 142.023 78.5212 142.415 78.2521 142.957L77.3744 144.723L77.1257 144.62L76.9059 145.161L76.6465 145.097C76.4749 145.096 76.3068 145.192 76.2281 145.35L74.8965 148.029C74.7913 148.241 74.884 148.486 75.1018 148.576L115.267 165.134C115.484 165.224 115.746 165.126 115.851 164.915L117.183 162.236C117.268 162.066 117.225 161.871 117.088 161.756L116.735 161.458L118.821 157.262C118.903 157.097 118.867 156.905 118.731 156.787L115.362 153.839L115.34 153.61C115.201 152.157 114.913 150.701 114.189 149.3C113.448 147.866 112.242 146.472 110.238 145.199C110.238 145.199 110.237 145.198 110.237 145.198L110.223 145.189C110.223 145.189 110.222 145.189 110.223 145.189ZM76.3605 143.881L77.0628 142.468C77.5221 141.543 78.3475 140.949 79.2945 140.605C80.2254 140.266 81.3151 140.15 82.4415 140.177C84.5685 140.229 87.0385 140.796 89.3159 141.652C95.9157 138.669 103.233 139.604 110.953 144.119L110.97 144.129L111.006 144.151C113.178 145.531 114.536 147.078 115.379 148.711C116.156 150.215 116.475 151.751 116.63 153.211L119.649 155.852M118.372 162.726L117.041 165.404C116.621 166.249 115.57 166.644 114.695 166.283L74.5298 149.724C73.6549 149.364 73.2872 148.385 73.7072 147.54L75.0388 144.861C75.3004 144.335 75.8057 143.984 76.3605 143.881M88.994 142.896L89.0037 142.9C89.0053 142.9 89.0204 142.906 89.0394 142.911C89.0399 142.911 89.0406 142.911 89.0413 142.911C89.0475 142.913 89.0577 142.916 89.0704 142.919C89.0793 142.921 89.1145 142.929 89.16 142.933C89.1876 142.935 89.2638 142.935 89.3122 142.93C89.3611 142.92 89.454 142.88 89.5512 142.822C89.6458 142.766 89.7445 142.695 89.8107 142.62C89.899 142.409 89.8718 142.07 89.817 141.965C89.7836 141.919 89.7234 141.855 89.6997 141.834C89.6606 141.801 89.6257 141.781 89.6189 141.777C89.6058 141.769 89.595 141.764 89.5895 141.761C89.5883 141.76 89.5873 141.76 89.5862 141.759L89.5841 141.764C89.5757 141.758 89.5689 141.754 89.5649 141.752C89.5583 141.749 89.5482 141.744 89.5421 141.741L89.2864 142.279L88.9941 142.895C88.9942 142.895 88.9939 142.895 88.9941 142.895L88.994 142.896ZM88.9941 142.895C89.0023 142.897 89.0138 142.9 89.026 142.903C89.0298 142.904 89.0358 142.905 89.0435 142.907C89.0793 142.913 89.1516 142.922 89.2097 142.924C89.3233 142.877 89.4185 142.8 89.4951 142.707C89.7315 142.42 89.7905 141.981 89.667 141.82C89.6413 141.801 89.6067 141.778 89.5841 141.764L89.3137 142.335L89.2864 142.279L88.9941 142.895ZM105.395 143.742C106.805 144.319 108.246 145.031 109.723 145.895L109.733 145.901L109.744 145.908C110.445 146.354 111.04 146.817 111.553 147.297L111.876 147.599L109.888 151.504L102.364 148.402L104.801 143.5L105.395 143.742ZM105.417 145.142L104.124 147.744L109.282 149.87L110.278 147.912C109.9 147.59 109.473 147.272 108.983 146.96C107.765 146.248 106.577 145.645 105.417 145.142ZM103.996 143.203L101.574 148.077L90.2599 143.412L91.86 142.873C95.4598 141.661 99.2632 141.706 103.325 142.991L103.996 143.203ZM94.0011 143.57L100.956 146.438L102.18 143.975C99.2786 143.155 96.5687 143.031 94.0011 143.57ZM112.522 148.206L113.134 149.227C113.693 150.161 114.034 151.149 114.244 152.197L114.486 153.399L110.679 151.829L112.522 148.206ZM112.53 151.017L112.45 151.175L112.613 151.243C112.587 151.167 112.559 151.092 112.53 151.017ZM83.5183 142.334C85.0967 142.518 87.0136 142.996 89.1244 143.866L114.682 154.402L117.894 157.212L117.222 158.562L116.232 158.154C116.015 158.064 115.752 158.162 115.647 158.374C115.542 158.585 115.635 158.83 115.853 158.92L116.842 159.328L115.701 161.624C115.616 161.794 115.659 161.988 115.796 162.104L116.149 162.401L115.252 164.206L75.877 147.973L76.7738 146.169L77.2531 146.214C77.4378 146.231 77.6259 146.133 77.7105 145.963L78.8521 143.666L79.8424 144.074C80.0598 144.164 80.322 144.066 80.427 143.855C80.5061 143.696 80.474 143.516 80.3575 143.398L79.5262 142.559L80.7586 142.347C81.4846 142.221 82.4197 142.207 83.5183 142.334ZM88.5523 145.014C86.5384 144.184 84.74 143.741 83.2996 143.574C82.7238 143.507 82.2175 143.485 81.7853 143.497C81.8069 143.776 81.754 144.067 81.6163 144.344C81.2286 145.124 80.3041 145.52 79.4759 145.293L78.8998 146.452C78.6725 146.909 78.2614 147.234 77.7937 147.379L114.476 162.502C114.288 162.087 114.284 161.592 114.511 161.135L115.088 159.975C114.354 159.558 114.07 158.665 114.458 157.884C114.691 157.415 115.119 157.085 115.603 156.946L113.917 155.471L88.5523 145.014Z" fill="#BAE6FD"/>
<path d="M89.021 153.385C88.1209 155.232 85.7792 156.051 83.7905 155.215C81.8018 154.379 80.9194 152.205 81.8195 150.358C82.7196 148.511 85.0613 147.691 87.05 148.527C89.0387 149.363 89.9211 151.538 89.021 153.385Z" fill="#F0F9FF"/>
<path fill-rule="evenodd" clip-rule="evenodd" d="M86.2343 150.205C85.24 149.787 84.0691 150.197 83.619 151.12C83.169 152.044 83.6102 153.131 84.6046 153.549C85.5989 153.967 86.7698 153.557 87.2198 152.634C87.6699 151.71 87.2286 150.623 86.2343 150.205ZM80.0183 149.607C81.3684 146.837 84.8811 145.607 87.8641 146.861C90.8471 148.115 92.1708 151.377 90.8206 154.147C89.4705 156.918 85.9578 158.147 82.9748 156.893C79.9918 155.639 78.6681 152.377 80.0183 149.607Z" fill="#BAE6FD"/>
<path d="M109.425 161.969C108.525 163.816 106.183 164.635 104.195 163.799C102.206 162.963 101.324 160.788 102.224 158.942C103.124 157.095 105.466 156.275 107.454 157.111C109.443 157.947 110.325 160.122 109.425 161.969Z" fill="#F0F9FF"/>
<path fill-rule="evenodd" clip-rule="evenodd" d="M106.639 158.784C105.644 158.366 104.473 158.776 104.023 159.699C103.573 160.623 104.015 161.71 105.009 162.128C106.003 162.546 107.174 162.136 107.624 161.213C108.074 160.29 107.633 159.202 106.639 158.784ZM100.423 158.186C101.773 155.416 105.285 154.186 108.268 155.44C111.251 156.694 112.575 159.956 111.225 162.727C109.875 165.497 106.362 166.726 103.379 165.472C100.396 164.218 99.0724 160.956 100.423 158.186Z" fill="#BAE6FD"/>
<path d="M28.2649 135.497L29.5285 132.755C29.7834 132.202 30.434 131.902 31.0583 132.062C33.5319 132.7 35.9434 133.506 37.5176 134.079C38.1952 134.325 38.5055 135.043 38.2192 135.664L36.9521 138.414C36.6658 139.035 35.8918 139.323 35.2138 139.077C33.1307 138.324 30.791 137.633 29.1279 137.178C28.3588 136.968 27.9494 136.182 28.2649 135.497Z" fill="#BAE6FD"/>
<path d="M40.8923 139.198L42.1595 136.448C42.4141 135.895 43.0557 135.596 43.675 135.77C47.8043 136.93 57.6987 140.33 61.2834 141.611C61.9625 141.854 62.2711 142.562 61.9848 143.183L60.7139 145.941C60.4276 146.562 59.6552 146.855 58.9766 146.611C55.0567 145.203 45.5232 142.085 41.7369 140.92C40.9751 140.686 40.5766 139.883 40.8923 139.198Z" fill="#BAE6FD"/>
<path opacity="0.5" d="M22.4287 131.235C50.7768 125.294 105.781 123.124 105.781 123.124C105.781 123.124 56.0244 103.094 42.1906 100.647C37.8499 99.8795 37.3687 99.2548 36.2619 100.647L22.4287 131.235Z" fill="#F0F9FF"/>
<path fill-rule="evenodd" clip-rule="evenodd" d="M45.0033 170.595C45.7934 171.295 45.8235 172.456 45.0705 173.19L31.1592 186.746C30.4062 187.48 29.1553 187.508 28.3652 186.809C27.5751 186.109 27.545 184.948 28.298 184.214L42.2093 170.658C42.9623 169.924 44.2132 169.896 45.0033 170.595Z" fill="#BAE6FD"/>
<path fill-rule="evenodd" clip-rule="evenodd" d="M60.0508 176.683C60.8574 177.366 60.9154 178.527 60.1802 179.276L40.0114 199.828C39.2763 200.577 38.0263 200.631 37.2196 199.948C36.413 199.265 36.355 198.104 37.0902 197.355L57.259 176.803C57.9941 176.054 59.2441 176.001 60.0508 176.683Z" fill="#BAE6FD"/>
<path fill-rule="evenodd" clip-rule="evenodd" d="M75.306 184.054C76.0961 184.754 76.1262 185.915 75.3732 186.649L61.4619 200.205C60.7089 200.939 59.458 200.967 58.6679 200.268C57.8778 199.568 57.8477 198.407 58.6007 197.673L72.512 184.117C73.265 183.383 74.5159 183.355 75.306 184.054Z" fill="#BAE6FD"/>
</g>
<g clip-path="url(#clip2_21_6189)">
<path d="M231.941 419.495C230.536 417.128 231.463 414.151 234.011 412.846L255.905 401.636C258.454 400.331 261.66 401.192 263.065 403.559L274.029 422.026C275.434 424.393 274.507 427.37 271.958 428.675L250.064 439.885C247.516 441.19 244.31 440.33 242.905 437.963L231.941 419.495Z" fill="#F0F9FF"/>
<path fill-rule="evenodd" clip-rule="evenodd" d="M257.814 404.85L235.92 416.06C235.283 416.387 235.051 417.131 235.402 417.723L246.366 436.19C246.717 436.782 247.519 436.997 248.156 436.671L270.05 425.461C270.687 425.135 270.919 424.39 270.568 423.799L259.604 405.331C259.252 404.739 258.451 404.524 257.814 404.85ZM234.011 412.846C231.463 414.151 230.536 417.128 231.941 419.495L242.905 437.963C244.31 440.33 247.516 441.19 250.064 439.885L271.958 428.675C274.507 427.37 275.434 424.393 274.029 422.026L263.065 403.559C261.66 401.192 258.454 400.331 255.905 401.636L234.011 412.846Z" fill="#BAE6FD"/>
<path d="M237.091 443.606C235.686 441.239 236.613 438.262 239.162 436.957L275.112 418.55C277.66 417.245 280.866 418.106 282.271 420.473L296.556 444.535C297.962 446.902 297.035 449.879 294.486 451.184L258.536 469.591C255.987 470.896 252.782 470.035 251.377 467.668L237.091 443.606Z" fill="#F0F9FF"/>
<path fill-rule="evenodd" clip-rule="evenodd" d="M277.02 421.764L241.07 440.172C240.433 440.498 240.201 441.242 240.553 441.834L254.838 465.896C255.189 466.488 255.99 466.703 256.628 466.377L292.578 447.97C293.215 447.643 293.446 446.899 293.095 446.307L278.81 422.245C278.459 421.653 277.657 421.438 277.02 421.764ZM239.162 436.957C236.613 438.262 235.686 441.239 237.091 443.606L251.377 467.668C252.782 470.035 255.987 470.896 258.536 469.591L294.486 451.184C297.035 449.879 297.962 446.902 296.556 444.535L282.271 420.473C280.866 418.106 277.66 417.245 275.112 418.55L239.162 436.957Z" fill="#BAE6FD"/>
<path fill-rule="evenodd" clip-rule="evenodd" d="M248.381 411.903C249.337 411.414 250.539 411.736 251.066 412.624L256.048 421.016C256.575 421.903 256.227 423.019 255.271 423.509C254.315 423.998 253.113 423.675 252.586 422.788L247.605 414.396C247.078 413.509 247.425 412.392 248.381 411.903Z" fill="#FECACA"/>
<path fill-rule="evenodd" clip-rule="evenodd" d="M256.378 425.375C255.919 425.61 255.379 425.666 254.875 425.531L245.53 423.021C244.481 422.739 243.877 421.722 244.18 420.748C244.484 419.774 245.579 419.213 246.628 419.495L254.075 421.495L256.228 414.579C256.532 413.605 257.627 413.044 258.676 413.326C259.724 413.607 260.328 414.625 260.025 415.599L257.322 424.278C257.177 424.745 256.837 425.14 256.378 425.375Z" fill="#FECACA"/>
<path d="M275.637 440.174C277.165 442.749 280.652 443.685 283.424 442.266L289.217 439.3C291.008 438.383 291.66 436.29 290.672 434.627L288.713 431.327C287.725 429.664 285.473 429.059 283.681 429.976L277.889 432.942C275.116 434.361 274.108 437.599 275.637 440.174Z" fill="#F0F9FF"/>
<path fill-rule="evenodd" clip-rule="evenodd" d="M273.905 441.052C275.961 444.514 280.649 445.774 284.378 443.865L290.17 440.899C292.917 439.492 293.916 436.284 292.402 433.733L290.443 430.433C288.928 427.882 285.473 426.954 282.726 428.361L276.934 431.326C273.205 433.235 271.85 437.59 273.905 441.052ZM282.469 440.65C280.653 441.581 278.368 440.967 277.366 439.28C276.365 437.593 277.025 435.471 278.842 434.541L284.634 431.575C285.47 431.147 286.521 431.429 286.982 432.206L288.94 435.505C289.401 436.281 289.097 437.257 288.261 437.685L282.469 440.65Z" fill="#BAE6FD"/>
<path d="M286.681 434.513C287.292 435.544 286.889 436.839 285.78 437.407C284.671 437.975 283.276 437.6 282.664 436.57C282.053 435.539 282.456 434.244 283.565 433.676C284.674 433.108 286.069 433.483 286.681 434.513Z" fill="#BAE6FD"/>
</g>
<g clip-path="url(#clip3_21_6189)">
<path d="M317.585 232.423L348.223 299.637L310.728 308.809L268.921 308.267L245.621 327.483L232.132 263.387L253.413 243.777L291.731 250.341L317.585 232.423Z" fill="#F0F9FF"/>
<path fill-rule="evenodd" clip-rule="evenodd" d="M244.988 329.222C244.316 329.011 243.817 328.482 243.681 327.836L230.192 263.739C230.065 263.137 230.27 262.516 230.739 262.084L252.021 242.474C252.48 242.051 253.134 241.863 253.771 241.972L291.24 248.391L316.402 230.952C316.889 230.615 317.515 230.504 318.101 230.652C318.687 230.799 319.167 231.189 319.404 231.708L350.042 298.922C350.266 299.412 350.249 299.969 349.997 300.446C349.744 300.924 349.28 301.277 348.726 301.412L311.23 310.584C311.057 310.626 310.879 310.647 310.7 310.644L269.659 310.113L246.933 328.856C246.402 329.293 245.66 329.433 244.988 329.222ZM246.896 323.977L267.608 306.895C267.977 306.591 268.455 306.426 268.948 306.432L310.485 306.971L345.514 298.402L316.747 235.294L292.912 251.812C292.471 252.117 291.913 252.238 291.371 252.146L254.071 245.756L234.273 263.999L246.896 323.977Z" fill="#BAE6FD"/>
<path fill-rule="evenodd" clip-rule="evenodd" d="M312.63 308.784C312.63 308.784 312.63 308.784 310.747 309.341C308.864 309.897 308.864 309.897 308.864 309.897L308.723 309.487C308.631 309.218 308.495 308.82 308.32 308.306C307.969 307.277 307.459 305.782 306.826 303.916C305.558 300.184 303.794 294.968 301.805 289.032C297.83 277.161 292.955 262.396 289.37 250.849L293.167 249.832C296.741 261.34 301.606 276.075 305.58 287.941C307.566 293.873 309.329 299.084 310.595 302.812C311.228 304.676 311.737 306.17 312.087 307.197C312.263 307.71 312.398 308.107 312.49 308.376L312.63 308.784ZM255.071 242.696L270.172 307.168L266.31 307.949L251.209 243.477L255.071 242.696Z" fill="#BAE6FD"/>
<path d="M290.165 251.443L308.375 307.29L269.94 306.97L255.534 245.671L290.165 251.443Z" fill="#F0F9FF"/>
<path fill-rule="evenodd" clip-rule="evenodd" d="M240.927 312.093C240.322 311.249 240.568 310.109 241.477 309.548C242.465 308.936 243.381 308.215 244.207 307.398C244.954 306.659 246.205 306.622 247 307.316C247.796 308.009 247.836 309.171 247.089 309.91C246.059 310.928 244.913 311.833 243.667 312.603C242.759 313.165 241.532 312.936 240.927 312.093ZM248.384 305.337C247.382 304.935 246.922 303.854 247.356 302.924C248.281 300.939 248.811 298.711 248.835 296.337C248.845 295.324 249.738 294.51 250.83 294.52C251.921 294.529 252.798 295.358 252.787 296.372C252.758 299.234 252.119 301.946 250.983 304.383C250.549 305.313 249.385 305.74 248.384 305.337ZM306.2 290.622C307.453 290.691 308.598 290.615 309.639 290.424C310.71 290.228 311.75 290.875 311.961 291.869C312.172 292.863 311.475 293.829 310.405 294.025C309.017 294.279 307.536 294.373 305.966 294.286C304.782 294.221 303.682 294.113 302.661 293.962C301.583 293.803 300.848 292.862 301.02 291.861C301.191 290.86 302.204 290.178 303.282 290.337C304.159 290.467 305.128 290.563 306.2 290.622ZM299.963 291.643C299.491 292.557 298.311 292.942 297.327 292.504C294.767 291.365 293.082 289.735 291.976 287.766C291.471 286.867 291.846 285.759 292.814 285.29C293.782 284.821 294.975 285.169 295.48 286.068C296.201 287.352 297.266 288.407 299.035 289.194C300.019 289.633 300.435 290.729 299.963 291.643ZM314.166 290.927C313.476 290.142 313.603 288.986 314.449 288.345C316.113 287.085 317.352 285.383 318.127 283.481C316.74 283.702 315.345 283.693 314.044 283.509C312.965 283.357 312.223 282.421 312.387 281.419C312.551 280.417 313.559 279.728 314.638 279.88C316.307 280.116 318.069 279.928 319.55 279.234C319.256 278.931 319.068 278.536 319.044 278.097C318.986 277.004 318.776 275.956 318.426 274.996C318.055 273.982 317.366 273.392 316.57 273.097C315.557 272.72 315.064 271.652 315.47 270.711C315.875 269.77 317.025 269.312 318.039 269.689C319.901 270.381 321.425 271.782 322.169 273.817C322.417 274.496 322.609 275.197 322.747 275.911C322.763 275.856 322.782 275.802 322.804 275.748C323.113 274.986 323.34 274.081 323.442 273.009C323.548 271.909 323.58 270.946 323.552 270.1C323.52 269.087 324.377 268.241 325.468 268.21C326.559 268.18 327.47 268.976 327.503 269.99C327.536 271.004 327.496 272.113 327.379 273.334C327.249 274.701 326.951 275.935 326.503 277.04C326.119 277.989 324.979 278.469 323.958 278.112C323.516 277.957 323.169 277.672 322.948 277.321C322.967 277.518 322.981 277.716 322.992 277.914C323.017 278.381 322.852 278.816 322.559 279.155C322.668 279.253 322.767 279.364 322.853 279.489C323.441 280.343 323.171 281.478 322.252 282.023C321.994 282.176 321.732 282.317 321.465 282.447C322.017 282.929 322.243 283.685 321.977 284.391C321.005 286.965 319.337 289.379 316.947 291.19C316.101 291.83 314.856 291.713 314.166 290.927ZM250.473 292.192C249.423 292.468 248.33 291.902 248.032 290.927C247.706 289.859 247.275 288.776 246.729 287.684C246.239 286.702 245.798 285.78 245.403 284.909C244.98 283.974 245.453 282.898 246.459 282.505C247.465 282.112 248.624 282.551 249.047 283.486C249.42 284.31 249.841 285.191 250.315 286.139C250.946 287.403 251.45 288.668 251.834 289.925C252.132 290.9 251.523 291.915 250.473 292.192ZM268.949 284.954C268.901 285.966 267.978 286.751 266.888 286.707C264.057 286.591 261.377 285.625 259.225 284.166C258.343 283.568 258.15 282.42 258.794 281.601C259.437 280.783 260.673 280.603 261.555 281.201C263.137 282.273 265.077 282.959 267.062 283.04C268.152 283.084 268.997 283.941 268.949 284.954ZM270.699 284.59C270.186 283.695 270.552 282.584 271.515 282.108C272.318 281.711 273.114 281.173 273.881 280.462C274.683 279.719 275.198 279.056 275.529 278.466C276.033 277.567 277.227 277.218 278.195 277.686C279.163 278.154 279.539 279.263 279.034 280.162C278.485 281.141 277.707 282.102 276.672 283.061C275.641 284.017 274.532 284.775 273.371 285.348C272.408 285.824 271.211 285.485 270.699 284.59ZM292.592 284.301C291.517 284.476 290.493 283.809 290.305 282.81C290.121 281.835 289.984 280.829 289.861 279.82C289.701 278.505 289.887 277.271 290.287 276.122C290.623 275.158 291.737 274.629 292.775 274.94C293.814 275.252 294.384 276.286 294.048 277.251C293.796 277.976 293.7 278.683 293.788 279.408C293.908 280.392 294.035 281.312 294.198 282.177C294.386 283.175 293.667 284.127 292.592 284.301ZM310.624 280.806C309.816 281.487 308.566 281.43 307.833 280.68C306.649 279.468 305.943 277.822 306.407 275.983C306.882 274.102 307.885 272.564 309.195 271.429C309.992 270.737 311.243 270.776 311.988 271.517C312.733 272.258 312.69 273.419 311.893 274.111C311.159 274.748 310.553 275.642 310.255 276.821C310.149 277.24 310.249 277.691 310.76 278.213C311.493 278.964 311.432 280.124 310.624 280.806ZM246.033 281.498C244.986 281.785 243.887 281.23 243.578 280.258C242.837 277.928 242.516 275.924 242.493 273.917C242.482 272.903 243.357 272.073 244.449 272.062C245.54 272.052 246.434 272.865 246.445 273.878C246.464 275.516 246.721 277.182 247.369 279.218C247.678 280.19 247.08 281.211 246.033 281.498ZM257.602 280.355C256.605 280.766 255.437 280.348 254.995 279.421C254.398 278.173 254.073 276.809 254.135 275.4C254.196 274.032 254.658 272.786 255.3 271.669C255.814 270.774 257.011 270.436 257.974 270.913C258.937 271.39 259.301 272.501 258.788 273.396C258.346 274.165 258.114 274.871 258.084 275.551C258.05 276.331 258.227 277.137 258.608 277.933C259.05 278.859 258.6 279.944 257.602 280.355ZM278.272 276.326C277.197 276.502 276.172 275.836 275.981 274.838C275.867 274.236 275.714 273.676 275.541 273.041C275.453 272.717 275.36 272.374 275.263 271.997C274.997 270.952 274.747 269.764 274.747 268.471C274.746 267.457 275.63 266.635 276.722 266.635C277.813 266.634 278.699 267.456 278.699 268.469C278.7 269.337 278.867 270.199 279.109 271.151C279.175 271.41 279.251 271.69 279.331 271.983C279.522 272.687 279.734 273.465 279.873 274.199C280.064 275.197 279.346 276.149 278.272 276.326ZM293.484 274.04C292.609 273.433 292.43 272.283 293.083 271.471C293.622 270.801 294.198 270.134 294.751 269.494C294.868 269.358 294.984 269.224 295.098 269.091C295.766 268.315 296.392 267.573 296.948 266.828C297.57 265.995 298.801 265.788 299.698 266.365C300.595 266.943 300.818 268.086 300.196 268.919C299.557 269.775 298.859 270.6 298.186 271.382C298.063 271.525 297.941 271.666 297.821 271.806C297.27 272.445 296.744 273.053 296.25 273.668C295.596 274.48 294.358 274.646 293.484 274.04ZM244.603 270.987C243.524 270.835 242.782 269.899 242.947 268.896C243.1 267.96 243.285 266.974 243.486 265.924C243.731 264.634 244.245 263.348 244.929 262.125C245.432 261.225 246.625 260.875 247.593 261.342C248.562 261.809 248.94 262.916 248.437 263.816C247.896 264.783 247.539 265.716 247.377 266.564C247.177 267.614 247 268.561 246.854 269.449C246.69 270.451 245.682 271.14 244.603 270.987ZM258.934 269.956C258.133 269.267 258.085 268.106 258.827 267.363C259.223 266.965 259.611 266.585 259.987 266.216C261.173 265.052 262.242 264.004 263.078 262.911C263.71 262.085 264.943 261.891 265.833 262.478C266.723 263.065 266.932 264.211 266.3 265.037C265.286 266.361 263.949 267.671 262.723 268.873C262.379 269.21 262.044 269.538 261.727 269.856C260.985 270.6 259.735 270.645 258.934 269.956ZM325.28 266.841C324.293 267.273 323.115 266.881 322.65 265.964C321.845 264.381 320.569 263.452 318.696 262.17C317.817 261.569 317.63 260.42 318.277 259.604C318.925 258.788 320.162 258.614 321.04 259.215L321.079 259.241C322.888 260.48 324.951 261.891 326.224 264.398C326.69 265.315 326.267 266.409 325.28 266.841ZM300.336 265.411C299.271 265.189 298.601 264.208 298.841 263.219C299.014 262.502 299.048 261.772 298.898 260.998C298.713 260.042 298.354 259.282 297.891 258.691C297.248 257.871 297.443 256.723 298.325 256.127C299.208 255.53 300.444 255.711 301.086 256.53C301.936 257.614 302.509 258.904 302.788 260.349C303.038 261.639 302.977 262.864 302.697 264.023C302.458 265.012 301.401 265.634 300.336 265.411ZM277.174 265.368C276.241 264.842 275.944 263.714 276.511 262.847C277.097 261.949 277.846 261.039 278.778 260.109C279.69 259.199 280.622 258.38 281.565 257.65C282.403 257.001 283.649 257.106 284.348 257.885C285.047 258.664 284.934 259.821 284.096 260.47C283.286 261.097 282.474 261.809 281.671 262.61C280.895 263.384 280.317 264.097 279.889 264.752C279.323 265.618 278.107 265.894 277.174 265.368ZM266.543 261.21C265.457 261.311 264.488 260.575 264.38 259.566C264.321 259.013 264.087 258.36 263.506 257.582C262.897 256.769 262.222 256.3 261.534 256.042C260.522 255.663 260.033 254.593 260.442 253.653C260.85 252.713 262.002 252.259 263.014 252.639C264.474 253.186 265.742 254.139 266.752 255.488C267.656 256.697 268.177 257.935 268.313 259.202C268.421 260.211 267.629 261.11 266.543 261.21ZM317.105 258.81C316.293 259.487 315.044 259.425 314.315 258.67C313.538 257.868 312.791 256.941 312.102 255.838C310.942 253.981 310.529 252.127 310.721 250.353C310.829 249.344 311.798 248.608 312.884 248.709C313.97 248.81 314.762 249.71 314.653 250.718C314.55 251.673 314.749 252.76 315.521 253.996C316.067 254.87 316.651 255.593 317.255 256.218C317.984 256.972 317.917 258.132 317.105 258.81ZM248.86 259.804C248.085 259.09 248.081 257.928 248.849 257.209C250.833 255.353 253.222 253.775 255.698 252.881C256.715 252.513 257.86 252.981 258.256 253.926C258.652 254.87 258.148 255.934 257.131 256.301C255.279 256.97 253.341 258.217 251.654 259.795C250.885 260.514 249.634 260.518 248.86 259.804ZM285.861 256.948C285.407 256.026 285.843 254.937 286.836 254.515C289.617 253.333 292.407 252.871 294.917 253.201C295.998 253.344 296.75 254.272 296.597 255.276C296.444 256.28 295.443 256.978 294.363 256.836C292.754 256.624 290.73 256.896 288.481 257.853C287.488 258.275 286.315 257.869 285.861 256.948ZM315.152 245.599C314.439 244.831 314.531 243.672 315.358 243.011C316.889 241.785 318.551 240.844 319.922 240.244C320.909 239.812 322.087 240.204 322.552 241.121C323.018 242.038 322.595 243.132 321.608 243.564C320.531 244.036 319.175 244.8 317.939 245.79C317.112 246.452 315.864 246.367 315.152 245.599Z" fill="#BAE6FD"/>
<path d="M288.359 266.972C271.89 261.466 260.911 249.231 258.057 244.948L265.303 247.395C291.652 261.466 312.732 252.289 314.708 251.678C316.289 251.188 318.88 249.842 319.978 249.231L322.613 272.478C321.296 272.478 304.827 272.478 288.359 266.972Z" fill="#F0F9FF"/>
<path d="M243.564 213.749C241.983 187.321 257.398 171.741 265.302 167.255C267.059 171.537 271.626 181.692 275.842 188.055C281.112 196.008 288.358 193.561 290.993 194.172C293.628 194.784 293.628 196.619 296.263 200.902C298.898 205.184 296.263 207.631 296.263 211.913C296.263 216.196 297.581 216.808 300.874 219.866C304.168 222.925 304.168 224.149 304.168 227.819C304.168 231.49 302.192 232.713 300.874 236.384C299.557 240.055 300.874 240.055 302.192 241.89C303.509 243.725 308.121 239.443 310.756 237.607C313.391 235.772 322.613 226.596 324.589 224.149C326.565 221.702 326.565 218.031 327.224 214.361C327.883 210.69 326.565 211.302 324.589 209.466C322.613 207.631 318.66 200.29 317.343 199.066C316.025 197.843 312.073 197.231 308.121 196.619C304.168 196.008 304.168 197.231 302.192 197.231C300.216 197.231 297.581 192.949 297.581 191.114C297.581 189.278 293.628 188.055 290.993 188.055C288.358 188.055 287.041 186.831 290.993 183.161C294.946 179.49 298.898 182.549 299.557 184.996C300.216 187.443 301.533 186.22 302.192 183.772C302.851 181.325 304.168 178.878 308.779 175.208C312.468 172.271 319.539 168.682 322.613 167.255C324.589 168.886 330.254 173.984 337.105 181.325C345.669 190.502 343.034 195.396 344.351 213.749C345.669 232.102 326.565 244.337 310.756 251.678C294.946 259.019 245.54 246.784 243.564 213.749Z" fill="#F0F9FF"/>
<path d="M255.425 173.214C246.456 182.257 241.588 193.917 241.588 206.053C241.588 233.18 265.418 255.073 294.372 255.073C307.44 255.073 319.996 250.552 329.732 242.223L333.32 238.892C342.288 229.849 347.156 218.189 347.156 206.053C347.156 189.872 338.701 174.88 324.095 165.6L323.07 164.886C322.045 164.172 320.764 163.458 319.483 162.982C319.227 162.744 318.971 162.744 318.714 162.506L318.202 162.268C317.177 161.792 316.408 161.316 315.383 161.078C314.871 160.84 314.358 160.602 313.846 160.364C312.821 159.888 311.796 159.651 310.771 159.413L310.259 159.175C310.002 159.175 309.746 158.937 309.49 158.937C308.209 158.461 306.671 158.223 305.134 157.985C304.878 157.985 304.622 157.985 304.365 157.747H303.853C302.572 157.509 301.547 157.271 300.266 157.271C299.753 157.271 299.241 157.271 298.728 157.033C295.141 156.795 292.835 156.795 288.991 157.033C288.735 157.033 288.223 157.033 287.966 157.033H287.71C286.429 157.271 285.148 157.271 284.123 157.509H283.61C283.354 157.509 283.098 157.509 282.842 157.747C279.767 158.461 276.692 159.175 273.617 160.364L272.592 160.84C271.311 161.316 270.286 161.792 269.005 162.506L268.236 162.982C266.699 163.934 265.161 164.648 263.88 165.362L263.624 166.313C262.087 167.503 260.549 168.693 259.012 169.883L255.425 173.214ZM294.372 252.217C266.955 252.217 244.663 231.515 244.663 206.053C244.663 192.251 251.325 179.401 262.599 170.597L263.624 169.883L264.137 171.311C264.649 172.262 265.161 173.214 265.418 174.166L265.674 174.642C269.005 182.019 273.361 191.061 280.535 193.679C282.329 194.393 284.123 194.631 285.916 194.869C287.71 195.107 289.247 195.345 290.785 196.059L291.041 195.821L291.554 196.534C292.322 197.486 292.322 198.676 292.578 199.866C292.835 201.532 293.091 203.197 294.628 203.911C295.397 204.387 295.653 204.863 295.397 205.577C292.579 211.764 294.885 218.903 301.29 223.662C303.597 225.566 302.572 230.325 298.216 237.702C297.447 239.129 297.447 241.033 298.728 242.223C299.753 243.413 301.803 243.889 303.597 243.413C307.44 242.223 310.515 240.319 314.358 237.226C316.921 235.084 318.714 232.943 319.996 231.039C321.533 228.897 323.07 226.993 325.633 225.328L326.145 224.852L326.401 224.376C326.658 223.9 326.914 223.186 327.17 222.472C328.964 218.427 331.782 211.526 326.914 209.384C325.12 207.957 323.839 206.053 322.558 203.911C321.533 202.246 320.252 200.104 318.458 198.438C317.946 197.724 316.921 197.486 315.896 197.248C314.358 197.01 313.077 196.534 312.052 196.059C310.002 195.107 307.696 194.155 305.134 196.059C304.878 196.297 304.109 196.772 303.34 196.534C302.572 196.297 302.315 195.821 302.059 194.869C301.547 193.441 300.522 192.489 298.984 192.013L298.216 191.775L298.472 190.823C298.728 190.347 298.728 189.634 298.472 189.158L297.959 188.444L296.934 188.206C296.422 187.968 295.91 187.968 295.397 187.968H294.885L294.116 187.016C294.116 186.778 293.86 186.778 293.86 186.54L292.835 185.826L291.554 186.54H291.297C291.041 186.54 290.529 186.302 290.272 186.064C289.76 185.588 289.504 185.112 289.504 184.636V183.923L290.272 183.685C290.785 183.685 291.554 183.447 292.066 183.447L293.347 183.209C295.397 182.257 296.166 182.495 296.678 182.495C297.447 182.971 297.959 184.161 297.703 186.064V187.492L299.241 187.73C301.29 187.968 302.572 187.73 303.597 186.778C304.622 185.826 304.622 184.398 304.109 182.495C304.109 182.257 304.109 181.781 304.365 181.543C309.234 175.594 313.333 172.976 321.277 170.359C321.789 170.121 322.302 169.883 322.814 169.407L323.327 168.931L324.095 169.407C336.651 178.211 344.082 191.775 344.082 206.291C344.082 231.515 321.789 252.217 294.372 252.217ZM302.572 239.843L301.547 238.654C304.878 232.943 308.977 224.852 303.853 221.044C298.728 216.999 296.678 211.288 298.984 206.529C299.753 204.625 298.984 202.484 296.934 201.294L296.678 201.056V200.818C296.678 200.58 296.422 199.866 296.422 199.39C296.166 198.2 296.166 196.772 295.397 195.583L294.372 194.155L293.603 193.441C293.347 193.203 293.091 192.965 292.578 192.965C292.066 192.727 291.81 192.489 291.297 192.489L290.016 192.013C288.735 191.775 287.454 191.537 286.429 191.299C284.891 191.061 283.354 190.823 281.817 190.347C275.923 188.206 271.824 179.401 268.749 172.976C268.236 171.787 267.724 170.597 267.211 169.407V169.169V167.265L267.724 167.027C270.03 165.6 272.592 164.41 274.898 163.458L275.667 163.22C276.948 162.744 277.973 162.268 279.254 162.03L280.023 161.792C281.56 161.316 282.842 161.078 284.379 160.84H285.148C286.429 160.602 287.71 160.364 288.991 160.364C289.504 160.364 289.76 160.364 290.272 160.126C293.603 159.888 295.91 159.888 299.241 160.126C299.753 160.126 300.009 160.126 300.266 160.126C301.803 160.364 303.084 160.602 304.365 160.84L305.134 161.078C306.415 161.316 307.44 161.554 308.465 161.792C308.977 162.03 309.234 162.03 309.746 162.268C311.284 162.744 312.309 163.22 313.59 163.458L314.615 163.934C315.64 164.41 316.665 164.648 317.433 165.124C317.946 165.362 318.202 165.6 318.714 165.838L321.021 167.027L318.971 167.741C311.284 170.359 306.928 173.452 301.547 179.639C301.29 179.877 301.034 180.353 301.034 180.591L300.522 181.781L299.497 180.829C299.241 180.591 298.984 180.353 298.728 180.353C297.191 179.401 295.141 179.401 292.578 180.591H291.81C288.223 181.067 286.429 181.067 286.429 184.636C286.429 186.302 287.454 188.206 288.991 188.92C289.247 189.158 289.504 189.158 290.016 189.396H290.272L290.529 189.634L291.297 190.585L292.322 190.347C292.835 190.347 293.347 190.11 293.86 190.11H294.885V191.061C294.885 191.537 295.141 192.013 295.141 192.251L295.653 193.203L296.422 193.679C296.678 193.917 297.191 194.155 297.447 194.155C297.959 194.393 298.472 194.631 298.728 195.107C299.241 197.01 300.522 198.2 302.059 198.676C303.597 199.152 305.39 198.914 306.671 197.724C307.696 197.01 308.465 197.248 310.259 198.2C311.54 198.676 313.077 199.39 315.383 199.628H315.64L315.896 199.866C317.433 201.294 318.458 203.197 319.483 204.625C321.021 207.005 322.558 209.622 325.12 210.812C326.401 211.526 326.658 213.192 323.839 220.331C323.583 220.806 323.583 221.282 323.327 221.52V221.758V222.71C320.764 224.614 319.227 226.756 317.689 228.659C316.152 230.563 314.871 232.467 312.565 234.37C308.721 237.226 305.903 238.892 302.572 239.843Z" fill="#BAE6FD"/>
</g>
<defs>
<clipPath id="clip0_21_6189">
<rect width="114.93" height="110.518" fill="white" transform="translate(139.484 0.347656)"/>
</clipPath>
<clipPath id="clip1_21_6189">
<rect width="155.372" height="136.019" fill="white" transform="translate(0.751953 64.9951)"/>
</clipPath>
<clipPath id="clip2_21_6189">
<rect width="52.7021" height="61.8067" fill="white" transform="matrix(0.890105 -0.455756 0.510497 0.85988 222.369 418.808)"/>
</clipPath>
<clipPath id="clip3_21_6189">
<rect width="89.5886" height="172.517" fill="white" transform="translate(228.412 156.854)"/>
</clipPath>
</defs>
</svg>
