<svg width="120" height="352" viewBox="0 0 120 352" fill="none" xmlns="http://www.w3.org/2000/svg">
  <g clip-path="url(#clip0_2_5530)">
    <path d="M81.8062 40.0245C80.7342 39.1627 79.1035 40.2353 77.3851 39.9501C76.3953 39.7859 76.4543 38.6198 77.2478 38.0356C87.5592 30.4441 98.7835 15.9171 103.836 8.54094C104.204 8.00402 104.811 7.88079 105.356 8.25545C108.961 10.7316 122.352 20.1784 130.231 25.7476C130.818 26.1626 131.014 26.9046 130.702 27.5327C121.188 46.6814 107.22 55.4454 100.562 57.776C100.039 57.9588 99.3976 57.8579 99.2431 57.3626C98.8804 56.2006 99.9809 54.6344 98.8175 53.6992C97.3969 52.5572 95.4644 54.6273 94.0498 53.4901C92.6292 52.3482 94.5617 50.2781 93.1471 49.1409C91.7265 47.999 89.794 50.0691 88.3793 48.9319C86.9588 47.79 88.8913 45.7199 87.4767 44.5827C86.0561 43.4407 84.1236 45.5108 82.7089 44.3737C81.2884 43.2317 83.2209 41.1616 81.8062 40.0245Z" fill="#F0F9FF"/>
    <path fill-rule="evenodd" clip-rule="evenodd" d="M130.967 24.8528C131.999 25.5824 132.344 26.8863 131.795 27.9915C122.155 47.3944 107.953 56.3802 100.976 58.8222C100.512 58.9846 99.9555 59.0392 99.4264 58.9003C98.8635 58.7526 98.2991 58.3649 98.0866 57.6843C97.9335 57.1937 97.9494 56.7124 97.989 56.3343C98.0092 56.1411 98.0386 55.9519 98.065 55.7861C98.069 55.7611 98.0729 55.7367 98.0768 55.7128C98.0996 55.5704 98.1194 55.4466 98.1353 55.3235C98.2126 54.7245 98.1205 54.6253 98.0246 54.5482C97.8854 54.4362 97.7455 54.3919 96.7653 54.6642C96.7298 54.674 96.692 54.6847 96.6522 54.696C95.9171 54.9045 94.4706 55.3149 93.2567 54.3391C92.0393 53.3605 92.2704 51.972 92.3881 51.2649C92.3942 51.2278 92.4001 51.1926 92.4054 51.1594C92.5567 50.2162 92.4891 50.0984 92.354 49.9898C92.2148 49.8778 92.0749 49.8335 91.0947 50.1057C91.0592 50.1156 91.0215 50.1263 90.9817 50.1376C90.2466 50.3461 88.8 50.7565 87.5862 49.7807C86.3687 48.802 86.5998 47.4136 86.7175 46.7065C86.7237 46.6694 86.7295 46.6342 86.7349 46.601C86.8862 45.6578 86.8186 45.5399 86.6835 45.4314C86.5443 45.3194 86.4044 45.2751 85.4242 45.5473C85.3887 45.5572 85.3509 45.5679 85.3111 45.5792C84.576 45.7877 83.1295 46.1981 81.9157 45.2223C80.6982 44.2436 80.9293 42.8552 81.047 42.1481C81.0531 42.111 81.059 42.0758 81.0643 42.0426C81.2156 41.0994 81.148 40.9815 81.0129 40.8729C80.9461 40.8192 80.822 40.7421 80.0363 40.8717C79.951 40.8858 79.8568 40.9027 79.755 40.921C79.1029 41.0384 78.136 41.2124 77.1612 41.0507C76.657 40.967 76.2076 40.737 75.8892 40.3653C75.5794 40.0036 75.4536 39.5788 75.4437 39.1873C75.4243 38.427 75.8284 37.6589 76.5059 37.1601C86.6466 29.6942 97.7801 15.3062 102.822 7.94478C103.148 7.47021 103.65 7.08285 104.298 6.95831C104.953 6.83253 105.581 7.00881 106.079 7.35084C109.692 9.83284 123.092 19.2862 130.967 24.8528ZM129.611 27.0708C129.686 26.9199 129.639 26.7397 129.496 26.6392C121.71 21.1348 108.556 11.8553 104.77 9.2488C99.6752 16.6679 88.4438 31.1967 78.0264 38.8813C78.391 38.8823 78.7747 38.8162 79.2592 38.7328C79.3793 38.7121 79.5056 38.6903 79.6394 38.6682C80.3667 38.5483 81.5939 38.3657 82.5992 39.1738C83.813 40.1495 83.5815 41.5367 83.4639 42.2416C83.4575 42.2798 83.4515 42.316 83.446 42.35C83.2954 43.2891 83.3626 43.4112 83.5019 43.5232C83.637 43.6317 83.7723 43.677 84.7567 43.4036C84.7914 43.394 84.8281 43.3836 84.8668 43.3726C85.6043 43.1637 87.0522 42.7535 88.2697 43.7322C89.4835 44.7079 89.2521 46.0951 89.1345 46.8C89.1281 46.8382 89.122 46.8744 89.1166 46.9084C88.9659 47.8475 89.0332 47.9696 89.1724 48.0816C89.3075 48.1902 89.4429 48.2354 90.4273 47.962C90.4619 47.9524 90.4987 47.942 90.5374 47.931C91.2748 47.7221 92.7228 47.3119 93.9403 48.2906C95.1541 49.2664 94.9226 50.6535 94.805 51.3584C94.7986 51.3966 94.7926 51.4328 94.7871 51.4668C94.6365 52.4059 94.7037 52.528 94.843 52.64C94.9781 52.7486 95.1134 52.7938 96.0978 52.5204C96.1325 52.5108 96.1692 52.5004 96.2079 52.4894C96.9454 52.2805 98.3933 51.8703 99.6108 52.849C100.678 53.7072 100.618 54.8587 100.526 55.5672C100.506 55.7249 100.48 55.8844 100.458 56.0251C100.454 56.0479 100.45 56.0701 100.447 56.0918C100.421 56.256 100.4 56.3961 100.386 56.5279C100.381 56.5707 100.378 56.6106 100.375 56.6477C106.812 54.3065 120.333 45.7438 129.611 27.0708Z" fill="#BAE6FD"/>
    <path d="M97.7494 36.6137L96.8174 35.8677C96.9561 35.8398 97.0917 35.7996 97.2224 35.7477C97.4902 35.6411 97.7296 35.4801 97.9226 35.2766C98.4515 34.7503 98.6816 34.0238 98.5423 33.3208C98.4089 32.6284 97.9612 31.9747 97.2195 31.3667C96.5325 30.8168 95.799 30.5163 95.0306 30.4816C94.2748 30.4348 93.5309 30.6976 92.994 31.2012L92.7846 31.3918L94.104 32.4477L94.2799 32.3074C94.5144 32.1207 94.8236 32.0373 95.1268 32.079C95.5077 32.1214 95.8633 32.2744 96.1431 32.5163C96.4617 32.746 96.6814 33.074 96.7631 33.4424C96.8313 33.734 96.7434 34.0399 96.5272 34.2636C96.2641 34.5399 95.8843 34.6949 95.4899 34.687L91.7038 31.63L90.7018 32.6994L96.8041 37.6282L97.7494 36.6137Z" fill="#FECACA"/>
    <path d="M92.529 38.9405C92.2587 39.1472 91.9104 39.2426 91.5654 39.2044C91.2073 39.165 90.8318 38.9862 90.4466 38.6761C90.092 38.4195 89.8397 38.0602 89.7289 37.654C89.644 37.3501 89.7304 37.0251 89.9586 36.7901C90.0555 36.6833 90.1749 36.5959 90.3092 36.5335C90.4427 36.4708 90.5879 36.4331 90.7365 36.4223C90.877 36.4113 91.0183 36.4205 91.1554 36.4496L94.9952 39.5515L95.9918 38.4776L89.8895 33.5488L88.9539 34.5569L89.7044 35.1576C89.5665 35.1773 89.4312 35.2114 89.3012 35.2593C88.9882 35.377 88.7104 35.5642 88.4921 35.8045C87.9699 36.3461 87.7696 37.0913 87.9581 37.7912C88.1228 38.5033 88.582 39.1734 89.3312 39.7856L89.3793 39.8241C90.1221 40.4186 90.897 40.7505 91.6891 40.7988C92.4748 40.8566 93.2528 40.5951 93.8227 40.0816L94.0375 39.8953L92.7007 38.8254L92.529 38.9405Z" fill="#FECACA"/>
    <path fill-rule="evenodd" clip-rule="evenodd" d="M106.569 39.1149C105.726 39.9145 105.726 39.9146 105.726 39.9147L105.729 39.9173L105.735 39.9225L105.755 39.9401C105.771 39.9551 105.795 39.9763 105.826 40.0035C105.888 40.0578 105.977 40.1358 106.093 40.2346C106.325 40.4321 106.664 40.7127 107.097 41.0528C107.962 41.7324 109.209 42.6521 110.745 43.6202C111.295 43.9674 112.045 43.8342 112.418 43.3228C112.792 42.8114 112.649 42.1154 112.098 41.7683C110.646 40.8527 109.467 39.9829 108.653 39.3437C108.247 39.0243 107.932 38.7634 107.721 38.584C107.616 38.4944 107.537 38.4252 107.485 38.3794C107.459 38.3566 107.44 38.3395 107.427 38.3287L107.415 38.3172L107.412 38.3152" fill="#BAE6FD"/>
    <path fill-rule="evenodd" clip-rule="evenodd" d="M112.05 33.361C111.207 34.1606 111.207 34.1607 111.207 34.1608L111.21 34.1634L111.215 34.1686L111.235 34.1862C111.252 34.2012 111.276 34.2224 111.306 34.2496C111.368 34.3039 111.458 34.3819 111.574 34.4807C111.806 34.6782 112.144 34.9588 112.577 35.2989C113.443 35.9785 114.689 36.8982 116.225 37.8663C116.776 38.2135 117.525 38.0804 117.899 37.5689C118.273 37.0575 118.129 36.3615 117.579 36.0144C116.127 35.0988 114.948 34.229 114.134 33.5898C113.727 33.2704 113.413 33.0094 113.202 32.8301C113.096 32.7405 113.017 32.6713 112.965 32.6255C112.939 32.6026 112.92 32.5856 112.908 32.5748L112.895 32.5633L112.893 32.5612" fill="#BAE6FD"/>
    <path fill-rule="evenodd" clip-rule="evenodd" d="M106.126 42.9647C106.127 42.9647 106.126 42.9647 106.126 42.9647L106.141 42.9756L106.186 43.0093C106.226 43.039 106.285 43.0829 106.36 43.1387C106.511 43.2504 106.727 43.4096 106.988 43.5988C107.51 43.9781 108.207 44.4743 108.91 44.9486C109.449 45.3117 109.568 46.0116 109.177 46.5118C108.786 47.012 108.033 47.1231 107.494 46.7599C106.759 46.2645 106.039 45.7508 105.504 45.3626C105.236 45.168 105.013 45.0041 104.857 44.8886C104.779 44.8308 104.718 44.7851 104.676 44.7536L104.627 44.7173L104.61 44.7045C104.61 44.7044 104.609 44.7041 105.368 43.8344L104.61 44.7045C104.093 44.3154 104.013 43.6103 104.431 43.13C104.85 42.6497 105.609 42.5757 106.126 42.9647Z" fill="#BAE6FD"/>
    <path fill-rule="evenodd" clip-rule="evenodd" d="M99.2525 23.5995C99.2525 23.5995 99.2525 23.5995 99.2525 23.5995L99.2669 23.6103L99.312 23.644C99.3518 23.6738 99.4107 23.7177 99.4861 23.7735C99.6368 23.8851 99.853 24.0443 100.114 24.2336C100.636 24.6128 101.333 25.109 102.036 25.5833C102.575 25.9465 102.694 26.6464 102.303 27.1465C101.912 27.6467 101.159 27.7578 100.62 27.3947C99.8854 26.8992 99.1647 26.3855 98.6297 25.9973C98.3617 25.8028 98.139 25.6389 97.9831 25.5234C97.905 25.4656 97.8436 25.4198 97.8015 25.3884L97.753 25.3521L97.7359 25.3392C97.7359 25.3392 97.7354 25.3389 98.494 24.4692L97.7359 25.3392C97.2187 24.9502 97.1386 24.2451 97.5575 23.7648C97.9764 23.2844 98.7353 23.2105 99.2525 23.5995Z" fill="#BAE6FD"/>
    <path fill-rule="evenodd" clip-rule="evenodd" d="M102.644 19.7108C102.644 19.7108 102.644 19.7108 102.644 19.7108L102.659 19.7217L102.704 19.7554C102.743 19.7851 102.802 19.829 102.878 19.8848C103.028 19.9964 103.245 20.1557 103.505 20.3449C104.028 20.7242 104.724 21.2204 105.428 21.6947C105.966 22.0578 106.086 22.7577 105.695 23.2579C105.304 23.7581 104.55 23.8691 104.012 23.506C103.277 23.0106 102.556 22.4969 102.021 22.1086C101.753 21.9141 101.531 21.7502 101.375 21.6347C101.297 21.5769 101.235 21.5312 101.193 21.4997L101.145 21.4634L101.127 21.4506C101.127 21.4505 101.127 21.4502 101.886 20.5805L101.127 21.4506C100.61 21.0615 100.53 20.3564 100.949 19.8761C101.368 19.3958 102.127 19.3218 102.644 19.7108Z" fill="#BAE6FD"/>
    <path fill-rule="evenodd" clip-rule="evenodd" d="M105.252 15.66C105.252 15.66 105.252 15.66 105.252 15.66L105.267 15.6709L105.312 15.7046C105.352 15.7343 105.411 15.7782 105.486 15.834C105.637 15.9457 105.853 16.1049 106.114 16.2941C106.636 16.6734 107.333 17.1696 108.036 17.6439C108.575 18.007 108.694 18.7069 108.303 19.2071C107.912 19.7073 107.159 19.8184 106.62 19.4552C105.885 18.9598 105.165 18.4461 104.63 18.0579C104.362 17.8634 104.139 17.6994 103.983 17.5839C103.905 17.5261 103.844 17.4804 103.802 17.4489L103.753 17.4127L103.736 17.3998C103.736 17.3997 103.735 17.3994 104.494 16.5297L103.736 17.3998C103.219 17.0107 103.139 16.3056 103.557 15.8253C103.976 15.345 104.735 15.271 105.252 15.66Z" fill="#BAE6FD"/>
    <path fill-rule="evenodd" clip-rule="evenodd" d="M112.772 22.2304C113.225 21.7778 113.987 21.7521 114.475 22.1729C114.475 22.1729 114.475 22.1728 114.475 22.1729L113.654 22.9926C114.475 22.173 114.475 22.1729 114.475 22.1729L114.476 22.1742L114.483 22.1803L114.515 22.2073C114.544 22.2317 114.588 22.2688 114.646 22.3176C114.763 22.4152 114.937 22.5596 115.164 22.743C115.619 23.1099 116.283 23.6323 117.116 24.2485C118.784 25.4827 121.117 27.0844 123.783 28.565C124.355 28.8822 124.541 29.5694 124.199 30.0999C123.858 30.6304 123.118 30.8034 122.546 30.4862C119.761 28.9397 117.339 27.2749 115.614 25.9993C114.751 25.3607 114.06 24.8174 113.583 24.4324C113.344 24.2398 113.159 24.0866 113.033 23.9806C112.969 23.9277 112.921 23.8865 112.887 23.8581L112.849 23.8252L112.838 23.8161L112.834 23.8126C112.834 23.8125 112.833 23.8121 113.654 22.9926L112.833 23.8121C112.346 23.3912 112.318 22.683 112.772 22.2304Z" fill="#BAE6FD"/>
    <path fill-rule="evenodd" clip-rule="evenodd" d="M110.256 26.2988C110.709 25.8462 111.472 25.8205 111.959 26.2412C111.959 26.2413 111.959 26.2412 111.959 26.2412L111.139 27.0609C111.959 26.2414 111.959 26.2413 111.959 26.2412L111.961 26.2425L111.968 26.2487L111.999 26.2757C112.028 26.3001 112.072 26.3372 112.13 26.386C112.247 26.4836 112.421 26.628 112.649 26.8114C113.103 27.1782 113.768 27.7007 114.6 28.3169C116.269 29.551 118.601 31.1528 121.268 32.6333C121.839 32.9506 122.025 33.6378 121.684 34.1683C121.342 34.6988 120.602 34.8717 120.031 34.5545C117.246 33.008 114.823 31.3433 113.099 30.0677C112.235 29.429 111.544 28.8858 111.067 28.5007C110.829 28.3081 110.644 28.1549 110.517 28.049C110.454 27.996 110.405 27.9548 110.372 27.9264L110.333 27.8935L110.322 27.8845L110.318 27.881C110.318 27.8809 110.318 27.8805 111.139 27.0609L110.318 27.8805C109.83 27.4595 109.803 26.7514 110.256 26.2988Z" fill="#BAE6FD"/>
    <path d="M98.0098 18.0737C114.078 29.2656 126.933 31.504 127.335 31.504L129.745 27.0272L104.437 9.12012L101.223 13.97L98.0098 18.0737Z" fill="#F0F9FF"/>
  </g>
  <g clip-path="url(#clip1_2_5530)">
    <path d="M88.1015 319.604C87.2445 318.16 87.8098 316.345 89.3641 315.549L102.715 308.713C104.27 307.917 106.224 308.442 107.081 309.886L113.767 321.148C114.624 322.591 114.059 324.406 112.505 325.202L99.1535 332.038C97.5992 332.834 95.6445 332.309 94.7875 330.866L88.1015 319.604Z" fill="#F0F9FF"/>
    <path fill-rule="evenodd" clip-rule="evenodd" d="M103.879 310.673L90.5278 317.509C90.1393 317.708 89.9979 318.162 90.2122 318.523L96.8983 329.785C97.1125 330.146 97.6012 330.277 97.9897 330.078L111.341 323.242C111.73 323.043 111.871 322.589 111.657 322.228L104.971 310.966C104.756 310.605 104.268 310.474 103.879 310.673ZM89.3641 315.549C87.8098 316.345 87.2445 318.16 88.1015 319.604L94.7875 330.866C95.6445 332.309 97.5992 332.834 99.1535 332.038L112.505 325.202C114.059 324.406 114.624 322.591 113.767 321.148L107.081 309.886C106.224 308.442 104.27 307.917 102.715 308.713L89.3641 315.549Z" fill="#BAE6FD"/>
    <path d="M91.2421 334.309C90.3851 332.865 90.9504 331.05 92.5047 330.254L114.428 319.029C115.982 318.233 117.937 318.758 118.794 320.202L127.505 334.875C128.362 336.319 127.797 338.134 126.242 338.93L104.319 350.155C102.765 350.951 100.81 350.426 99.9535 348.982L91.2421 334.309Z" fill="#F0F9FF"/>
    <path fill-rule="evenodd" clip-rule="evenodd" d="M115.591 320.989L93.6685 332.215C93.2799 332.413 93.1386 332.867 93.3528 333.228L102.064 347.902C102.278 348.263 102.767 348.394 103.156 348.195L125.079 336.97C125.467 336.771 125.609 336.317 125.394 335.956L116.683 321.283C116.469 320.922 115.98 320.79 115.591 320.989ZM92.5047 330.254C90.9504 331.05 90.3851 332.865 91.2421 334.309L99.9535 348.982C100.81 350.426 102.765 350.951 104.319 350.155L126.242 338.93C127.797 338.134 128.362 336.319 127.505 334.875L118.794 320.202C117.937 318.758 115.982 318.233 114.428 319.029L92.5047 330.254Z" fill="#BAE6FD"/>
    <path fill-rule="evenodd" clip-rule="evenodd" d="M98.1267 314.975C98.7095 314.677 99.4425 314.874 99.7639 315.415L102.802 320.532C103.123 321.074 102.911 321.754 102.328 322.053C101.746 322.351 101.013 322.154 100.691 321.613L97.6532 316.496C97.3318 315.954 97.5438 315.274 98.1267 314.975Z" fill="#FECACA"/>
    <path fill-rule="evenodd" clip-rule="evenodd" d="M103.004 323.191C102.724 323.334 102.394 323.368 102.087 323.286L96.3879 321.755C95.7485 321.584 95.3801 320.963 95.565 320.369C95.7499 319.775 96.4182 319.433 97.0575 319.605L101.599 320.825L102.912 316.607C103.097 316.014 103.765 315.671 104.405 315.843C105.044 316.015 105.412 316.635 105.227 317.229L103.579 322.522C103.491 322.807 103.283 323.048 103.004 323.191Z" fill="#FECACA"/>
    <path d="M114.746 332.216C115.678 333.786 117.804 334.357 119.495 333.491L123.027 331.683C124.12 331.123 124.517 329.847 123.915 328.833L122.72 326.821C122.118 325.806 120.744 325.437 119.651 325.997L116.119 327.805C114.429 328.671 113.814 330.646 114.746 332.216Z" fill="#F0F9FF"/>
    <path fill-rule="evenodd" clip-rule="evenodd" d="M113.69 332.751C114.944 334.863 117.803 335.631 120.077 334.466L123.609 332.658C125.284 331.8 125.893 329.843 124.97 328.288L123.775 326.276C122.852 324.72 120.745 324.154 119.069 325.012L115.537 326.82C113.264 327.984 112.437 330.64 113.69 332.751ZM118.913 332.506C117.805 333.073 116.412 332.699 115.801 331.67C115.19 330.642 115.593 329.348 116.701 328.78L120.233 326.972C120.743 326.711 121.384 326.883 121.665 327.356L122.859 329.368C123.14 329.842 122.955 330.437 122.445 330.698L118.913 332.506Z" fill="#BAE6FD"/>
    <path d="M121.481 328.762C121.854 329.391 121.608 330.181 120.932 330.527C120.256 330.874 119.405 330.645 119.032 330.017C118.659 329.388 118.905 328.598 119.581 328.252C120.257 327.906 121.108 328.134 121.481 328.762Z" fill="#BAE6FD"/>
  </g>
  <g clip-path="url(#clip2_2_5530)">
    <path fill-rule="evenodd" clip-rule="evenodd" d="M21.4248 177.506C21.4782 176.755 20.9533 176.1 20.2524 176.043L20.1557 177.403C20.2524 176.043 20.2518 176.042 20.2512 176.042L20.2498 176.042L20.2465 176.042L20.238 176.041L20.2133 176.04C20.1935 176.038 20.167 176.037 20.1342 176.035C20.0687 176.032 19.9779 176.029 19.865 176.027C19.6397 176.025 19.3245 176.03 18.9458 176.06C18.1937 176.12 17.1634 176.281 16.0812 176.693C13.8719 177.533 11.4302 179.448 10.802 183.51C10.7753 183.682 10.7508 183.852 10.7285 184.02C8.56273 183.76 6.61115 184.249 4.98757 185.236C2.11016 186.984 0.343855 190.278 0.483654 193.231C0.519278 193.983 1.11727 194.562 1.81931 194.524C2.52135 194.486 3.06159 193.845 3.02596 193.093C2.94165 191.312 4.08184 188.922 6.2432 187.609C7.38055 186.918 8.83187 186.516 10.5478 186.744C10.5658 188.433 10.8609 189.801 11.3734 190.867C12.201 192.59 13.5838 193.47 14.9946 193.483C16.3379 193.496 17.6802 192.687 18.1805 191.228C18.7027 189.704 18.1448 188.016 16.7596 186.573L16.6695 186.479L16.564 186.406C15.4193 185.612 14.3006 185.029 13.2197 184.631C13.2463 184.413 13.2774 184.189 13.3133 183.956C13.7531 181.112 15.3604 179.862 16.9331 179.264C17.7419 178.956 18.5359 178.829 19.1353 178.781C19.4324 178.757 19.6747 178.753 19.838 178.755C19.9195 178.756 19.9808 178.759 20.0187 178.76C20.0377 178.761 20.0508 178.762 20.0577 178.763L20.061 178.763L20.06 178.763C20.061 178.763 20.062 178.763 20.0629 178.763C20.7622 178.818 21.3715 178.256 21.4248 177.506ZM20.06 178.763C20.0597 178.763 20.0593 178.763 20.059 178.763L20.1531 177.439C20.059 178.763 20.0595 178.763 20.06 178.763ZM13.1299 187.514C13.7533 187.799 14.4012 188.165 15.0721 188.621C15.9394 189.566 15.8422 190.138 15.791 190.287C15.7163 190.505 15.4524 190.76 15.0163 190.756C14.6475 190.752 14.0774 190.536 13.6366 189.619C13.4044 189.135 13.209 188.45 13.1299 187.514Z" fill="#BAE6FD"/>
  </g>
  <defs>
    <clipPath id="clip0_2_5530">
      <rect width="70.0867" height="67.396" fill="white" transform="translate(69.7197)"/>
    </clipPath>
    <clipPath id="clip1_2_5530">
      <rect width="32.1388" height="37.691" fill="white" transform="matrix(0.890105 -0.455756 0.510497 0.85988 82.2637 319.186)"/>
    </clipPath>
    <clipPath id="clip2_2_5530">
      <rect width="21.6993" height="26.51" fill="white" transform="matrix(1 0 0 -1 -0.000244141 198.51)"/>
    </clipPath>
  </defs>
</svg>
