<svg width="107" height="494" viewBox="0 0 107 494" fill="none" xmlns="http://www.w3.org/2000/svg">
  <g clip-path="url(#clip0_2_5530)">
    <path d="M96.9756 459.475C98.2355 458.536 99.5542 459.189 101.248 458.811C102.458 458.541 102.436 456.892 101.418 456.14C92.1492 449.294 78.3814 436.422 70.0947 419.157C69.6657 418.263 68.6832 417.85 67.8247 418.255C61.0301 421.461 44.2324 430.296 34.2932 434.808C33.3644 435.229 32.9401 436.39 33.3752 437.365C44.9979 463.414 65.2375 477.373 72.5041 480.662C73.037 480.903 73.6781 480.835 73.9802 480.306C74.8398 478.802 74.2327 476.427 75.7299 475.311C77.5041 473.988 79.1844 476.577 80.9512 475.261C82.7254 473.938 81.045 471.349 82.8118 470.032C84.586 468.71 86.2663 471.299 88.0331 469.982C89.8073 468.659 88.127 466.07 89.8937 464.753C91.6679 463.431 93.3482 466.02 95.115 464.703C96.8892 463.381 95.2089 460.792 96.9756 459.475Z" fill="#F0F9FF"/>
    <path fill-rule="evenodd" clip-rule="evenodd" d="M33.7723 433.491C32.1601 434.223 31.3996 436.253 32.1708 437.982C43.9575 464.398 64.4709 478.579 71.9846 481.979C72.8338 482.364 74.328 482.435 75.1176 481.053L73.9798 480.306L75.1176 481.053C75.4477 480.476 75.6105 479.863 75.7119 479.339C75.775 479.013 75.8285 478.628 75.8738 478.302C75.8949 478.15 75.9143 478.012 75.9319 477.898C76.0697 477.009 76.2289 476.681 76.4914 476.485C76.7534 476.29 76.9581 476.287 77.9096 476.637C77.9419 476.648 77.9755 476.661 78.0104 476.674C78.807 476.97 80.2661 477.513 81.7127 476.435C83.164 475.353 83.1973 473.696 83.2155 472.79C83.2163 472.752 83.217 472.715 83.2178 472.68C83.2428 471.597 83.3165 471.398 83.5733 471.206C83.8354 471.011 84.04 471.008 84.9915 471.358C85.0238 471.37 85.0574 471.382 85.0923 471.395C85.8889 471.692 87.348 472.234 88.7946 471.156C90.2459 470.074 90.2792 468.417 90.2974 467.511C90.2982 467.473 90.2989 467.436 90.2997 467.401C90.3247 466.318 90.3984 466.119 90.6552 465.928C90.9173 465.732 91.122 465.729 92.0735 466.079C92.1057 466.091 92.1393 466.103 92.1742 466.116C92.9708 466.413 94.4299 466.956 95.8765 465.877C97.3278 464.796 97.3611 463.139 97.3793 462.232C97.3801 462.194 97.3808 462.158 97.3817 462.122C97.4066 461.04 97.4803 460.84 97.7371 460.649C98.0269 460.433 98.3333 460.364 98.9508 460.363C99.0561 460.363 99.1757 460.365 99.3071 460.368C99.8828 460.38 100.687 460.397 101.52 460.211C102.785 459.929 103.463 458.839 103.502 457.709C103.537 456.663 103.046 455.606 102.175 454.963C93.0067 448.191 79.4301 435.482 71.2809 418.503C70.5518 416.984 68.8354 416.216 67.2865 416.947C64.5477 418.239 60.1992 420.437 55.3503 422.889C54.1484 423.496 52.9158 424.12 51.6694 424.748C45.3747 427.924 38.7138 431.248 33.7723 433.491ZM34.5786 436.748C34.4796 436.526 34.5677 436.236 34.8131 436.125C39.8107 433.857 46.5183 430.508 52.806 427.336C54.0634 426.702 55.3036 426.075 56.5102 425.465C61.3552 423.016 65.6583 420.84 68.362 419.564C68.5301 419.485 68.7787 419.543 68.9076 419.811C77.3317 437.363 91.2907 450.398 100.66 457.318C100.713 457.357 100.753 457.403 100.782 457.449C100.353 457.523 99.9678 457.517 99.496 457.508C99.3261 457.505 99.1449 457.502 98.9463 457.503C98.1661 457.504 97.1833 457.578 96.2132 458.301C94.7666 459.379 94.7339 461.034 94.716 461.937C94.7152 461.977 94.7144 462.015 94.7136 462.052C94.6887 463.129 94.6146 463.334 94.3526 463.529C94.0957 463.721 93.8957 463.725 92.9399 463.374C92.9088 463.362 92.8765 463.35 92.843 463.338C92.0436 463.041 90.5827 462.498 89.1313 463.58C87.6847 464.658 87.652 466.313 87.6341 467.216C87.6333 467.256 87.6325 467.294 87.6317 467.33C87.6068 468.408 87.5327 468.613 87.2706 468.808C87.0138 468.999 86.8138 469.004 85.858 468.653C85.8269 468.641 85.7946 468.629 85.7611 468.617C84.9617 468.32 83.5008 467.777 82.0494 468.858C80.6028 469.937 80.57 471.592 80.5522 472.495C80.5514 472.535 80.5506 472.573 80.5498 472.609C80.5249 473.687 80.4508 473.891 80.1887 474.087C79.9319 474.278 79.7319 474.283 78.7761 473.931C78.745 473.92 78.7127 473.908 78.6792 473.895C77.8798 473.598 76.4188 473.055 74.9675 474.137C73.7328 475.057 73.4469 476.475 73.2991 477.429C73.2646 477.652 73.2389 477.839 73.2153 478.011C73.1793 478.275 73.1483 478.501 73.0986 478.758C73.0544 478.987 73.0064 479.167 72.9534 479.313C65.8725 476.078 46 462.346 34.5786 436.748Z" fill="#BAE6FD"/>
    <path fill-rule="evenodd" clip-rule="evenodd" d="M67.2436 425.44C66.8537 424.769 66.0307 424.565 65.4053 424.983L65.4014 424.985L65.3872 424.995L65.3278 425.034C65.2747 425.069 65.1946 425.122 65.0891 425.19C64.8782 425.328 64.5654 425.53 64.162 425.785C63.3552 426.295 62.1869 427.018 60.7472 427.865C57.8653 429.559 53.9081 431.742 49.5937 433.705C48.9152 434.013 48.5987 434.853 48.8867 435.58C49.1746 436.307 49.958 436.646 50.6364 436.337C55.0582 434.326 59.099 432.096 62.0311 430.372C63.4984 429.509 64.6911 428.771 65.5186 428.248C65.9324 427.986 66.255 427.778 66.4752 427.635C66.5853 427.563 66.6698 427.507 66.7272 427.469L66.793 427.426L66.8104 427.414L66.8165 427.41C66.8166 427.41 66.8172 427.41 66.1112 426.196L66.8165 427.41C67.4419 426.992 67.6335 426.11 67.2436 425.44Z" fill="#BAE6FD"/>
    <path fill-rule="evenodd" clip-rule="evenodd" d="M69.6557 430.471C69.2658 429.801 68.4428 429.596 67.8174 430.014L67.8135 430.016L67.7993 430.026L67.7399 430.065C67.6868 430.1 67.6067 430.153 67.5013 430.222C67.2903 430.359 66.9775 430.561 66.5741 430.816C65.7673 431.326 64.599 432.049 63.1594 432.896C60.2774 434.591 56.3202 436.773 52.0058 438.736C51.3273 439.044 51.0108 439.884 51.2988 440.611C51.5867 441.338 52.3701 441.677 53.0485 441.369C57.4703 439.357 61.5111 437.128 64.4432 435.403C65.9105 434.541 67.1033 433.802 67.9307 433.279C68.3445 433.017 68.6671 432.809 68.8873 432.666C68.9974 432.594 69.0819 432.539 69.1394 432.501L69.2051 432.457L69.2225 432.446L69.2286 432.441C69.2287 432.441 69.2293 432.441 68.5233 431.227L69.2286 432.441C69.854 432.024 70.0456 431.141 69.6557 430.471Z" fill="#BAE6FD"/>
    <path fill-rule="evenodd" clip-rule="evenodd" d="M73.101 434.854C72.7111 434.183 71.8881 433.979 71.2627 434.397L71.2588 434.399L71.2446 434.409L71.1852 434.448C71.1321 434.483 71.0521 434.536 70.9466 434.604C70.7356 434.742 70.4228 434.944 70.0194 435.199C69.2127 435.709 68.0444 436.432 66.6047 437.279C63.7227 438.973 59.7655 441.156 55.4511 443.119C54.7727 443.427 54.4561 444.267 54.7441 444.994C55.032 445.721 55.8154 446.06 56.4938 445.751C60.9156 443.74 64.9564 441.51 67.8885 439.786C69.3559 438.923 70.5486 438.185 71.376 437.662C71.7898 437.4 72.1125 437.192 72.3326 437.049C72.4427 436.977 72.5272 436.921 72.5847 436.883L72.6504 436.84L72.6678 436.828L72.6739 436.824C72.6741 436.824 72.6746 436.824 71.9686 435.61L72.6739 436.824C73.2993 436.406 73.4909 435.524 73.101 434.854Z" fill="#BAE6FD"/>
    <path fill-rule="evenodd" clip-rule="evenodd" d="M75.8947 442.334C75.8946 442.334 75.8949 442.334 75.8947 442.334L76.6278 443.541C75.8947 442.334 75.8946 442.334 75.8947 442.334L75.8923 442.336L75.877 442.346C75.8626 442.356 75.8398 442.371 75.8089 442.392C75.747 442.433 75.6525 442.494 75.5274 442.574C75.2771 442.733 74.9049 442.964 74.4267 443.243C73.4695 443.801 72.092 444.551 70.4224 445.309C69.7471 445.616 69.4413 446.453 69.7394 447.18C70.0375 447.906 70.8266 448.247 71.5019 447.94C73.2647 447.14 74.7201 446.348 75.7376 445.754C76.2468 445.457 76.6474 445.209 76.9231 445.033C77.061 444.946 77.1678 444.876 77.2415 444.827C77.2783 444.803 77.3068 444.784 77.3268 444.771L77.3504 444.755L77.3573 444.75L77.3603 444.748C77.3605 444.748 77.3609 444.747 76.6278 443.541L77.3603 444.748C77.9775 444.326 78.1503 443.444 77.7454 442.777C77.3406 442.111 76.5119 441.913 75.8947 442.334Z" fill="#BAE6FD"/>
    <path fill-rule="evenodd" clip-rule="evenodd" d="M69.8264 452.819C69.8262 452.819 69.8266 452.819 69.8264 452.819L70.5595 454.025C69.8264 452.819 69.8263 452.819 69.8264 452.819L69.8239 452.82L69.8087 452.831C69.7943 452.84 69.7715 452.856 69.7405 452.876C69.6786 452.917 69.5841 452.979 69.459 453.058C69.2088 453.217 68.8365 453.448 68.3583 453.727C67.4011 454.286 66.0237 455.036 64.3541 455.794C63.6788 456.1 63.373 456.938 63.6711 457.664C63.9692 458.391 64.7583 458.731 65.4336 458.425C67.1963 457.624 68.6517 456.832 69.6693 456.239C70.1784 455.941 70.579 455.693 70.8548 455.518C70.9927 455.43 71.0995 455.36 71.1731 455.312C71.2099 455.287 71.2384 455.268 71.2584 455.255L71.282 455.239L71.2889 455.234L71.292 455.232C71.2921 455.232 71.2926 455.232 70.5595 454.025L71.292 455.232C71.9092 454.811 72.0819 453.928 71.677 453.262C71.2723 452.596 70.4435 452.398 69.8264 452.819Z" fill="#BAE6FD"/>
    <path d="M87.1102 453.286C88.4819 454.338 90.0193 455.124 91.1074 455.592C91.4772 455.751 91.5166 456.328 91.1624 456.523L82.2287 461.455C82.1345 461.507 82.0262 461.522 81.9239 461.493C80.384 461.051 78.59 459.789 77.4784 458.88C77.1968 458.649 77.2724 458.149 77.5957 457.994C79.6809 456.995 84.964 454.135 86.6511 453.241C86.8006 453.161 86.9746 453.182 87.1102 453.286Z" fill="#FECACA"/>
    <path d="M73.8912 461.078C75.1357 462.173 76.5231 462.989 77.4954 463.472C77.8389 463.642 77.8764 464.179 77.5486 464.382L73.2455 467.046C73.1424 467.109 73.0196 467.127 72.9063 467.088C71.5037 466.606 69.8732 465.267 68.8823 464.323C68.6337 464.086 68.7191 463.64 69.0205 463.489C70.175 462.912 72.176 461.746 73.3803 461.026C73.5439 460.928 73.7465 460.95 73.8912 461.078Z" fill="#BAE6FD"/>
    <path fill-rule="evenodd" clip-rule="evenodd" d="M66.2424 447.719C66.2422 447.719 66.2426 447.719 66.2424 447.719L66.9755 448.926C66.2424 447.719 66.2423 447.719 66.2424 447.719L66.2399 447.721L66.2247 447.731C66.2103 447.741 66.1875 447.756 66.1566 447.776C66.0946 447.817 66.0001 447.879 65.875 447.959C65.6248 448.118 65.2525 448.349 64.7743 448.628C63.8171 449.186 62.4397 449.936 60.7701 450.694C60.0948 451.001 59.789 451.838 60.0871 452.565C60.3852 453.291 61.1743 453.632 61.8496 453.325C63.6124 452.525 65.0677 451.733 66.0853 451.139C66.5944 450.842 66.995 450.594 67.2708 450.418C67.4087 450.33 67.5155 450.261 67.5891 450.212C67.6259 450.188 67.6545 450.169 67.6745 450.155L67.698 450.139L67.7049 450.135L67.708 450.133C67.7081 450.133 67.7086 450.132 66.9755 448.926L67.708 450.133C68.3252 449.711 68.4979 448.829 68.0931 448.162C67.6883 447.496 66.8595 447.298 66.2424 447.719Z" fill="#BAE6FD"/>
    <path d="M46.2571 436.595C46.0249 436.179 45.5388 436.016 45.127 436.216L40.3369 438.54C39.8833 438.76 39.6867 439.333 39.9084 439.811C40.8261 441.788 43.1164 446.524 44.4544 447.543C45.4467 448.3 48.6403 446.013 50.0119 444.958C50.3785 444.676 50.473 444.143 50.2413 443.728L46.2571 436.595Z" fill="#BAE6FD"/>
    <path fill-rule="evenodd" clip-rule="evenodd" d="M44.782 439.523L47.0778 443.633C46.6789 443.904 46.2607 444.169 45.8606 444.392C45.7355 444.461 45.621 444.522 45.5169 444.574C45.502 444.552 45.4868 444.53 45.4713 444.507C45.123 443.991 44.7304 443.327 44.3248 442.587C43.9099 441.83 43.505 441.038 43.1486 440.315L44.782 439.523ZM44.8589 444.842C44.8589 444.842 44.8611 444.842 44.8657 444.841C44.8612 444.842 44.8589 444.842 44.8589 444.842ZM45.127 436.216C45.5388 436.016 46.0249 436.179 46.2571 436.595L50.2413 443.728C50.473 444.143 50.3785 444.676 50.0119 444.958C48.6403 446.013 45.4467 448.3 44.4544 447.543C43.1164 446.524 40.8261 441.788 39.9084 439.811C39.6867 439.333 39.8833 438.76 40.3369 438.54L45.127 436.216Z" fill="#BAE6FD"/>
    <path fill-rule="evenodd" clip-rule="evenodd" d="M42.1564 464.72C42.6899 465.265 42.7103 466.17 42.2018 466.742L32.8082 477.305C32.2998 477.877 31.4551 477.899 30.9216 477.354C30.3881 476.809 30.3678 475.904 30.8762 475.332L40.2698 464.769C40.7782 464.197 41.6229 464.175 42.1564 464.72Z" fill="#BAE6FD"/>
    <path fill-rule="evenodd" clip-rule="evenodd" d="M47.8695 472.325C48.4142 472.857 48.4534 473.762 47.9569 474.345L34.338 490.36C33.8416 490.944 32.9975 490.985 32.4528 490.453C31.9081 489.921 31.869 489.017 32.3654 488.433L45.9844 472.419C46.4808 471.835 47.3248 471.793 47.8695 472.325Z" fill="#BAE6FD"/>
    <path fill-rule="evenodd" clip-rule="evenodd" d="M55.5012 479.976C56.0347 480.521 56.055 481.426 55.5465 481.998L46.1529 492.561C45.6445 493.133 44.7998 493.155 44.2663 492.61C43.7328 492.065 43.7125 491.16 44.2209 490.588L53.6145 480.025C54.123 479.453 54.9676 479.431 55.5012 479.976Z" fill="#BAE6FD"/>
  </g>
  <g clip-path="url(#clip1_2_5530)">
    <path fill-rule="evenodd" clip-rule="evenodd" d="M58.5078 243.211C58.5575 243.911 58.0684 244.521 57.4153 244.575L57.3252 243.307C57.4153 244.575 57.4147 244.575 57.4141 244.575L57.4128 244.575L57.4098 244.575L57.4019 244.576L57.3789 244.577C57.3604 244.579 57.3357 244.58 57.3052 244.581C57.2441 244.584 57.1595 244.588 57.0543 244.589C56.8444 244.591 56.5506 244.586 56.1977 244.558C55.4969 244.502 54.5368 244.352 53.5284 243.969C51.4697 243.185 49.1943 241.401 48.609 237.616C48.5841 237.456 48.5613 237.297 48.5404 237.141C46.5223 237.383 44.7037 236.927 43.1908 236.008C40.5095 234.379 38.8636 231.309 38.9939 228.558C39.0271 227.857 39.5843 227.317 40.2385 227.353C40.8927 227.388 41.3961 227.985 41.3629 228.686C41.2843 230.346 42.3468 232.573 44.3609 233.797C45.4207 234.44 46.7731 234.815 48.3721 234.603C48.3889 233.028 48.6638 231.754 49.1414 230.76C49.9126 229.155 51.2012 228.335 52.5158 228.322C53.7676 228.311 55.0184 229.064 55.4846 230.424C55.9712 231.844 55.4513 233.418 54.1606 234.762L54.0766 234.849L53.9782 234.917C52.9116 235.657 51.8692 236.2 50.8619 236.571C50.8867 236.774 50.9156 236.984 50.9491 237.2C51.359 239.85 52.8567 241.015 54.3222 241.573C55.0759 241.86 55.8157 241.978 56.3743 242.023C56.6512 242.045 56.877 242.048 57.0291 242.047C57.1051 242.046 57.1621 242.044 57.1975 242.042C57.2152 242.041 57.2274 242.04 57.2338 242.04L57.2369 242.04L57.236 242.04C57.2369 242.04 57.2378 242.04 57.2387 242.04C57.8903 241.988 58.4581 242.512 58.5078 243.211ZM57.236 242.04C57.2357 242.04 57.2354 242.04 57.235 242.04L57.3228 243.274C57.2351 242.04 57.2356 242.04 57.236 242.04ZM50.7783 233.885C51.3591 233.619 51.9628 233.279 52.588 232.853C53.3962 231.973 53.3057 231.44 53.258 231.301C53.1884 231.098 52.9425 230.861 52.536 230.864C52.1924 230.868 51.6611 231.069 51.2503 231.924C51.034 232.374 50.852 233.013 50.7783 233.885Z" fill="#BAE6FD"/>
  </g>
  <g clip-path="url(#clip2_2_5530)">
    <path fill-rule="evenodd" clip-rule="evenodd" d="M29.3207 237.245C27.7026 235.601 27.2078 233.188 27.8604 231.087L14.914 217.932C13.1973 218.615 11.2169 218.372 9.66388 217.188L4.62661 222.751C5.80783 224.345 6.1199 226.431 5.54662 228.277L18.493 241.432C20.4473 240.654 22.7433 241.077 24.3615 242.722L29.3207 237.245ZM17.8975 244.332C18.0575 244.495 18.3092 244.488 18.48 244.341C19.7098 243.285 21.5266 243.346 22.7084 244.547L24.1566 246.019C24.3166 246.181 24.5696 246.177 24.7218 246.009L32.4361 237.489C32.5883 237.321 32.582 237.053 32.422 236.891L30.9738 235.419C29.7919 234.218 29.6584 232.298 30.6036 230.952C30.7348 230.765 30.731 230.499 30.5711 230.336L15.5095 215.031C15.3496 214.869 15.0978 214.876 14.9271 215.022C13.6973 216.079 11.8805 216.017 10.6986 214.817L9.82969 213.934C9.66973 213.771 9.4167 213.775 9.26454 213.943L1.55021 222.463C1.39805 222.631 1.40438 222.899 1.56434 223.062L2.43328 223.945C3.61512 225.145 3.7487 227.066 2.80346 228.411C2.67222 228.598 2.67603 228.865 2.83599 229.028L17.8975 244.332Z" fill="#BAE6FD"/>
    <path d="M22.6594 230.476C23.1393 230.964 23.1583 231.768 22.7018 232.272V232.272C22.2453 232.776 21.4862 232.79 21.0063 232.302L12.8963 224.061C12.4164 223.573 12.3974 222.769 12.8539 222.265V222.265C13.3103 221.761 14.0694 221.748 14.5493 222.235L22.6594 230.476Z" fill="#BAE6FD"/>
    <path d="M14.1389 228.828C14.6188 229.316 14.6378 230.12 14.1813 230.624V230.624C13.7248 231.128 12.9657 231.141 12.4858 230.654L9.58936 227.71C9.10946 227.223 9.09048 226.419 9.54696 225.915V225.915C10.0034 225.41 10.7625 225.397 11.2424 225.885L14.1389 228.828Z" fill="#BAE6FD"/>
    <path fill-rule="evenodd" clip-rule="evenodd" d="M3.23049 240.116C3.74764 240.559 3.83143 241.359 3.41763 241.903L-3.07892 250.443C-3.49272 250.987 -4.24741 251.069 -4.76456 250.626C-5.28172 250.184 -5.36551 249.384 -4.95171 248.84L1.54484 240.3C1.95864 239.756 2.71333 239.674 3.23049 240.116Z" fill="#BAE6FD"/>
    <path fill-rule="evenodd" clip-rule="evenodd" d="M8.85054 246.49C9.37251 246.926 9.46515 247.725 9.05745 248.274L0.059705 260.393C-0.347996 260.942 -1.10165 261.033 -1.62362 260.597C-2.1456 260.161 -2.23824 259.362 -1.83054 258.813L7.16721 246.694C7.57491 246.145 8.32856 246.053 8.85054 246.49Z" fill="#BAE6FD"/>
  </g>
  <path d="M4.23323 4.37247C4.78279 3.46993 5.92165 3.2084 6.77694 3.78833L23.2554 14.9615C24.1107 15.5415 24.3586 16.7432 23.809 17.6458L13.8828 33.9474C13.3332 34.85 12.1944 35.1115 11.3391 34.5316L-5.13942 23.3584C-5.99471 22.7785 -6.24255 21.5767 -5.69298 20.6741L4.23323 4.37247Z" fill="#F0F9FF"/>
  <path fill-rule="evenodd" clip-rule="evenodd" d="M3.06798 3.58249C4.02971 2.00305 6.02271 1.54537 7.51946 2.56024L23.998 13.7334C25.4947 14.7483 25.9284 16.8514 24.9667 18.4309L15.0405 34.7325C14.0788 36.312 12.0858 36.7696 10.589 35.7548L-5.8895 24.5816C-7.38626 23.5667 -7.81997 21.4636 -6.85823 19.8842L3.06798 3.58249ZM6.02686 5.01152C5.81304 4.86654 5.52832 4.93192 5.39093 5.15756L-4.53528 21.4592C-4.67268 21.6849 -4.61072 21.9853 -4.3969 22.1303L12.0816 33.3035C12.2954 33.4485 12.5801 33.3831 12.7175 33.1575L22.6438 16.8558C22.7811 16.6301 22.7192 16.3297 22.5054 16.1847L6.02686 5.01152Z" fill="#BAE6FD"/>
  <path fill-rule="evenodd" clip-rule="evenodd" d="M7.68647 11.6288L10.194 12.2119L9.52957 13.303C10.5056 12.8549 11.6241 12.9585 12.5018 13.5784C14.1686 14.7085 14.9113 17.1672 13.3465 19.737C11.7818 22.3068 9.39417 22.601 7.70148 21.4533C6.82353 20.8838 6.25529 19.9052 6.16882 18.8137L4.05109 22.2487L2.04727 20.89L7.68647 11.6288ZM11.3342 18.3445C12.1022 17.0834 11.8113 15.7047 10.8668 15.0643C9.92228 14.4239 8.62419 14.7251 7.8394 16.014C7.0546 17.3028 7.34939 18.645 8.29574 19.2867C9.2421 19.9284 10.5355 19.6435 11.3287 18.3408L11.3342 18.3445Z" fill="#FECACA"/>
  <path d="M11.0014 25.1683C10.6879 25.6849 10.1136 25.9534 9.5466 25.8485C8.9796 25.7436 8.53171 25.2859 8.41204 24.6892C8.29237 24.0925 8.52451 23.4744 9.00009 23.1235C9.47567 22.7725 10.1009 22.758 10.5839 23.0866C11.2426 23.5332 11.4295 24.4653 11.0014 25.1683" fill="#BAE6FD"/>
  <g clip-path="url(#clip3_2_5530)">
    <path fill-rule="evenodd" clip-rule="evenodd" d="M60.4248 81.0034C60.4782 81.7545 59.9533 82.4099 59.2524 82.4673L59.1557 81.1072C59.2524 82.4673 59.2518 82.4673 59.2512 82.4674L59.2498 82.4675L59.2465 82.4677L59.238 82.4684L59.2133 82.4701C59.1935 82.4714 59.167 82.473 59.1342 82.4746C59.0687 82.4778 58.9779 82.4811 58.865 82.4824C58.6397 82.4849 58.3245 82.4796 57.9458 82.4494C57.1937 82.3893 56.1634 82.2287 55.0812 81.817C52.8719 80.9764 50.4302 79.0616 49.802 75C49.7753 74.8276 49.7508 74.6575 49.7285 74.4897C47.5627 74.7498 45.6111 74.2606 43.9876 73.2741C41.1102 71.5259 39.3439 68.2317 39.4837 65.279C39.5193 64.5266 40.1173 63.9476 40.8193 63.9856C41.5213 64.0237 42.0616 64.6645 42.026 65.4169C41.9417 67.1976 43.0818 69.5877 45.2432 70.9008C46.3806 71.5919 47.8319 71.9939 49.5478 71.7662C49.5658 70.0764 49.8609 68.7092 50.3734 67.6425C51.201 65.9196 52.5838 65.0393 53.9946 65.0263C55.3379 65.0138 56.6802 65.8223 57.1805 67.282C57.7027 68.8055 57.1448 70.4942 55.7596 71.9367L55.6695 72.0305L55.564 72.1037C54.4193 72.8973 53.3006 73.4803 52.2197 73.8785C52.2463 74.0963 52.2774 74.3212 52.3133 74.5536C52.7531 77.3974 54.3604 78.6477 55.9331 79.246C56.7419 79.5538 57.5359 79.6809 58.1353 79.7288C58.4324 79.7526 58.6747 79.7563 58.838 79.7544C58.9195 79.7535 58.9808 79.7512 59.0187 79.7493C59.0377 79.7484 59.0508 79.7476 59.0577 79.7471L59.061 79.7469L59.06 79.747C59.061 79.7469 59.062 79.7468 59.0629 79.7468C59.7622 79.6919 60.3715 80.2536 60.4248 81.0034ZM59.06 79.747C59.0597 79.747 59.0593 79.747 59.059 79.7471L59.1531 81.071C59.059 79.7471 59.0595 79.747 59.06 79.747ZM52.1299 70.9957C52.7533 70.7107 53.4012 70.3453 54.0721 69.8883C54.9394 68.9437 54.8422 68.3723 54.791 68.2229C54.7163 68.0049 54.4524 67.7502 54.0163 67.7543C53.6475 67.7577 53.0774 67.9734 52.6366 68.891C52.4044 69.3743 52.209 70.0599 52.1299 70.9957Z" fill="#BAE6FD"/>
  </g>
  <defs>
    <clipPath id="clip0_2_5530">
      <rect width="77.4151" height="90.6208" fill="white" transform="translate(29.157 402.568)"/>
    </clipPath>
    <clipPath id="clip1_2_5530">
      <rect width="20.2204" height="24.7032" fill="white" transform="translate(38.543 223.639)"/>
    </clipPath>
    <clipPath id="clip2_2_5530">
      <rect width="42.1739" height="48.7888" fill="white" transform="translate(-8.97461 212.713) rotate(-4.16477)"/>
    </clipPath>
    <clipPath id="clip3_2_5530">
      <rect width="21.6993" height="26.51" fill="white" transform="translate(38.9998 60)"/>
    </clipPath>
  </defs>
</svg>
