<svg width="333" height="468" viewBox="0 0 333 468" fill="none" xmlns="http://www.w3.org/2000/svg">
<g clip-path="url(#clip0_21_6257)">
<path d="M29.5037 369.139C28.9552 367.015 30.2208 364.845 32.3402 364.276L64.5544 355.633C66.7024 355.057 68.9081 356.343 69.464 358.497L74.1436 376.624C74.692 378.749 73.4264 380.919 71.3071 381.488L39.0928 390.131C36.9448 390.707 34.7392 389.42 34.1833 387.267L29.5037 369.139Z" fill="#F0F9FF"/>
<path d="M30.9606 370.699L68.4558 360.64L69.4453 364.473L31.9501 374.532L30.9606 370.699Z" fill="#BAE6FD"/>
<path d="M37.3643 379.096C36.9296 378.895 36.6685 378.439 36.7129 377.957C36.7572 377.475 37.0973 377.072 37.5616 376.951L49.1699 373.836C49.758 373.715 50.3348 374.079 50.4841 374.665C50.6335 375.251 50.3033 375.855 49.7319 376.041L38.123 379.159C37.87 379.228 37.6018 379.205 37.3643 379.096Z" fill="#BAE6FD"/>
<path d="M38.671 384.159C38.2347 383.96 37.9721 383.503 38.0165 383.02C38.061 382.537 38.4026 382.134 38.8683 382.015L45.0611 380.348C45.665 380.186 46.2821 380.548 46.4393 381.158C46.5966 381.767 46.2344 382.392 45.6305 382.554L39.4377 384.221C39.1824 384.292 38.911 384.27 38.671 384.159Z" fill="#BAE6FD"/>
<path fill-rule="evenodd" clip-rule="evenodd" d="M27.954 369.67C27.1585 366.739 28.8902 363.717 31.8217 362.922L63.67 354.28C66.6016 353.484 69.623 355.216 70.4184 358.148L75.3941 376.485C76.1896 379.416 74.458 382.437 71.5264 383.233L39.6781 391.875C36.7466 392.67 33.7252 390.939 32.9297 388.007L27.954 369.67ZM32.6074 365.817C31.2748 366.179 30.4877 367.552 30.8493 368.885L35.825 387.222C36.1866 388.554 37.5599 389.341 38.8925 388.98L70.7408 380.338C72.0733 379.976 72.8604 378.603 72.4988 377.27L67.5231 358.933C67.1616 357.601 65.7882 356.814 64.4557 357.175L32.6074 365.817Z" fill="#BAE6FD"/>
<path d="M25.0567 417.677C23.3204 415.221 23.7743 411.74 26.0741 409.876L61.0307 381.541C63.3616 379.651 66.6985 380.14 68.4583 382.63L83.2724 403.584C85.0087 406.04 84.5547 409.521 82.2549 411.385L47.2983 439.721C44.9674 441.61 41.6306 441.121 39.8708 438.632L25.0567 417.677Z" fill="#F0F9FF"/>
<path d="M27.6166 418.915L68.3042 385.935L71.4369 390.367L30.7493 423.346L27.6166 418.915Z" fill="#BAE6FD"/>
<path d="M39.646 426.369C39.0149 426.341 38.4673 425.89 38.2793 425.243C38.0913 424.596 38.3037 423.894 38.8095 423.49L51.4058 413.279C52.0624 412.809 52.9488 412.972 53.4252 413.651C53.9017 414.329 53.8024 415.286 53.1989 415.831L40.6033 426.047C40.3292 426.27 39.9907 426.384 39.646 426.369Z" fill="#BAE6FD"/>
<path d="M43.7848 432.217C43.1523 432.192 42.6026 431.741 42.4142 431.092C42.2258 430.444 42.44 429.741 42.9482 429.338L49.6656 423.884C50.321 423.353 51.2559 423.494 51.7538 424.198C52.2516 424.903 52.124 425.904 51.4686 426.435L44.7512 431.889C44.4752 432.117 44.1332 432.233 43.7848 432.217Z" fill="#BAE6FD"/>
<path fill-rule="evenodd" clip-rule="evenodd" d="M23.434 419.187C20.9911 415.819 21.5859 410.989 24.7625 408.399L59.2733 380.259C62.4499 377.669 67.0055 378.3 69.4484 381.668L84.7288 402.736C87.1718 406.104 86.577 410.934 83.4003 413.524L48.8896 441.664C45.713 444.254 41.1574 443.623 38.7145 440.255L23.434 419.187ZM27.1752 411.725C25.7313 412.903 25.461 415.098 26.5714 416.629L41.8518 437.697C42.9623 439.228 45.033 439.514 46.4769 438.337L80.9876 410.198C82.4316 409.02 82.7019 406.825 81.5915 405.294L66.311 384.226C65.2006 382.695 63.1299 382.408 61.686 383.586L27.1752 411.725Z" fill="#BAE6FD"/>
</g>
<g clip-path="url(#clip1_21_6257)">
<path d="M114.454 191.741C116.52 190.202 118.682 191.273 121.459 190.653C123.444 190.21 123.408 187.506 121.738 186.273C106.539 175.047 83.9623 153.94 70.3736 125.627C69.6701 124.161 68.059 123.485 66.6512 124.149C55.5092 129.406 27.9638 143.894 11.6652 151.292C10.1422 151.984 9.44639 153.886 10.1599 155.485C29.2192 198.201 62.4086 221.092 74.3246 226.485C75.1984 226.88 76.2496 226.768 76.7451 225.901C78.1548 223.436 77.1591 219.54 79.6143 217.71C82.5237 215.542 85.2791 219.787 88.1763 217.628C91.0857 215.459 88.3302 211.214 91.2274 209.054C94.1368 206.885 96.8922 211.131 99.7894 208.971C102.699 206.803 99.9434 202.557 102.841 200.398C105.75 198.229 108.505 202.475 111.402 200.315C114.312 198.147 111.556 193.901 114.454 191.741Z" fill="#F0F9FF"/>
<path fill-rule="evenodd" clip-rule="evenodd" d="M10.8119 149.136C8.16824 150.336 6.92103 153.665 8.18578 156.5C27.5138 199.819 61.1524 223.073 73.4734 228.648C74.866 229.279 77.3162 229.395 78.6111 227.13L76.7452 225.905L78.6111 227.13C79.1524 226.183 79.4193 225.178 79.5856 224.318C79.6891 223.783 79.7769 223.152 79.8511 222.619C79.8857 222.37 79.9174 222.142 79.9464 221.955C80.1723 220.497 80.4333 219.96 80.8638 219.639C81.2936 219.319 81.6292 219.313 83.1895 219.887C83.2424 219.906 83.2976 219.927 83.3547 219.948C84.661 220.434 87.0537 221.324 89.4258 219.556C91.8058 217.782 91.8604 215.065 91.8903 213.579C91.8915 213.517 91.8927 213.456 91.894 213.399C91.935 211.623 92.0558 211.296 92.477 210.983C92.9067 210.662 93.2423 210.657 94.8026 211.231C94.8555 211.25 94.9107 211.271 94.9678 211.292C96.2741 211.778 98.6668 212.668 101.039 210.9C103.419 209.126 103.473 206.409 103.503 204.923C103.505 204.86 103.506 204.8 103.507 204.742C103.548 202.967 103.669 202.64 104.09 202.326C104.52 202.006 104.855 202.001 106.416 202.574C106.469 202.594 106.524 202.614 106.581 202.636C107.887 203.122 110.28 204.012 112.652 202.244C115.032 200.47 115.087 197.753 115.116 196.266C115.118 196.204 115.119 196.144 115.12 196.086C115.161 194.311 115.282 193.984 115.703 193.67C116.178 193.316 116.681 193.203 117.693 193.201C117.866 193.201 118.062 193.205 118.278 193.209C119.222 193.229 120.54 193.257 121.906 192.952C123.981 192.489 125.093 190.702 125.156 188.849C125.215 187.134 124.409 185.401 122.98 184.346C107.946 173.242 85.6828 152.401 72.3196 124.558C71.1239 122.067 68.3093 120.807 65.7695 122.006C61.2782 124.125 54.1475 127.73 46.1961 131.75C44.2252 132.746 42.204 133.768 40.16 134.799C29.8379 140.006 18.9152 145.458 10.8119 149.136ZM12.1341 154.477C11.9718 154.113 12.1163 153.638 12.5187 153.455C20.7139 149.735 31.7132 144.244 42.0239 139.043C44.0859 138.003 46.1195 136.975 48.0981 135.974C56.0432 131.958 63.0995 128.39 67.533 126.298C67.8087 126.168 68.2163 126.263 68.4277 126.703C82.2419 155.485 105.132 176.86 120.497 188.207C120.584 188.272 120.649 188.347 120.696 188.423C119.992 188.544 119.361 188.533 118.587 188.52C118.309 188.515 118.012 188.51 117.686 188.511C116.407 188.513 114.795 188.634 113.204 189.82C110.832 191.588 110.778 194.301 110.749 195.783C110.748 195.848 110.746 195.91 110.745 195.97C110.704 197.738 110.583 198.073 110.153 198.393C109.732 198.707 109.404 198.715 107.837 198.138C107.786 198.12 107.733 198.1 107.678 198.079C106.367 197.592 103.971 196.702 101.591 198.476C99.2189 200.244 99.1652 202.958 99.1359 204.439C99.1346 204.504 99.1334 204.567 99.132 204.627C99.0912 206.394 98.9697 206.729 98.5399 207.05C98.1188 207.363 97.7908 207.371 96.2234 206.795C96.1724 206.776 96.1194 206.756 96.0645 206.736C94.7537 206.249 92.358 205.358 89.978 207.132C87.6058 208.9 87.5521 211.614 87.5228 213.095C87.5215 213.16 87.5203 213.223 87.5189 213.283C87.4781 215.05 87.3565 215.385 86.9268 215.706C86.5056 216.02 86.1777 216.027 84.6103 215.451C84.5593 215.432 84.5063 215.412 84.4514 215.392C83.1406 214.905 80.7449 214.014 78.3649 215.788C76.3402 217.298 75.8714 219.623 75.629 221.186C75.5724 221.552 75.5303 221.86 75.4917 222.141C75.4325 222.574 75.3818 222.944 75.3002 223.366C75.2278 223.74 75.1491 224.037 75.0622 224.276C63.4507 218.971 30.8632 196.453 12.1341 154.477Z" fill="#BAE6FD"/>
<path fill-rule="evenodd" clip-rule="evenodd" d="M65.6982 135.93C65.0588 134.831 63.7092 134.495 62.6837 135.18L62.6774 135.185L62.654 135.2L62.5566 135.265C62.4695 135.322 62.3383 135.408 62.1653 135.521C61.8193 135.746 61.3064 136.077 60.645 136.496C59.322 137.333 57.4062 138.518 55.0453 139.907C50.3195 142.686 43.8303 146.265 36.7554 149.483C35.6429 149.989 35.1238 151.366 35.596 152.558C36.0682 153.75 37.3528 154.306 38.4653 153.8C45.7162 150.502 52.3425 146.846 57.1506 144.018C59.5568 142.603 61.5126 141.393 62.8695 140.535C63.5481 140.106 64.0771 139.764 64.4382 139.529C64.6187 139.412 64.7572 139.321 64.8515 139.258L64.9593 139.187L64.9878 139.168L64.9978 139.161C64.9981 139.161 64.999 139.161 63.8413 137.171L64.9978 139.161C66.0234 138.476 66.3376 137.029 65.6982 135.93Z" fill="#BAE6FD"/>
<path fill-rule="evenodd" clip-rule="evenodd" d="M69.6552 144.181C69.0158 143.082 67.6662 142.746 66.6407 143.431L66.6344 143.436L66.611 143.451L66.5137 143.516C66.4265 143.573 66.2953 143.659 66.1223 143.772C65.7763 143.997 65.2634 144.328 64.602 144.747C63.279 145.584 61.3632 146.769 59.0023 148.157C54.2765 150.937 47.7873 154.516 40.7124 157.734C39.5999 158.24 39.0808 159.617 39.553 160.809C40.0252 162.001 41.3098 162.557 42.4223 162.051C49.6733 158.753 56.2995 155.097 61.1077 152.269C63.5138 150.854 65.4697 149.644 66.8266 148.786C67.5051 148.357 68.0342 148.015 68.3952 147.78C68.5757 147.663 68.7143 147.572 68.8085 147.509L68.9164 147.438L68.9448 147.419L68.9549 147.412C68.9551 147.412 68.956 147.412 67.7983 145.422L68.9549 147.412C69.9804 146.727 70.2946 145.28 69.6552 144.181Z" fill="#BAE6FD"/>
<path fill-rule="evenodd" clip-rule="evenodd" d="M75.3046 151.368C74.6652 150.269 73.3157 149.934 72.2901 150.619L72.2838 150.623L72.2605 150.639L72.1631 150.703C72.0759 150.761 71.9447 150.847 71.7717 150.96C71.4257 151.185 70.9128 151.516 70.2514 151.934C68.9284 152.771 67.0126 153.957 64.6518 155.345C59.9259 158.124 53.4367 161.703 46.3618 164.921C45.2493 165.427 44.7303 166.804 45.2025 167.996C45.6747 169.189 46.9593 169.745 48.0718 169.239C55.3227 165.941 61.949 162.284 66.7571 159.457C69.1632 158.042 71.1191 156.832 72.476 155.973C73.1545 155.544 73.6836 155.203 74.0446 154.968C74.2251 154.85 74.3637 154.759 74.4579 154.697L74.5658 154.625L74.5942 154.607L74.6043 154.6C74.6045 154.6 74.6054 154.599 73.4477 152.609L74.6043 154.6C75.6298 153.915 75.944 152.467 75.3046 151.368Z" fill="#BAE6FD"/>
<path fill-rule="evenodd" clip-rule="evenodd" d="M79.8843 163.636C79.884 163.636 79.8846 163.636 79.8843 163.636L81.0865 165.615C79.8843 163.636 79.8841 163.636 79.8843 163.636L79.8803 163.639L79.8553 163.656C79.8317 163.671 79.7943 163.696 79.7436 163.73C79.642 163.797 79.487 163.898 79.2819 164.029C78.8716 164.29 78.2611 164.668 77.4769 165.126C75.9073 166.042 73.6485 167.271 70.9107 168.514C69.8033 169.017 69.3019 170.39 69.7907 171.582C70.2795 172.773 71.5735 173.331 72.6808 172.829C75.5715 171.516 77.9581 170.218 79.6267 169.244C80.4616 168.757 81.1185 168.35 81.5707 168.062C81.7969 167.918 81.972 167.804 82.0927 167.724C82.1531 167.684 82.1999 167.653 82.2327 167.631L82.2713 167.605L82.2827 167.597L82.2877 167.594C82.2879 167.594 82.2887 167.593 81.0865 165.615L82.2877 167.594C83.2998 166.902 83.583 165.455 82.9191 164.363C82.2553 163.27 80.8963 162.945 79.8843 163.636Z" fill="#BAE6FD"/>
<path fill-rule="evenodd" clip-rule="evenodd" d="M70.1597 180.431C70.1594 180.431 70.16 180.431 70.1597 180.431L71.3619 182.409C70.1597 180.431 70.1595 180.431 70.1597 180.431L70.1557 180.434L70.1307 180.45C70.1071 180.466 70.0697 180.491 70.0189 180.525C69.9174 180.592 69.7624 180.693 69.5573 180.824C69.147 181.085 68.5365 181.463 67.7523 181.921C66.1827 182.837 63.9239 184.066 61.1861 185.309C60.0787 185.812 59.5773 187.185 60.0661 188.377C60.5549 189.568 61.8489 190.126 62.9562 189.624C65.8469 188.311 68.2335 187.013 69.9021 186.039C70.737 185.552 71.3939 185.145 71.8461 184.857C72.0723 184.713 72.2474 184.599 72.3681 184.519C72.4285 184.479 72.4753 184.448 72.508 184.426L72.5467 184.4L72.558 184.392L72.563 184.389C72.5633 184.389 72.564 184.388 71.3619 182.409L72.563 184.389C73.5752 183.697 73.8584 182.25 73.1945 181.158C72.5307 180.065 71.1717 179.74 70.1597 180.431Z" fill="#BAE6FD"/>
<path d="M98.2762 181.594C100.526 183.32 103.047 184.609 104.831 185.376C105.437 185.637 105.502 186.583 104.921 186.903L90.2714 194.991C90.117 195.076 89.9394 195.1 89.7717 195.052C87.2464 194.328 84.3045 192.259 82.4817 190.767C82.0201 190.39 82.144 189.569 82.6742 189.315C86.0936 187.676 94.7568 182.987 97.5235 181.52C97.7685 181.39 98.0539 181.424 98.2762 181.594Z" fill="#FECACA"/>
<path d="M76.5997 194.372C78.6405 196.168 80.9155 197.507 82.5099 198.298C83.0731 198.578 83.1347 199.458 82.5972 199.79L75.5408 204.159C75.3718 204.263 75.1704 204.293 74.9846 204.229C72.6846 203.437 70.0109 201.241 68.3859 199.693C67.9782 199.305 68.1182 198.574 68.6125 198.327C70.5058 197.381 73.7869 195.468 75.7618 194.287C76.0301 194.127 76.3623 194.164 76.5997 194.372Z" fill="#BAE6FD"/>
<path fill-rule="evenodd" clip-rule="evenodd" d="M64.0572 172.467C64.0569 172.467 64.0575 172.467 64.0572 172.467L65.2593 174.446C64.0572 172.467 64.057 172.467 64.0572 172.467L64.0532 172.47L64.0282 172.487C64.0046 172.503 63.9672 172.527 63.9164 172.561C63.8149 172.628 63.6599 172.729 63.4548 172.86C63.0444 173.121 62.434 173.499 61.6498 173.957C60.0802 174.873 57.8214 176.102 55.0836 177.345C53.9762 177.848 53.4748 179.221 53.9636 180.413C54.4524 181.604 55.7463 182.162 56.8537 181.66C59.7444 180.348 62.1309 179.049 63.7996 178.075C64.6345 177.588 65.2914 177.181 65.7436 176.893C65.9697 176.749 66.1448 176.635 66.2656 176.555C66.3259 176.515 66.3727 176.484 66.4055 176.462L66.4442 176.436L66.4555 176.428L66.4605 176.425C66.4607 176.425 66.4615 176.424 65.2593 174.446L66.4605 176.425C67.4726 175.733 67.7559 174.286 67.0919 173.194C66.4282 172.101 65.0692 171.776 64.0572 172.467Z" fill="#BAE6FD"/>
<path d="M31.2838 154.223C30.9031 153.541 30.1059 153.274 29.4305 153.601L21.5757 157.411C20.8319 157.772 20.5094 158.713 20.873 159.496C22.3779 162.739 26.1336 170.504 28.3276 172.176C29.9548 173.416 35.1918 169.666 37.4411 167.937C38.0421 167.475 38.1972 166.6 37.8172 165.92L31.2838 154.223Z" fill="#BAE6FD"/>
<path fill-rule="evenodd" clip-rule="evenodd" d="M28.8649 159.024L32.6295 165.764C31.9755 166.207 31.2897 166.643 30.6336 167.008C30.4285 167.122 30.2406 167.221 30.07 167.307C30.0456 167.271 30.0206 167.234 29.9951 167.197C29.4241 166.35 28.7802 165.261 28.1151 164.049C27.4347 162.808 26.7708 161.508 26.1864 160.323L28.8649 159.024ZM28.991 167.747C28.9909 167.747 28.9946 167.746 29.0021 167.744C28.9948 167.746 28.991 167.746 28.991 167.747ZM29.4305 153.601C30.1059 153.274 30.9031 153.541 31.2838 154.223L37.8172 165.92C38.1972 166.6 38.0421 167.475 37.4411 167.937C35.1918 169.666 29.9548 173.416 28.3276 172.176C26.1336 170.504 22.3779 162.739 20.873 159.496C20.5094 158.713 20.8319 157.772 21.5757 157.411L29.4305 153.601Z" fill="#BAE6FD"/>
<path fill-rule="evenodd" clip-rule="evenodd" d="M23.2152 204.409C24.0901 205.303 24.1234 206.787 23.2897 207.725L7.88579 225.046C7.05202 225.984 5.6669 226.02 4.79203 225.126C3.91716 224.233 3.88384 222.748 4.71761 221.811L20.1215 204.489C20.9552 203.551 22.3404 203.515 23.2152 204.409Z" fill="#BAE6FD"/>
<path fill-rule="evenodd" clip-rule="evenodd" d="M32.5838 216.879C33.477 217.752 33.5412 219.235 32.7271 220.192L10.3945 246.453C9.5804 247.41 8.19637 247.479 7.30314 246.607C6.40991 245.734 6.34573 244.251 7.1598 243.294L29.4925 217.033C30.3065 216.076 31.6906 216.007 32.5838 216.879Z" fill="#BAE6FD"/>
<path fill-rule="evenodd" clip-rule="evenodd" d="M45.098 229.424C45.9729 230.317 46.0062 231.802 45.1725 232.739L29.7686 250.061C28.9348 250.999 27.5497 251.034 26.6748 250.141C25.8 249.247 25.7667 247.763 26.6004 246.825L42.0043 229.503C42.8381 228.566 44.2232 228.53 45.098 229.424Z" fill="#BAE6FD"/>
</g>
<g clip-path="url(#clip2_21_6257)">
<path fill-rule="evenodd" clip-rule="evenodd" d="M319.583 138.27C319.664 139.418 318.862 140.42 317.791 140.507L317.643 138.429C317.791 140.507 317.79 140.507 317.789 140.507L317.787 140.508L317.782 140.508L317.769 140.509L317.731 140.512C317.701 140.514 317.661 140.516 317.611 140.518C317.51 140.523 317.372 140.528 317.199 140.53C316.855 140.534 316.373 140.526 315.795 140.48C314.645 140.388 313.071 140.143 311.417 139.514C308.041 138.229 304.31 135.303 303.35 129.097C303.31 128.833 303.272 128.573 303.238 128.317C299.929 128.714 296.946 127.967 294.465 126.459C290.069 123.788 287.37 118.754 287.583 114.242C287.638 113.093 288.551 112.208 289.624 112.266C290.697 112.324 291.522 113.303 291.468 114.453C291.339 117.174 293.081 120.826 296.384 122.833C298.122 123.889 300.34 124.503 302.962 124.155C302.989 121.573 303.44 119.484 304.223 117.854C305.488 115.221 307.601 113.876 309.757 113.856C311.81 113.837 313.861 115.073 314.625 117.303C315.423 119.631 314.571 122.212 312.454 124.416L312.316 124.559L312.155 124.671C310.406 125.884 308.696 126.775 307.045 127.383C307.085 127.716 307.133 128.06 307.188 128.415C307.86 132.76 310.316 134.671 312.719 135.585C313.955 136.055 315.168 136.25 316.084 136.323C316.538 136.359 316.908 136.365 317.158 136.362C317.282 136.36 317.376 136.357 317.434 136.354C317.463 136.353 317.483 136.351 317.494 136.351L317.499 136.35L317.497 136.35C317.499 136.35 317.5 136.35 317.502 136.35C318.57 136.266 319.501 137.125 319.583 138.27ZM317.497 136.35C317.497 136.351 317.496 136.351 317.496 136.351L317.639 138.374C317.496 136.351 317.496 136.351 317.497 136.35ZM306.908 122.978C307.86 122.542 308.85 121.984 309.875 121.286C311.201 119.842 311.052 118.969 310.974 118.741C310.86 118.408 310.456 118.019 309.79 118.025C309.226 118.03 308.355 118.36 307.682 119.762C307.327 120.5 307.028 121.548 306.908 122.978Z" fill="#BAE6FD"/>
</g>
<g clip-path="url(#clip3_21_6257)">
<path fill-rule="evenodd" clip-rule="evenodd" d="M197.078 70.648C194.627 67.766 194.105 63.7613 195.423 60.4032L175.816 37.3454C172.927 38.2589 169.717 37.6248 167.318 35.5035L158.417 44.0019C160.159 46.7504 160.421 50.1992 159.264 53.1492L178.871 76.2069C182.159 75.167 185.864 76.1327 188.315 79.0147L197.078 70.648ZM177.551 80.8793C177.794 81.1642 178.206 81.1827 178.503 80.9631C180.64 79.3817 183.604 79.6987 185.394 81.8036L187.587 84.3829C187.829 84.6678 188.244 84.6906 188.513 84.4339L202.144 71.419C202.413 71.1623 202.434 70.7233 202.192 70.4384L199.999 67.8591C198.209 65.7542 198.219 62.5975 199.925 60.5093C200.162 60.2194 200.188 59.7827 199.946 59.4978L177.135 32.673C176.893 32.3881 176.48 32.3697 176.184 32.5892C174.047 34.1706 171.082 33.8536 169.293 31.7488L167.977 30.2012C167.734 29.9163 167.32 29.8934 167.051 30.1501L153.42 43.165C153.151 43.4217 153.129 43.8608 153.372 44.1457L154.688 45.6933C156.477 47.7981 156.467 50.9548 154.761 53.043C154.524 53.3329 154.499 53.7697 154.741 54.0546L177.551 80.8793Z" fill="#BAE6FD"/>
<path d="M186.989 58.7854C187.716 59.6401 187.651 60.9573 186.844 61.7275C186.038 62.4976 184.794 62.429 184.068 61.5743L171.785 47.1302C171.058 46.2755 171.123 44.9583 171.93 44.1882C172.736 43.418 173.979 43.4866 174.706 44.3413L186.989 58.7854Z" fill="#BAE6FD"/>
<path d="M173.25 55.0755C173.977 55.9302 173.913 57.2474 173.106 58.0175C172.299 58.7876 171.056 58.7191 170.329 57.8644L165.943 52.7057C165.216 51.851 165.281 50.5338 166.087 49.7637C166.894 48.9936 168.137 49.0621 168.864 49.9169L173.25 55.0755Z" fill="#BAE6FD"/>
<path fill-rule="evenodd" clip-rule="evenodd" d="M154.065 72.2367C154.858 73.0225 154.9 74.3407 154.158 75.1811L142.516 88.3745C141.775 89.2149 140.53 89.2592 139.737 88.4734C138.944 87.6876 138.903 86.3694 139.644 85.529L151.286 72.3356C152.028 71.4952 153.272 71.451 154.065 72.2367Z" fill="#BAE6FD"/>
<path fill-rule="evenodd" clip-rule="evenodd" d="M162.496 83.3317C163.298 84.1075 163.355 85.4251 162.622 86.2746L146.463 105.023C145.731 105.873 144.488 105.932 143.686 105.157C142.884 104.381 142.828 103.063 143.56 102.214L159.719 83.4651C160.451 82.6155 161.695 82.5558 162.496 83.3317Z" fill="#BAE6FD"/>
</g>
<path d="M295.86 6.90245C296.762 5.42244 298.629 4.99357 300.032 5.94455L327.054 24.2667C328.456 25.2176 328.863 27.1883 327.961 28.6684L311.684 55.4003C310.783 56.8803 308.915 57.3091 307.513 56.3582L280.491 38.036C279.088 37.0851 278.682 35.1144 279.583 33.6344L295.86 6.90245Z" fill="#F0F9FF"/>
<path fill-rule="evenodd" clip-rule="evenodd" d="M293.949 5.60858C295.526 3.01857 298.794 2.26805 301.249 3.93226L328.271 22.2544C330.725 23.9186 331.436 27.3673 329.859 29.9573L313.582 56.6892C312.005 59.2792 308.737 60.0298 306.282 58.3656L279.26 40.0434C276.806 38.3792 276.095 34.9305 277.672 32.3405L293.949 5.60858ZM298.801 7.95194C298.451 7.7142 297.984 7.82142 297.758 8.19142L281.481 34.9233C281.256 35.2933 281.357 35.786 281.708 36.0238L308.73 54.3459C309.081 54.5836 309.547 54.4764 309.773 54.1064L326.05 27.3745C326.275 27.0045 326.174 26.5118 325.823 26.2741L298.801 7.95194Z" fill="#BAE6FD"/>
<path fill-rule="evenodd" clip-rule="evenodd" d="M301.523 18.802L305.635 19.7581L304.545 21.5474C306.146 20.8126 307.98 20.9825 309.419 21.9989C312.153 23.8522 313.37 27.8839 310.804 32.098C308.239 36.312 304.323 36.7945 301.548 34.9124C300.108 33.9786 299.176 32.3739 299.034 30.584L295.562 36.2167L292.276 33.9887L301.523 18.802ZM307.505 29.8146C308.764 27.7465 308.287 25.4858 306.738 24.4356C305.189 23.3854 303.061 23.8794 301.774 25.9929C300.487 28.1064 300.97 30.3073 302.522 31.3596C304.074 32.4118 306.195 31.9446 307.496 29.8084L307.505 29.8146Z" fill="#FECACA"/>
<path d="M306.959 41.0057C306.445 41.8527 305.503 42.293 304.573 42.121C303.644 41.9489 302.909 41.1985 302.713 40.22C302.517 39.2415 302.897 38.2279 303.677 37.6524C304.457 37.077 305.482 37.0531 306.274 37.592C307.355 38.3244 307.661 39.8527 306.959 41.0057Z" fill="#BAE6FD"/>
<defs>
<clipPath id="clip0_21_6257">
<rect width="116.526" height="129.629" fill="white" transform="translate(0 337.886)"/>
</clipPath>
<clipPath id="clip1_21_6257">
<rect width="126.947" height="148.602" fill="white" transform="translate(1.89844 102.49)"/>
</clipPath>
<clipPath id="clip2_21_6257">
<rect width="33.1579" height="40.509" fill="white" transform="translate(286.844 106.176)"/>
</clipPath>
<clipPath id="clip3_21_6257">
<rect width="69.1579" height="80.0053" fill="white" transform="translate(137.367 25.9668)"/>
</clipPath>
</defs>
</svg>
