<svg width="140" height="84" viewBox="0 0 140 84" fill="none" xmlns="http://www.w3.org/2000/svg">
  <path d="M27.2612 47.3438C26.7143 46.9872 26.1255 46.703 25.5087 46.4981C24.8909 46.2966 24.2462 46.1953 23.5978 46.1978C23.1962 46.1938 22.7954 46.2402 22.4048 46.336C22.0745 46.4133 21.7597 46.5486 21.4746 46.7358C21.2322 46.8979 21.0285 47.1138 20.879 47.3676C20.7348 47.618 20.6607 47.9043 20.6649 48.1948C20.6556 48.4461 20.718 48.6945 20.8447 48.9097C20.9823 49.1191 21.1677 49.291 21.3846 49.4108C21.653 49.5619 21.9398 49.6759 22.2375 49.7498C22.6122 49.8474 22.9919 49.9243 23.3747 49.9801L24.2743 50.1035C24.7985 50.179 25.316 50.2974 25.8218 50.4573C26.3054 50.6036 26.763 50.8288 27.1768 51.1241C27.5686 51.407 27.8937 51.7757 28.1286 52.2037C28.3806 52.6877 28.5047 53.2307 28.4884 53.7789C28.5014 54.4074 28.3571 55.029 28.0692 55.5844C27.7907 56.1047 27.4022 56.5548 26.9319 56.9016C26.4283 57.2708 25.8649 57.5458 25.2676 57.714C24.6134 57.9016 23.9369 57.9945 23.2578 57.9904C22.7972 57.9893 22.3376 57.9511 21.883 57.8762C21.4057 57.7998 20.9347 57.6864 20.4741 57.5372C20.0165 57.3913 19.5718 57.2064 19.1444 56.9845C18.7329 56.7698 18.3487 56.5043 18 56.1942L19.1479 54.4735C19.3936 54.6989 19.6641 54.8943 19.954 55.0556C20.2785 55.2389 20.6167 55.3953 20.9654 55.5236C21.3307 55.6581 21.7062 55.7615 22.0882 55.8331C22.4679 55.9056 22.8534 55.9426 23.2397 55.9435C23.6429 55.9465 24.0451 55.9013 24.4381 55.8091C24.778 55.7317 25.1035 55.5992 25.4025 55.4167C25.6609 55.2593 25.882 55.0454 26.0503 54.7903C26.2088 54.546 26.2916 54.2583 26.2879 53.9649C26.2879 53.4418 26.0377 53.0438 25.5375 52.7712C25.0372 52.4985 24.3086 52.2946 23.3513 52.1595L22.3347 52.0176C21.8515 51.9476 21.3756 51.8323 20.9132 51.6732C20.4653 51.5233 20.0461 51.2958 19.6733 51.0007C19.307 50.7079 19.0078 50.3362 18.7971 49.9119C18.5632 49.417 18.4497 48.8715 18.466 48.322C18.4566 47.7065 18.5963 47.0983 18.8727 46.5515C19.1403 46.0362 19.5179 45.589 19.9775 45.2435C20.4714 44.8759 21.0261 44.6025 21.6149 44.4366C22.265 44.2471 22.9381 44.1529 23.614 44.1566C24.488 44.1445 25.3585 44.2752 26.1925 44.5435C26.9491 44.7952 27.6691 45.1496 28.3337 45.5972L27.2612 47.3438ZM34.3741 48.3644C34.962 48.3576 35.5447 48.4762 36.0854 48.7126C36.594 48.9378 37.0489 49.2735 37.4187 49.6964C37.8004 50.1406 38.0948 50.6561 38.2859 51.2144C38.5004 51.8418 38.6065 52.5025 38.599 53.1672C38.599 53.2943 38.599 53.4215 38.5901 53.5486C38.5811 53.6757 38.5738 53.7973 38.5612 53.917H31.9612C32.0099 54.2893 32.1271 54.6488 32.3066 54.9763C32.4617 55.2547 32.6676 55.4998 32.913 55.6985C33.1498 55.8865 33.419 56.0271 33.7066 56.113C34.0032 56.2033 34.3112 56.2487 34.6207 56.2476C35.0809 56.2455 35.5371 56.16 35.9684 55.9951C36.4155 55.8286 36.8331 55.5884 37.2045 55.284L38.1744 56.7062C37.6692 57.1603 37.0773 57.5017 36.4362 57.7085C35.809 57.9023 35.157 57.9992 34.5019 57.9959C33.8708 58.0033 33.2441 57.887 32.6558 57.6533C32.1151 57.4342 31.6248 57.1023 31.2162 56.6786C30.8037 56.2445 30.4832 55.7277 30.2752 55.1606C30.0405 54.5295 29.9228 53.8591 29.9279 53.1839C29.9199 52.5169 30.0302 51.854 30.2536 51.2273C30.4552 50.6617 30.7661 50.1435 31.1676 49.7037C31.5626 49.2782 32.0409 48.943 32.5712 48.7199C33.1431 48.4799 33.7561 48.3591 34.3741 48.3644ZM34.3364 50.1403C34.0197 50.1346 33.7048 50.1896 33.4079 50.3025C33.1456 50.4058 32.9072 50.5638 32.7079 50.7668C32.5074 50.9737 32.3448 51.2158 32.2275 51.4815C32.0991 51.7715 32.0113 52.0784 31.9666 52.3935H36.6054C36.5405 51.772 36.2781 51.1894 35.8586 50.7354C35.6575 50.5363 35.419 50.3811 35.1577 50.2788C34.8965 50.1766 34.6177 50.1295 34.3382 50.1403H34.3364ZM44.697 48.3644C45.3397 48.3587 45.9771 48.484 46.572 48.7328C47.1395 48.9699 47.6421 49.3449 48.0366 49.8253L46.7897 51.1904C46.4993 50.9036 46.1659 50.6666 45.8019 50.4885C45.4383 50.3216 45.0433 50.2385 44.6448 50.2453C44.2858 50.242 43.9298 50.3148 43.5994 50.4591C43.2825 50.5979 42.997 50.8023 42.7609 51.0596C42.5185 51.3264 42.3296 51.6395 42.2049 51.9809C41.9376 52.75 41.9376 53.5901 42.2049 54.3592C42.3293 54.7006 42.5183 55.0137 42.7609 55.2804C42.9973 55.5372 43.2827 55.7416 43.5994 55.881C43.9298 56.0252 44.2858 56.0979 44.6448 56.0946C45.0604 56.0972 45.4712 56.004 45.8469 55.822C46.2088 55.6481 46.5422 55.4176 46.8347 55.1385L48.0384 56.5128C47.6368 56.9892 47.1322 57.3632 46.5648 57.6053C45.9731 57.8547 45.3386 57.9801 44.6988 57.9739C44.0378 57.9829 43.3815 57.8577 42.7681 57.6053C42.2131 57.3783 41.7101 57.0357 41.2911 56.5994C40.872 56.163 40.546 55.6424 40.3336 55.0704C39.8858 53.8386 39.8858 52.483 40.3336 51.2512C40.546 50.6792 40.872 50.1586 41.2911 49.7222C41.7101 49.2858 42.2131 48.9433 42.7681 48.7163C43.3827 48.4695 44.0389 48.3499 44.6988 48.3644H44.697ZM58.0321 53.8728C58.0465 54.5162 57.9238 55.1549 57.6723 55.7446C57.458 56.2369 57.1396 56.6741 56.7402 57.025C56.3521 57.3602 55.9015 57.6109 55.4158 57.7619C54.4189 58.0739 53.3538 58.0739 52.3569 57.7619C51.8697 57.6106 51.4174 57.3598 51.0272 57.025C50.6257 56.6761 50.3069 56.2382 50.0951 55.7446C49.8485 55.1537 49.7295 54.5152 49.746 53.8728V48.6039H51.7037V53.6923C51.6948 54.0735 51.7514 54.4533 51.871 54.8143C51.9672 55.0971 52.1254 55.3536 52.3335 55.5641C52.5307 55.7552 52.7684 55.8971 53.0281 55.9786C53.588 56.1501 54.1847 56.1501 54.7446 55.9786C55.0042 55.8971 55.242 55.7552 55.4392 55.5641C55.6474 55.3537 55.8057 55.0971 55.9016 54.8143C56.0215 54.4533 56.0781 54.0735 56.069 53.6923V48.6039H58.0267V53.8747L58.0321 53.8728ZM65.1431 48.3644C65.4131 48.3622 65.6826 48.3833 65.9492 48.427C66.1866 48.4676 66.4193 48.533 66.6438 48.6223L66.1849 50.6046C65.9572 50.4885 65.7151 50.4048 65.4652 50.3559C65.2137 50.3008 64.9575 50.2719 64.7005 50.2693C64.4068 50.2659 64.1153 50.3209 63.8421 50.4315C63.586 50.5361 63.3564 50.6994 63.171 50.9086C62.9756 51.1338 62.8264 51.397 62.732 51.6823C62.6218 52.0176 62.5682 52.3696 62.5736 52.7232V57.7546H60.6267V48.6039H62.5574V49.6356C62.8334 49.215 63.2176 48.8809 63.6677 48.6702C64.1327 48.4619 64.6357 48.3576 65.1431 48.3644ZM71.691 48.3644C72.2788 48.3576 72.8616 48.4762 73.4021 48.7126C73.911 48.9377 74.366 49.2734 74.7354 49.6964C75.1169 50.1408 75.4114 50.6562 75.6028 51.2144C75.8165 51.8419 75.9218 52.5028 75.914 53.1672C75.914 53.2943 75.914 53.4215 75.914 53.5486C75.914 53.6757 75.8979 53.7973 75.8853 53.917H69.2817C69.3302 54.2894 69.4474 54.6489 69.6271 54.9763C69.7823 55.2546 69.9881 55.4997 70.2335 55.6985C70.4702 55.8866 70.7394 56.0271 71.027 56.113C71.3237 56.2033 71.6316 56.2486 71.9411 56.2476C72.4014 56.2455 72.8576 56.1601 73.2888 55.9951C73.7359 55.8284 74.1534 55.5883 74.525 55.284L75.4949 56.7062C74.9897 57.1603 74.3977 57.5016 73.7567 57.7085C73.1289 57.9024 72.4763 57.9994 71.8206 57.9959C71.1894 58.0032 70.5628 57.8869 69.9743 57.6533C69.4337 57.4342 68.9434 57.1023 68.5349 56.6786C68.1222 56.2447 67.8018 55.7277 67.5939 55.1606C67.3596 54.5295 67.2424 53.859 67.2484 53.1839C67.2404 52.5169 67.3507 51.854 67.5741 51.2273C67.7755 50.6617 68.0863 50.1434 68.4881 49.7037C68.8831 49.2782 69.3614 48.943 69.8917 48.7199C70.4647 48.4795 71.0788 48.3587 71.6982 48.3644H71.691ZM71.6532 50.1403C71.3366 50.1346 71.0217 50.1896 70.7247 50.3025C70.4625 50.4059 70.2242 50.5641 70.0248 50.7668C69.8242 50.9737 69.6616 51.2158 69.5443 51.4815C69.416 51.7715 69.3282 52.0784 69.2835 52.3935H73.9186C73.8535 51.7721 73.5912 51.1896 73.1718 50.7354C72.9715 50.5374 72.7342 50.3827 72.4742 50.2805C72.2144 50.1782 71.9369 50.1306 71.6586 50.1403H71.6532ZM84.3261 44.1344C84.8907 44.1307 85.4539 44.1925 86.0048 44.3186C86.5288 44.4393 87.0363 44.6249 87.5164 44.8713C87.9719 45.1088 88.3953 45.4061 88.7758 45.7557C89.1491 46.0941 89.4701 46.4885 89.7277 46.9255L87.9661 48.1285C87.5746 47.5365 87.0477 47.0514 86.4314 46.7155C85.7802 46.3662 85.0539 46.1894 84.3189 46.2015C83.6919 46.1961 83.07 46.315 82.4871 46.5515C81.9376 46.7764 81.4391 47.1143 81.0225 47.5445C80.6031 47.9856 80.275 48.5088 80.0579 49.0828C79.5912 50.3574 79.5912 51.7619 80.0579 53.0364C80.2751 53.6104 80.6032 54.1336 81.0225 54.5747C81.4387 55.0054 81.9373 55.3435 82.4871 55.5677C83.074 55.8078 83.7012 55.928 84.3333 55.9215C85.0475 55.9376 85.7544 55.7705 86.3895 55.4356C87.0246 55.1007 87.5678 54.6084 87.9697 54.0036L89.6864 55.2933C89.4078 55.711 89.077 56.0895 88.7021 56.4189C88.3221 56.7549 87.9033 57.042 87.4551 57.2737C86.9868 57.5134 86.492 57.6946 85.9815 57.8135C84.5124 58.1476 82.9796 58.031 81.5749 57.4782C80.7666 57.1557 80.0321 56.6657 79.4176 56.0389C78.8029 55.4122 78.3214 54.6622 78.0031 53.836C77.332 52.054 77.332 50.0801 78.0031 48.298C78.3214 47.4718 78.8029 46.7218 79.4176 46.095C80.0321 45.4684 80.7666 44.9783 81.5749 44.6559C82.4527 44.3006 83.3894 44.1235 84.3333 44.1344H84.3261ZM95.8419 48.3717C96.4981 48.3653 97.1491 48.4905 97.7583 48.7402C98.326 48.9727 98.8439 49.3169 99.2823 49.7534C99.7141 50.1867 100.057 50.7041 100.29 51.2752C100.774 52.4999 100.774 53.8695 100.29 55.0943C100.057 55.6659 99.7142 56.1841 99.2823 56.6179C98.8436 57.0537 98.3259 57.3973 97.7583 57.6293C96.5255 58.1194 95.1583 58.1194 93.9256 57.6293C93.3585 57.3983 92.8418 57.0544 92.4051 56.6179C91.9758 56.183 91.6352 55.6651 91.4029 55.0943C90.9188 53.8695 90.9188 52.5 91.4029 51.2752C91.6353 50.705 91.9759 50.1878 92.4051 49.7534C92.8415 49.3161 93.3583 48.9716 93.9256 48.7402C94.5372 48.4871 95.1914 48.3594 95.8509 48.3644L95.8419 48.3717ZM95.8419 50.2527C95.4618 50.249 95.0846 50.3216 94.7318 50.4664C94.3997 50.6029 94.0986 50.8072 93.8465 51.067C93.5927 51.3312 93.3928 51.6443 93.258 51.9882C92.9721 52.7539 92.9721 53.6008 93.258 54.3665C93.3926 54.7106 93.5926 55.0236 93.8465 55.2878C94.0988 55.5472 94.4 55.7516 94.7318 55.8883C95.4449 56.174 96.2371 56.174 96.9504 55.8883C97.286 55.7506 97.5908 55.5441 97.8457 55.2815C98.1007 55.0188 98.3005 54.7056 98.433 54.3611C98.7188 53.5953 98.7188 52.7484 98.433 51.9827C98.2971 51.6381 98.0952 51.3248 97.8393 51.0614C97.5844 50.8024 97.2816 50.5982 96.9486 50.4609C96.5997 50.3176 96.2268 50.245 95.8509 50.2472L95.8419 50.2527ZM106.528 48.3644C107.067 48.3434 107.603 48.4547 108.091 48.6889C108.58 48.9232 109.006 49.2737 109.335 49.7111V44H111.284V57.749H109.335V56.6437C109.024 57.0513 108.629 57.3839 108.178 57.6182C107.665 57.8745 107.099 58.0007 106.528 57.9868C105.938 57.9927 105.352 57.8756 104.807 57.6424C104.262 57.4093 103.769 57.0652 103.358 56.6308C102.946 56.1928 102.622 55.6756 102.406 55.1091C101.946 53.8625 101.946 52.4867 102.406 51.2402C102.622 50.6731 102.946 50.1553 103.358 49.7166C103.769 49.2831 104.262 48.9396 104.807 48.7073C105.353 48.4748 105.938 48.3581 106.528 48.3644ZM106.762 50.2453C106.372 50.238 105.986 50.3172 105.629 50.4775C105.308 50.6253 105.02 50.8399 104.785 51.1076C104.547 51.3786 104.364 51.6947 104.245 52.0379C103.996 52.7743 103.996 53.5749 104.245 54.3113C104.364 54.6545 104.547 54.9706 104.785 55.2417C105.02 55.5093 105.308 55.7239 105.629 55.8718C105.983 56.0229 106.362 56.1006 106.746 56.1006C107.13 56.1006 107.509 56.0229 107.863 55.8718C108.184 55.7287 108.473 55.5192 108.711 55.2564C108.951 54.9892 109.138 54.6763 109.26 54.3353C109.522 53.5816 109.522 52.7584 109.26 52.0047C109.137 51.6639 108.951 51.351 108.711 51.0836C108.473 50.8207 108.184 50.6106 107.863 50.4664C107.515 50.3152 107.14 50.2405 106.762 50.2472V50.2453ZM117.776 48.3644C118.364 48.3575 118.947 48.4761 119.487 48.7126C119.996 48.9377 120.451 49.2734 120.821 49.6964C121.203 50.1406 121.497 50.6561 121.687 51.2144C121.902 51.8418 122.007 52.5027 122 53.1672C122 53.2943 122 53.4215 121.99 53.5486C121.982 53.6757 121.975 53.7973 121.964 53.917H115.36C115.408 54.2895 115.525 54.649 115.705 54.9763C115.86 55.2548 116.066 55.5 116.311 55.6985C116.548 55.8867 116.817 56.0274 117.105 56.113C117.402 56.2033 117.71 56.2486 118.019 56.2476C118.479 56.2455 118.935 56.16 119.367 55.9951C119.814 55.8283 120.231 55.5882 120.603 55.284L121.572 56.7062C121.066 57.1601 120.474 57.5013 119.833 57.7085C119.206 57.9024 118.554 57.9993 117.898 57.9959C117.267 58.0032 116.641 57.8869 116.052 57.6533C115.512 57.4343 115.021 57.1024 114.613 56.6786C114.2 56.2444 113.88 55.7276 113.672 55.1606C113.438 54.5293 113.322 53.8588 113.328 53.1839C113.32 52.5168 113.43 51.854 113.654 51.2273C113.855 50.6617 114.166 50.1435 114.568 49.7037C114.963 49.2782 115.441 48.943 115.971 48.7199C116.544 48.4798 117.157 48.3589 117.776 48.3644ZM117.738 50.1403C117.422 50.1346 117.107 50.1896 116.81 50.3025C116.548 50.406 116.309 50.5641 116.11 50.7668C115.909 50.9737 115.747 51.2158 115.629 51.4815C115.501 51.7714 115.413 52.0784 115.368 52.3935H120.004C119.939 51.7722 119.678 51.1897 119.259 50.7354C119.058 50.5365 118.819 50.3812 118.558 50.279C118.297 50.1767 118.018 50.1296 117.738 50.1403Z" fill="#4D4E4F"/>
  <path d="M33.5899 38.7569H31.4038V27.7511L27.4455 37.447H25.1443L21.186 27.8555V38.7569H19V25.3824H22.3573L26.2958 34.942L30.2325 25.3824H33.5899V38.7569ZM45.1049 38.7569H43.0807V37.6576C42.7583 38.0649 42.3485 38.3973 41.8807 38.6312C41.3476 38.8857 40.7601 39.0101 40.1679 38.9941C39.5546 38.9997 38.9467 38.8821 38.3811 38.6488C37.8157 38.4153 37.3044 38.0708 36.8789 37.6363C36.4515 37.1971 36.1164 36.6791 35.8929 36.1121C35.6482 35.4958 35.5261 34.8389 35.533 34.1772C35.5262 33.5156 35.6483 32.8587 35.8929 32.2422C36.1167 31.6754 36.4517 31.1575 36.8789 30.7181C37.3046 30.2837 37.8157 29.9392 38.3812 29.7058C38.9467 29.4724 39.5546 29.3548 40.1679 29.3602C40.7272 29.3396 41.2833 29.4512 41.7899 29.6856C42.2963 29.92 42.7384 30.2703 43.0789 30.7074V29.6028H45.1013V38.7552L45.1049 38.7569ZM40.4108 31.2473C40.0065 31.2405 39.6056 31.3203 39.2359 31.481C38.9024 31.6289 38.604 31.8436 38.3596 32.1113C38.1165 32.3836 37.9295 32.6999 37.8091 33.0424C37.5511 33.7788 37.5511 34.5791 37.8091 35.3155C37.9292 35.6581 38.1162 35.9745 38.3596 36.2467C38.6039 36.5145 38.9023 36.7293 39.2359 36.8769C39.6022 37.0295 39.9957 37.109 40.3936 37.1105C40.7915 37.112 41.1857 37.0356 41.5532 36.8858C41.8864 36.7421 42.1859 36.5324 42.4331 36.2697C42.6828 36.0007 42.8765 35.6861 43.0034 35.3438C43.274 34.5895 43.274 33.7667 43.0034 33.0124C42.8771 32.6682 42.6833 32.3519 42.4331 32.0812C42.1857 31.8188 41.8862 31.6092 41.5532 31.4651C41.1923 31.3141 40.8029 31.24 40.4108 31.2473ZM54.3907 31.9041C54.2216 31.8079 54.0474 31.7205 53.8689 31.6421C53.6434 31.5381 53.4115 31.4483 53.1744 31.373C52.9141 31.2993 52.6498 31.2403 52.3828 31.196C52.1002 31.145 51.8135 31.1195 51.5264 31.1199C51.0751 31.0941 50.6261 31.1987 50.2345 31.4208C50.0947 31.5013 49.9788 31.6163 49.8983 31.7546C49.8179 31.8928 49.7755 32.0493 49.7756 32.2087C49.771 32.3513 49.8133 32.4916 49.8962 32.6087C49.9819 32.7211 50.0927 32.8126 50.2201 32.8761C50.3734 32.952 50.5361 33.0078 50.7041 33.0424C50.8912 33.0837 51.0909 33.1203 51.3033 33.1522L52.2604 33.2956C53.2728 33.4419 54.0626 33.7335 54.63 34.1701C54.9102 34.3857 55.1337 34.6643 55.2818 34.9825C55.4298 35.3008 55.4982 35.6493 55.481 35.9988C55.4853 36.418 55.3872 36.8321 55.1949 37.2061C54.9986 37.5794 54.7172 37.9029 54.3727 38.1516C53.9729 38.4353 53.5234 38.6441 53.0467 38.7675C52.4658 38.92 51.8665 38.9933 51.2654 38.9853C51.0256 38.9853 50.7485 38.9712 50.4342 38.9428C50.095 38.9082 49.7588 38.849 49.4284 38.7658C49.0598 38.6757 48.6988 38.5572 48.3489 38.4118C47.9738 38.2543 47.6197 38.0522 47.2946 37.8098L48.2338 36.3104C48.4054 36.4403 48.5857 36.5585 48.7735 36.6645C48.9862 36.7832 49.2097 36.8822 49.441 36.9601C49.7088 37.0512 49.9838 37.1198 50.2633 37.1654C50.6006 37.2192 50.9418 37.2446 51.2834 37.2415C51.9803 37.2415 52.5057 37.1412 52.8596 36.9406C53.0186 36.8685 53.1537 36.7537 53.2491 36.6092C53.3446 36.4648 53.3968 36.2968 53.3993 36.1245C53.3974 35.9933 53.3608 35.8648 53.2929 35.7518C53.2251 35.6387 53.1284 35.5451 53.0125 35.4801C52.6373 35.2747 52.2222 35.1498 51.7944 35.1137L50.8265 34.9898C49.7949 34.8494 49.0152 34.5543 48.4874 34.1047C48.2264 33.8841 48.0189 33.6085 47.8807 33.2984C47.7424 32.9882 47.6767 32.6515 47.6886 32.3131C47.6818 31.8907 47.7728 31.4724 47.9549 31.0899C48.1317 30.727 48.3939 30.4108 48.7195 30.1674C49.0813 29.9017 49.4901 29.7041 49.9251 29.585C50.4442 29.4417 50.9817 29.3725 51.5209 29.3797C52.2165 29.3755 52.9097 29.4606 53.5828 29.6328C54.1813 29.7805 54.7526 30.0194 55.2759 30.3409L54.3907 31.9041ZM63.9878 31.4262H60.4379V35.404C60.4318 35.6694 60.4707 35.9338 60.553 36.1865C60.6188 36.3833 60.726 36.5643 60.8679 36.7176C60.9964 36.8524 61.1554 36.9555 61.3322 37.0185C61.5169 37.0834 61.7117 37.1158 61.9079 37.1141C62.237 37.1133 62.5632 37.0533 62.8704 36.9371C63.1845 36.8207 63.4859 36.6736 63.77 36.498L64.5725 38.0914C64.1784 38.3505 63.7559 38.5655 63.3131 38.7321C62.8073 38.917 62.271 39.0077 61.7315 38.9995C60.6808 38.9995 59.8633 38.7115 59.2792 38.1355C58.6951 37.5597 58.4035 36.6627 58.4047 35.4447V31.4191H56.5569V29.6028H58.4047V26.8341H60.4361V29.6028H63.9878V31.4191V31.4262ZM70.2077 29.3726C70.8183 29.3673 71.4232 29.488 71.9835 29.7267C72.5121 29.9519 72.9842 30.2877 73.3671 30.711C73.7632 31.1559 74.0685 31.6716 74.2668 32.2298C74.4883 32.8556 74.5979 33.5145 74.5906 34.1772C74.5906 34.3047 74.5906 34.4321 74.5799 34.5596C74.569 34.687 74.5636 34.8074 74.551 34.9137H67.7032C67.7537 35.287 67.8759 35.6474 68.063 35.9758C68.2238 36.2532 68.4369 36.4978 68.691 36.6963C68.9361 36.8844 69.215 37.0255 69.5132 37.1124C69.8209 37.2021 70.1404 37.2468 70.4614 37.2452C70.939 37.2428 71.4123 37.157 71.8594 36.9919C72.3229 36.8266 72.7558 36.5873 73.1404 36.2838L74.1462 37.7001C73.6234 38.1535 73.0108 38.4953 72.3469 38.7038C71.6958 38.8972 71.0191 38.9939 70.3391 38.9906C69.6838 38.9982 69.0333 38.8816 68.4229 38.6472C67.859 38.4293 67.3479 38.0977 66.9223 37.6735C66.4949 37.2379 66.1636 36.7203 65.9489 36.1529C65.7062 35.523 65.5843 34.8543 65.5891 34.1808C65.5812 33.5134 65.6957 32.8501 65.9273 32.2228C66.1366 31.6579 66.459 31.1402 66.8755 30.7003C67.2846 30.2748 67.7807 29.9392 68.3311 29.7161C68.9264 29.4766 69.5646 29.3574 70.2077 29.3656V29.3726ZM70.1699 31.1429C69.8415 31.1374 69.515 31.1927 69.2074 31.3058C68.9372 31.4095 68.6921 31.5674 68.4876 31.7696C68.2802 31.9747 68.1114 32.2145 67.9893 32.4777C67.8562 32.7678 67.7648 33.0746 67.7176 33.3894H72.5269C72.4607 32.767 72.189 32.1831 71.7533 31.7271C71.5428 31.5299 71.2942 31.3765 71.0221 31.2762C70.7501 31.1758 70.4602 31.1304 70.1699 31.1429ZM81.5949 29.3726C81.8751 29.3703 82.155 29.3909 82.4316 29.4346C82.6776 29.4754 82.9188 29.5406 83.1513 29.6293L82.6673 31.6067C82.4317 31.491 82.1811 31.4076 81.9224 31.3589C81.6615 31.3045 81.3957 31.2761 81.1289 31.2739C80.8242 31.2706 80.5216 31.3259 80.2384 31.4368C79.9722 31.5417 79.734 31.7051 79.5421 31.9148C79.3389 32.1377 79.1829 32.3983 79.0833 32.6813C78.9692 33.0166 78.9138 33.3686 78.9196 33.7223V38.7569H76.9044V29.6028H78.9033V30.6348C79.1896 30.215 79.588 29.8813 80.0549 29.67C80.5423 29.4599 81.0701 29.356 81.6021 29.3656L81.5949 29.3726ZM88.513 29.3726C89.1798 29.367 89.8409 29.4922 90.4579 29.7409C91.047 29.9785 91.5683 30.354 91.9766 30.8349L90.6793 32.2015C90.3791 31.9126 90.0334 31.6736 89.6555 31.4934C89.2785 31.3266 88.8688 31.2432 88.4554 31.2491C88.0843 31.2473 87.7168 31.3209 87.3759 31.4651C87.0463 31.604 86.7497 31.8091 86.505 32.067C86.2504 32.3342 86.0517 32.6482 85.9203 32.9911C85.6429 33.7607 85.6429 34.6008 85.9203 35.3704C86.0484 35.7129 86.2435 36.0273 86.4942 36.2962C86.739 36.5541 87.0355 36.7591 87.3651 36.8982C87.7059 37.0428 88.0734 37.1163 88.4447 37.1141C88.8783 37.1177 89.3069 37.0244 89.6987 36.8415C90.0746 36.6675 90.4206 36.437 90.7242 36.1582L91.9711 37.5337C91.5577 38.0113 91.0364 38.3871 90.4489 38.6312C89.8353 38.8805 89.1769 39.0057 88.513 38.9995C87.8279 39.0084 87.1477 38.8833 86.5123 38.6312C85.9367 38.4031 85.4156 38.0598 84.9821 37.6231C84.5485 37.1864 84.2118 36.6659 83.9933 36.0944C83.7564 35.4849 83.638 34.8369 83.6443 34.1843C83.638 33.5317 83.7564 32.8837 83.9933 32.2741C84.2118 31.7027 84.5485 31.1822 84.9821 30.7454C85.4156 30.3088 85.9367 29.9654 86.5123 29.7373C87.1475 29.4841 87.8277 29.3577 88.513 29.3656V29.3726ZM102.756 38.7552H100.733V37.6576C100.411 38.0646 100.002 38.3971 99.5351 38.6312C99.0019 38.8856 98.4145 39.01 97.8222 38.9941C97.2089 38.9998 96.6009 38.8823 96.0355 38.6489C95.4699 38.4154 94.9588 38.0709 94.5332 37.6363C94.1057 37.1971 93.7706 36.6791 93.5472 36.1121C93.3029 35.4956 93.1808 34.8389 93.1874 34.1772C93.1808 33.5156 93.3029 32.8588 93.5472 32.2422C93.7709 31.6753 94.1059 31.1574 94.5332 30.7181C94.9588 30.2837 95.47 29.9391 96.0355 29.7057C96.601 29.4722 97.2089 29.3547 97.8222 29.3602C98.3818 29.3392 98.9385 29.4506 99.4453 29.685C99.9521 29.9194 100.394 30.27 100.735 30.7074V29.6028H102.757V38.7552H102.756ZM98.0633 31.2473C97.6614 31.2416 97.2631 31.3213 96.8956 31.481C96.5629 31.6291 96.265 31.8438 96.0211 32.1113C95.773 32.3831 95.5811 32.7 95.4562 33.0442C95.1983 33.7806 95.1983 34.5808 95.4562 35.3172C95.5774 35.6599 95.765 35.9761 96.0086 36.2484C96.2557 36.5181 96.558 36.7335 96.8956 36.8804C97.2619 37.033 97.6556 37.1124 98.0534 37.1139C98.4512 37.1154 98.8454 37.0391 99.213 36.8893C99.5462 36.7455 99.8456 36.5358 100.093 36.2732C100.343 36.0043 100.536 35.6897 100.663 35.3474C100.934 34.5931 100.934 33.7702 100.663 33.0159C100.535 32.6699 100.339 32.3522 100.086 32.0812C99.8382 31.8188 99.5388 31.6092 99.2058 31.4651C98.8447 31.3143 98.4554 31.2401 98.0633 31.2473ZM110.428 29.3656C110.708 29.3631 110.988 29.3838 111.264 29.4275C111.51 29.4682 111.751 29.5335 111.984 29.6222L111.5 31.5997C111.264 31.4837 111.014 31.4004 110.755 31.3518C110.494 31.2976 110.228 31.2691 109.962 31.2668C109.657 31.2637 109.355 31.3191 109.073 31.4297C108.806 31.5342 108.567 31.6978 108.375 31.9077C108.172 32.133 108.017 32.3961 107.919 32.6813C107.805 33.0165 107.749 33.3685 107.754 33.7223V38.7569H105.735V29.6028H107.738V30.6348C108.024 30.2149 108.422 29.881 108.889 29.67C109.374 29.4612 109.898 29.3574 110.428 29.3656ZM117.065 29.3656C117.624 29.3446 118.181 29.4561 118.688 29.6905C119.195 29.9249 119.637 30.2755 119.978 30.7127V25H122V38.7569H119.976V37.6576C119.653 38.0648 119.244 38.3973 118.776 38.6312C118.243 38.8856 117.655 39.0101 117.063 38.9941C116.45 38.9998 115.842 38.8823 115.276 38.6489C114.711 38.4154 114.2 38.0709 113.774 37.6363C113.346 37.1971 113.011 36.6791 112.786 36.1121C112.542 35.4956 112.42 34.8389 112.426 34.1772C112.42 33.5156 112.542 32.8588 112.786 32.2422C113.011 31.6754 113.347 31.1575 113.774 30.7181C114.2 30.2842 114.712 29.9406 115.278 29.7081C115.844 29.4755 116.452 29.3589 117.065 29.3656ZM117.306 31.2473C116.902 31.2405 116.501 31.3203 116.131 31.481C115.795 31.6286 115.494 31.8439 115.248 32.113C115.009 32.3865 114.825 32.7026 114.708 33.0442C114.45 33.7806 114.45 34.5808 114.708 35.3172C114.825 35.659 115.009 35.9751 115.248 36.2484C115.492 36.5162 115.79 36.7309 116.124 36.8787C116.49 37.0312 116.884 37.1105 117.282 37.112C117.68 37.1135 118.074 37.0373 118.441 36.8875C118.774 36.7438 119.074 36.534 119.321 36.2714C119.571 36.0026 119.765 35.6881 119.892 35.3456C120.164 34.5915 120.164 33.7682 119.892 33.0142C119.768 32.6699 119.576 32.3528 119.328 32.0812C119.081 31.8189 118.781 31.6092 118.448 31.4651C118.087 31.3143 117.698 31.2402 117.306 31.2473Z" fill="#4D4E4F"/>
</svg>
