<svg width="98" height="39" viewBox="0 0 98 39" fill="none" xmlns="http://www.w3.org/2000/svg"><path fill-rule="evenodd" clip-rule="evenodd" d="M68.5849 20.4034C68.259 20.7301 68.0961 21.1865 68.0961 21.7726L68.1066 21.7751C68.1066 22.1954 68.1885 22.5451 68.3523 22.8242C68.5176 23.1047 68.7313 23.3089 68.9933 23.437C69.2586 23.565 69.5926 23.629 69.9954 23.629C70.3917 23.629 70.7224 23.5547 70.9877 23.4059C71.2546 23.2549 71.4576 23.0455 71.5968 22.7779C71.7386 22.509 71.8095 22.1645 71.8095 21.7446C71.8095 21.1657 71.6479 20.7161 71.3247 20.396C71.0016 20.0742 70.5419 19.9133 69.9456 19.9133C69.3639 19.9133 68.9104 20.0766 68.5849 20.4034ZM67.702 22.3928L66.7319 22.0987L66.7383 22.1058C66.6895 22.3324 66.6102 22.5048 66.5005 22.623C66.3933 22.7412 66.2336 22.8003 66.0216 22.8003C65.8031 22.8003 65.6332 22.7265 65.5117 22.5787C65.3905 22.4309 65.3299 22.1576 65.3299 21.7586C65.3299 21.4368 65.3804 21.2004 65.4815 21.0493C65.6154 20.8474 65.8076 20.7464 66.0582 20.7464C66.1692 20.7464 66.2695 20.7694 66.359 20.8154C66.4483 20.8597 66.5236 20.9246 66.585 21.0099C66.6233 21.0592 66.659 21.1388 66.6921 21.2488L67.6696 21.0321C67.5442 20.6545 67.3518 20.3737 67.0924 20.1898C66.8345 20.006 66.48 19.914 66.0289 19.914C65.4532 19.914 65.007 20.0741 64.6903 20.3943C64.3759 20.7128 64.2188 21.1692 64.2188 21.7635C64.2188 22.2101 64.3082 22.5762 64.487 22.8619C64.6671 23.1476 64.8798 23.3479 65.1251 23.4628C65.3726 23.5745 65.6913 23.6303 66.081 23.6303C66.4016 23.6303 66.6654 23.5843 66.8724 23.4924C67.0816 23.3988 67.2559 23.26 67.395 23.0762C67.5342 22.8931 67.6366 22.6653 67.702 22.3928ZM69.2067 21.7767C69.2067 22.1392 69.2735 22.3998 69.4071 22.5584C69.5414 22.7168 69.7239 22.796 69.9548 22.796C70.1922 22.796 70.3764 22.7179 70.5074 22.5616C70.6368 22.4053 70.7015 22.1267 70.7015 21.726C70.7015 21.3878 70.6327 21.1412 70.4952 20.9864C70.3593 20.8288 70.175 20.75 69.9425 20.75C69.7182 20.75 69.5389 20.8288 69.4046 20.9864C69.2687 21.1424 69.2008 21.4043 69.2008 21.772L69.2067 21.7767ZM73.856 19.9734H72.4L72.4012 19.9737V23.5651H73.31V20.8265L74.0075 23.5651H74.8254L75.5254 20.8265V23.5651H76.4293V19.9734H74.9777L74.4184 22.1589L73.856 19.9734ZM77.1257 19.9719H77.1259V23.5608H78.2378V22.2275H78.844C79.29 22.2275 79.6214 22.1257 79.8382 21.9221C80.0567 21.7186 80.1659 21.4356 80.1659 21.0732C80.1659 20.7211 80.0656 20.4495 79.865 20.2586C79.6664 20.0675 79.3667 19.9719 78.9661 19.9719H77.1259V19.968L77.1257 19.9719ZM78.5073 21.5076H78.2361L78.2352 21.5066V20.7062H78.5515C78.7583 20.7062 78.8991 20.7457 78.974 20.8245C79.049 20.9028 79.0864 20.9983 79.0864 21.1111C79.0864 21.227 79.0432 21.3225 78.9568 21.3975C78.8705 21.4709 78.7206 21.5076 78.5073 21.5076ZM80.7473 19.9744H81.8526V22.6819H83.5793V23.566H80.7449V19.9746L80.7473 19.9744ZM85.2396 19.9744H84.1319L84.1294 19.9746V23.566H85.2396V19.9744ZM88.2363 22.9711H86.9739L86.7995 23.5641H85.6672L87.0131 19.9734H88.2191L89.5651 23.5666H88.4082L88.2314 22.9755L88.2363 22.9711ZM87.6048 20.9031L88.0027 22.1941H87.9978H87.2094L87.6048 20.9031ZM89.9284 19.9744H90.9624L92.3109 21.9613V19.9744H93.3547V23.566H92.3109L90.9698 21.5938V23.5665H89.9284V19.9744ZM97.2079 19.9734H93.843V19.9739V20.861H94.9728V23.5651H96.0781V20.8605H97.2079V19.9734Z" fill="#4D4E4F"/><path fill-rule="evenodd" clip-rule="evenodd" d="M52.3106 14.8435L46.0239 0.800003L0 3.42034L12.7503 38.3049L37.2945 30.5478C36.6042 29.5503 36.1069 28.4694 35.9243 27.4611C35.912 27.4612 35.8996 27.4612 35.8872 27.4612C35.8543 27.4612 35.7692 27.4635 35.6471 27.4667C35.1207 27.4806 33.9065 27.5128 33.2247 27.4612C24.6159 26.916 24.6159 20.7589 24.6159 20.5804V19.1187C24.6159 18.8434 24.9229 12.8215 33.2247 12.1541C33.7749 12.0763 35.7643 12.0864 35.8872 12.1541C38.1714 12.2903 38.9205 12.7797 38.9205 12.7797C38.9622 12.8023 38.9966 12.86 38.9966 12.9082V16.6939C38.9966 16.741 38.9622 16.7607 38.9229 16.7368L38.9131 16.738C38.9131 16.738 37.5794 15.913 35.9166 15.6889H34.5093C30.744 16.009 30.4861 19.0333 30.4861 19.0333C30.4812 19.0801 30.4763 19.1564 30.4763 19.2032V20.2794C30.4763 20.3262 30.4812 20.4025 30.4861 20.4493C30.4861 20.4493 30.6703 23.2716 34.5117 23.9193C34.7893 23.9661 35.1528 24.0055 35.9215 23.9193C38.6307 23.6558 39.2472 23.1583 39.2472 23.1583C39.2889 23.1335 39.3208 23.1507 39.3208 23.199V23.8258C40.1214 23.9602 40.953 24.3377 41.744 24.8754V12.3789V12.3784H47.4521V21.6915C49.4637 18.7871 51.5985 15.8289 52.3114 14.8442L52.3106 14.8435ZM53.4031 25.46L56.6091 24.4468L55.5711 22.1281C54.7989 23.0812 54.0385 24.3175 53.4023 25.4577L53.4031 25.46ZM48.0819 7.64811C48.0819 9.47004 46.52 10.9469 44.5936 10.9469L44.5929 10.9484C42.6656 10.9484 41.1042 9.47176 41.1042 7.64934C41.1042 5.82717 42.6656 4.35027 44.5927 4.35027C46.5183 4.35027 48.0819 5.82618 48.0819 7.64811ZM8.86912 27.3487C8.82147 27.3487 8.7839 27.3103 8.7839 27.2625L8.78414 27.2632V12.4573C8.78414 12.4113 8.82344 12.3706 8.87011 12.3706C8.87011 12.3706 16.0376 12.3731 16.0745 12.3706C17.9077 12.2844 23.4765 12.8011 23.4765 17.5153C23.4765 23.4896 14.6008 22.8461 14.6008 22.8461C14.5529 22.8444 14.5148 22.8808 14.5148 22.9266V27.2642C14.5148 27.3103 14.4765 27.3487 14.4293 27.3487H8.86912ZM14.4167 19.5342V15.6268H15.7769C15.7769 15.6268 17.7566 15.7165 17.9113 17.0663C17.9481 17.1722 17.9383 17.8322 17.9113 17.8691C17.6583 19.4571 15.939 19.5349 15.939 19.5349L14.4211 19.5325L14.4167 19.5342Z" fill="#4D4E4F"/><path d="M44.7498 34.5374C45.2141 34.5374 45.569 34.5374 46.1555 34.2763C48.1825 33.208 55.0042 16.5033 62.1995 11.3651C62.2412 11.3321 62.3009 11.2843 62.3353 11.2353C62.3815 11.1676 62.3832 11.0984 62.3832 11.0984C62.3832 11.0984 62.3832 10.7561 61.3163 10.7561C54.9107 10.5812 48.2496 24.0449 44.7496 29.3718C44.7054 29.4309 44.4647 29.3718 44.4647 29.3718C44.4647 29.3718 42.1191 26.5963 40.0805 25.5324C40.0387 25.5103 39.8054 25.4388 39.5647 25.4561C39.405 25.4561 38.457 25.6457 38.0149 26.1161C37.4942 26.6677 37.504 26.9781 37.5089 27.6504C37.5114 27.7046 37.5457 27.9287 37.6096 28.0419C38.1082 28.9162 40.385 32.0537 42.2493 33.785C42.5391 33.9919 42.9787 34.5411 44.7521 34.5411L44.7498 34.5374Z" fill="#4D4E4F"/><path fill-rule="evenodd" clip-rule="evenodd" d="M75.7559 14.0949L79.1674 13.8806C79.2411 14.4372 79.391 14.8608 79.6169 15.1514C79.9853 15.6226 80.5134 15.8582 81.2011 15.8582C81.7136 15.8582 82.1066 15.7392 82.3801 15.5011C82.6584 15.2581 82.7976 14.9773 82.7976 14.6588C82.7976 14.3584 82.665 14.0891 82.3997 13.8511C82.1345 13.613 81.5221 13.3889 80.5625 13.1787C78.989 12.8241 77.8665 12.3529 77.1952 11.7651C76.5189 11.179 76.1808 10.4303 76.1808 9.51912C76.1808 8.9215 76.3527 8.35836 76.6966 7.82969C77.0437 7.2961 77.5636 6.87826 78.2562 6.57616C78.9538 6.26914 79.9067 6.11563 81.1152 6.11563C82.597 6.11563 83.726 6.39392 84.5022 6.9505C85.2816 7.50215 85.7458 8.38134 85.8948 9.58808L82.5127 9.78756C82.4227 9.26382 82.2319 8.88292 81.9404 8.64485C81.6539 8.40679 81.2576 8.28776 80.7517 8.28776C80.3341 8.28776 80.0197 8.37806 79.8085 8.55866C79.5956 8.73433 79.4892 8.94859 79.4892 9.20143C79.4892 9.38695 79.576 9.5536 79.7496 9.70136C79.9182 9.85569 80.3194 9.99935 80.9531 10.1323C82.5217 10.4722 83.6437 10.817 84.319 11.1667C85.0001 11.5115 85.4938 11.9408 85.8 12.4547C86.1128 12.9686 86.2691 13.5432 86.2691 14.1786C86.2691 14.9256 86.0628 15.6144 85.6502 16.2448C85.2376 16.8753 84.662 17.3545 83.9235 17.6823C83.1867 18.0025 82.2562 18.1626 81.1321 18.1626C79.1574 18.1626 77.7896 17.7817 77.0286 17.0199C76.2672 16.258 75.8366 15.2894 75.7367 14.1138L75.7559 14.0949ZM64.094 6.30551H64.0938L64.094 6.30157V6.30551ZM64.094 6.30551H69.4236C70.4748 6.30551 71.3223 6.44835 71.9662 6.73403C72.6157 7.02003 73.1517 7.43049 73.574 7.96539C73.9964 8.49898 74.3026 9.12065 74.4926 9.83041C74.6825 10.5397 74.7775 11.2908 74.7775 12.0838C74.7775 13.3267 74.635 14.2929 74.3501 14.9824C74.0704 15.6654 73.6797 16.2401 73.178 16.7063C72.6765 17.1661 72.1379 17.4723 71.5624 17.6249C70.7756 17.8351 70.0627 17.9402 69.4238 17.9402H64.094V6.30551ZM67.6817 8.9479V8.94298L67.6758 8.9479H67.6817ZM67.6817 8.9479V15.3042H68.559C69.3089 15.3042 69.8423 15.2221 70.1589 15.0579C70.4756 14.8888 70.7234 14.5982 70.9022 14.1861C71.081 13.7675 71.1704 13.0927 71.1704 12.1618C71.1704 10.9288 70.9692 10.0849 70.5669 9.63008C70.1657 9.17529 69.5003 8.9479 68.5705 8.9479H67.6817ZM90.6061 13.8806L87.1945 14.0949L87.1773 14.1121C87.2789 15.2877 87.7095 16.2563 88.4693 17.0181C89.2307 17.7816 90.5987 18.1633 92.5735 18.1633C93.6967 18.1633 94.6268 18.0024 95.3636 17.6806C96.1038 17.3522 96.6801 16.8728 97.0928 16.2424C97.5038 15.6119 97.7093 14.9232 97.7093 14.1761C97.7093 13.5408 97.5537 12.9661 97.2426 12.4522C96.9348 11.9383 96.4411 11.509 95.7615 11.1642C95.0853 10.8145 93.9628 10.4706 92.3942 10.1323C91.7605 9.99935 91.3593 9.85569 91.1907 9.70136C91.0171 9.5536 90.9303 9.38695 90.9303 9.20143C90.9303 8.94695 91.0368 8.73187 91.2496 8.55619C91.4608 8.37559 91.7752 8.28529 92.1928 8.28529C92.7004 8.28529 93.0966 8.40433 93.3815 8.64239C93.6714 8.88045 93.8621 9.26136 93.9538 9.7851L97.3335 9.58808C97.1861 8.38134 96.7219 7.50215 95.9408 6.9505C95.1647 6.39392 94.0357 6.11563 92.5538 6.11563C91.3438 6.11563 90.3908 6.26914 89.6949 6.57616C89.0039 6.87826 88.484 7.2961 88.1352 7.82969C87.793 8.35836 87.6219 8.9215 87.6219 9.51912C87.6219 10.4303 87.96 11.179 88.6363 11.7651C89.3076 12.3529 90.4301 12.8241 92.0036 13.1787C92.9632 13.3889 93.5756 13.613 93.8408 13.8511C94.1061 14.0891 94.2387 14.3584 94.2387 14.6588C94.2387 14.9773 94.0987 15.2581 93.8187 15.5011C93.5453 15.7392 93.1523 15.8582 92.6398 15.8582C91.9521 15.8582 91.424 15.6226 91.0556 15.1514C90.8296 14.8608 90.6798 14.4372 90.6061 13.8806Z" fill="#4D4E4F"/></svg>
