<svg width="115" height="72" viewBox="0 0 115 72" fill="none" xmlns="http://www.w3.org/2000/svg"><path d="M77.8409 31.286V43.2715H74.9378V31.2722H71.7227V28.7266H81.0807V31.286H77.8409Z" fill="#4D4E4F"/><path d="M26.4456 28.7188V43.2799H23.5396V31.2754H17.7325V43.2799H14.8164V28.7188H26.4456Z" fill="#4D4E4F"/><path d="M33.559 28.7188C35.1932 28.7188 36.3262 28.8934 37.3937 29.8321C38.5702 30.8799 38.8754 32.2993 38.8754 33.3471C38.8754 33.9141 38.7882 35.4859 37.677 36.5997C36.871 37.4072 35.6723 37.8881 33.9949 37.8881H32.2348V43.2799H29.332V28.7188H33.559ZM32.2348 35.4427H33.3193C33.8638 35.4427 34.5612 35.4427 35.1714 34.9841C35.6945 34.5692 35.9557 33.9141 35.9557 33.2812C35.9557 32.4736 35.5638 31.9276 35.1496 31.6223C34.5616 31.207 33.8206 31.1637 33.1453 31.1637H32.2348V35.4427Z" fill="#4D4E4F"/><path d="M68.8164 42.7552C67.9454 43.2134 66.7907 43.6069 65.2214 43.6069C62.6718 43.6069 61.1252 42.7338 59.9055 41.5764C58.2273 39.9605 57.5742 38.1492 57.5742 36.0095C57.5742 33.3684 58.6636 31.4689 59.9055 30.3119C61.3649 28.9362 63.1735 28.3906 65.2432 28.3906C66.2672 28.3906 67.4877 28.5653 68.8164 29.2856V32.604C67.4877 31.0758 65.8313 30.9666 65.309 30.9666C62.3889 30.9666 60.4935 33.368 60.4935 36.0532C60.4935 39.2843 62.9778 41.0309 65.418 41.0309C66.7693 41.0309 67.9672 40.4417 68.8168 39.4372V42.7552H68.8164Z" fill="#4D4E4F"/><path d="M86.891 28.7188V43.2799H83.9883V28.7188H86.891Z" fill="#4D4E4F"/><path d="M94.02 28.7188C95.6542 28.7188 96.7871 28.8934 97.8546 29.8321C99.0312 30.8799 99.3363 32.2993 99.3363 33.3471C99.3363 33.9141 99.2491 35.4859 98.1376 36.5997C97.3316 37.4072 96.1333 37.8881 94.4555 37.8881H92.6957V43.2799H89.793V28.7188H94.02ZM92.6957 35.4427H93.7802C94.3251 35.4427 95.0221 35.4427 95.6324 34.9841C96.1551 34.5692 96.4166 33.9141 96.4166 33.2812C96.4166 32.4736 96.0247 31.9276 95.6106 31.6223C95.0225 31.207 94.2819 31.1637 93.6059 31.1637H92.6957V35.4427Z" fill="#4D4E4F"/><path d="M46.7654 36.0169C46.7654 36.0108 46.7646 36.0048 46.7646 35.9987C46.7646 35.1858 47.4225 34.5259 48.2341 34.5259C49.0454 34.5259 49.7033 35.1854 49.7033 35.9987C49.7033 36.8083 49.0502 37.465 48.2434 37.4703V39.4579C50.146 39.4526 51.687 37.9062 51.687 35.9987C51.687 34.0879 50.1412 32.5391 48.2341 32.5391C46.3271 32.5391 44.7812 34.0879 44.7812 35.9987C44.7812 36.0048 44.7821 36.0108 44.7821 36.0169H46.7654Z" fill="#CED2DA"/><path d="M53.3238 33.4991C53.6939 34.2541 53.9018 35.1025 53.9018 36.0003C53.9018 39.1404 51.3606 41.6861 48.2266 41.6861C45.0922 41.6861 42.5515 39.1404 42.5515 36.0003C42.5515 32.973 44.913 30.4989 47.8908 30.325L49.3063 28.1537C48.9531 28.1052 48.5931 28.0781 48.227 28.0781C43.86 28.0781 40.3203 31.6251 40.3203 36.0007C40.3203 40.3755 43.86 43.9224 48.227 43.9224C52.5941 43.9224 56.1337 40.3755 56.1337 36.0007C56.1337 34.2945 55.5937 32.7158 54.6779 31.4225L53.3238 33.4991Z" fill="#4D4E4F"/></svg>
