<svg width="64" height="64" viewBox="0 0 64 64" fill="none" xmlns="http://www.w3.org/2000/svg"><g clip-path="url(#clip0_18555_247248)"><path d="M64.0007 63.9995H0V-0.00106802H64.0007V63.9995Z" fill="white"/><path d="M64.0006 64H0V31.9996H64.0006V64Z" fill="#4D4E4F"/><path d="M30.8055 8.94708L27.7317 23.3186H24.0135L27.0877 8.94708H30.8055ZM46.4476 18.2271L48.4051 12.8301L49.5309 18.2271H46.4476ZM50.5979 23.3186H54.0358L51.0323 8.94708H47.8607C47.1457 8.94708 46.5436 9.36146 46.2769 10.0005L40.6979 23.3186H44.6025L45.3777 21.1724H50.147L50.5979 23.3186ZM40.8912 18.6266C40.9077 14.8341 35.6487 14.6237 35.6833 12.929C35.6949 12.4141 36.1859 11.8655 37.26 11.7253C37.7927 11.6564 39.2615 11.6011 40.9271 12.3685L41.5781 9.31976C40.6837 8.99621 39.5326 8.68461 38.1007 8.68461C34.4253 8.68461 31.8392 10.6366 31.8185 13.4348C31.795 15.5042 33.6657 16.6575 35.072 17.3466C36.5221 18.0509 37.0079 18.5028 37.0008 19.1318C36.9907 20.0963 35.8442 20.523 34.7773 20.5392C32.9067 20.5682 31.8228 20.0339 30.9588 19.6309L30.2841 22.7814C31.1541 23.1796 32.7574 23.5265 34.4172 23.5439C38.3247 23.5439 40.8799 21.6145 40.8912 18.6266V18.6266ZM25.493 8.94708L19.4686 23.3186H15.539L12.5741 11.8491C12.3945 11.1438 12.2377 10.8845 11.6913 10.5865C10.7972 10.1007 9.32118 9.64687 8.02344 9.36404L8.11119 8.94708H14.4379C15.2438 8.94708 15.9687 9.48332 16.1532 10.4116L17.7191 18.7284L21.5868 8.94708H25.493" fill="#4D4E4F"/><path d="M13.3724 46.1317C13.3724 45.674 13.4836 45.2865 13.7061 44.9684C13.9286 44.6504 14.2321 44.4105 14.6168 44.2482C15.0013 44.0864 15.4352 44.0052 15.9184 44.0052C16.4585 44.0052 16.8893 44.0576 17.2104 44.1626C17.5312 44.2677 17.7778 44.374 17.9494 44.4819L18.0353 45.6841H18.0066C17.8475 45.5505 17.6522 45.4326 17.4203 45.3311C17.1881 45.2289 16.9418 45.1479 16.6812 45.0876C16.4205 45.0269 16.1629 44.9972 15.9089 44.9972C15.5084 44.9972 15.184 45.0621 14.9363 45.1924C14.6883 45.323 14.5643 45.5505 14.5643 45.8744C14.5643 46.1223 14.623 46.3165 14.7407 46.4559C14.8584 46.5962 15.0348 46.7104 15.2699 46.7995C15.5051 46.8884 15.7975 46.9806 16.1471 47.0759C16.4777 47.165 16.7876 47.2556 17.077 47.3477C17.3661 47.4399 17.6187 47.5607 17.835 47.7101C18.0511 47.8593 18.2214 48.0566 18.3453 48.3013C18.4692 48.546 18.5311 48.8591 18.5311 49.2405C18.5311 49.9782 18.2912 50.5422 17.8112 50.933C17.331 51.3241 16.6588 51.5193 15.7944 51.5193C15.3622 51.5193 14.9267 51.4605 14.4881 51.3428C14.0494 51.2255 13.6934 51.0681 13.42 50.871L13.3438 49.6599H13.3724C13.6902 49.9272 14.0716 50.1369 14.5166 50.2894C14.9615 50.4417 15.4098 50.5183 15.8612 50.5183C16.8209 50.5183 17.3011 50.1876 17.3011 49.5263C17.3011 49.2917 17.2469 49.1006 17.139 48.9545C17.0307 48.8085 16.856 48.6859 16.6144 48.5874C16.3728 48.4888 16.0581 48.3889 15.6705 48.2867C15.3652 48.2043 15.0759 48.1154 14.8027 48.0201C14.5293 47.9244 14.2846 47.8005 14.0685 47.648C13.8523 47.4955 13.6824 47.2986 13.5582 47.0571C13.4344 46.8154 13.3724 46.507 13.3724 46.1317Z" fill="white"/><path d="M19.4844 51.3858V44.1386H24.1566V45.1875H20.7619V47.1237H23.4414V48.1345H20.7619V50.337H24.1566V51.3858H19.4844Z" fill="white"/><path d="M26.091 47.7624C26.091 48.3093 26.1911 48.7861 26.3914 49.1927C26.5915 49.5996 26.8791 49.9145 27.2544 50.1369C27.6294 50.3592 28.0808 50.4705 28.6084 50.4705C29.1487 50.4705 29.5969 50.3894 29.953 50.2274C30.3089 50.0652 30.6204 49.854 30.8875 49.5932H30.916L30.7825 50.8616C30.5027 51.0523 30.1723 51.2094 29.7909 51.3335C29.4094 51.4576 28.9645 51.5193 28.4559 51.5193C27.8838 51.5193 27.3704 51.4228 26.916 51.2288C26.4612 51.0345 26.0735 50.7678 25.7525 50.4275C25.4315 50.0878 25.1867 49.6885 25.0183 49.2308C24.8497 48.7732 24.7656 48.2838 24.7656 47.7624C24.7656 47.2349 24.8497 46.744 25.0183 46.2894C25.1867 45.8347 25.4315 45.4374 25.7525 45.0971C26.0735 44.757 26.4596 44.49 26.9112 44.2961C27.3625 44.1021 27.871 44.0052 28.4368 44.0052C28.9454 44.0052 29.3839 44.0576 29.7527 44.1626C30.1213 44.2677 30.4361 44.4186 30.6968 44.6154L30.8301 45.9129H30.8016C30.5345 45.652 30.22 45.4438 29.8577 45.2882C29.4953 45.1323 29.0724 45.054 28.5895 45.054C28.0617 45.054 27.6121 45.1653 27.2402 45.3883C26.8682 45.6106 26.5835 45.9255 26.3867 46.3321C26.1895 46.739 26.091 47.2158 26.091 47.7624" fill="white"/><path d="M34.9496 50.4323C35.6042 50.4323 36.0809 50.291 36.3799 50.0082C36.6786 49.7254 36.8283 49.2438 36.8283 48.5634V44.1386H37.8959V48.6303C37.8959 49.6472 37.6399 50.3832 37.1282 50.8376C36.6165 51.2922 35.8712 51.5193 34.8924 51.5193C33.9195 51.5193 33.1634 51.2937 32.623 50.8425C32.0826 50.3909 31.8125 49.6539 31.8125 48.6303V44.1386H33.0901V48.535C33.0901 49.215 33.2346 49.7015 33.5242 49.9941C33.8131 50.2862 34.2883 50.4323 34.9496 50.4323" fill="white"/><path d="M41.859 45.1494H40.419V47.5908H41.859C42.3225 47.5908 42.658 47.4905 42.8646 47.2905C43.0714 47.0902 43.1746 46.7837 43.1746 46.3706C43.1746 45.9572 43.0714 45.6504 42.8646 45.4504C42.658 45.2499 42.3225 45.1494 41.859 45.1494V45.1494ZM39.1406 51.3858V44.1386H42.202C42.6787 44.1386 43.0902 44.2339 43.437 44.4248C43.7832 44.6154 44.0486 44.8775 44.2328 45.2115C44.4174 45.5457 44.5095 45.9222 44.5095 46.3418C44.5095 46.8376 44.3728 47.2701 44.0993 47.6383C43.8262 48.0071 43.4542 48.2521 42.9839 48.3727L44.8434 51.3858H43.375L41.6967 48.5443H40.419V51.3858H39.1406" fill="white"/><path d="M45.7969 51.3858V44.1386H50.4692V45.1875H47.0746V47.1237H49.7542V48.1345H47.0746V50.337H50.4692V51.3858H45.7969Z" fill="white"/></g><defs><clipPath id="clip0_18555_247248"><rect width="64" height="64" fill="white"/></clipPath></defs></svg>
