<svg width="114" height="72" viewBox="0 0 114 72" fill="none" xmlns="http://www.w3.org/2000/svg"><path d="M57 6L59.2296 9.09222L61.9378 6.40916L63.6281 9.82619L66.741 7.62548L67.8458 11.2741L71.2784 9.61579L71.7676 13.3965L75.4264 12.3258L75.2866 16.1355L79.0717 15.6816L78.3068 19.4163L82.115 19.5916L80.7458 23.1494L84.4732 23.9491L82.5371 27.2331L86.082 28.6354L83.6318 31.5559L86.8975 33.5226L84 36L86.8975 38.4774L83.6318 40.4441L86.082 43.3646L82.5371 44.7669L84.4732 48.0509L80.7458 48.8506L82.115 52.4084L78.3068 52.5837L79.0717 56.3184L75.2866 55.8645L75.4264 59.6742L71.7676 58.6035L71.2784 62.3842L67.8458 60.7259L66.741 64.3745L63.6281 62.1738L61.9378 65.5908L59.2296 62.9078L57 66L54.7704 62.9078L52.0622 65.5908L50.3719 62.1738L47.259 64.3745L46.1542 60.7259L42.7216 62.3842L42.2324 58.6035L38.5736 59.6742L38.7134 55.8645L34.9283 56.3184L35.6932 52.5837L31.885 52.4084L33.2542 48.8506L29.5268 48.0509L31.4629 44.7669L27.918 43.3646L30.3682 40.4441L27.1025 38.4774L30 36L27.1025 33.5226L30.3682 31.5559L27.918 28.6354L31.4629 27.2331L29.5268 23.9491L33.2542 23.1494L31.885 19.5916L35.6932 19.4163L34.9283 15.6816L38.7134 16.1355L38.5736 12.3258L42.2324 13.3965L42.7216 9.61579L46.1542 11.2741L47.259 7.62548L50.3719 9.82619L52.0622 6.40916L54.7704 9.09222L57 6Z" fill="#4D4E4F"/><g style="mix-blend-mode:color"><path d="M57 6L59.2296 9.09222L61.9378 6.40916L63.6281 9.82619L66.741 7.62548L67.8458 11.2741L71.2784 9.61579L71.7676 13.3965L75.4264 12.3258L75.2866 16.1355L79.0717 15.6816L78.3068 19.4163L82.115 19.5916L80.7458 23.1494L84.4732 23.9491L82.5371 27.2331L86.082 28.6354L83.6318 31.5559L86.8975 33.5226L84 36L86.8975 38.4774L83.6318 40.4441L86.082 43.3646L82.5371 44.7669L84.4732 48.0509L80.7458 48.8506L82.115 52.4084L78.3068 52.5837L79.0717 56.3184L75.2866 55.8645L75.4264 59.6742L71.7676 58.6035L71.2784 62.3842L67.8458 60.7259L66.741 64.3745L63.6281 62.1738L61.9378 65.5908L59.2296 62.9078L57 66L54.7704 62.9078L52.0622 65.5908L50.3719 62.1738L47.259 64.3745L46.1542 60.7259L42.7216 62.3842L42.2324 58.6035L38.5736 59.6742L38.7134 55.8645L34.9283 56.3184L35.6932 52.5837L31.885 52.4084L33.2542 48.8506L29.5268 48.0509L31.4629 44.7669L27.918 43.3646L30.3682 40.4441L27.1025 38.4774L30 36L27.1025 33.5226L30.3682 31.5559L27.918 28.6354L31.4629 27.2331L29.5268 23.9491L33.2542 23.1494L31.885 19.5916L35.6932 19.4163L34.9283 15.6816L38.7134 16.1355L38.5736 12.3258L42.2324 13.3965L42.7216 9.61579L46.1542 11.2741L47.259 7.62548L50.3719 9.82619L52.0622 6.40916L54.7704 9.09222L57 6Z" fill="#4D4E4F"/></g><rect x="35" y="11" width="45" height="4" fill="#929497"/><path d="M36.1541 12.3578H36.4462L36.6003 13.655H36.6049L37.2903 12.3578H37.5962L36.6946 14H36.368L36.1541 12.3578ZM37.629 12.3578H37.8889L37.8383 12.6062H37.5784L37.629 12.3578ZM37.5347 12.8109H37.7969L37.5508 14H37.2886L37.5347 12.8109ZM38.6852 13.1582C38.6837 13.0984 38.6607 13.0547 38.6162 13.0271C38.5733 12.9995 38.5165 12.9857 38.446 12.9857C38.4199 12.9857 38.3946 12.988 38.3701 12.9926C38.3471 12.9972 38.3256 13.0056 38.3057 13.0179C38.2873 13.0286 38.272 13.044 38.2597 13.0639C38.249 13.0823 38.2436 13.1061 38.2436 13.1352C38.2436 13.1628 38.2536 13.185 38.2735 13.2019C38.295 13.2188 38.3226 13.2341 38.3563 13.2479C38.39 13.2602 38.4276 13.2724 38.469 13.2847C38.5104 13.2954 38.5518 13.3085 38.5932 13.3238C38.6285 13.3376 38.663 13.3529 38.6967 13.3698C38.7304 13.3867 38.7596 13.4074 38.7841 13.4319C38.8102 13.4564 38.8309 13.4856 38.8462 13.5193C38.8615 13.553 38.8692 13.5937 38.8692 13.6412C38.8692 13.7102 38.8539 13.7692 38.8232 13.8183C38.7925 13.8674 38.7527 13.908 38.7036 13.9402C38.6545 13.9724 38.5978 13.9954 38.5334 14.0092C38.4705 14.0245 38.4069 14.0322 38.3425 14.0322C38.2735 14.0322 38.2091 14.0253 38.1493 14.0115C38.0895 13.9992 38.0374 13.9778 37.9929 13.9471C37.9484 13.9149 37.9132 13.8727 37.8871 13.8206C37.861 13.7669 37.8472 13.6995 37.8457 13.6182H38.0941C38.091 13.6933 38.1148 13.747 38.1654 13.7792C38.216 13.8099 38.2796 13.8252 38.3563 13.8252C38.3839 13.8252 38.4123 13.8229 38.4414 13.8183C38.4705 13.8122 38.4974 13.803 38.5219 13.7907C38.5464 13.7784 38.5664 13.7616 38.5817 13.7401C38.5986 13.7171 38.607 13.6887 38.607 13.655C38.607 13.6243 38.5955 13.599 38.5725 13.5791C38.551 13.5592 38.5227 13.5423 38.4874 13.5285C38.4537 13.5132 38.4146 13.4994 38.3701 13.4871C38.3272 13.4748 38.285 13.461 38.2436 13.4457C38.2083 13.4334 38.1746 13.4189 38.1424 13.402C38.1117 13.3851 38.0841 13.3652 38.0596 13.3422C38.0351 13.3177 38.0159 13.2893 38.0021 13.2571C37.9883 13.2249 37.9814 13.1866 37.9814 13.1421C37.9814 13.0777 37.9952 13.0225 38.0228 12.9765C38.0519 12.9305 38.0895 12.8929 38.1355 12.8638C38.1815 12.8347 38.2336 12.8132 38.2919 12.7994C38.3502 12.7856 38.41 12.7787 38.4713 12.7787C38.5357 12.7787 38.5963 12.7848 38.653 12.7971C38.7097 12.8078 38.7588 12.8278 38.8002 12.8569C38.8431 12.886 38.8761 12.9251 38.8991 12.9742C38.9236 13.0233 38.9351 13.0846 38.9336 13.1582H38.6852ZM39.2625 13.6734C39.2625 13.7025 39.2686 13.7271 39.2809 13.747C39.2947 13.7654 39.3116 13.7807 39.3315 13.793C39.3514 13.8037 39.3737 13.8122 39.3982 13.8183C39.4227 13.8229 39.4473 13.8252 39.4718 13.8252C39.5362 13.8252 39.5899 13.8145 39.6328 13.793C39.6773 13.7715 39.7133 13.7424 39.7409 13.7056C39.77 13.6688 39.7923 13.6259 39.8076 13.5768C39.8245 13.5262 39.8375 13.4725 39.8467 13.4158L39.8421 13.4112C39.8237 13.4296 39.7992 13.4426 39.7685 13.4503C39.7378 13.458 39.7079 13.4633 39.6788 13.4664C39.642 13.4695 39.5991 13.4725 39.55 13.4756C39.5025 13.4787 39.4572 13.4871 39.4143 13.5009C39.3729 13.5132 39.3369 13.5331 39.3062 13.5607C39.2771 13.5868 39.2625 13.6243 39.2625 13.6734ZM40.0514 13.655C40.0468 13.6765 40.0414 13.6972 40.0353 13.7171C40.0307 13.737 40.0284 13.7554 40.0284 13.7723C40.0284 13.7892 40.0322 13.8022 40.0399 13.8114C40.0476 13.8206 40.0621 13.8252 40.0836 13.8252C40.0989 13.8252 40.1143 13.8237 40.1296 13.8206C40.1449 13.816 40.1603 13.8129 40.1756 13.8114L40.1342 14C40.1005 14.0077 40.0667 14.0146 40.033 14.0207C39.9993 14.0284 39.9648 14.0322 39.9295 14.0322C39.885 14.0322 39.8482 14.0184 39.8191 13.9908C39.79 13.9632 39.7739 13.9264 39.7708 13.8804C39.7187 13.9325 39.6573 13.9709 39.5868 13.9954C39.5163 14.0199 39.4442 14.0322 39.3706 14.0322C39.3215 14.0322 39.2748 14.0253 39.2303 14.0115C39.1858 13.9977 39.146 13.9778 39.1107 13.9517C39.077 13.9256 39.0501 13.8927 39.0302 13.8528C39.0103 13.8129 39.0003 13.7669 39.0003 13.7148C39.0003 13.6412 39.0141 13.5799 39.0417 13.5308C39.0693 13.4802 39.1061 13.4388 39.1521 13.4066C39.1981 13.3744 39.251 13.3506 39.3108 13.3353C39.3706 13.32 39.4335 13.31 39.4994 13.3054C39.5883 13.2993 39.6757 13.2924 39.7616 13.2847C39.8091 13.2816 39.8436 13.2663 39.8651 13.2387C39.8881 13.2096 39.8996 13.1728 39.8996 13.1283C39.8996 13.0716 39.8797 13.034 39.8398 13.0156C39.7999 12.9957 39.7532 12.9857 39.6995 12.9857C39.6259 12.9857 39.5623 12.9987 39.5086 13.0248C39.4565 13.0493 39.4212 13.0984 39.4028 13.172H39.1544C39.1682 13.0984 39.192 13.0371 39.2257 12.988C39.2594 12.9374 39.3008 12.8968 39.3499 12.8661C39.399 12.8339 39.4542 12.8117 39.5155 12.7994C39.5784 12.7856 39.6451 12.7787 39.7156 12.7787C39.8229 12.7787 39.9065 12.7894 39.9663 12.8109C40.0276 12.8308 40.0721 12.8554 40.0997 12.8845C40.1288 12.9136 40.1465 12.9443 40.1526 12.9765C40.1587 13.0072 40.1618 13.0332 40.1618 13.0547C40.1618 13.1068 40.1541 13.1666 40.1388 13.2341L40.0514 13.655ZM42.3652 14H42.1812V13.8275H42.1766C42.1474 13.8643 42.1145 13.8957 42.0777 13.9218C42.0424 13.9479 42.0048 13.9701 41.965 13.9885C41.9266 14.0054 41.8875 14.0176 41.8477 14.0253C41.8093 14.0345 41.7733 14.0391 41.7396 14.0391C41.6215 14.0391 41.5172 14.0207 41.4268 13.9839C41.3363 13.9471 41.2604 13.8965 41.1991 13.8321C41.1377 13.7677 41.091 13.6918 41.0588 13.6044C41.0266 13.517 41.0105 13.4227 41.0105 13.3215C41.0105 13.1498 41.0358 13.001 41.0864 12.8753C41.1385 12.748 41.206 12.6438 41.2888 12.5625C41.3731 12.4797 41.4674 12.4184 41.5717 12.3785C41.6775 12.3386 41.784 12.3187 41.8914 12.3187C41.988 12.3187 42.0777 12.3302 42.1605 12.3532C42.2448 12.3762 42.3176 12.4107 42.379 12.4567C42.4403 12.5027 42.4886 12.561 42.5239 12.6315C42.5591 12.702 42.5768 12.7856 42.5768 12.8822H42.2893C42.2831 12.7703 42.244 12.6875 42.172 12.6338C42.0999 12.5801 42.0033 12.5533 41.8822 12.5533C41.784 12.5533 41.6982 12.5755 41.6246 12.62C41.5525 12.6645 41.4919 12.7227 41.4429 12.7948C41.3953 12.8669 41.3593 12.9481 41.3348 13.0386C41.3102 13.1291 41.298 13.2203 41.298 13.3123C41.298 13.4656 41.3371 13.586 41.4153 13.6734C41.4935 13.7608 41.6046 13.8045 41.7488 13.8045C41.8193 13.8045 41.8822 13.7938 41.9374 13.7723C41.9926 13.7493 42.0401 13.7179 42.08 13.678C42.1214 13.6381 42.1559 13.5906 42.1835 13.5354C42.2111 13.4802 42.2325 13.4196 42.2479 13.3537H41.7971L41.8431 13.1352H42.5492L42.3652 14ZM42.9972 12.3578H43.2594L42.919 14H42.6568L42.9972 12.3578ZM43.9292 12.9857C43.8617 12.9857 43.8027 13.0026 43.7521 13.0363C43.703 13.07 43.6616 13.113 43.6279 13.1651C43.5941 13.2157 43.5688 13.2724 43.552 13.3353C43.5366 13.3982 43.529 13.4595 43.529 13.5193C43.529 13.6067 43.5504 13.6795 43.5934 13.7378C43.6378 13.7961 43.7076 13.8252 43.8027 13.8252C43.8701 13.8252 43.9284 13.8091 43.9775 13.7769C44.0281 13.7432 44.0702 13.701 44.104 13.6504C44.1377 13.5983 44.1622 13.5408 44.1776 13.4779C44.1944 13.4135 44.2029 13.3514 44.2029 13.2916C44.2029 13.2042 44.1806 13.1314 44.1362 13.0731C44.0932 13.0148 44.0242 12.9857 43.9292 12.9857ZM43.7866 14.0322C43.621 14.0322 43.4929 13.9877 43.4025 13.8988C43.312 13.8083 43.2668 13.6795 43.2668 13.5124C43.2668 13.4143 43.2829 13.3215 43.3151 13.2341C43.3473 13.1452 43.3925 13.067 43.4508 12.9995C43.5106 12.932 43.5819 12.8784 43.6647 12.8385C43.749 12.7986 43.8425 12.7787 43.9453 12.7787C44.1109 12.7787 44.2389 12.8224 44.3294 12.9098C44.4198 12.9957 44.4651 13.1222 44.4651 13.2893C44.4651 13.3936 44.4497 13.4909 44.4191 13.5814C44.3884 13.6719 44.3432 13.7508 44.2834 13.8183C44.2251 13.8842 44.1538 13.9364 44.0695 13.9747C43.9867 14.013 43.8924 14.0322 43.7866 14.0322ZM44.9153 12.3578H45.1775L45.0556 12.9466L45.0602 12.9512C45.1492 12.8362 45.2695 12.7787 45.4213 12.7787C45.4919 12.7787 45.5547 12.791 45.6099 12.8155C45.6667 12.84 45.7142 12.8745 45.7525 12.919C45.7909 12.9619 45.82 13.0133 45.8399 13.0731C45.8599 13.1329 45.8698 13.1981 45.8698 13.2686C45.8698 13.3621 45.8568 13.4549 45.8307 13.5469C45.8047 13.6374 45.7656 13.7186 45.7134 13.7907C45.6613 13.8628 45.5961 13.921 45.5179 13.9655C45.4397 14.01 45.3493 14.0322 45.2465 14.0322C45.1545 14.0322 45.0756 14.0153 45.0096 13.9816C44.9452 13.9479 44.8931 13.8873 44.8532 13.7999H44.8486L44.8141 14H44.5749L44.9153 12.3578ZM45.3293 12.9857C45.2634 12.9857 45.2059 13.0026 45.1568 13.0363C45.1078 13.07 45.0664 13.1137 45.0326 13.1674C45.0004 13.2195 44.9759 13.2778 44.959 13.3422C44.9437 13.4051 44.936 13.4664 44.936 13.5262C44.936 13.6182 44.9583 13.691 45.0027 13.7447C45.0472 13.7984 45.1177 13.8252 45.2143 13.8252C45.2803 13.8252 45.3378 13.8083 45.3868 13.7746C45.4359 13.7409 45.4765 13.6979 45.5087 13.6458C45.5425 13.5937 45.567 13.5362 45.5823 13.4733C45.5992 13.4089 45.6076 13.3468 45.6076 13.287C45.6076 13.195 45.5854 13.1222 45.5409 13.0685C45.4965 13.0133 45.4259 12.9857 45.3293 12.9857ZM46.2501 13.6734C46.2501 13.7025 46.2562 13.7271 46.2685 13.747C46.2823 13.7654 46.2992 13.7807 46.3191 13.793C46.339 13.8037 46.3613 13.8122 46.3858 13.8183C46.4103 13.8229 46.4349 13.8252 46.4594 13.8252C46.5238 13.8252 46.5775 13.8145 46.6204 13.793C46.6649 13.7715 46.7009 13.7424 46.7285 13.7056C46.7576 13.6688 46.7799 13.6259 46.7952 13.5768C46.8121 13.5262 46.8251 13.4725 46.8343 13.4158L46.8297 13.4112C46.8113 13.4296 46.7868 13.4426 46.7561 13.4503C46.7254 13.458 46.6955 13.4633 46.6664 13.4664C46.6296 13.4695 46.5867 13.4725 46.5376 13.4756C46.4901 13.4787 46.4448 13.4871 46.4019 13.5009C46.3605 13.5132 46.3245 13.5331 46.2938 13.5607C46.2647 13.5868 46.2501 13.6243 46.2501 13.6734ZM47.039 13.655C47.0344 13.6765 47.029 13.6972 47.0229 13.7171C47.0183 13.737 47.016 13.7554 47.016 13.7723C47.016 13.7892 47.0198 13.8022 47.0275 13.8114C47.0352 13.8206 47.0497 13.8252 47.0712 13.8252C47.0865 13.8252 47.1019 13.8237 47.1172 13.8206C47.1325 13.816 47.1479 13.8129 47.1632 13.8114L47.1218 14C47.0881 14.0077 47.0543 14.0146 47.0206 14.0207C46.9869 14.0284 46.9524 14.0322 46.9171 14.0322C46.8726 14.0322 46.8358 14.0184 46.8067 13.9908C46.7776 13.9632 46.7615 13.9264 46.7584 13.8804C46.7063 13.9325 46.6449 13.9709 46.5744 13.9954C46.5039 14.0199 46.4318 14.0322 46.3582 14.0322C46.3091 14.0322 46.2624 14.0253 46.2179 14.0115C46.1734 13.9977 46.1336 13.9778 46.0983 13.9517C46.0646 13.9256 46.0377 13.8927 46.0178 13.8528C45.9979 13.8129 45.9879 13.7669 45.9879 13.7148C45.9879 13.6412 46.0017 13.5799 46.0293 13.5308C46.0569 13.4802 46.0937 13.4388 46.1397 13.4066C46.1857 13.3744 46.2386 13.3506 46.2984 13.3353C46.3582 13.32 46.4211 13.31 46.487 13.3054C46.5759 13.2993 46.6633 13.2924 46.7492 13.2847C46.7967 13.2816 46.8312 13.2663 46.8527 13.2387C46.8757 13.2096 46.8872 13.1728 46.8872 13.1283C46.8872 13.0716 46.8673 13.034 46.8274 13.0156C46.7875 12.9957 46.7408 12.9857 46.6871 12.9857C46.6135 12.9857 46.5499 12.9987 46.4962 13.0248C46.4441 13.0493 46.4088 13.0984 46.3904 13.172H46.142C46.1558 13.0984 46.1796 13.0371 46.2133 12.988C46.247 12.9374 46.2884 12.8968 46.3375 12.8661C46.3866 12.8339 46.4418 12.8117 46.5031 12.7994C46.566 12.7856 46.6327 12.7787 46.7032 12.7787C46.8105 12.7787 46.8941 12.7894 46.9539 12.8109C47.0152 12.8308 47.0597 12.8554 47.0873 12.8845C47.1164 12.9136 47.1341 12.9443 47.1402 12.9765C47.1463 13.0072 47.1494 13.0332 47.1494 13.0547C47.1494 13.1068 47.1417 13.1666 47.1264 13.2341L47.039 13.655ZM47.5994 12.3578H47.8616L47.5212 14H47.259L47.5994 12.3578ZM48.9622 13.1053H49.3831C49.5073 13.1053 49.6016 13.08 49.666 13.0294C49.732 12.9773 49.7649 12.9029 49.7649 12.8063C49.7649 12.7618 49.7565 12.7258 49.7396 12.6982C49.7243 12.6691 49.7028 12.6468 49.6752 12.6315C49.6476 12.6162 49.6162 12.6062 49.5809 12.6016C49.5457 12.5955 49.5089 12.5924 49.4705 12.5924H49.068L48.9622 13.1053ZM48.8242 12.3578H49.5349C49.5702 12.3578 49.617 12.3609 49.6752 12.367C49.7335 12.3731 49.7902 12.39 49.8454 12.4176C49.9022 12.4452 49.9505 12.4874 49.9903 12.5441C50.0317 12.5993 50.0524 12.6767 50.0524 12.7764C50.0524 12.9067 50.0195 13.0087 49.9535 13.0823C49.8876 13.1544 49.7964 13.2011 49.6798 13.2226V13.2272C49.7488 13.2533 49.7948 13.2924 49.8178 13.3445C49.8424 13.3951 49.8546 13.4549 49.8546 13.5239C49.8546 13.5806 49.85 13.6374 49.8408 13.6941C49.8316 13.7508 49.8278 13.8076 49.8293 13.8643C49.8293 13.8873 49.8309 13.9103 49.8339 13.9333C49.8385 13.9563 49.847 13.9785 49.8592 14H49.5579C49.5503 13.9785 49.5449 13.9578 49.5418 13.9379C49.5403 13.918 49.5395 13.8965 49.5395 13.8735C49.5395 13.8122 49.5441 13.7524 49.5533 13.6941C49.5625 13.6343 49.5671 13.5745 49.5671 13.5147C49.5671 13.4672 49.5579 13.4304 49.5395 13.4043C49.5227 13.3782 49.4997 13.3598 49.4705 13.3491C49.4414 13.3368 49.4084 13.3299 49.3716 13.3284C49.3348 13.3253 49.2973 13.3238 49.2589 13.3238H48.9162L48.7759 14H48.4838L48.8242 12.3578ZM51.0256 13.3008C51.0271 13.2931 51.0279 13.287 51.0279 13.2824C51.0279 13.2763 51.0279 13.2701 51.0279 13.264V13.2272C51.0279 13.1567 51.0056 13.0992 50.9612 13.0547C50.9167 13.0087 50.8554 12.9857 50.7772 12.9857C50.679 12.9857 50.6008 13.0156 50.5426 13.0754C50.4843 13.1337 50.4421 13.2088 50.4161 13.3008H51.0256ZM51.2165 13.632C51.1751 13.7715 51.1053 13.8735 51.0072 13.9379C50.909 14.0008 50.7879 14.0322 50.6438 14.0322C50.5686 14.0322 50.4989 14.0207 50.4345 13.9977C50.3716 13.9732 50.3172 13.9387 50.2712 13.8942C50.2252 13.8482 50.1891 13.7938 50.1631 13.7309C50.137 13.6665 50.124 13.5937 50.124 13.5124C50.124 13.4204 50.1385 13.3307 50.1677 13.2433C50.1968 13.1559 50.239 13.0777 50.2942 13.0087C50.3509 12.9397 50.4199 12.8845 50.5012 12.8431C50.584 12.8002 50.6783 12.7787 50.7841 12.7787C50.8899 12.7787 50.9757 12.7963 51.0417 12.8316C51.1076 12.8669 51.159 12.9113 51.1958 12.965C51.2326 13.0187 51.2571 13.0777 51.2694 13.1421C51.2832 13.2065 51.2901 13.2678 51.2901 13.3261C51.2901 13.3552 51.2885 13.3821 51.2855 13.4066C51.2824 13.4311 51.2793 13.4534 51.2763 13.4733H50.3908C50.3892 13.481 50.3877 13.4879 50.3862 13.494C50.3862 13.5001 50.3862 13.5063 50.3862 13.5124V13.5492C50.3862 13.632 50.4076 13.6987 50.4506 13.7493C50.495 13.7999 50.5679 13.8252 50.6691 13.8252C50.7396 13.8252 50.8002 13.8091 50.8508 13.7769C50.9014 13.7447 50.9359 13.6964 50.9543 13.632H51.2165ZM51.6849 13.4986C51.6849 13.5385 51.6895 13.5768 51.6987 13.6136C51.7079 13.6489 51.7225 13.6803 51.7424 13.7079C51.7623 13.734 51.7876 13.7547 51.8183 13.77C51.8505 13.7853 51.8888 13.793 51.9333 13.793C52.0038 13.793 52.0636 13.7769 52.1127 13.7447C52.1633 13.7125 52.2047 13.6711 52.2369 13.6205C52.2691 13.5699 52.2921 13.5132 52.3059 13.4503C52.3212 13.3874 52.3289 13.3261 52.3289 13.2663C52.3289 13.1789 52.3067 13.1107 52.2622 13.0616C52.2177 13.011 52.1518 12.9857 52.0644 12.9857C52 12.9857 51.944 13.0026 51.8965 13.0363C51.849 13.0685 51.8091 13.1099 51.7769 13.1605C51.7462 13.2111 51.7232 13.2671 51.7079 13.3284C51.6926 13.3882 51.6849 13.4449 51.6849 13.4986ZM52.4416 13.9678C52.4217 14.0583 52.3964 14.1357 52.3657 14.2001C52.3366 14.2645 52.2982 14.3166 52.2507 14.3565C52.2047 14.3964 52.148 14.4255 52.0805 14.4439C52.0146 14.4623 51.9348 14.4715 51.8413 14.4715C51.7738 14.4715 51.7094 14.4646 51.6481 14.4508C51.5883 14.437 51.5346 14.4148 51.4871 14.3841C51.4411 14.355 51.4043 14.3159 51.3767 14.2668C51.3476 14.2193 51.3322 14.161 51.3307 14.092H51.5929C51.596 14.1595 51.6228 14.207 51.6734 14.2346C51.7255 14.2622 51.7892 14.276 51.8643 14.276C51.9226 14.276 51.9709 14.2676 52.0092 14.2507C52.0475 14.2338 52.079 14.2108 52.1035 14.1817C52.1296 14.1526 52.1495 14.1173 52.1633 14.0759C52.1771 14.036 52.1894 13.9916 52.2001 13.9425L52.2254 13.8252L52.2208 13.8206C52.138 13.9402 52.0261 14 51.885 14C51.7363 14 51.622 13.9571 51.5423 13.8712C51.4626 13.7838 51.4227 13.6642 51.4227 13.5124C51.4227 13.4235 51.4357 13.3353 51.4618 13.2479C51.4894 13.159 51.5285 13.08 51.5791 13.011C51.6312 12.942 51.6956 12.886 51.7723 12.8431C51.849 12.8002 51.9371 12.7787 52.0368 12.7787C52.1242 12.7787 52.1993 12.7963 52.2622 12.8316C52.3251 12.8669 52.3726 12.9259 52.4048 13.0087H52.4094L52.4439 12.8109H52.6923L52.4416 13.9678ZM53.0552 12.3578H53.3151L53.2645 12.6062H53.0046L53.0552 12.3578ZM52.9609 12.8109H53.2231L52.977 14H52.7148L52.9609 12.8109ZM54.1114 13.1582C54.1098 13.0984 54.0868 13.0547 54.0424 13.0271C53.9994 12.9995 53.9427 12.9857 53.8722 12.9857C53.8461 12.9857 53.8208 12.988 53.7963 12.9926C53.7733 12.9972 53.7518 13.0056 53.7319 13.0179C53.7135 13.0286 53.6981 13.044 53.6859 13.0639C53.6751 13.0823 53.6698 13.1061 53.6698 13.1352C53.6698 13.1628 53.6797 13.185 53.6997 13.2019C53.7211 13.2188 53.7487 13.2341 53.7825 13.2479C53.8162 13.2602 53.8538 13.2724 53.8952 13.2847C53.9366 13.2954 53.978 13.3085 54.0194 13.3238C54.0546 13.3376 54.0891 13.3529 54.1229 13.3698C54.1566 13.3867 54.1857 13.4074 54.2103 13.4319C54.2363 13.4564 54.257 13.4856 54.2724 13.5193C54.2877 13.553 54.2954 13.5937 54.2954 13.6412C54.2954 13.7102 54.28 13.7692 54.2494 13.8183C54.2187 13.8674 54.1788 13.908 54.1298 13.9402C54.0807 13.9724 54.024 13.9954 53.9596 14.0092C53.8967 14.0245 53.8331 14.0322 53.7687 14.0322C53.6997 14.0322 53.6353 14.0253 53.5755 14.0115C53.5157 13.9992 53.4635 13.9778 53.4191 13.9471C53.3746 13.9149 53.3393 13.8727 53.3133 13.8206C53.2872 13.7669 53.2734 13.6995 53.2719 13.6182H53.5203C53.5172 13.6933 53.541 13.747 53.5916 13.7792C53.6422 13.8099 53.7058 13.8252 53.7825 13.8252C53.8101 13.8252 53.8384 13.8229 53.8676 13.8183C53.8967 13.8122 53.9235 13.803 53.9481 13.7907C53.9726 13.7784 53.9925 13.7616 54.0079 13.7401C54.0247 13.7171 54.0332 13.6887 54.0332 13.655C54.0332 13.6243 54.0217 13.599 53.9987 13.5791C53.9772 13.5592 53.9488 13.5423 53.9136 13.5285C53.8798 13.5132 53.8407 13.4994 53.7963 13.4871C53.7533 13.4748 53.7112 13.461 53.6698 13.4457C53.6345 13.4334 53.6008 13.4189 53.5686 13.402C53.5379 13.3851 53.5103 13.3652 53.4858 13.3422C53.4612 13.3177 53.4421 13.2893 53.4283 13.2571C53.4145 13.2249 53.4076 13.1866 53.4076 13.1421C53.4076 13.0777 53.4214 13.0225 53.449 12.9765C53.4781 12.9305 53.5157 12.8929 53.5617 12.8638C53.6077 12.8347 53.6598 12.8132 53.7181 12.7994C53.7763 12.7856 53.8361 12.7787 53.8975 12.7787C53.9619 12.7787 54.0224 12.7848 54.0792 12.7971C54.1359 12.8078 54.185 12.8278 54.2264 12.8569C54.2693 12.886 54.3023 12.9251 54.3253 12.9742C54.3498 13.0233 54.3613 13.0846 54.3598 13.1582H54.1114ZM54.8129 12.4544H55.0682L54.9946 12.8109H55.2315L55.1901 13.0064H54.9532L54.8313 13.5883C54.8251 13.6144 54.8198 13.6389 54.8152 13.6619C54.8106 13.6849 54.8083 13.7033 54.8083 13.7171C54.8083 13.7432 54.8136 13.7646 54.8244 13.7815C54.8366 13.7968 54.8627 13.8045 54.9026 13.8045C54.9225 13.8045 54.944 13.8045 54.967 13.8045C54.9915 13.803 55.0168 13.7991 55.0429 13.793L54.9992 13.9862C54.9654 13.9939 54.9294 14 54.8911 14.0046C54.8527 14.0092 54.8167 14.0115 54.783 14.0115C54.7354 14.0115 54.6963 14.0054 54.6657 13.9931C54.635 13.9808 54.6105 13.9647 54.5921 13.9448C54.5752 13.9233 54.5629 13.8996 54.5553 13.8735C54.5491 13.8459 54.5461 13.8183 54.5461 13.7907C54.5461 13.7677 54.5476 13.7424 54.5507 13.7148C54.5553 13.6872 54.5591 13.668 54.5622 13.6573L54.6979 13.0064H54.4909L54.5323 12.8109H54.7393L54.8129 12.4544ZM55.4316 12.8109H55.68L55.6317 13.0432L55.6363 13.0478C55.6547 13.0156 55.6769 12.9834 55.703 12.9512C55.7306 12.919 55.7605 12.8906 55.7927 12.8661C55.8249 12.84 55.8594 12.8193 55.8962 12.804C55.9345 12.7871 55.9744 12.7787 56.0158 12.7787C56.0373 12.7787 56.058 12.7795 56.0779 12.781C56.0994 12.781 56.1208 12.7825 56.1423 12.7856L56.0871 13.0363C56.0718 13.0332 56.0564 13.0309 56.0411 13.0294C56.0258 13.0279 56.0104 13.0271 55.9951 13.0271C55.9276 13.0271 55.8686 13.0394 55.818 13.0639C55.7689 13.0869 55.7268 13.1191 55.6915 13.1605C55.6578 13.2019 55.6302 13.2494 55.6087 13.3031C55.5872 13.3568 55.5704 13.4135 55.5581 13.4733L55.4477 14H55.1855L55.4316 12.8109ZM56.1311 12.8109H56.4071L56.5313 13.6803H56.5359L56.9844 12.8109H57.265L56.5842 14.0368C56.5535 14.0935 56.5236 14.148 56.4945 14.2001C56.4653 14.2522 56.4316 14.2982 56.3933 14.3381C56.3565 14.3795 56.3128 14.4117 56.2622 14.4347C56.2116 14.4592 56.1495 14.4715 56.0759 14.4715C56.0314 14.4715 55.9785 14.4654 55.9172 14.4531L55.9655 14.2346C55.9823 14.2392 55.9992 14.243 56.0161 14.2461C56.0329 14.2507 56.0498 14.253 56.0667 14.253C56.1065 14.253 56.1403 14.2453 56.1679 14.23C56.197 14.2162 56.22 14.1901 56.2369 14.1518L56.3404 13.9609L56.1311 12.8109ZM58.5445 12.9857C58.477 12.9857 58.418 13.0026 58.3674 13.0363C58.3183 13.07 58.2769 13.113 58.2432 13.1651C58.2095 13.2157 58.1842 13.2724 58.1673 13.3353C58.152 13.3982 58.1443 13.4595 58.1443 13.5193C58.1443 13.6067 58.1658 13.6795 58.2087 13.7378C58.2532 13.7961 58.3229 13.8252 58.418 13.8252C58.4855 13.8252 58.5437 13.8091 58.5928 13.7769C58.6434 13.7432 58.6856 13.701 58.7193 13.6504C58.753 13.5983 58.7776 13.5408 58.7929 13.4779C58.8098 13.4135 58.8182 13.3514 58.8182 13.2916C58.8182 13.2042 58.796 13.1314 58.7515 13.0731C58.7086 13.0148 58.6396 12.9857 58.5445 12.9857ZM58.4019 14.0322C58.2363 14.0322 58.1083 13.9877 58.0178 13.8988C57.9273 13.8083 57.8821 13.6795 57.8821 13.5124C57.8821 13.4143 57.8982 13.3215 57.9304 13.2341C57.9626 13.1452 58.0078 13.067 58.0661 12.9995C58.1259 12.932 58.1972 12.8784 58.28 12.8385C58.3643 12.7986 58.4579 12.7787 58.5606 12.7787C58.7262 12.7787 58.8542 12.8224 58.9447 12.9098C59.0352 12.9957 59.0804 13.1222 59.0804 13.2893C59.0804 13.3936 59.0651 13.4909 59.0344 13.5814C59.0037 13.6719 58.9585 13.7508 58.8987 13.8183C58.8404 13.8842 58.7691 13.9364 58.6848 13.9747C58.602 14.013 58.5077 14.0322 58.4019 14.0322ZM59.4709 13.0064H59.2754L59.3145 12.8109H59.51C59.5238 12.7419 59.5383 12.6798 59.5537 12.6246C59.569 12.5694 59.5912 12.5219 59.6204 12.482C59.6495 12.4421 59.6886 12.4115 59.7377 12.39C59.7867 12.3685 59.8511 12.3578 59.9309 12.3578C59.9661 12.3578 59.9999 12.3601 60.0321 12.3647C60.0643 12.3678 60.0957 12.3708 60.1264 12.3739L60.0827 12.574C60.0566 12.5679 60.0229 12.5648 59.9815 12.5648C59.937 12.5648 59.9025 12.5709 59.878 12.5832C59.855 12.5955 59.8366 12.6131 59.8228 12.6361C59.8105 12.6576 59.8013 12.6836 59.7952 12.7143C59.789 12.7434 59.7814 12.7756 59.7722 12.8109H60.0022L59.9631 13.0064H59.7331L59.5261 14H59.2639L59.4709 13.0064ZM60.8894 13.4572C60.8833 13.5845 60.9147 13.6742 60.9837 13.7263C61.0527 13.7784 61.147 13.8045 61.2666 13.8045C61.3049 13.8045 61.3456 13.7999 61.3885 13.7907C61.433 13.7815 61.4728 13.7669 61.5081 13.747C61.5434 13.7255 61.5725 13.6987 61.5955 13.6665C61.62 13.6328 61.6323 13.5914 61.6323 13.5423C61.6323 13.4963 61.6208 13.458 61.5978 13.4273C61.5763 13.3966 61.5472 13.3713 61.5104 13.3514C61.4751 13.3299 61.4337 13.3123 61.3862 13.2985C61.3387 13.2832 61.2896 13.2686 61.239 13.2548C61.2022 13.2456 61.1585 13.2333 61.1079 13.218C61.0573 13.2011 61.0082 13.1774 60.9607 13.1467C60.9132 13.1145 60.8725 13.0731 60.8388 13.0225C60.8066 12.9719 60.7905 12.9075 60.7905 12.8293C60.7905 12.7557 60.8043 12.6875 60.8319 12.6246C60.8595 12.5617 60.8994 12.5081 60.9515 12.4636C61.0036 12.4176 61.0673 12.3823 61.1424 12.3578C61.2191 12.3317 61.3057 12.3187 61.4023 12.3187C61.4882 12.3187 61.5687 12.3279 61.6438 12.3463C61.7189 12.3647 61.7841 12.3946 61.8393 12.436C61.8945 12.4774 61.9374 12.5318 61.9681 12.5993C61.9988 12.6652 62.0126 12.7465 62.0095 12.8431H61.7335C61.732 12.7404 61.7036 12.6668 61.6484 12.6223C61.5932 12.5763 61.5096 12.5533 61.3977 12.5533C61.3778 12.5533 61.3502 12.5556 61.3149 12.5602C61.2796 12.5648 61.2444 12.5755 61.2091 12.5924C61.1738 12.6093 61.1432 12.6338 61.1171 12.666C61.091 12.6967 61.078 12.7396 61.078 12.7948C61.078 12.8347 61.0872 12.8676 61.1056 12.8937C61.124 12.9198 61.1485 12.942 61.1792 12.9604C61.2114 12.9788 61.2482 12.9941 61.2896 13.0064C61.331 13.0187 61.3747 13.0302 61.4207 13.0409C61.479 13.0562 61.5372 13.0731 61.5955 13.0915C61.6553 13.1099 61.709 13.136 61.7565 13.1697C61.8056 13.2019 61.8447 13.2448 61.8738 13.2985C61.9045 13.3522 61.9198 13.4219 61.9198 13.5078C61.9198 13.5722 61.9075 13.6358 61.883 13.6987C61.8585 13.7616 61.8186 13.8183 61.7634 13.8689C61.7097 13.9195 61.6392 13.9609 61.5518 13.9931C61.4659 14.0238 61.3609 14.0391 61.2367 14.0391C61.1401 14.0391 61.0527 14.0276 60.9745 14.0046C60.8963 13.9831 60.8296 13.9494 60.7744 13.9034C60.7207 13.8559 60.6793 13.7953 60.6502 13.7217C60.6226 13.6481 60.6103 13.5599 60.6134 13.4572H60.8894ZM62.9995 13.3008C63.001 13.2931 63.0018 13.287 63.0018 13.2824C63.0018 13.2763 63.0018 13.2701 63.0018 13.264V13.2272C63.0018 13.1567 62.9796 13.0992 62.9351 13.0547C62.8906 13.0087 62.8293 12.9857 62.7511 12.9857C62.653 12.9857 62.5748 13.0156 62.5165 13.0754C62.4582 13.1337 62.4161 13.2088 62.39 13.3008H62.9995ZM63.1904 13.632C63.149 13.7715 63.0792 13.8735 62.9811 13.9379C62.883 14.0008 62.7618 14.0322 62.6177 14.0322C62.5426 14.0322 62.4728 14.0207 62.4084 13.9977C62.3455 13.9732 62.2911 13.9387 62.2451 13.8942C62.1991 13.8482 62.1631 13.7938 62.137 13.7309C62.1109 13.6665 62.0979 13.5937 62.0979 13.5124C62.0979 13.4204 62.1125 13.3307 62.1416 13.2433C62.1707 13.1559 62.2129 13.0777 62.2681 13.0087C62.3248 12.9397 62.3938 12.8845 62.4751 12.8431C62.5579 12.8002 62.6522 12.7787 62.758 12.7787C62.8638 12.7787 62.9497 12.7963 63.0156 12.8316C63.0815 12.8669 63.1329 12.9113 63.1697 12.965C63.2065 13.0187 63.231 13.0777 63.2433 13.1421C63.2571 13.2065 63.264 13.2678 63.264 13.3261C63.264 13.3552 63.2625 13.3821 63.2594 13.4066C63.2563 13.4311 63.2533 13.4534 63.2502 13.4733H62.3647C62.3632 13.481 62.3616 13.4879 62.3601 13.494C62.3601 13.5001 62.3601 13.5063 62.3601 13.5124V13.5492C62.3601 13.632 62.3816 13.6987 62.4245 13.7493C62.469 13.7999 62.5418 13.8252 62.643 13.8252C62.7135 13.8252 62.7741 13.8091 62.8247 13.7769C62.8753 13.7447 62.9098 13.6964 62.9282 13.632H63.1904ZM63.5714 12.8109H63.8198L63.7715 13.0432L63.7761 13.0478C63.7945 13.0156 63.8168 12.9834 63.8428 12.9512C63.8704 12.919 63.9003 12.8906 63.9325 12.8661C63.9647 12.84 63.9992 12.8193 64.036 12.804C64.0744 12.7871 64.1142 12.7787 64.1556 12.7787C64.1771 12.7787 64.1978 12.7795 64.2177 12.781C64.2392 12.781 64.2607 12.7825 64.2821 12.7856L64.2269 13.0363C64.2116 13.0332 64.1963 13.0309 64.1809 13.0294C64.1656 13.0279 64.1503 13.0271 64.1349 13.0271C64.0675 13.0271 64.0084 13.0394 63.9578 13.0639C63.9088 13.0869 63.8666 13.1191 63.8313 13.1605C63.7976 13.2019 63.77 13.2494 63.7485 13.3031C63.7271 13.3568 63.7102 13.4135 63.6979 13.4733L63.5875 14H63.3253L63.5714 12.8109ZM64.2824 12.8109H64.5538L64.6527 13.678H64.6573L65.1173 12.8109H65.3933L64.7355 14H64.4434L64.2824 12.8109ZM65.667 12.3578H65.9269L65.8763 12.6062H65.6164L65.667 12.3578ZM65.5727 12.8109H65.8349L65.5888 14H65.3266L65.5727 12.8109ZM66.8244 13.2042C66.8274 13.1306 66.8075 13.0762 66.7646 13.0409C66.7216 13.0041 66.6634 12.9857 66.5898 12.9857C66.5238 12.9857 66.4663 13.0026 66.4173 13.0363C66.3682 13.07 66.3276 13.113 66.2954 13.1651C66.2632 13.2172 66.2386 13.2747 66.2218 13.3376C66.2064 13.3989 66.1988 13.458 66.1988 13.5147C66.1988 13.5592 66.2034 13.6006 66.2126 13.6389C66.2218 13.6757 66.2363 13.7079 66.2563 13.7355C66.2777 13.7631 66.3053 13.7853 66.3391 13.8022C66.3728 13.8175 66.4142 13.8252 66.4633 13.8252C66.5415 13.8252 66.6051 13.8045 66.6542 13.7631C66.7048 13.7217 66.7408 13.6642 66.7623 13.5906H67.0245C66.9815 13.7439 66.9095 13.8559 66.8083 13.9264C66.7071 13.9969 66.5775 14.0322 66.4196 14.0322C66.3414 14.0322 66.2724 14.0199 66.2126 13.9954C66.1528 13.9709 66.1022 13.9364 66.0608 13.8919C66.0209 13.8459 65.9902 13.7922 65.9688 13.7309C65.9473 13.668 65.9366 13.599 65.9366 13.5239C65.9366 13.4242 65.9519 13.3292 65.9826 13.2387C66.0132 13.1482 66.0577 13.0693 66.116 13.0018C66.1742 12.9328 66.2448 12.8784 66.3276 12.8385C66.4119 12.7986 66.507 12.7787 66.6128 12.7787C66.6787 12.7787 66.7408 12.7879 66.7991 12.8063C66.8573 12.8247 66.9079 12.8515 66.9509 12.8868C66.9938 12.9221 67.0275 12.9665 67.0521 13.0202C67.0766 13.0739 67.0881 13.1352 67.0866 13.2042H66.8244ZM68.1116 13.3008C68.1131 13.2931 68.1139 13.287 68.1139 13.2824C68.1139 13.2763 68.1139 13.2701 68.1139 13.264V13.2272C68.1139 13.1567 68.0917 13.0992 68.0472 13.0547C68.0027 13.0087 67.9414 12.9857 67.8632 12.9857C67.7651 12.9857 67.6869 13.0156 67.6286 13.0754C67.5703 13.1337 67.5282 13.2088 67.5021 13.3008H68.1116ZM68.3025 13.632C68.2611 13.7715 68.1913 13.8735 68.0932 13.9379C67.9951 14.0008 67.8739 14.0322 67.7298 14.0322C67.6547 14.0322 67.5849 14.0207 67.5205 13.9977C67.4576 13.9732 67.4032 13.9387 67.3572 13.8942C67.3112 13.8482 67.2752 13.7938 67.2491 13.7309C67.223 13.6665 67.21 13.5937 67.21 13.5124C67.21 13.4204 67.2246 13.3307 67.2537 13.2433C67.2828 13.1559 67.325 13.0777 67.3802 13.0087C67.4369 12.9397 67.5059 12.8845 67.5872 12.8431C67.67 12.8002 67.7643 12.7787 67.8701 12.7787C67.9759 12.7787 68.0618 12.7963 68.1277 12.8316C68.1936 12.8669 68.245 12.9113 68.2818 12.965C68.3186 13.0187 68.3431 13.0777 68.3554 13.1421C68.3692 13.2065 68.3761 13.2678 68.3761 13.3261C68.3761 13.3552 68.3746 13.3821 68.3715 13.4066C68.3684 13.4311 68.3654 13.4534 68.3623 13.4733H67.4768C67.4753 13.481 67.4737 13.4879 67.4722 13.494C67.4722 13.5001 67.4722 13.5063 67.4722 13.5124V13.5492C67.4722 13.632 67.4937 13.6987 67.5366 13.7493C67.5811 13.7999 67.6539 13.8252 67.7551 13.8252C67.8256 13.8252 67.8862 13.8091 67.9368 13.7769C67.9874 13.7447 68.0219 13.6964 68.0403 13.632H68.3025ZM69.4548 12.3578H70.1149C70.2007 12.3578 70.2728 12.367 70.3311 12.3854C70.3893 12.4023 70.4376 12.4253 70.476 12.4544C70.5143 12.482 70.5434 12.5142 70.5634 12.551C70.5848 12.5863 70.6002 12.6223 70.6094 12.6591C70.6186 12.6959 70.6239 12.7319 70.6255 12.7672C70.627 12.8025 70.6278 12.8331 70.6278 12.8592C70.6278 12.8607 70.6262 12.8745 70.6232 12.9006C70.6216 12.9267 70.6147 12.9589 70.6025 12.9972C70.5917 13.034 70.5741 13.0746 70.5496 13.1191C70.525 13.162 70.4905 13.2027 70.4461 13.241C70.4016 13.2778 70.3449 13.3085 70.2759 13.333C70.2084 13.3575 70.1248 13.3698 70.0252 13.3698H69.533L69.4019 14H69.1144L69.4548 12.3578ZM69.5813 13.1352H70.016C70.0804 13.1352 70.1333 13.126 70.1747 13.1076C70.2176 13.0877 70.2506 13.0624 70.2736 13.0317C70.2981 13.001 70.315 12.9673 70.3242 12.9305C70.3349 12.8922 70.3403 12.8546 70.3403 12.8178C70.3403 12.7948 70.3364 12.7703 70.3288 12.7442C70.3226 12.7181 70.3096 12.6936 70.2897 12.6706C70.2713 12.6476 70.2437 12.6292 70.2069 12.6154C70.1716 12.6001 70.1248 12.5924 70.0666 12.5924H69.694L69.5813 13.1352ZM70.8578 12.8109H71.1062L71.0579 13.0432L71.0625 13.0478C71.0809 13.0156 71.1031 12.9834 71.1292 12.9512C71.1568 12.919 71.1867 12.8906 71.2189 12.8661C71.2511 12.84 71.2856 12.8193 71.3224 12.804C71.3607 12.7871 71.4006 12.7787 71.442 12.7787C71.4634 12.7787 71.4841 12.7795 71.5041 12.781C71.5255 12.781 71.547 12.7825 71.5685 12.7856L71.5133 13.0363C71.4979 13.0332 71.4826 13.0309 71.4673 13.0294C71.4519 13.0279 71.4366 13.0271 71.4213 13.0271C71.3538 13.0271 71.2948 13.0394 71.2442 13.0639C71.1951 13.0869 71.1529 13.1191 71.1177 13.1605C71.0839 13.2019 71.0563 13.2494 71.0349 13.3031C71.0134 13.3568 70.9965 13.4135 70.9843 13.4733L70.8739 14H70.6117L70.8578 12.8109ZM72.1805 12.9857C72.1131 12.9857 72.054 13.0026 72.0034 13.0363C71.9544 13.07 71.913 13.113 71.8792 13.1651C71.8455 13.2157 71.8202 13.2724 71.8033 13.3353C71.788 13.3982 71.7803 13.4595 71.7803 13.5193C71.7803 13.6067 71.8018 13.6795 71.8447 13.7378C71.8892 13.7961 71.959 13.8252 72.054 13.8252C72.1215 13.8252 72.1798 13.8091 72.2288 13.7769C72.2794 13.7432 72.3216 13.701 72.3553 13.6504C72.3891 13.5983 72.4136 13.5408 72.4289 13.4779C72.4458 13.4135 72.4542 13.3514 72.4542 13.2916C72.4542 13.2042 72.432 13.1314 72.3875 13.0731C72.3446 13.0148 72.2756 12.9857 72.1805 12.9857ZM72.0379 14.0322C71.8723 14.0322 71.7443 13.9877 71.6538 13.8988C71.5634 13.8083 71.5181 13.6795 71.5181 13.5124C71.5181 13.4143 71.5342 13.3215 71.5664 13.2341C71.5986 13.1452 71.6439 13.067 71.7021 12.9995C71.7619 12.932 71.8332 12.8784 71.916 12.8385C72.0004 12.7986 72.0939 12.7787 72.1966 12.7787C72.3622 12.7787 72.4903 12.8224 72.5807 12.9098C72.6712 12.9957 72.7164 13.1222 72.7164 13.2893C72.7164 13.3936 72.7011 13.4909 72.6704 13.5814C72.6398 13.6719 72.5945 13.7508 72.5347 13.8183C72.4765 13.8842 72.4052 13.9364 72.3208 13.9747C72.238 14.013 72.1437 14.0322 72.0379 14.0322ZM72.9321 12.8109H73.2035L73.3024 13.678H73.307L73.767 12.8109H74.043L73.3852 14H73.0931L72.9321 12.8109ZM74.3167 12.3578H74.5766L74.526 12.6062H74.2661L74.3167 12.3578ZM74.2224 12.8109H74.4846L74.2385 14H73.9763L74.2224 12.8109ZM75.6351 14H75.3844L75.4212 13.839L75.4166 13.8344C75.3645 13.9111 75.307 13.9632 75.2441 13.9908C75.1812 14.0184 75.1145 14.0322 75.044 14.0322C75.0103 14.0322 74.9673 14.0276 74.9152 14.0184C74.8631 14.0092 74.8117 13.9885 74.7611 13.9563C74.712 13.9226 74.6699 13.8735 74.6346 13.8091C74.5993 13.7447 74.5817 13.6565 74.5817 13.5446C74.5817 13.448 74.5963 13.3545 74.6254 13.264C74.6545 13.172 74.6967 13.09 74.7519 13.0179C74.8071 12.9458 74.8746 12.8883 74.9543 12.8454C75.034 12.8009 75.1253 12.7787 75.228 12.7787C75.3077 12.7787 75.3798 12.7933 75.4442 12.8224C75.5086 12.8515 75.5561 12.9021 75.5868 12.9742H75.5914L75.7225 12.3578H75.9847L75.6351 14ZM75.5224 13.2709C75.5224 13.2326 75.517 13.1958 75.5063 13.1605C75.4971 13.1252 75.4818 13.0953 75.4603 13.0708C75.4404 13.0447 75.4135 13.024 75.3798 13.0087C75.3461 12.9934 75.3062 12.9857 75.2602 12.9857C75.1866 12.9857 75.1237 13.0026 75.0716 13.0363C75.0195 13.0685 74.9765 13.1114 74.9428 13.1651C74.9091 13.2188 74.8838 13.2793 74.8669 13.3468C74.8516 13.4127 74.8439 13.4787 74.8439 13.5446C74.8439 13.6335 74.8661 13.7025 74.9106 13.7516C74.9551 13.8007 75.0233 13.8252 75.1153 13.8252C75.1828 13.8252 75.2418 13.8076 75.2924 13.7723C75.343 13.737 75.3852 13.6926 75.4189 13.6389C75.4542 13.5837 75.4802 13.5239 75.4971 13.4595C75.514 13.3936 75.5224 13.3307 75.5224 13.2709ZM76.8893 13.3008C76.8909 13.2931 76.8916 13.287 76.8916 13.2824C76.8916 13.2763 76.8916 13.2701 76.8916 13.264V13.2272C76.8916 13.1567 76.8694 13.0992 76.8249 13.0547C76.7805 13.0087 76.7191 12.9857 76.6409 12.9857C76.5428 12.9857 76.4646 13.0156 76.4063 13.0754C76.3481 13.1337 76.3059 13.2088 76.2798 13.3008H76.8893ZM77.0802 13.632C77.0388 13.7715 76.9691 13.8735 76.8709 13.9379C76.7728 14.0008 76.6517 14.0322 76.5075 14.0322C76.4324 14.0322 76.3626 14.0207 76.2982 13.9977C76.2354 13.9732 76.1809 13.9387 76.1349 13.8942C76.0889 13.8482 76.0529 13.7938 76.0268 13.7309C76.0008 13.6665 75.9877 13.5937 75.9877 13.5124C75.9877 13.4204 76.0023 13.3307 76.0314 13.2433C76.0606 13.1559 76.1027 13.0777 76.1579 13.0087C76.2147 12.9397 76.2837 12.8845 76.3649 12.8431C76.4477 12.8002 76.542 12.7787 76.6478 12.7787C76.7536 12.7787 76.8395 12.7963 76.9054 12.8316C76.9714 12.8669 77.0227 12.9113 77.0595 12.965C77.0963 13.0187 77.1209 13.0777 77.1331 13.1421C77.1469 13.2065 77.1538 13.2678 77.1538 13.3261C77.1538 13.3552 77.1523 13.3821 77.1492 13.4066C77.1462 13.4311 77.1431 13.4534 77.14 13.4733H76.2545C76.253 13.481 76.2515 13.4879 76.2499 13.494C76.2499 13.5001 76.2499 13.5063 76.2499 13.5124V13.5492C76.2499 13.632 76.2714 13.6987 76.3143 13.7493C76.3588 13.7999 76.4316 13.8252 76.5328 13.8252C76.6034 13.8252 76.6639 13.8091 76.7145 13.7769C76.7651 13.7447 76.7996 13.6964 76.818 13.632H77.0802ZM77.4613 12.8109H77.7097L77.6614 13.0432L77.666 13.0478C77.6844 13.0156 77.7066 12.9834 77.7327 12.9512C77.7603 12.919 77.7902 12.8906 77.8224 12.8661C77.8546 12.84 77.8891 12.8193 77.9259 12.804C77.9642 12.7871 78.0041 12.7787 78.0455 12.7787C78.0669 12.7787 78.0876 12.7795 78.1076 12.781C78.129 12.781 78.1505 12.7825 78.172 12.7856L78.1168 13.0363C78.1014 13.0332 78.0861 13.0309 78.0708 13.0294C78.0554 13.0279 78.0401 13.0271 78.0248 13.0271C77.9573 13.0271 77.8983 13.0394 77.8477 13.0639C77.7986 13.0869 77.7564 13.1191 77.7212 13.1605C77.6874 13.2019 77.6598 13.2494 77.6384 13.3031C77.6169 13.3568 77.6 13.4135 77.5878 13.4733L77.4774 14H77.2152L77.4613 12.8109ZM78.9082 13.1582C78.9067 13.0984 78.8837 13.0547 78.8392 13.0271C78.7963 12.9995 78.7396 12.9857 78.669 12.9857C78.643 12.9857 78.6177 12.988 78.5931 12.9926C78.5701 12.9972 78.5487 13.0056 78.5287 13.0179C78.5103 13.0286 78.495 13.044 78.4827 13.0639C78.472 13.0823 78.4666 13.1061 78.4666 13.1352C78.4666 13.1628 78.4766 13.185 78.4965 13.2019C78.518 13.2188 78.5456 13.2341 78.5793 13.2479C78.6131 13.2602 78.6506 13.2724 78.692 13.2847C78.7334 13.2954 78.7748 13.3085 78.8162 13.3238C78.8515 13.3376 78.886 13.3529 78.9197 13.3698C78.9535 13.3867 78.9826 13.4074 79.0071 13.4319C79.0332 13.4564 79.0539 13.4856 79.0692 13.5193C79.0846 13.553 79.0922 13.5937 79.0922 13.6412C79.0922 13.7102 79.0769 13.7692 79.0462 13.8183C79.0156 13.8674 78.9757 13.908 78.9266 13.9402C78.8776 13.9724 78.8208 13.9954 78.7564 14.0092C78.6936 14.0245 78.6299 14.0322 78.5655 14.0322C78.4965 14.0322 78.4321 14.0253 78.3723 14.0115C78.3125 13.9992 78.2604 13.9778 78.2159 13.9471C78.1715 13.9149 78.1362 13.8727 78.1101 13.8206C78.0841 13.7669 78.0703 13.6995 78.0687 13.6182H78.3171C78.3141 13.6933 78.3378 13.747 78.3884 13.7792C78.439 13.8099 78.5027 13.8252 78.5793 13.8252C78.6069 13.8252 78.6353 13.8229 78.6644 13.8183C78.6936 13.8122 78.7204 13.803 78.7449 13.7907C78.7695 13.7784 78.7894 13.7616 78.8047 13.7401C78.8216 13.7171 78.83 13.6887 78.83 13.655C78.83 13.6243 78.8185 13.599 78.7955 13.5791C78.7741 13.5592 78.7457 13.5423 78.7104 13.5285C78.6767 13.5132 78.6376 13.4994 78.5931 13.4871C78.5502 13.4748 78.508 13.461 78.4666 13.4457C78.4314 13.4334 78.3976 13.4189 78.3654 13.402C78.3348 13.3851 78.3072 13.3652 78.2826 13.3422C78.2581 13.3177 78.2389 13.2893 78.2251 13.2571C78.2113 13.2249 78.2044 13.1866 78.2044 13.1421C78.2044 13.0777 78.2182 13.0225 78.2458 12.9765C78.275 12.9305 78.3125 12.8929 78.3585 12.8638C78.4045 12.8347 78.4567 12.8132 78.5149 12.7994C78.5732 12.7856 78.633 12.7787 78.6943 12.7787C78.7587 12.7787 78.8193 12.7848 78.876 12.7971C78.9328 12.8078 78.9818 12.8278 79.0232 12.8569C79.0662 12.886 79.0991 12.9251 79.1221 12.9742C79.1467 13.0233 79.1582 13.0846 79.1566 13.1582H78.9082Z" fill="white"/><path d="M45.3696 23.69C45.3696 22.92 45.5324 22.3304 45.858 21.9212C46.1836 21.5076 46.6478 21.3008 47.2506 21.3008C47.5762 21.3008 47.8578 21.358 48.0954 21.4724C48.333 21.5868 48.5288 21.7496 48.6828 21.9608C48.8412 22.1676 48.9578 22.4184 49.0326 22.7132C49.1074 23.0036 49.1448 23.3292 49.1448 23.69C49.1448 24.46 48.9798 25.0518 48.6498 25.4654C48.3242 25.8746 47.8578 26.0792 47.2506 26.0792C46.9294 26.0792 46.65 26.022 46.4124 25.9076C46.1792 25.7932 45.9834 25.6326 45.825 25.4258C45.671 25.2146 45.5566 24.9638 45.4818 24.6734C45.407 24.3786 45.3696 24.0508 45.3696 23.69ZM45.9504 23.69C45.9504 23.9452 45.9746 24.1872 46.023 24.416C46.0758 24.6448 46.155 24.8472 46.2606 25.0232C46.3662 25.1948 46.5004 25.3334 46.6632 25.439C46.8304 25.5402 47.0262 25.5908 47.2506 25.5908C47.6598 25.5908 47.981 25.4368 48.2142 25.1288C48.4474 24.8164 48.564 24.3368 48.564 23.69C48.564 23.4392 48.5376 23.1994 48.4848 22.9706C48.4364 22.7374 48.3572 22.535 48.2472 22.3634C48.1416 22.1874 48.0052 22.0488 47.838 21.9476C47.6752 21.842 47.4794 21.7892 47.2506 21.7892C46.8458 21.7892 46.5268 21.9454 46.2936 22.2578C46.0648 22.5658 45.9504 23.0432 45.9504 23.69ZM52.1385 26V24.119C52.1385 23.7758 52.0879 23.5184 51.9867 23.3468C51.8899 23.1708 51.7095 23.0828 51.4455 23.0828C51.2123 23.0828 51.0187 23.1466 50.8647 23.2742C50.7151 23.3974 50.6095 23.5536 50.5479 23.7428V26H50.0199V22.7H50.3895L50.4885 23.1026H50.5149C50.6205 22.9618 50.7613 22.8474 50.9373 22.7594C51.1177 22.667 51.3311 22.6208 51.5775 22.6208C51.7579 22.6208 51.9163 22.6428 52.0527 22.6868C52.1891 22.7264 52.3013 22.799 52.3893 22.9046C52.4817 23.0102 52.5499 23.1532 52.5939 23.3336C52.6423 23.5096 52.6665 23.734 52.6665 24.0068V26H52.1385ZM54.9533 22.7H55.4681V22.0466L55.9961 21.8948V22.7H56.8937V23.162H55.9961V24.9902C55.9961 25.219 56.0247 25.3818 56.0819 25.4786C56.1391 25.571 56.2359 25.6172 56.3723 25.6172C56.4867 25.6172 56.5835 25.6062 56.6627 25.5842C56.7419 25.5578 56.8299 25.5248 56.9267 25.4852L57.0455 25.8878C56.9267 25.945 56.7969 25.9912 56.6561 26.0264C56.5153 26.0616 56.3635 26.0792 56.2007 26.0792C55.9323 26.0792 55.7431 26.0044 55.6331 25.8548C55.5231 25.7008 55.4681 25.4456 55.4681 25.0892V23.162H54.9533V22.7ZM59.744 26V24.119C59.744 23.9474 59.733 23.7978 59.711 23.6702C59.6934 23.5382 59.6582 23.4304 59.6054 23.3468C59.5526 23.2588 59.48 23.1928 59.3876 23.1488C59.2996 23.1048 59.183 23.0828 59.0378 23.0828C58.831 23.0828 58.644 23.151 58.4768 23.2874C58.3096 23.4194 58.2018 23.591 58.1534 23.8022V26H57.6254V21.38H58.1534V23.0696H58.1798C58.2942 22.9332 58.4306 22.8254 58.589 22.7462C58.7518 22.6626 58.952 22.6208 59.1896 22.6208C59.3744 22.6208 59.535 22.6428 59.6714 22.6868C59.8078 22.7264 59.92 22.799 60.008 22.9046C60.1004 23.0102 60.1664 23.1532 60.206 23.3336C60.25 23.5096 60.272 23.734 60.272 24.0068V26H59.744ZM63.6438 25.736C63.5118 25.8416 63.3446 25.9252 63.1422 25.9868C62.9442 26.0484 62.733 26.0792 62.5086 26.0792C62.2578 26.0792 62.04 26.0396 61.8552 25.9604C61.6704 25.8768 61.5186 25.7602 61.3998 25.6106C61.281 25.4566 61.193 25.274 61.1358 25.0628C61.0786 24.8516 61.05 24.614 61.05 24.35C61.05 23.7868 61.1754 23.3578 61.4262 23.063C61.677 22.7682 62.0356 22.6208 62.502 22.6208C62.6516 22.6208 62.8012 22.6384 62.9508 22.6736C63.1004 22.7044 63.2346 22.766 63.3534 22.8584C63.4722 22.9508 63.569 23.0828 63.6438 23.2544C63.7186 23.4216 63.756 23.6438 63.756 23.921C63.756 24.0662 63.7428 24.2268 63.7164 24.4028H61.5978C61.5978 24.5964 61.6176 24.768 61.6572 24.9176C61.6968 25.0672 61.7584 25.1948 61.842 25.3004C61.9256 25.4016 62.0334 25.4808 62.1654 25.538C62.3018 25.5908 62.4668 25.6172 62.6604 25.6172C62.81 25.6172 62.9596 25.5908 63.1092 25.538C63.2588 25.4852 63.371 25.4236 63.4458 25.3532L63.6438 25.736ZM62.5086 23.0828C62.249 23.0828 62.04 23.151 61.8816 23.2874C61.7276 23.4238 61.6352 23.657 61.6044 23.987H63.2412C63.2412 23.6526 63.1774 23.4194 63.0498 23.2874C62.9222 23.151 62.7418 23.0828 62.5086 23.0828Z" fill="#F1F5F9"/><path d="M47.9504 27.55V40H46.0618V27.55H47.9504ZM51.9707 31.2299V40H50.0821V31.2299H51.9707ZM49.9849 28.936C49.9849 28.6334 50.0767 28.3822 50.2604 28.1822C50.4442 27.9769 50.7008 27.8742 51.0305 27.8742C51.3601 27.8742 51.6168 27.9769 51.8005 28.1822C51.9842 28.3822 52.0761 28.6334 52.0761 28.936C52.0761 29.2278 51.9842 29.4737 51.8005 29.6736C51.6168 29.8736 51.3601 29.9735 51.0305 29.9735C50.7008 29.9735 50.4442 29.8736 50.2604 29.6736C50.0767 29.4737 49.9849 29.2278 49.9849 28.936ZM58.0498 37.6899C58.0498 37.5062 57.9958 37.3441 57.8877 37.2036C57.785 37.0577 57.6175 36.9145 57.3852 36.774C57.1528 36.6335 56.8421 36.4822 56.453 36.3201C56.0478 36.1526 55.6884 35.9851 55.375 35.8176C55.0616 35.6501 54.7968 35.4663 54.5807 35.2664C54.3645 35.0611 54.1997 34.826 54.0862 34.5612C53.9728 34.2965 53.916 33.9884 53.916 33.6372C53.916 33.2752 53.9836 32.9401 54.1187 32.6321C54.2537 32.3241 54.4483 32.0539 54.7022 31.8216C54.9562 31.5838 55.2615 31.4001 55.6182 31.2704C55.9748 31.1353 56.3774 31.0678 56.8259 31.0678C57.4581 31.0678 57.9985 31.184 58.447 31.4163C58.9009 31.6433 59.2467 31.9621 59.4845 32.3728C59.7276 32.778 59.8492 33.2454 59.8492 33.775H57.9606C57.9606 33.5535 57.9201 33.3535 57.8391 33.1752C57.758 32.9915 57.6337 32.8456 57.4662 32.7375C57.2987 32.624 57.0853 32.5673 56.8259 32.5673C56.5881 32.5673 56.3882 32.6132 56.2261 32.7051C56.0694 32.7915 55.9505 32.9104 55.8694 33.0617C55.7938 33.2076 55.756 33.3724 55.756 33.5562C55.756 33.6912 55.7803 33.8101 55.8289 33.9128C55.8775 34.0155 55.9586 34.1154 56.0721 34.2127C56.1855 34.3046 56.3368 34.3991 56.526 34.4964C56.7205 34.5937 56.9664 34.7044 57.2636 34.8287C57.8526 35.0557 58.3416 35.2907 58.7307 35.5339C59.1197 35.7771 59.4115 36.0607 59.6061 36.385C59.8006 36.7092 59.8979 37.1118 59.8979 37.5927C59.8979 37.9817 59.8249 38.333 59.679 38.6464C59.5385 38.9598 59.3332 39.23 59.063 39.4569C58.7982 39.6839 58.4767 39.8595 58.0984 39.9838C57.7256 40.1027 57.3095 40.1621 56.8502 40.1621C56.1639 40.1621 55.583 40.027 55.1075 39.7568C54.6374 39.4812 54.2808 39.1273 54.0376 38.695C53.7944 38.2627 53.6729 37.8061 53.6729 37.3252H55.4966C55.5128 37.671 55.5857 37.9412 55.7154 38.1357C55.8505 38.3303 56.0207 38.4654 56.2261 38.541C56.4314 38.6113 56.6449 38.6464 56.8664 38.6464C57.1312 38.6464 57.35 38.6113 57.5229 38.541C57.6959 38.4654 57.8256 38.3546 57.912 38.2087C58.0039 38.0628 58.0498 37.8899 58.0498 37.6899ZM65.0854 31.2299V32.6889H60.7813V31.2299H65.0854ZM61.9566 29.0819H63.8371V37.5521C63.8371 37.8223 63.8668 38.0277 63.9263 38.1682C63.9857 38.3087 64.0695 38.4032 64.1775 38.4519C64.2856 38.5005 64.4126 38.5248 64.5585 38.5248C64.6666 38.5248 64.7719 38.5167 64.8746 38.5005C64.9827 38.4789 65.061 38.46 65.1097 38.4437V39.9676C64.9692 40.0216 64.8071 40.0675 64.6233 40.1054C64.4396 40.1432 64.2181 40.1621 63.9587 40.1621C63.575 40.1621 63.2319 40.0838 62.9293 39.9271C62.6267 39.7649 62.3889 39.5029 62.216 39.1408C62.0431 38.7734 61.9566 38.287 61.9566 37.6818V29.0819Z" fill="#F1F5F9"/><path d="M46.384 49C46.384 48.7312 46.4064 48.4848 46.4512 48.2608C46.496 48.0304 46.5728 47.8128 46.6816 47.608C46.7968 47.4032 46.9536 47.2112 47.152 47.032C47.3568 46.8464 47.616 46.6704 47.9296 46.504C48.1536 46.376 48.3648 46.264 48.5632 46.168C48.7616 46.0656 48.9376 45.9664 49.0912 45.8704C49.2448 45.768 49.3632 45.6592 49.4464 45.544C49.536 45.4288 49.5808 45.2976 49.5808 45.1504C49.5808 45.0096 49.5424 44.8784 49.4656 44.7568C49.3888 44.6352 49.2736 44.5392 49.12 44.4688C48.9664 44.392 48.7808 44.3536 48.5632 44.3536C48.3904 44.3536 48.2304 44.376 48.0832 44.4208C47.9424 44.4656 47.8112 44.5264 47.6896 44.6032C47.5744 44.6736 47.4688 44.7536 47.3728 44.8432C47.2768 44.9264 47.1936 45.0096 47.1232 45.0928L46.4608 44.3344C46.5248 44.2576 46.624 44.1712 46.7584 44.0752C46.8992 43.9728 47.0656 43.8736 47.2576 43.7776C47.456 43.6752 47.68 43.592 47.9296 43.528C48.1792 43.4576 48.4512 43.4224 48.7456 43.4224C49.1616 43.4224 49.5168 43.4928 49.8112 43.6336C50.1056 43.768 50.3296 43.9568 50.4832 44.2C50.6432 44.4368 50.7232 44.7056 50.7232 45.0064C50.7232 45.2432 50.6752 45.4512 50.5792 45.6304C50.4896 45.8096 50.3712 45.9696 50.224 46.1104C50.0768 46.2448 49.92 46.3632 49.7536 46.4656C49.5936 46.5616 49.4432 46.648 49.3024 46.7248C49.0528 46.8464 48.8352 46.9584 48.6496 47.0608C48.4704 47.1632 48.3168 47.2656 48.1888 47.368C48.0608 47.464 47.9552 47.5664 47.872 47.6752C47.7888 47.7776 47.7184 47.9024 47.6608 48.0496H50.8288V49H46.384ZM57.6736 46.1872C57.6736 46.7504 57.5648 47.2528 57.3472 47.6944C57.136 48.1296 56.8448 48.472 56.4736 48.7216C56.1088 48.9712 55.6896 49.096 55.216 49.096C54.7488 49.096 54.3296 48.9712 53.9584 48.7216C53.5872 48.472 53.2928 48.1296 53.0752 47.6944C52.864 47.2528 52.7584 46.7504 52.7584 46.1872C52.7584 45.624 52.864 45.1248 53.0752 44.6896C53.2928 44.248 53.5872 43.9024 53.9584 43.6528C54.3296 43.3968 54.7488 43.2688 55.216 43.2688C55.6896 43.2688 56.1088 43.3968 56.4736 43.6528C56.8448 43.9024 57.136 44.248 57.3472 44.6896C57.5648 45.1248 57.6736 45.624 57.6736 46.1872ZM56.5984 46.1872C56.5984 45.8032 56.5408 45.4672 56.4256 45.1792C56.3104 44.8848 56.1472 44.6576 55.936 44.4976C55.7248 44.3312 55.4848 44.248 55.216 44.248C54.9408 44.248 54.6976 44.3312 54.4864 44.4976C54.2752 44.6576 54.1088 44.8848 53.9872 45.1792C53.872 45.4672 53.8144 45.8032 53.8144 46.1872C53.8144 46.5712 53.872 46.9072 53.9872 47.1952C54.1088 47.4832 54.2752 47.7104 54.4864 47.8768C54.6976 48.0368 54.9408 48.1168 55.216 48.1168C55.4848 48.1168 55.7216 48.0368 55.9264 47.8768C56.1376 47.7104 56.3008 47.4832 56.416 47.1952C56.5376 46.9072 56.5984 46.5712 56.5984 46.1872ZM59.5496 49C59.5496 48.7312 59.572 48.4848 59.6168 48.2608C59.6616 48.0304 59.7384 47.8128 59.8472 47.608C59.9624 47.4032 60.1192 47.2112 60.3176 47.032C60.5224 46.8464 60.7816 46.6704 61.0952 46.504C61.3192 46.376 61.5304 46.264 61.7288 46.168C61.9272 46.0656 62.1032 45.9664 62.2568 45.8704C62.4104 45.768 62.5288 45.6592 62.612 45.544C62.7016 45.4288 62.7464 45.2976 62.7464 45.1504C62.7464 45.0096 62.708 44.8784 62.6312 44.7568C62.5544 44.6352 62.4392 44.5392 62.2856 44.4688C62.132 44.392 61.9464 44.3536 61.7288 44.3536C61.556 44.3536 61.396 44.376 61.2488 44.4208C61.108 44.4656 60.9768 44.5264 60.8552 44.6032C60.74 44.6736 60.6344 44.7536 60.5384 44.8432C60.4424 44.9264 60.3592 45.0096 60.2888 45.0928L59.6264 44.3344C59.6904 44.2576 59.7896 44.1712 59.924 44.0752C60.0648 43.9728 60.2312 43.8736 60.4232 43.7776C60.6216 43.6752 60.8456 43.592 61.0952 43.528C61.3448 43.4576 61.6168 43.4224 61.9112 43.4224C62.3272 43.4224 62.6824 43.4928 62.9768 43.6336C63.2712 43.768 63.4952 43.9568 63.6488 44.2C63.8088 44.4368 63.8888 44.7056 63.8888 45.0064C63.8888 45.2432 63.8408 45.4512 63.7448 45.6304C63.6552 45.8096 63.5368 45.9696 63.3896 46.1104C63.2424 46.2448 63.0856 46.3632 62.9192 46.4656C62.7592 46.5616 62.6088 46.648 62.468 46.7248C62.2184 46.8464 62.0008 46.9584 61.8152 47.0608C61.636 47.1632 61.4824 47.2656 61.3544 47.368C61.2264 47.464 61.1208 47.5664 61.0376 47.6752C60.9544 47.7776 60.884 47.9024 60.8264 48.0496H63.9944V49H59.5496ZM69.7256 48.0496V49H66.0584V48.0496H67.4216V44.6992C67.364 44.776 67.2744 44.856 67.1528 44.9392C67.0312 45.0224 66.8936 45.1024 66.74 45.1792C66.5928 45.2496 66.4424 45.3072 66.2888 45.352C66.1352 45.3968 65.9944 45.4192 65.8664 45.4192V44.4304C65.9944 44.4304 66.1416 44.392 66.308 44.3152C66.4744 44.2384 66.6376 44.1488 66.7976 44.0464C66.964 43.9376 67.1048 43.8352 67.22 43.7392C67.3352 43.6368 67.4024 43.5632 67.4216 43.5184H68.5064V48.0496H69.7256Z" fill="#F1F5F9"/><path d="M70.0395 21.0891L69.7277 34.4021H67.1431L66.8313 21.0891H70.0395ZM66.7794 38.4804C66.7794 38.0041 66.9266 37.6015 67.221 37.2725C67.5241 36.9348 67.9354 36.7659 68.4549 36.7659C68.9831 36.7659 69.3944 36.9348 69.6888 37.2725C69.9832 37.6015 70.1304 38.0041 70.1304 38.4804C70.1304 38.9566 69.9832 39.3636 69.6888 39.7013C69.3944 40.0303 68.9831 40.1948 68.4549 40.1948C67.9354 40.1948 67.5241 40.0303 67.221 39.7013C66.9266 39.3636 66.7794 38.9566 66.7794 38.4804Z" fill="#F1F5F9"/><path d="M36.3835 43.533L34.8274 44.0577L34.9428 44.3998L35.5857 44.1831L35.8054 44.8347L36.0713 44.7451L35.8516 44.0934L36.2112 43.9722L36.4647 44.7241L36.7524 44.6271L36.3835 43.533Z" fill="white"/><path d="M36.1513 45.7778C36.1949 45.7587 36.2395 45.7442 36.2854 45.7341C36.3312 45.7241 36.3746 45.7218 36.4155 45.7273C36.457 45.7342 36.495 45.7502 36.5294 45.7753C36.5653 45.7998 36.5943 45.8373 36.6164 45.8879C36.6386 45.9384 36.6465 45.9852 36.6402 46.0281C36.6359 46.0718 36.622 46.1106 36.5983 46.1444C36.5752 46.1796 36.5445 46.2107 36.506 46.2376C36.4676 46.2645 36.4266 46.2875 36.3831 46.3065C36.3395 46.3256 36.2948 46.3402 36.249 46.3502C36.2046 46.3596 36.1609 46.3612 36.118 46.3549C36.0771 46.3494 36.0391 46.3334 36.004 46.3069C35.9696 46.2818 35.9413 46.244 35.9191 46.1935C35.897 46.1429 35.8884 46.0965 35.8932 46.0541C35.8981 46.0118 35.9121 45.973 35.9352 45.9378C35.9603 45.9034 35.9913 45.873 36.0284 45.8468C36.0668 45.8199 36.1078 45.7969 36.1513 45.7778ZM36.0202 45.4787C35.9332 45.5168 35.8604 45.5646 35.8018 45.6221C35.7433 45.6796 35.6995 45.7439 35.6705 45.8152C35.6429 45.8859 35.6308 45.9615 35.6343 46.0421C35.6378 46.1226 35.6583 46.2057 35.6959 46.2913C35.7334 46.377 35.7806 46.4484 35.8374 46.5055C35.8949 46.564 35.959 46.6071 36.0297 46.6347C36.1018 46.6617 36.1788 46.6731 36.2607 46.6691C36.3426 46.665 36.4271 46.6438 36.5142 46.6057C36.6012 46.5675 36.674 46.5197 36.7326 46.4622C36.7925 46.4042 36.8363 46.3398 36.8639 46.2691C36.8929 46.1978 36.9053 46.1212 36.9013 46.0393C36.8992 45.9581 36.8794 45.8747 36.8418 45.7891C36.8043 45.7034 36.7564 45.6323 36.6981 45.5758C36.6413 45.5187 36.5768 45.4766 36.5047 45.4496C36.434 45.422 36.357 45.4106 36.2737 45.4153C36.1918 45.4194 36.1073 45.4405 36.0202 45.4787Z" fill="white"/><path d="M37.3515 46.8787L36.2942 47.4229L36.4436 47.7133L36.9201 47.4681C36.9679 47.4435 37.0146 47.4255 37.0604 47.414C37.1062 47.4025 37.1498 47.3999 37.191 47.4063C37.2343 47.4133 37.2742 47.4307 37.3109 47.4584C37.3476 47.486 37.3796 47.5265 37.407 47.5796C37.4161 47.5974 37.4242 47.6165 37.4313 47.637C37.4398 47.6568 37.4461 47.6742 37.4504 47.6892L37.7204 47.5503C37.7153 47.5236 37.7078 47.5007 37.698 47.4816C37.679 47.4448 37.6553 47.4122 37.6269 47.3837C37.5984 47.3552 37.5663 47.3312 37.5304 47.3118C37.4958 47.2916 37.4583 47.2773 37.4177 47.2689C37.3785 47.2597 37.3391 47.2568 37.2993 47.26L37.2972 47.2559L37.4936 47.1548L37.3515 46.8787Z" fill="white"/><path d="M38.1425 49.4662C38.1005 49.4915 38.0574 49.5121 38.0132 49.528C37.9691 49.5438 37.9257 49.5521 37.8831 49.5527C37.8418 49.5525 37.8025 49.5422 37.7651 49.5217C37.7285 49.5026 37.6964 49.47 37.6687 49.4241C37.6426 49.3807 37.6292 49.3378 37.6286 49.2952C37.6301 49.2531 37.6397 49.2124 37.6572 49.1732C37.6769 49.1345 37.7036 49.0987 37.7375 49.0658C37.7713 49.0329 37.808 49.0045 37.8474 48.9808C37.8894 48.9555 37.9318 48.9353 37.9747 48.9202C38.0196 48.9057 38.0627 48.8985 38.104 48.8987C38.1461 48.9002 38.1858 48.9112 38.2232 48.9316C38.2606 48.952 38.2931 48.9852 38.3208 49.0312C38.3485 49.0772 38.3622 49.1208 38.3621 49.1621C38.3619 49.2034 38.3522 49.2423 38.3331 49.2789C38.3161 49.316 38.2902 49.3504 38.2556 49.382C38.2222 49.4128 38.1845 49.4409 38.1425 49.4662ZM37.7627 49.7004L37.6326 49.7787L37.7929 50.0447L39.1995 49.1973L39.031 48.9175L38.5188 49.2261L38.5164 49.2222C38.5473 49.1606 38.5586 49.0947 38.5504 49.0245C38.5442 48.9548 38.5229 48.8898 38.4865 48.8294C38.4414 48.7545 38.3867 48.6979 38.3225 48.6596C38.2596 48.6206 38.1924 48.5966 38.1208 48.5878C38.0501 48.5803 37.9766 48.5861 37.9004 48.6052C37.8262 48.6248 37.755 48.6551 37.6867 48.6963C37.6158 48.739 37.553 48.7893 37.4984 48.8473C37.4446 48.9066 37.4032 48.97 37.3741 49.0376C37.3472 49.1058 37.336 49.1779 37.3406 49.2539C37.3465 49.3291 37.3724 49.4047 37.4183 49.4809C37.4587 49.5479 37.5065 49.6005 37.5618 49.6388C37.6192 49.6777 37.6854 49.6969 37.7603 49.6965L37.7627 49.7004Z" fill="white"/><path d="M39.3024 50.937L38.9981 50.5015C39.0178 50.4896 39.0418 50.4784 39.0701 50.468C39.0992 50.4589 39.1302 50.455 39.163 50.4564C39.1967 50.4591 39.2301 50.4694 39.2632 50.4874C39.2985 50.5058 39.3311 50.5363 39.3609 50.5791C39.4066 50.6444 39.4228 50.7051 39.4096 50.7611C39.3972 50.8184 39.3615 50.877 39.3024 50.937ZM38.8284 50.62L39.3197 51.3233C39.3987 51.2756 39.4665 51.2189 39.5234 51.153C39.5802 51.0871 39.6216 51.0151 39.6476 50.9372C39.6744 50.8604 39.682 50.7803 39.6704 50.6967C39.66 50.6123 39.6259 50.5286 39.5679 50.4457C39.5161 50.3715 39.4555 50.3129 39.3861 50.2697C39.3175 50.2278 39.2446 50.2011 39.1674 50.1896C39.0914 50.1772 39.0136 50.1811 38.9341 50.2011C38.8546 50.2211 38.7784 50.2566 38.7054 50.3075C38.63 50.3602 38.5688 50.4198 38.5218 50.4864C38.4756 50.5542 38.4448 50.6252 38.4294 50.6996C38.414 50.7739 38.4153 50.8507 38.4332 50.9298C38.4523 51.0081 38.4887 51.0856 38.5423 51.1623C38.6195 51.2729 38.7105 51.3496 38.8153 51.3924C38.92 51.4352 39.044 51.4346 39.1872 51.3906L39.0226 51.155C38.9862 51.1672 38.9406 51.1636 38.8858 51.1439C38.8321 51.1234 38.7865 51.0861 38.7487 51.0321C38.696 50.9566 38.6751 50.8852 38.686 50.8178C38.6968 50.7503 38.7443 50.6844 38.8284 50.62Z" fill="white"/><path d="M40.563 51.7744L40.8412 51.5515L40.637 51.2966L40.3588 51.5195L40.2351 51.3651L40.0646 51.5017L40.1882 51.6561L39.6407 52.0947C39.5941 52.1321 39.5626 52.1701 39.5463 52.2086C39.5301 52.2472 39.5247 52.2859 39.5302 52.3246C39.5367 52.3646 39.5515 52.4039 39.5745 52.4424C39.5973 52.4831 39.6245 52.5232 39.6561 52.5627C39.6762 52.5878 39.6975 52.6131 39.7197 52.6385C39.742 52.6638 39.7636 52.6859 39.7844 52.7045L39.9819 52.5463C39.9699 52.5363 39.9581 52.5252 39.9463 52.513C39.9346 52.5008 39.9229 52.4875 39.9114 52.4731C39.8769 52.43 39.8611 52.3956 39.864 52.3697C39.8668 52.3438 39.8898 52.3136 39.9329 52.2791L40.3924 51.911L40.542 52.0977L40.7125 51.9611L40.563 51.7744Z" fill="white"/><path d="M40.5258 52.298C40.5868 52.2513 40.6475 52.2242 40.7078 52.2167C40.7681 52.2091 40.827 52.215 40.8843 52.2344C40.9415 52.2538 40.9959 52.2838 41.0473 52.3245C41.1008 52.3654 41.1492 52.4108 41.1923 52.4606C41.2314 52.5059 41.2675 52.5547 41.3007 52.6071C41.335 52.6586 41.3594 52.7114 41.3739 52.7657C41.3884 52.8201 41.3894 52.874 41.3768 52.9274C41.3654 52.9798 41.3324 53.0296 41.2779 53.0767L40.8098 53.4813C40.7692 53.5164 40.7324 53.5523 40.6993 53.5891C40.6661 53.6258 40.6453 53.658 40.6368 53.6856L40.4202 53.435C40.4301 53.4184 40.4405 53.4023 40.4514 53.3868C40.4645 53.3714 40.4781 53.3566 40.4922 53.3424C40.4175 53.3381 40.349 53.3162 40.2866 53.2769C40.2242 53.2376 40.169 53.1901 40.1208 53.1344C40.0837 53.0915 40.0544 53.047 40.0327 53.0008C40.0111 52.9547 39.9993 52.9081 39.9972 52.8612C39.9952 52.8144 40.004 52.7683 40.0236 52.7229C40.0442 52.6788 40.0777 52.6366 40.1241 52.5965C40.1752 52.5524 40.2244 52.525 40.272 52.5143C40.3216 52.5038 40.3684 52.504 40.4122 52.5148C40.457 52.5267 40.4995 52.5467 40.5399 52.5746C40.5824 52.6027 40.6226 52.6328 40.6605 52.6649C40.6984 52.697 40.7346 52.7296 40.7692 52.7625C40.8037 52.7955 40.8365 52.8229 40.8676 52.8447C40.8986 52.8665 40.9275 52.88 40.9543 52.8852C40.9823 52.8894 41.0085 52.8799 41.033 52.8567C41.0597 52.8337 41.0766 52.811 41.0836 52.7887C41.0929 52.7665 41.095 52.7444 41.0901 52.7223C41.0873 52.7003 41.0786 52.6785 41.0639 52.6568C41.0513 52.6352 41.0355 52.6134 41.0165 52.5913C40.9743 52.5426 40.9308 52.5134 40.8859 52.5036C40.8409 52.4938 40.7921 52.5076 40.7393 52.5451L40.5258 52.298ZM40.8364 53.0267C40.8181 53.0243 40.799 53.0174 40.7792 53.0062C40.7615 52.9951 40.7429 52.9818 40.7234 52.9663C40.7049 52.9519 40.6859 52.9358 40.6665 52.9181C40.6472 52.9004 40.6272 52.8832 40.6067 52.8665C40.5872 52.8509 40.5665 52.8364 40.5447 52.8228C40.5238 52.8104 40.5022 52.8018 40.4797 52.7969C40.4594 52.7921 40.4382 52.7922 40.4161 52.7971C40.394 52.8021 40.3713 52.8145 40.3481 52.8346C40.3261 52.8537 40.311 52.8738 40.303 52.8949C40.2949 52.9161 40.2923 52.9376 40.295 52.9596C40.2989 52.9805 40.3072 53.0018 40.3197 53.0233C40.3323 53.0449 40.3471 53.0655 40.3641 53.0853C40.4062 53.134 40.4469 53.1647 40.4863 53.1773C40.5256 53.1899 40.5617 53.1931 40.5948 53.1868C40.629 53.1795 40.6588 53.167 40.684 53.1493C40.7102 53.1327 40.7302 53.1184 40.7442 53.1064L40.8364 53.0267Z" fill="white"/><path d="M42.4773 53.5635L42.6672 53.3728L42.4358 53.1423L42.2459 53.333L42.4773 53.5635ZM42.116 53.4634L41.2769 54.3059L41.5084 54.5364L42.3475 53.6938L42.116 53.4634Z" fill="white"/><path d="M42.9799 53.6708L41.8645 54.8761L42.1042 55.0979L43.2196 53.8927L42.9799 53.6708Z" fill="white"/><path d="M43.0453 55.3956L42.8079 55.1954C42.7588 55.2584 42.7293 55.3207 42.7194 55.3825C42.7116 55.4441 42.7166 55.5035 42.7345 55.5608C42.7537 55.619 42.784 55.6746 42.8255 55.7277C42.867 55.7807 42.9141 55.8295 42.9669 55.874C43.0185 55.9174 43.0733 55.9547 43.1315 55.9856C43.1898 56.0187 43.2487 56.0393 43.3081 56.0473C43.3676 56.0553 43.4258 56.0492 43.4828 56.0291C43.5421 56.0088 43.5969 55.9688 43.6473 55.909C43.6828 55.8668 43.7043 55.8247 43.7116 55.7827C43.7199 55.7396 43.7185 55.6973 43.7073 55.6558C43.6971 55.6131 43.6794 55.5711 43.6541 55.5298C43.63 55.4894 43.6032 55.4498 43.5738 55.4109C43.5456 55.3731 43.5174 55.3363 43.4893 55.3006C43.4613 55.2649 43.4372 55.2316 43.4171 55.2006C43.3993 55.1695 43.388 55.14 43.3835 55.1121C43.3789 55.0842 43.386 55.0591 43.4048 55.0368C43.4206 55.0181 43.4377 55.0074 43.456 55.0047C43.4752 55.0009 43.4938 55.0015 43.5116 55.0065C43.5306 55.0125 43.5488 55.0218 43.5662 55.0345C43.5846 55.046 43.6008 55.0577 43.6149 55.0695C43.6595 55.1071 43.6907 55.1485 43.7087 55.1938C43.7277 55.2378 43.7187 55.2854 43.6817 55.3364L43.9191 55.5365C43.9619 55.4763 43.9863 55.4177 43.9923 55.3606C44.0004 55.3033 43.9957 55.2482 43.9782 55.1953C43.9606 55.1424 43.9323 55.0915 43.8933 55.0425C43.8555 54.9946 43.812 54.9499 43.7628 54.9084C43.7135 54.8669 43.6615 54.8311 43.6067 54.8009C43.5529 54.7696 43.4978 54.7493 43.4415 54.7399C43.3862 54.7294 43.3311 54.733 43.276 54.7507C43.2221 54.7695 43.1704 54.8082 43.121 54.8668C43.0874 54.9066 43.067 54.9476 43.0597 54.9895C43.0533 55.0303 43.0558 55.0715 43.0669 55.113C43.079 55.1533 43.0972 55.1936 43.1213 55.234C43.1476 55.2742 43.1754 55.3137 43.2048 55.3526C43.2781 55.4464 43.3315 55.5235 43.3649 55.5838C43.3995 55.645 43.401 55.6944 43.3694 55.7319C43.3506 55.7542 43.3295 55.7685 43.3061 55.7749C43.2837 55.78 43.2603 55.7804 43.236 55.7759C43.2139 55.7713 43.1908 55.7629 43.167 55.7508C43.1452 55.7385 43.1256 55.725 43.108 55.7101C43.0834 55.6894 43.0618 55.6662 43.0433 55.6406C43.026 55.6159 43.0135 55.5903 43.0058 55.5638C42.999 55.5361 42.9977 55.5079 43.0018 55.4792C43.0081 55.4504 43.0226 55.4225 43.0453 55.3956Z" fill="white"/><path d="M44.3566 56.4408L44.1514 56.7296L44.2864 56.8255C44.2735 56.8463 44.2572 56.8639 44.2377 56.8783C44.2172 56.8938 44.1954 56.9047 44.1722 56.9108C44.1482 56.9181 44.1234 56.9212 44.0979 56.9201C44.0737 56.9198 44.0509 56.9148 44.0294 56.9053L43.9335 57.0403C43.978 57.0624 44.0239 57.0772 44.0713 57.0846C44.1191 57.0941 44.1655 57.095 44.2104 57.0874C44.2553 57.0798 44.2981 57.0632 44.3389 57.0376C44.38 57.0142 44.4156 56.9812 44.4458 56.9387L44.6509 56.6499L44.3566 56.4408Z" fill="white"/><path d="M46.137 57.5413L45.8681 57.3861C45.8309 57.4567 45.8129 57.5233 45.8139 57.5858C45.8171 57.6478 45.8325 57.7054 45.8602 57.7586C45.8893 57.8126 45.9289 57.862 45.9791 57.9069C46.0293 57.9519 46.0843 57.9916 46.144 58.0261C46.2024 58.0598 46.263 58.0868 46.3257 58.107C46.3889 58.1294 46.4505 58.1393 46.5104 58.1367C46.5703 58.1341 46.6266 58.1179 46.6792 58.0881C46.7339 58.0577 46.7808 58.0086 46.8199 57.9409C46.8475 57.8931 46.8612 57.8479 46.8611 57.8053C46.8616 57.7614 46.8528 57.72 46.8345 57.6811C46.817 57.6409 46.7922 57.6026 46.76 57.5664C46.7291 57.5309 46.6958 57.4966 46.66 57.4635C46.6256 57.4312 46.5914 57.4 46.5575 57.3698C46.5235 57.3396 46.494 57.311 46.4688 57.2841C46.4458 57.2566 46.4295 57.2295 46.4201 57.2028C46.4107 57.1762 46.4133 57.1502 46.4279 57.125C46.4402 57.1037 46.4551 57.0902 46.4726 57.0844C46.4909 57.0772 46.5092 57.0746 46.5277 57.0764C46.5474 57.0789 46.567 57.0849 46.5864 57.0943C46.6065 57.1024 46.6245 57.111 46.6404 57.1202C46.6909 57.1494 46.729 57.1846 46.7547 57.226C46.7811 57.2661 46.7806 57.3145 46.7532 57.3712L47.0221 57.5265C47.0535 57.4596 47.0672 57.3976 47.0631 57.3403C47.0611 57.2825 47.0468 57.2291 47.0202 57.1801C46.9936 57.1311 46.9568 57.086 46.9098 57.0447C46.8642 57.0042 46.8134 56.9678 46.7577 56.9356C46.7019 56.9034 46.6444 56.8773 46.5851 56.8572C46.5267 56.8359 46.4689 56.8255 46.4118 56.8262C46.3555 56.8256 46.3018 56.8389 46.2507 56.866C46.201 56.8939 46.1569 56.9411 46.1186 57.0075C46.0925 57.0526 46.0796 57.0965 46.0798 57.1391C46.0807 57.1804 46.0904 57.2205 46.1086 57.2594C46.1277 57.2969 46.1526 57.3334 46.1835 57.3689C46.2164 57.4039 46.2508 57.4379 46.2866 57.471C46.3752 57.5505 46.4413 57.617 46.4848 57.6704C46.5296 57.7246 46.5398 57.773 46.5152 57.8155C46.5007 57.8407 46.4824 57.8585 46.4605 57.8689C46.4394 57.8779 46.4164 57.8824 46.3917 57.8822C46.3691 57.8816 46.3449 57.8774 46.3193 57.8697C46.2958 57.8614 46.274 57.8515 46.2541 57.84C46.2262 57.8239 46.2009 57.8048 46.1782 57.7829C46.1568 57.7617 46.14 57.7387 46.1277 57.7139C46.1162 57.6878 46.11 57.6603 46.109 57.6314C46.1101 57.6019 46.1194 57.5719 46.137 57.5413Z" fill="white"/><path d="M48.3892 58.2866L47.9069 58.0637C47.918 58.0435 47.9331 58.0217 47.9523 57.9985C47.9728 57.9759 47.9976 57.957 48.0267 57.9417C48.0571 57.927 48.0911 57.9191 48.1288 57.9179C48.1686 57.916 48.2121 57.926 48.2594 57.9479C48.3318 57.9813 48.3764 58.0256 48.3932 58.0806C48.4113 58.1363 48.41 58.205 48.3892 58.2866ZM47.8201 58.2516L48.5988 58.6115C48.643 58.5305 48.673 58.4473 48.6889 58.3617C48.7048 58.2762 48.7043 58.1932 48.6874 58.1127C48.672 58.0329 48.6381 57.9599 48.586 57.8936C48.5345 57.8259 48.4629 57.7708 48.371 57.7283C48.2889 57.6904 48.207 57.6703 48.1253 57.668C48.0449 57.6663 47.9685 57.68 47.896 57.709C47.8241 57.7366 47.7589 57.7791 47.7003 57.8364C47.6417 57.8938 47.5937 57.9629 47.5564 58.0436C47.5178 58.1271 47.495 58.2095 47.4879 58.2906C47.4821 58.3724 47.4914 58.4493 47.5155 58.5213C47.5397 58.5933 47.5795 58.659 47.6348 58.7183C47.6908 58.7763 47.7612 58.8249 47.8461 58.8641C47.9686 58.9207 48.0859 58.9411 48.1979 58.9253C48.3099 58.9095 48.4167 58.8466 48.5183 58.7364L48.2573 58.6158C48.2321 58.6447 48.1909 58.6645 48.1336 58.6752C48.077 58.6845 48.0187 58.6753 47.9588 58.6476C47.8753 58.609 47.8213 58.5579 47.7967 58.4941C47.7721 58.4304 47.7799 58.3496 47.8201 58.2516Z" fill="white"/><path d="M50.1908 58.9415L49.6895 58.7654C49.6986 58.7442 49.7116 58.7211 49.7285 58.6962C49.7468 58.6717 49.7697 58.6505 49.7972 58.6325C49.8261 58.6151 49.8592 58.604 49.8966 58.5992C49.936 58.5936 49.9803 58.5994 50.0295 58.6167C50.1047 58.6431 50.1533 58.6829 50.1752 58.7361C50.1986 58.7899 50.2038 58.8583 50.1908 58.9415ZM49.6209 58.9607L50.4303 59.2451C50.4666 59.1604 50.4886 59.0746 50.4963 58.988C50.504 58.9013 50.4956 58.8187 50.4712 58.7402C50.4482 58.6623 50.4076 58.5927 50.3495 58.5317C50.2918 58.4691 50.2152 58.4211 50.1198 58.3875C50.0344 58.3575 49.951 58.3453 49.8694 58.3507C49.7893 58.3567 49.7145 58.3776 49.6451 58.4133C49.5761 58.4476 49.5152 58.4961 49.4623 58.5587C49.4094 58.6214 49.3682 58.6947 49.3387 58.7786C49.3082 58.8654 49.2933 58.9495 49.2939 59.031C49.296 59.113 49.3124 59.1887 49.3433 59.258C49.3742 59.3274 49.42 59.389 49.4807 59.4428C49.5419 59.4952 49.6167 59.5369 49.7049 59.568C49.8322 59.6127 49.9509 59.6219 50.0609 59.5956C50.1709 59.5692 50.2713 59.4964 50.3619 59.3771L50.0907 59.2818C50.0684 59.313 50.0292 59.3366 49.9732 59.3526C49.9176 59.3672 49.8588 59.3636 49.7966 59.3418C49.7098 59.3113 49.6511 59.2654 49.6206 59.2043C49.5901 59.1432 49.5902 59.062 49.6209 58.9607Z" fill="white"/><path d="M53.1724 60.3795L53.7805 59.291L53.4517 59.223L53.0746 59.967L53.0701 59.9661L53.035 59.1368L52.7242 59.0724L52.3669 59.8229L52.3624 59.822L52.312 58.9871L51.9742 58.9172L52.1026 60.1581L52.4337 60.2266L52.7936 59.4861L52.7981 59.487L52.8436 60.3114L53.1724 60.3795Z" fill="white"/><path d="M55.1249 60.5823L55.6349 59.4446L55.3014 59.4057L54.9912 60.18L54.9866 60.1795L54.8787 59.3565L54.5634 59.3197L54.2736 60.0987L54.269 60.0982L54.1454 59.271L53.8027 59.2311L54.0398 60.4559L54.3756 60.495L54.669 59.7257L54.6736 59.7262L54.7914 60.5434L55.1249 60.5823Z" fill="white"/><path d="M56.8181 60.6181L57.2393 59.4446L56.9037 59.4314L56.6539 60.2273L56.6493 60.2271L56.4786 59.4148L56.1614 59.4023L55.9321 60.2013L55.9275 60.2011L55.7408 59.3859L55.3961 59.3723L55.7264 60.5753L56.0643 60.5885L56.2978 59.799L56.3024 59.7992L56.4826 60.6049L56.8181 60.6181Z" fill="white"/><path d="M57.5094 60.2189L57.5221 60.5729L57.8829 60.5599L57.8702 60.206L57.5094 60.2189Z" fill="white"/><path d="M59.1169 60.473L59.4293 59.2572L59.1059 59.2814L58.9167 60.1098L58.9121 60.1101L58.6014 59.3192L58.2596 59.3449L58.7545 60.5002L59.1169 60.473Z" fill="white"/><path d="M60.4739 58.9167L60.4357 58.6503L60.1124 58.6966L60.1506 58.963L60.4739 58.9167ZM60.1766 59.1451L60.3451 60.3222L60.6684 60.276L60.4999 59.0989L60.1766 59.1451Z" fill="white"/><path d="M61.4356 59.7529L61.1302 59.809C61.1476 59.8868 61.177 59.9493 61.2183 59.9962C61.2609 60.0414 61.31 60.0753 61.3656 60.0978C61.4227 60.1201 61.4849 60.1321 61.5522 60.1337C61.6196 60.1354 61.6872 60.13 61.7551 60.1176C61.8214 60.1054 61.885 60.0867 61.9459 60.0615C62.0085 60.0376 62.0618 60.0052 62.1058 59.9644C62.1497 59.9236 62.1821 59.8748 62.2028 59.818C62.2248 59.7594 62.2288 59.6916 62.2147 59.6147C62.2047 59.5604 62.1858 59.5171 62.1581 59.4848C62.13 59.4509 62.0965 59.4251 62.0574 59.4074C62.018 59.3881 61.9743 59.3751 61.9263 59.3683C61.8798 59.3612 61.8322 59.3567 61.7835 59.3547C61.7363 59.3525 61.69 59.3508 61.6446 59.3498C61.5992 59.3488 61.5582 59.3462 61.5216 59.342C61.4862 59.336 61.4563 59.3259 61.4318 59.3117C61.4074 59.2975 61.3925 59.276 61.3873 59.2474C61.3829 59.2232 61.3854 59.2033 61.395 59.1875C61.4043 59.1702 61.4166 59.1562 61.4318 59.1457C61.4485 59.1348 61.4673 59.1267 61.4881 59.1213C61.5087 59.1144 61.528 59.1093 61.5461 59.106C61.6034 59.0955 61.6552 59.0976 61.7016 59.1125C61.7477 59.1259 61.7787 59.1631 61.7946 59.2241L62.1 59.1681C62.0807 59.0968 62.0509 59.0407 62.0106 58.9997C61.9716 58.957 61.9261 58.9256 61.8741 58.9055C61.8221 58.8854 61.7648 58.8749 61.7023 58.8739C61.6412 58.8726 61.579 58.8778 61.5157 58.8894C61.4524 58.901 61.3916 58.9184 61.3335 58.9415C61.2751 58.9632 61.2244 58.9927 61.1814 59.0302C61.1382 59.0662 61.1059 59.1111 61.0845 59.1649C61.0647 59.2185 61.0618 59.2829 61.0756 59.3583C61.085 59.4096 61.1036 59.4514 61.1313 59.4837C61.1588 59.5145 61.1921 59.5388 61.2312 59.5566C61.2701 59.5729 61.3127 59.5845 61.3592 59.5916C61.407 59.5968 61.4552 59.6005 61.5039 59.6024C61.6229 59.6056 61.7163 59.6134 61.7841 59.6259C61.8534 59.6381 61.8924 59.6683 61.9013 59.7166C61.9066 59.7453 61.9042 59.7706 61.8942 59.7927C61.884 59.8133 61.8694 59.8316 61.8505 59.8475C61.8328 59.8617 61.8117 59.8741 61.7872 59.8849C61.7639 59.8938 61.7409 59.9004 61.7183 59.9045C61.6866 59.9103 61.655 59.9122 61.6235 59.9102C61.5934 59.9079 61.5657 59.9013 61.5403 59.8904C61.5147 59.878 61.4921 59.8611 61.4726 59.8397C61.4543 59.8165 61.442 59.7876 61.4356 59.7529Z" fill="white"/><path d="M63.0438 58.943C63.0284 58.8677 63.0304 58.8013 63.0499 58.7437C63.0694 58.6861 63.1004 58.6357 63.1428 58.5926C63.1853 58.5495 63.236 58.5137 63.295 58.4852C63.3551 58.4548 63.4171 58.4311 63.4807 58.4141C63.5385 58.3986 63.5982 58.3874 63.6598 58.3804C63.7211 58.3719 63.7793 58.373 63.8345 58.3836C63.8897 58.3942 63.9386 58.4168 63.9813 58.4515C64.0235 58.4846 64.0539 58.536 64.0725 58.6056L64.2325 59.2033C64.2464 59.2551 64.2627 59.3039 64.2813 59.3497C64.2999 59.3955 64.3198 59.4283 64.341 59.4481L64.021 59.5337C64.0103 59.5175 64.0004 59.5011 63.9912 59.4846C63.9831 59.4661 63.9757 59.4474 63.9691 59.4286C63.9326 59.4939 63.8831 59.5461 63.8205 59.585C63.7579 59.624 63.6911 59.653 63.62 59.6721C63.5652 59.6867 63.5123 59.6937 63.4613 59.6931C63.4103 59.6925 63.3633 59.6828 63.3202 59.6642C63.2771 59.6456 63.2395 59.6176 63.2072 59.5802C63.1765 59.5424 63.1532 59.4939 63.1373 59.4346C63.1199 59.3694 63.1167 59.3131 63.1278 59.2657C63.14 59.2164 63.1605 59.1744 63.1893 59.1397C63.2196 59.1046 63.2561 59.075 63.2989 59.0509C63.3427 59.0248 63.3873 59.0018 63.4327 58.9817C63.4781 58.9616 63.5232 58.9432 63.5679 58.9264C63.6127 58.9097 63.6516 58.8921 63.6848 58.8737C63.7179 58.8553 63.7427 58.8352 63.7591 58.8133C63.7751 58.79 63.778 58.7623 63.7677 58.7301C63.7586 58.696 63.7456 58.6709 63.7286 58.6549C63.7126 58.6369 63.6937 58.6253 63.6716 58.6201C63.6507 58.613 63.6272 58.6113 63.6013 58.6151C63.5764 58.617 63.5498 58.6217 63.5217 58.6293C63.4595 58.6459 63.4142 58.6724 63.3858 58.7085C63.3574 58.7447 63.3485 58.7947 63.3593 58.8585L63.0438 58.943ZM63.835 58.9811C63.8248 58.9966 63.8104 59.0107 63.7916 59.0237C63.7739 59.0348 63.7538 59.0457 63.7313 59.0565C63.7103 59.0669 63.6876 59.0769 63.6632 59.0866C63.6388 59.0963 63.6146 59.1068 63.5906 59.118C63.5681 59.1288 63.546 59.141 63.5243 59.1548C63.5041 59.1681 63.4869 59.1839 63.4727 59.202C63.4595 59.2182 63.4504 59.2373 63.4452 59.2593C63.4399 59.2814 63.4413 59.3072 63.4492 59.3368C63.4568 59.3649 63.4683 59.3873 63.4838 59.4037C63.4993 59.4202 63.5176 59.432 63.5385 59.4391C63.5591 59.4447 63.5818 59.4465 63.6067 59.4446C63.6316 59.4427 63.6566 59.4384 63.6818 59.4317C63.744 59.415 63.7894 59.3918 63.8179 59.3619C63.8464 59.3321 63.865 59.3009 63.8738 59.2684C63.8821 59.2344 63.8838 59.2022 63.8789 59.1718C63.8754 59.141 63.8713 59.1167 63.8665 59.0989L63.835 58.9811Z" fill="white"/><path d="M64.9104 58.8575L65.0279 59.1916L65.3685 59.0719L65.2511 58.7377L64.9104 58.8575Z" fill="white"/><path d="M66.3421 57.8556L66.6385 57.7358C66.6056 57.6664 66.5638 57.6122 66.5132 57.5731C66.4621 57.5326 66.4055 57.505 66.3434 57.4904C66.2821 57.4738 66.2175 57.4694 66.1494 57.477C66.0828 57.4841 66.0168 57.5009 65.9514 57.5273C65.8619 57.5635 65.7883 57.6106 65.7307 57.6686C65.6731 57.7266 65.6311 57.7924 65.6046 57.866C65.5775 57.9381 65.5661 58.0163 65.5704 58.1006C65.5756 58.1829 65.5954 58.2666 65.6298 58.3519C65.6632 58.4344 65.7074 58.505 65.7626 58.5637C65.8172 58.621 65.8787 58.6648 65.9471 58.695C66.0156 58.7252 66.0897 58.7408 66.1694 58.7416C66.25 58.7405 66.3315 58.7232 66.414 58.6899C66.5604 58.6307 66.665 58.5438 66.7278 58.4291C66.7906 58.3144 66.8023 58.1798 66.763 58.0253L66.4709 58.1434C66.4885 58.2157 66.4858 58.2805 66.4626 58.3378C66.4403 58.3931 66.393 58.4354 66.3205 58.4647C66.2735 58.4837 66.2294 58.4891 66.1881 58.481C66.1468 58.4729 66.1096 58.4565 66.0765 58.4319C66.0442 58.4052 66.0155 58.373 65.9903 58.3352C65.9651 58.2975 65.9444 58.2587 65.9283 58.2189C65.9117 58.1776 65.8993 58.1347 65.8911 58.09C65.8824 58.0439 65.8811 57.9998 65.8872 57.9576C65.8942 57.9135 65.9097 57.8741 65.9338 57.8396C65.9573 57.8036 65.9932 57.7759 66.0415 57.7563C66.1709 57.704 66.2711 57.7371 66.3421 57.8556Z" fill="white"/><path d="M67.5695 57.4517C67.548 57.4094 67.5309 57.3656 67.5182 57.3204C67.5055 57.2753 67.5008 57.2321 67.5039 57.1909C67.5084 57.1491 67.5222 57.1102 67.5452 57.0744C67.5676 57.0372 67.6034 57.0061 67.6526 56.981C67.7018 56.956 67.748 56.9454 67.7912 56.9492C67.8351 56.9509 67.8746 56.9626 67.9097 56.9843C67.9462 57.0053 67.979 57.0342 68.0081 57.071C68.0372 57.1079 68.0625 57.1475 68.084 57.1898C68.1056 57.2322 68.1227 57.2759 68.1354 57.3211C68.1474 57.3649 68.1514 57.4084 68.1476 57.4517C68.1445 57.4928 68.1307 57.5317 68.1063 57.5682C68.0832 57.604 68.0471 57.6345 67.9979 57.6595C67.9487 57.6845 67.9029 57.6958 67.8603 57.6934C67.8178 57.691 67.7783 57.6792 67.7418 57.6583C67.706 57.6352 67.6739 57.6059 67.6455 57.5705C67.6164 57.5337 67.5911 57.4941 67.5695 57.4517ZM67.2785 57.5999C67.3216 57.6846 67.3736 57.7545 67.4343 57.8096C67.495 57.8647 67.5618 57.9047 67.6347 57.9295C67.7069 57.953 67.7831 57.9607 67.8632 57.9526C67.9434 57.9445 68.0252 57.9192 68.1085 57.8768C68.1919 57.8343 68.2604 57.7831 68.3142 57.723C68.3693 57.6623 68.4086 57.5958 68.4321 57.5237C68.4548 57.4501 68.4618 57.3726 68.453 57.2911C68.4442 57.2095 68.4182 57.1264 68.3751 57.0417C68.332 56.9569 68.28 56.887 68.2193 56.8319C68.1578 56.7754 68.091 56.7355 68.0189 56.712C67.946 56.6871 67.8688 56.6791 67.7873 56.6879C67.7064 56.6947 67.6243 56.7193 67.5409 56.7617C67.4576 56.8041 67.3894 56.8561 67.3363 56.9175C67.2826 56.9775 67.2443 57.0443 67.2215 57.1179C67.198 57.19 67.1911 57.2676 67.2006 57.3505C67.2094 57.432 67.2354 57.5152 67.2785 57.5999Z" fill="white"/><path d="M68.6489 56.1564L69.2865 57.1602L69.5622 56.985L69.1922 56.4026C69.161 56.3534 69.143 56.3094 69.1384 56.2706C69.1329 56.2305 69.1349 56.1965 69.1444 56.1687C69.1545 56.1387 69.1682 56.1145 69.1856 56.0962C69.2035 56.0757 69.2189 56.0614 69.2319 56.0532C69.2759 56.0252 69.3138 56.012 69.3457 56.0136C69.378 56.013 69.4065 56.0222 69.4312 56.041C69.4572 56.059 69.4803 56.0825 69.5005 56.1115C69.5199 56.1391 69.539 56.1678 69.5579 56.1976L69.9155 56.7606L70.1912 56.5855L69.8361 56.0264C69.8163 55.9953 69.799 55.9636 69.7839 55.9314C69.7694 55.8971 69.7612 55.8641 69.7593 55.8326C69.7579 55.799 69.7644 55.7676 69.7786 55.7386C69.7933 55.7074 69.8201 55.6795 69.859 55.6549C69.8978 55.6302 69.9323 55.6174 69.9625 55.6163C69.9941 55.6145 70.0226 55.6208 70.0482 55.6354C70.0739 55.6501 70.0974 55.6714 70.1189 55.6995C70.1404 55.7277 70.1619 55.7586 70.1832 55.7922L70.5446 56.3611L70.8203 56.1859L70.3936 55.5142C70.3525 55.4495 70.3085 55.4002 70.2616 55.3664C70.2139 55.3314 70.1648 55.3099 70.1143 55.3019C70.0639 55.294 70.0119 55.298 69.9584 55.3138C69.9049 55.3296 69.8516 55.3544 69.7985 55.3881C69.7286 55.4325 69.6785 55.488 69.6481 55.5545C69.619 55.6202 69.6035 55.6845 69.6017 55.7474C69.535 55.7026 69.4674 55.6847 69.3987 55.6938C69.3313 55.7021 69.2659 55.7264 69.2025 55.7667C69.1365 55.8086 69.0866 55.8603 69.0529 55.9216C69.0205 55.9822 69.0027 56.0498 68.9993 56.1246L68.9954 56.1271L68.9091 55.9912L68.6489 56.1564Z" fill="white"/><path d="M70.8423 53.9262L71.4428 55.6582L71.6433 55.4928L71.0445 53.7593L70.8423 53.9262Z" fill="white"/><path d="M72.1212 54.2432C72.0892 54.2081 72.061 54.1705 72.0368 54.1303C72.0126 54.0901 71.9965 54.0498 71.9886 54.0092C71.9818 53.9677 71.9848 53.9266 71.9975 53.8859C72.0092 53.8441 72.0354 53.8046 72.0762 53.7674C72.1169 53.7302 72.1587 53.7077 72.2014 53.6999C72.2441 53.6899 72.2854 53.6907 72.325 53.7022C72.3657 53.7128 72.405 53.7319 72.4428 53.7597C72.4806 53.7875 72.5156 53.8189 72.5476 53.854C72.5797 53.8891 72.6078 53.9268 72.632 53.967C72.6552 54.006 72.6707 54.0469 72.6785 54.0896C72.6864 54.1301 72.6835 54.1712 72.6696 54.2129C72.6569 54.2536 72.6302 54.2925 72.5894 54.3297C72.5486 54.3669 72.5074 54.39 72.4658 54.399C72.4241 54.4079 72.3829 54.4071 72.3421 54.3966C72.3015 54.3839 72.2628 54.3642 72.226 54.3375C72.1882 54.3098 72.1533 54.2783 72.1212 54.2432ZM71.88 54.4634C71.9441 54.5336 72.0127 54.5872 72.0859 54.6242C72.1591 54.6612 72.2342 54.682 72.311 54.6866C72.3868 54.69 72.4623 54.6772 72.5374 54.6481C72.6126 54.6189 72.6847 54.5728 72.7538 54.5098C72.8228 54.4467 72.8753 54.3791 72.9112 54.3069C72.9481 54.2337 72.9684 54.1592 72.9718 54.0834C72.9743 54.0065 72.9604 53.9299 72.9302 53.8536C72.9001 53.7773 72.8529 53.7041 72.7888 53.6339C72.7248 53.5636 72.6561 53.51 72.5829 53.4731C72.5087 53.4349 72.4336 53.4142 72.3578 53.4107C72.281 53.4061 72.2044 53.4189 72.1281 53.4491C72.052 53.4771 71.9794 53.5226 71.9103 53.5856C71.8412 53.6487 71.7892 53.7169 71.7544 53.7902C71.7186 53.8623 71.6994 53.9369 71.697 54.0138C71.6935 54.0897 71.7074 54.1663 71.7386 54.2437C71.7688 54.3199 71.8159 54.3932 71.88 54.4634Z" fill="white"/><path d="M72.7895 52.7307L73.6633 53.5371L73.8848 53.2971L73.4268 52.8744C73.3378 52.7922 73.2876 52.7188 73.2764 52.6542C73.264 52.5885 73.2879 52.523 73.3482 52.4576C73.4013 52.4001 73.4562 52.3768 73.5131 52.3875C73.5688 52.3972 73.6327 52.4353 73.7048 52.5019L74.1984 52.9574L74.4199 52.7174L73.8824 52.2213C73.8283 52.1714 73.7746 52.1313 73.7213 52.1008C73.6679 52.0683 73.6151 52.0498 73.5628 52.0453C73.5095 52.0399 73.4551 52.0502 73.3997 52.0763C73.3442 52.1002 73.2869 52.1443 73.2276 52.2085C73.1808 52.2592 73.1469 52.3197 73.1258 52.39C73.1036 52.4593 73.1038 52.5325 73.1265 52.6097L73.1218 52.6148L73.0001 52.5025L72.7895 52.7307Z" fill="white"/><path d="M74.1651 51.1062L73.8857 50.8848L73.6829 51.1408L73.9623 51.3622L73.8394 51.5172L74.0107 51.6529L74.1335 51.4979L74.6833 51.9336C74.7302 51.9707 74.7742 51.9929 74.8155 52.0001C74.8567 52.0074 74.8956 52.004 74.9322 51.9899C74.9697 51.9746 75.0047 51.9515 75.0371 51.9204C75.0717 51.8892 75.1047 51.8537 75.1361 51.814C75.1561 51.7888 75.176 51.7625 75.1957 51.7351C75.2155 51.7077 75.2321 51.6817 75.2456 51.6573L75.0474 51.5001C75.0402 51.514 75.032 51.5281 75.0228 51.5423C75.0135 51.5564 75.0031 51.5707 74.9917 51.5852C74.9574 51.6284 74.9274 51.6515 74.9015 51.6545C74.8757 51.6575 74.8411 51.6419 74.7978 51.6076L74.3364 51.2419L74.4849 51.0544L74.3137 50.9187L74.1651 51.1062Z" fill="white"/><path d="M74.1127 50.4087L75.4438 51.3706L75.6351 51.1058L75.1299 50.7408C75.0317 50.6698 74.9732 50.6029 74.9543 50.5401C74.9341 50.4763 74.9501 50.4084 75.0022 50.3363C75.048 50.273 75.0997 50.2432 75.1575 50.2471C75.214 50.2501 75.282 50.2803 75.3615 50.3378L75.9059 50.7311L76.0971 50.4664L75.5043 50.038C75.4447 49.9949 75.3866 49.9615 75.33 49.9376C75.2731 49.9116 75.2185 49.8996 75.1661 49.9014C75.1124 49.9024 75.0596 49.9191 75.0078 49.9516C74.9555 49.982 74.9038 50.0326 74.8526 50.1034C74.8167 50.1531 74.793 50.2135 74.7813 50.2846C74.7685 50.3547 74.7779 50.4268 74.8096 50.5008L74.8055 50.5064L74.304 50.144L74.1127 50.4087Z" fill="white"/><path d="M76.3071 48.7238L76.0291 49.1765C76.0103 49.1632 75.9905 49.1456 75.9696 49.1238C75.9496 49.1008 75.9337 49.0739 75.922 49.0433C75.911 49.0113 75.9071 48.9766 75.9104 48.939C75.9132 48.8993 75.9282 48.8573 75.9555 48.8129C75.9972 48.7449 76.0464 48.7058 76.103 48.6956C76.1605 48.6841 76.2285 48.6935 76.3071 48.7238ZM76.2055 49.2849L76.6544 48.5538C76.5792 48.5004 76.5001 48.4608 76.417 48.435C76.3339 48.4091 76.2514 48.3999 76.1695 48.4072C76.0885 48.4132 76.0119 48.4382 75.94 48.4821C75.8667 48.5253 75.8036 48.59 75.7506 48.6762C75.7033 48.7533 75.6736 48.8323 75.6618 48.9132C75.6507 48.9928 75.6553 49.0703 75.6755 49.1457C75.6945 49.2203 75.729 49.2901 75.7791 49.355C75.8292 49.42 75.8921 49.4757 75.9679 49.5222C76.0463 49.5704 76.1254 49.6028 76.2052 49.6194C76.2858 49.6347 76.3632 49.6345 76.4375 49.619C76.5118 49.6034 76.5817 49.5717 76.6472 49.5237C76.7113 49.4749 76.7679 49.4107 76.8168 49.331C76.8874 49.216 76.9215 49.102 76.9189 48.9889C76.9164 48.8757 76.8664 48.7623 76.769 48.6485L76.6186 48.8935C76.6443 48.9219 76.6591 48.9651 76.663 49.0233C76.6655 49.0807 76.6496 49.1374 76.6151 49.1936C76.5669 49.272 76.5098 49.3197 76.4436 49.3366C76.3774 49.3536 76.298 49.3363 76.2055 49.2849Z" fill="white"/><path d="M76.0116 47.3485L77.4657 48.1117L77.6175 47.8225L76.1634 47.0593L76.0116 47.3485Z" fill="white"/><path d="M76.7958 46.3741L76.5534 46.2571L76.4115 46.5513L76.6538 46.6682L76.7958 46.3741ZM76.8195 46.7482L77.8904 47.2651L78.0324 46.971L76.9615 46.4541L76.8195 46.7482Z" fill="white"/><path d="M77.9958 46.0947L77.8704 46.3788C77.9446 46.4082 78.0128 46.419 78.0749 46.4112C78.1362 46.4013 78.1918 46.3798 78.2417 46.3465C78.2922 46.3118 78.337 46.2671 78.3763 46.2123C78.4155 46.1575 78.4491 46.0986 78.4769 46.0355C78.5041 45.9737 78.5244 45.9106 78.5378 45.8461C78.5532 45.7809 78.5564 45.7186 78.5473 45.6593C78.5383 45.6 78.5161 45.5458 78.4808 45.4967C78.4447 45.4456 78.3909 45.4042 78.3193 45.3727C78.2688 45.3504 78.2224 45.3417 78.18 45.3464C78.1363 45.3506 78.0961 45.3639 78.0594 45.3862C78.0213 45.408 77.986 45.4368 77.9534 45.4727C77.9214 45.5072 77.8909 45.544 77.8619 45.5832C77.8335 45.6209 77.8062 45.6583 77.7798 45.6953C77.7534 45.7323 77.7282 45.7647 77.7042 45.7926C77.6793 45.8186 77.6542 45.8376 77.6287 45.8498C77.6032 45.862 77.5771 45.8623 77.5504 45.8505C77.528 45.8406 77.5129 45.8273 77.5053 45.8105C77.4962 45.7931 77.4915 45.7751 77.4913 45.7566C77.4917 45.7366 77.4956 45.7165 77.5028 45.6963C77.5087 45.6754 77.5153 45.6565 77.5228 45.6397C77.5463 45.5864 77.5772 45.5447 77.6156 45.5148C77.6526 45.4841 77.7007 45.4794 77.7601 45.5006L77.8854 45.2165C77.8156 45.1924 77.7525 45.1855 77.696 45.1958C77.6387 45.204 77.5872 45.224 77.5413 45.2557C77.4955 45.2875 77.4546 45.3289 77.4186 45.3801C77.3832 45.4298 77.3526 45.4842 77.3266 45.5431C77.3006 45.602 77.2808 45.662 77.2673 45.7231C77.2524 45.7835 77.2483 45.8421 77.2552 45.8987C77.2606 45.9548 77.2796 46.0067 77.3121 46.0546C77.3452 46.101 77.3969 46.1397 77.467 46.1707C77.5147 46.1917 77.5597 46.1999 77.6021 46.1951C77.643 46.1897 77.6818 46.1758 77.7185 46.1534C77.7538 46.1304 77.7874 46.1017 77.8194 46.0672C77.8506 46.0307 77.8807 45.9928 77.9097 45.9537C77.9791 45.857 78.0381 45.7841 78.0865 45.7351C78.1356 45.6846 78.1826 45.6693 78.2275 45.6891C78.2541 45.7009 78.2738 45.7171 78.2865 45.7378C78.2977 45.7578 78.3046 45.7802 78.3072 45.8047C78.309 45.8273 78.3074 45.8518 78.3025 45.8781C78.2968 45.9024 78.2893 45.9251 78.28 45.9461C78.267 45.9756 78.2508 46.0028 78.2314 46.0277C78.2127 46.0513 78.1916 46.0705 78.1683 46.0854C78.1436 46.0996 78.1169 46.1088 78.0883 46.1129C78.0589 46.115 78.028 46.109 77.9958 46.0947Z" fill="white"/><path d="M78.0096 43.8646L77.6751 43.7412L77.5621 44.0476L77.8965 44.171L77.8281 44.3566L78.033 44.4322L78.1015 44.2467L78.7596 44.4895C78.8157 44.5102 78.8645 44.5175 78.9059 44.5116C78.9474 44.5056 78.9833 44.4903 79.0136 44.4655C79.0445 44.4393 79.0706 44.4064 79.0917 44.3668C79.1148 44.3263 79.1352 44.2823 79.1527 44.2349C79.1638 44.2047 79.1745 44.1735 79.1847 44.1413C79.195 44.1091 79.2027 44.0793 79.208 44.0518L78.9706 43.9642C78.9682 43.9797 78.9647 43.9956 78.9603 44.0119C78.9559 44.0283 78.9506 44.0451 78.9442 44.0623C78.9251 44.1141 78.9037 44.1455 78.8801 44.1564C78.8565 44.1673 78.8187 44.1632 78.767 44.1441L78.2146 43.9402L78.2974 43.7158L78.0924 43.6402L78.0096 43.8646Z" fill="white"/></svg>
