<svg width="24" height="24" viewBox="0 0 24 24" fill="none" xmlns="http://www.w3.org/2000/svg"><path d="M14 2C12.3202 2.00384 10.6928 2.58531 9.39097 3.64684C8.0891 4.70837 7.19193 6.18537 6.85001 7.83L8.85001 8.23C9.15029 6.98286 9.89268 5.88695 10.9395 5.14554C11.9863 4.40413 13.2665 4.06754 14.5426 4.19821C15.8187 4.32887 17.0041 4.91792 17.879 5.85609C18.7538 6.79426 19.2587 8.01789 19.3 9.3C19.3 11.53 15.99 16.58 14 19.3C13.65 18.81 13.21 18.19 12.73 17.48L11.08 18.6C12.23 20.32 13.17 21.54 13.21 21.6L14 22.6L14.79 21.6C15.46 20.73 21.3 13 21.3 9.29C21.2974 7.35565 20.5271 5.50144 19.1584 4.13458C17.7896 2.76773 15.9344 2 14 2Z" fill="#94A3B8"/><path d="M17 9C17 8.40666 16.8241 7.82664 16.4944 7.33329C16.1648 6.83994 15.6962 6.45542 15.1481 6.22836C14.5999 6.0013 13.9967 5.94189 13.4147 6.05764C12.8328 6.1734 12.2982 6.45912 11.8787 6.87868C11.4591 7.29824 11.1734 7.83279 11.0577 8.41473C10.9419 8.99667 11.0013 9.59987 11.2284 10.1481C11.4554 10.6962 11.84 11.1648 12.3333 11.4944C12.8266 11.8241 13.4067 12 14 12C14.7957 12 15.5587 11.6839 16.1213 11.1213C16.6839 10.5587 17 9.79565 17 9ZM13 9C13 8.80222 13.0587 8.60888 13.1685 8.44443C13.2784 8.27998 13.4346 8.15181 13.6173 8.07612C13.8001 8.00043 14.0011 7.98063 14.1951 8.01921C14.3891 8.0578 14.5673 8.15304 14.7071 8.29289C14.847 8.43275 14.9422 8.61093 14.9808 8.80491C15.0194 8.99889 14.9996 9.19996 14.9239 9.38268C14.8482 9.56541 14.72 9.72159 14.5556 9.83147C14.3911 9.94135 14.1978 10 14 10C13.7348 10 13.4804 9.89464 13.2929 9.70711C13.1054 9.51957 13 9.26522 13 9Z" fill="#94A3B8"/><path d="M7.84001 10C7.10287 9.99676 6.37824 10.1904 5.74097 10.5609C5.10371 10.9314 4.57692 11.4654 4.21505 12.1076C3.85317 12.7498 3.66932 13.4769 3.6825 14.214C3.69568 14.951 3.9054 15.6711 4.29001 16.3L1.29001 19.3L2.71001 20.72L5.71001 17.72C6.25882 18.0453 6.87524 18.2397 7.51138 18.288C8.14752 18.3364 8.78624 18.2375 9.37792 17.9989C9.96961 17.7603 10.4983 17.3885 10.923 16.9124C11.3477 16.4363 11.6568 15.8687 11.8265 15.2537C11.9962 14.6388 12.0218 13.9929 11.9014 13.3664C11.7809 12.7399 11.5176 12.1496 11.132 11.6414C10.7464 11.1332 10.2487 10.7207 9.6778 10.436C9.10686 10.1514 8.47798 10.0022 7.84001 10ZM7.84001 16.32C7.4128 16.32 6.99519 16.1933 6.63998 15.956C6.28477 15.7186 6.00791 15.3813 5.84443 14.9866C5.68094 14.5919 5.63817 14.1576 5.72151 13.7386C5.80486 13.3196 6.01058 12.9347 6.31266 12.6326C6.61474 12.3306 6.99961 12.1248 7.41861 12.0415C7.83761 11.9582 8.27192 12.0009 8.6666 12.1644C9.06129 12.3279 9.39864 12.6048 9.63598 12.96C9.87333 13.3152 10 13.7328 10 14.16C10 14.7329 9.77244 15.2823 9.36736 15.6874C8.96228 16.0924 8.41288 16.32 7.84001 16.32Z" fill="#94A3B8"/></svg>
