<svg width="24" height="24" viewBox="0 0 24 24" fill="none" xmlns="http://www.w3.org/2000/svg"><path d="M20 6H18V4H16V6H8V4H6V6H4C3.73478 6 3.48043 6.10536 3.29289 6.29289C3.10536 6.48043 3 6.73478 3 7V18C3 18.2652 3.10536 18.5196 3.29289 18.7071C3.48043 18.8946 3.73478 19 4 19H20C20.2652 19 20.5196 18.8946 20.7071 18.7071C20.8946 18.5196 21 18.2652 21 18V7C21 6.73478 20.8946 6.48043 20.7071 6.29289C20.5196 6.10536 20.2652 6 20 6ZM19 8V9H5V8H19ZM5 17V11H19V17H5Z" fill="#94A3B8"/><path d="M9 13H7V15H9V13Z" fill="#94A3B8"/><path d="M13 13H11V15H13V13Z" fill="#94A3B8"/><path d="M17 13H15V15H17V13Z" fill="#94A3B8"/></svg>
