<svg width="24" height="24" viewBox="0 0 24 24" fill="none" xmlns="http://www.w3.org/2000/svg"><path d="M20.9 11.79L20.28 10.55C20.1961 10.3836 20.0674 10.2439 19.9084 10.1467C19.7494 10.0495 19.5664 9.9987 19.38 10H18.87L18.14 6.56C18.0409 6.12064 17.7965 5.72758 17.4462 5.44446C17.0959 5.16134 16.6604 5.00473 16.21 5H7.79C7.33964 5.00473 6.90406 5.16134 6.55379 5.44446C6.20352 5.72758 5.95906 6.12064 5.86 6.56L5.13 10H4.62C4.43364 9.9987 4.25062 10.0495 4.09159 10.1467C3.93257 10.2439 3.80386 10.3836 3.72 10.55L3.1 11.79C3.03743 11.9285 3.00341 12.0781 3 12.23V16C3 16.2652 3.10536 16.5196 3.29289 16.7071C3.48043 16.8946 3.73478 17 4 17H5V18C5 18.2652 5.10536 18.5196 5.29289 18.7071C5.48043 18.8946 5.73478 19 6 19H7C7.26522 19 7.51957 18.8946 7.70711 18.7071C7.89464 18.5196 8 18.2652 8 18V17H16V18C16 18.2652 16.1054 18.5196 16.2929 18.7071C16.4804 18.8946 16.7348 19 17 19H18C18.2652 19 18.5196 18.8946 18.7071 18.7071C18.8946 18.5196 19 18.2652 19 18V17H20C20.2652 17 20.5196 16.8946 20.7071 16.7071C20.8946 16.5196 21 16.2652 21 16V12.23C20.9966 12.0781 20.9626 11.9285 20.9 11.79V11.79ZM7.79 7H16.19L16.83 10H7.17L7.79 7ZM19 15H5V12.47L5.24 12H18.76L19 12.47V15Z" fill="#94A3B8"/></svg>
