<svg width="24" height="24" viewBox="0 0 24 24" fill="none" xmlns="http://www.w3.org/2000/svg"><path d="M12 11.05C11.199 11.05 10.416 10.8125 9.74994 10.3675C9.08392 9.92245 8.56482 9.28992 8.25829 8.54988C7.95175 7.80984 7.87155 6.99552 8.02782 6.2099C8.18409 5.42428 8.56981 4.70263 9.13622 4.13623C9.70262 3.56983 10.4243 3.1841 11.2099 3.02783C11.9955 2.87156 12.8098 2.95177 13.5499 3.2583C14.2899 3.56484 14.9224 4.08394 15.3675 4.74995C15.8125 5.41597 16.05 6.199 16.05 7.00001C16.0474 8.07333 15.6198 9.10193 14.8609 9.86088C14.1019 10.6198 13.0733 11.0474 12 11.05ZM12 5.00001C11.5924 5.00014 11.1942 5.12173 10.8561 5.34928C10.5179 5.57683 10.2553 5.89999 10.1017 6.2775C9.94815 6.65501 9.91058 7.06973 9.99382 7.4687C10.0771 7.86766 10.2773 8.23276 10.569 8.51737C10.8608 8.80197 11.2307 8.99317 11.6316 9.06653C12.0325 9.13989 12.4462 9.09209 12.8198 8.92924C13.1934 8.76638 13.51 8.49586 13.7291 8.15223C13.9482 7.8086 14.0599 7.40745 14.05 7.00001C14.0369 6.46503 13.8152 5.95636 13.4322 5.58266C13.0491 5.20896 12.5351 4.99985 12 5.00001Z" fill="#94A3B8"/><path d="M20 21H4V20C4 17.8783 4.84285 15.8435 6.34315 14.3432C7.84344 12.8429 9.87827 12 12 12C14.1217 12 16.1566 12.8429 17.6569 14.3432C19.1571 15.8435 20 17.8783 20 20V21ZM6.08 19H17.92C17.6886 17.597 16.9663 16.3217 15.8821 15.4017C14.7978 14.4816 13.422 13.9765 12 13.9765C10.578 13.9765 9.20219 14.4816 8.11794 15.4017C7.03368 16.3217 6.31144 17.597 6.08 19Z" fill="#94A3B8"/><path d="M16 16H13V18H16V16Z" fill="#94A3B8"/></svg>
