<svg width="24" height="24" viewBox="0 0 24 24" fill="none" xmlns="http://www.w3.org/2000/svg">
<path fill-rule="evenodd" clip-rule="evenodd" d="M5.80612 13H5.62C5.43364 12.9987 5.25062 13.0495 5.09159 13.1467C4.93257 13.2439 4.80386 13.3836 4.72 13.55L4.1 14.79C4.03743 14.9285 4.00341 15.0781 4 15.23V19C4 19.2652 4.10536 19.5196 4.29289 19.7071C4.48043 19.8946 4.73478 20 5 20H6V21C6 21.2652 6.10536 21.5196 6.29289 21.7071C6.48043 21.8946 6.73478 22 7 22H8C8.26522 22 8.51957 21.8946 8.70711 21.7071C8.89464 21.5196 9 21.2652 9 21V20H17V21C17 21.2652 17.1054 21.5196 17.2929 21.7071C17.4804 21.8946 17.7348 22 18 22H19C19.2652 22 19.5196 21.8946 19.7071 21.7071C19.8946 21.5196 20 21.2652 20 21V20H21C21.2652 20 21.5196 19.8946 21.7071 19.7071C21.8946 19.5196 22 19.2652 22 19V15.23C21.9966 15.0781 21.9626 14.9285 21.9 14.79L21.28 13.55C21.1961 13.3836 21.0674 13.2439 20.9084 13.1467C20.7494 13.0495 20.5664 12.9987 20.38 13H19.87L19.14 9.56C19.0409 9.12064 18.7965 8.72758 18.4462 8.44446C18.0959 8.16134 17.6604 8.00473 17.21 8H13.9963C13.9729 8.68943 13.8376 9.36427 13.6007 10H17.19L17.83 13H11.1939L8.5 15L5.80612 13ZM8.5 15H19.76L20 15.47V18H6V15.47L6.24 15H8.5Z" fill="#38BDF8"/>
<path fill-rule="evenodd" clip-rule="evenodd" d="M2 2H15V7.78448C15 9.79206 14.1784 11.7122 12.7262 13.0984L12.6815 13.1411L8.5 16.2455L4.31854 13.1411L4.27381 13.0984C2.82162 11.7122 2 9.79206 2 7.78448V2ZM4 4V7.78448C4 9.22575 4.58188 10.6051 5.61217 11.6105L8.5 13.7545L11.3878 11.6105C12.4181 10.6051 13 9.22575 13 7.78448V4H4ZM11.669 6.74329L7.66667 10.3454L5.33104 8.24329L6.66896 6.75671L7.66667 7.65464L10.331 5.25671L11.669 6.74329Z" fill="#4ADE80"/>
</svg>
