<svg width="24" height="24" viewBox="0 0 24 24" fill="none" xmlns="http://www.w3.org/2000/svg"><path d="M12 1C10.0647 1.00265 8.20949 1.7726 6.84104 3.14104C5.4726 4.50949 4.70265 6.36473 4.7 8.3C4.7 12.01 10.54 19.74 11.21 20.61L12 21.61L12.79 20.61C13.46 19.74 19.3 12.01 19.3 8.3C19.2974 6.36473 18.5274 4.50949 17.159 3.14104C15.7905 1.7726 13.9353 1.00265 12 1ZM12 18.32C10 15.58 6.7 10.54 6.7 8.32C6.7 6.91435 7.25839 5.56628 8.25233 4.57233C9.24628 3.57839 10.5944 3.02 12 3.02C13.4056 3.02 14.7537 3.57839 15.7477 4.57233C16.7416 5.56628 17.3 6.91435 17.3 8.32C17.3 10.54 14 15.58 12 18.32Z" fill="#94A3B8"/><path d="M12 5C11.4067 5 10.8266 5.17595 10.3333 5.50559C9.83995 5.83524 9.45543 6.30377 9.22837 6.85195C9.0013 7.40013 8.94189 8.00333 9.05765 8.58527C9.1734 9.16721 9.45913 9.70176 9.87868 10.1213C10.2982 10.5409 10.8328 10.8266 11.4147 10.9424C11.9967 11.0581 12.5999 10.9987 13.1481 10.7716C13.6962 10.5446 14.1648 10.1601 14.4944 9.66671C14.8241 9.17336 15 8.59334 15 8C15 7.20435 14.6839 6.44129 14.1213 5.87868C13.5587 5.31607 12.7957 5 12 5ZM12 9C11.8022 9 11.6089 8.94135 11.4444 8.83147C11.28 8.72159 11.1518 8.56541 11.0761 8.38268C11.0004 8.19996 10.9806 7.99889 11.0192 7.80491C11.0578 7.61093 11.153 7.43275 11.2929 7.29289C11.4328 7.15304 11.6109 7.0578 11.8049 7.01921C11.9989 6.98063 12.2 7.00043 12.3827 7.07612C12.5654 7.15181 12.7216 7.27998 12.8315 7.44443C12.9414 7.60888 13 7.80222 13 8C13 8.26522 12.8946 8.51957 12.7071 8.70711C12.5196 8.89464 12.2652 9 12 9Z" fill="#94A3B8"/></svg>
