<svg width="24" height="24" viewBox="0 0 24 24" fill="none" xmlns="http://www.w3.org/2000/svg"><path d="M12.71 9.72999L11.29 8.30999L7.61 12L11.29 15.71L12.71 14.29L11.42 13L19 13V11L11.44 11L12.71 9.72999Z" fill="#94A3B8"/><path d="M6 21H14C14.5304 21 15.0391 20.7893 15.4142 20.4142C15.7893 20.0391 16 19.5304 16 19V16H14V19H6L6 5L14 5V8L16 8V5C16 4.46957 15.7893 3.96086 15.4142 3.58579C15.0391 3.21071 14.5304 3 14 3L6 3C5.46957 3 4.96086 3.21071 4.58579 3.58579C4.21072 3.96086 4 4.46957 4 5L4 19C4 19.5304 4.21071 20.0391 4.58579 20.4142C4.96086 20.7893 5.46957 21 6 21Z" fill="#94A3B8"/></svg>
