<svg width="24" height="24" viewBox="0 0 24 24" fill="none" xmlns="http://www.w3.org/2000/svg"><path d="M16 5V19H8V5H16ZM16 3H8C7.46957 3 6.96086 3.21071 6.58579 3.58579C6.21071 3.96086 6 4.46957 6 5V19C6 19.5304 6.21071 20.0391 6.58579 20.4142C6.96086 20.7893 7.46957 21 8 21H16C16.5304 21 17.0391 20.7893 17.4142 20.4142C17.7893 20.0391 18 19.5304 18 19V5C18 4.46957 17.7893 3.96086 17.4142 3.58579C17.0391 3.21071 16.5304 3 16 3Z" fill="#94A3B8"/><path d="M12 16C11.8022 16 11.6089 16.0586 11.4444 16.1685C11.28 16.2784 11.1518 16.4346 11.0761 16.6173C11.0004 16.8 10.9806 17.0011 11.0192 17.1951C11.0578 17.3891 11.153 17.5673 11.2929 17.7071C11.4327 17.847 11.6109 17.9422 11.8049 17.9808C11.9989 18.0194 12.2 17.9996 12.3827 17.9239C12.5654 17.8482 12.7216 17.72 12.8315 17.5556C12.9414 17.3911 13 17.1978 13 17C13 16.7348 12.8946 16.4804 12.7071 16.2929C12.5196 16.1054 12.2652 16 12 16Z" fill="#94A3B8"/></svg>
