<svg width="160" height="24" viewBox="0 0 160 24" fill="none" xmlns="http://www.w3.org/2000/svg">
  <path fill-rule="evenodd" clip-rule="evenodd" d="M5.4894 5.1959L2 6.45143V21.4852H5.45679L5.4894 15.8924C6.32099 16.887 7.46238 17.7349 9.32122 17.7349C12.2236 17.7349 14.914 15.4847 14.914 11.3757C14.914 7.2178 12.191 4.96762 9.32122 4.96762C7.5113 4.96762 6.33729 5.81551 5.4894 6.95691V5.1959ZM8.42441 7.93524C10.055 7.93524 11.4246 9.28861 11.4246 11.3268C11.4246 13.4302 10.055 14.7673 8.42441 14.7673C6.79385 14.7673 5.44048 13.4139 5.44048 11.3757C5.44048 9.28861 6.79385 7.93524 8.42441 7.93524Z" fill="#FC3131"/>
  <path d="M30.4859 5.1959H33.9753V7.20149C34.6928 5.50571 35.8341 5.08176 37.905 5.17959V8.17983H37.7256C35.4102 8.17983 33.9916 10.0224 33.9916 12.9574V17.5066H30.5022V5.1959H30.4859Z" fill="#FC3131"/>
  <path d="M41.1172 14.0009V8.17983H39.6497V5.1959H41.1172V3.27184L44.6066 2V5.1959H47.4927V8.17983H44.6066V13.4302C44.6066 14.2292 44.949 14.6205 45.7317 14.6205C46.3676 14.6205 46.9546 14.4575 47.4601 14.1803V16.9849C46.7263 17.4251 45.8784 17.7023 44.7044 17.7023C42.5521 17.7023 41.1172 16.8544 41.1172 14.0009Z" fill="#FC3131"/>
  <path d="M48.9928 5.1959H52.4822V6.9406C53.2812 5.91335 54.341 4.96762 56.102 4.96762C57.7163 4.96762 58.9229 5.68507 59.5588 6.9243C60.635 5.66876 61.9231 4.96762 63.6026 4.96762C66.1952 4.96762 67.7605 6.53296 67.7605 9.48428V17.4903H64.2711V10.6257C64.2711 8.9788 63.5374 8.13091 62.2329 8.13091C60.9285 8.13091 60.1295 8.9788 60.1295 10.6257V17.4903H56.6401V10.6257C56.6401 8.9788 55.9064 8.13091 54.6019 8.13091C53.2975 8.13091 52.4985 8.9788 52.4985 10.6257V17.4903H49.0091V5.1959H48.9928Z" fill="#FC3131"/>
  <path d="M82.99 5.1959H86.4794V6.9406C87.2784 5.91335 88.3219 4.96762 90.0829 4.96762C92.7244 4.96762 94.2572 6.71232 94.2572 9.53319V17.4903H90.7678V10.6257C90.7678 8.9788 89.9851 8.13091 88.6643 8.13091C87.3273 8.13091 86.4794 8.9788 86.4794 10.6257V17.4903H82.99V5.1959Z" fill="#FC3131"/>
  <path fill-rule="evenodd" clip-rule="evenodd" d="M101.693 4.95132C98.1053 4.95132 95.6105 7.85372 95.6105 11.3594C95.6105 15.1749 98.3499 17.7675 102.019 17.7512C103.665 17.7512 105.003 17.2784 106.046 16.4468C105.753 15.5989 105.051 13.6911 105.051 13.6911C104.089 14.5716 103.242 14.9467 102.068 14.9467C100.519 14.9467 99.4097 14.1151 99.0673 12.5334H107.628C107.66 12.2236 107.677 11.8975 107.677 11.6203C107.677 8.14722 105.802 4.95132 101.693 4.95132ZM101.693 7.77219C103.16 7.77219 104.073 8.81575 104.285 10.3811H99.0347C99.3119 8.79944 100.241 7.77219 101.693 7.77219Z" fill="#FC3131"/>
  <path d="M113.041 11.3594C113.041 7.85372 115.732 4.95132 119.482 4.95132C121.194 4.95132 122.417 5.42418 123.412 6.20685C123.151 6.89168 122.335 9.17447 122.335 9.17447C121.585 8.45702 120.852 7.95155 119.466 7.95155C117.721 7.95155 116.482 9.48428 116.482 11.3431C116.482 13.2183 117.705 14.7347 119.596 14.7347C120.77 14.7347 121.569 14.2292 122.417 13.4302C122.417 13.4302 123.314 15.925 123.493 16.4142C122.498 17.2294 121.259 17.7512 119.433 17.7512C115.748 17.7675 113.041 14.914 113.041 11.3594Z" fill="#94A3B8"/>
  <path d="M138.706 5.1959H142.196V6.9406C142.995 5.91335 144.055 4.96762 145.816 4.96762C147.43 4.96762 148.636 5.68507 149.272 6.9243C150.348 5.66876 151.637 4.96762 153.316 4.96762C155.909 4.96762 157.474 6.53296 157.474 9.48428V17.4903H153.985V10.6257C153.985 8.9788 153.251 8.13091 151.946 8.13091C150.642 8.13091 149.843 8.9788 149.843 10.6257V17.4903H146.354V10.6257C146.354 8.9788 145.62 8.13091 144.315 8.13091C143.011 8.13091 142.212 8.9788 142.212 10.6257V17.4903H138.723V5.1959H138.706Z" fill="#94A3B8"/>
  <path d="M112.193 15.8109C112.193 16.887 111.378 17.7512 110.351 17.7512C109.324 17.7512 108.508 16.887 108.508 15.8109C108.508 14.7347 109.324 13.8705 110.351 13.8705C111.378 13.8705 112.193 14.7347 112.193 15.8109Z" fill="#94A3B8"/>
  <path fill-rule="evenodd" clip-rule="evenodd" d="M16.088 11.3268C16.088 14.8977 18.9904 17.8001 22.5614 17.8001C26.1486 17.8001 29.0347 14.8977 29.0347 11.3268C29.0347 7.75588 26.1323 4.85348 22.5614 4.85348C18.9904 4.85348 16.088 7.75588 16.088 11.3268ZM19.4796 11.3268C19.4796 9.63103 20.8656 8.24505 22.5614 8.24505C24.2735 8.24505 25.6431 9.63103 25.6431 11.3268C25.6431 13.0226 24.2572 14.4086 22.5614 14.4086C20.8656 14.4086 19.4796 13.0226 19.4796 11.3268Z" fill="#FC3131"/>
  <path fill-rule="evenodd" clip-rule="evenodd" d="M68.9345 11.3268C68.9345 14.8977 71.8369 17.8001 75.4079 17.8001C78.9788 17.8001 81.8812 14.8977 81.8812 11.3268C81.8812 7.75588 78.9788 4.85348 75.4079 4.85348C71.8369 4.85348 68.9345 7.75588 68.9345 11.3268ZM72.3261 11.3268C72.3261 9.63103 73.7121 8.24505 75.4079 8.24505C77.1037 8.24505 78.4896 9.63103 78.4896 11.3268C78.4896 13.0226 77.1037 14.4086 75.4079 14.4086C73.7121 14.4086 72.3261 13.0226 72.3261 11.3268Z" fill="#FC3131"/>
  <path fill-rule="evenodd" clip-rule="evenodd" d="M124.162 11.3268C124.162 14.8977 127.064 17.8001 130.635 17.8001C134.206 17.8001 137.108 14.8977 137.108 11.3268C137.108 7.75588 134.206 4.85348 130.635 4.85348C127.064 4.85348 124.162 7.75588 124.162 11.3268ZM127.553 11.3268C127.553 9.63103 128.939 8.24505 130.635 8.24505C132.331 8.24505 133.717 9.63103 133.717 11.3268C133.717 13.0226 132.331 14.4086 130.635 14.4086C128.939 14.4086 127.553 13.0226 127.553 11.3268Z" fill="#94A3B8"/>
</svg>
