<svg width="160" height="24" xmlns="http://www.w3.org/2000/svg" fill="none">

 <g>
  <title>Layer 1</title>
  <path id="svg_7" fill="#94A3B8" d="m113.041,11.3594c0,-3.50568 2.691,-6.40808 6.441,-6.40808c1.712,0 2.935,0.47286 3.93,1.25553c-0.261,0.68483 -1.077,2.96762 -1.077,2.96762c-0.75,-0.71745 -1.483,-1.22292 -2.869,-1.22292c-1.745,0 -2.984,1.53273 -2.984,3.39155c0,1.8752 1.223,3.3916 3.114,3.3916c1.174,0 1.973,-0.5055 2.821,-1.3045c0,0 0.897,2.4948 1.076,2.984c-0.995,0.8152 -2.234,1.337 -4.06,1.337c-3.685,0.0163 -6.392,-2.8372 -6.392,-6.3918z"/>
  <path id="svg_8" fill="#94A3B8" d="m138.706,5.1959l3.49,0l0,1.7447c0.799,-1.02725 1.859,-1.97298 3.62,-1.97298c1.614,0 2.82,0.71745 3.456,1.95668c1.076,-1.25554 2.365,-1.95668 4.044,-1.95668c2.593,0 4.158,1.56534 4.158,4.51666l0,8.00602l-3.489,0l0,-6.8646c0,-1.6469 -0.734,-2.49479 -2.039,-2.49479c-1.304,0 -2.103,0.84789 -2.103,2.49479l0,6.8646l-3.489,0l0,-6.8646c0,-1.6469 -0.734,-2.49479 -2.039,-2.49479c-1.304,0 -2.103,0.84789 -2.103,2.49479l0,6.8646l-3.489,0l0,-12.2944l-0.017,0z"/>
  <path id="svg_9" fill="#94A3B8" d="m112.193,15.8109c0,1.0761 -0.815,1.9403 -1.842,1.9403c-1.027,0 -1.843,-0.8642 -1.843,-1.9403c0,-1.0762 0.816,-1.9404 1.843,-1.9404c1.027,0 1.842,0.8642 1.842,1.9404z"/>
  <path id="svg_12" fill="#94A3B8" d="m124.162,11.3268c0,3.5709 2.902,6.4733 6.473,6.4733c3.571,0 6.473,-2.9024 6.473,-6.4733c0,-3.57092 -2.902,-6.47332 -6.473,-6.47332c-3.571,0 -6.473,2.9024 -6.473,6.47332zm3.391,0c0,-1.69577 1.386,-3.08175 3.082,-3.08175c1.696,0 3.082,1.38598 3.082,3.08175c0,1.6958 -1.386,3.0818 -3.082,3.0818c-1.696,0 -3.082,-1.386 -3.082,-3.0818z" clip-rule="evenodd" fill-rule="evenodd"/>
  <text font-weight="bold" transform="matrix(1.10629 0 0 0.947736 -18.4353 0.563624)" stroke="null" xml:space="preserve" text-anchor="start" font-family="'Assistant'" font-size="24" stroke-width="0" id="svg_13" y="18.02267" x="19.83846" fill="#fc3131">PolServie</text>
 </g>
</svg>