<svg width="24" height="24" viewBox="0 0 24 24" fill="none" xmlns="http://www.w3.org/2000/svg"><path d="M12 22C10.0222 22 8.08879 21.4135 6.4443 20.3147C4.79981 19.2159 3.51809 17.6541 2.76121 15.8268C2.00433 13.9996 1.8063 11.9889 2.19215 10.0491C2.578 8.10929 3.53041 6.32746 4.92894 4.92894C6.32746 3.53041 8.10929 2.578 10.0491 2.19215C11.9889 1.8063 13.9996 2.00433 15.8268 2.76121C17.6541 3.51809 19.2159 4.79981 20.3147 6.4443C21.4135 8.08879 22 10.0222 22 12C22 14.6522 20.9464 17.1957 19.0711 19.0711C17.1957 20.9464 14.6522 22 12 22ZM12 4C10.4178 4 8.87104 4.4692 7.55544 5.34825C6.23985 6.2273 5.21447 7.47673 4.60897 8.93854C4.00347 10.4003 3.84504 12.0089 4.15372 13.5607C4.4624 15.1126 5.22433 16.538 6.34315 17.6569C7.46197 18.7757 8.88743 19.5376 10.4393 19.8463C11.9911 20.155 13.5997 19.9965 15.0615 19.391C16.5233 18.7855 17.7727 17.7602 18.6518 16.4446C19.5308 15.129 20 13.5823 20 12C20 9.87827 19.1572 7.84344 17.6569 6.34315C16.1566 4.84286 14.1217 4 12 4Z" fill="#94A3B8"/><path d="M13 15H11V12H12C12.3956 12 12.7822 11.8827 13.1111 11.6629C13.44 11.4432 13.6964 11.1308 13.8478 10.7654C13.9991 10.3999 14.0387 9.99779 13.9616 9.60982C13.8844 9.22186 13.6939 8.8655 13.4142 8.58579C13.1345 8.30609 12.7781 8.1156 12.3902 8.03843C12.0022 7.96126 11.6001 8.00087 11.2346 8.15224C10.8692 8.30362 10.5568 8.55997 10.3371 8.88886C10.1173 9.21776 10 9.60444 10 10H8C7.99945 9.25174 8.20878 8.51833 8.60422 7.88309C8.99967 7.24786 9.56536 6.73628 10.237 6.40649C10.9087 6.0767 11.6594 5.94192 12.4038 6.01746C13.1483 6.093 13.8566 6.37584 14.4483 6.83383C15.04 7.29182 15.4914 7.90661 15.7512 8.60833C16.011 9.31005 16.0687 10.0706 15.9179 10.8035C15.767 11.5364 15.4136 12.2122 14.8978 12.7543C14.382 13.2964 13.7245 13.6829 13 13.87V15Z" fill="#94A3B8"/><path d="M13 16H11V18H13V16Z" fill="#94A3B8"/></svg>
