<svg width="24" height="24" viewBox="0 0 24 24" fill="none" xmlns="http://www.w3.org/2000/svg"><path d="M20.53 14.73L18.76 13C18.3853 12.6275 17.8784 12.4184 17.35 12.4184C16.8216 12.4184 16.3147 12.6275 15.94 13L14.83 14.11C12.8692 12.8016 11.1925 11.1113 9.9 9.13998L11 7.99997C11.3725 7.62525 11.5816 7.11835 11.5816 6.58997C11.5816 6.0616 11.3725 5.5547 11 5.17997L9.24 3.43997C8.8657 3.07051 8.36093 2.86334 7.835 2.86334C7.30907 2.86334 6.8043 3.07051 6.43 3.43997L3.48 6.38997C3.26604 6.59567 3.1024 6.84794 3.0018 7.12718C2.90121 7.40641 2.86637 7.70508 2.9 7.99997C3.41 12.74 11.17 21.12 16.17 21.16C16.4261 21.1574 16.6791 21.104 16.9143 21.0027C17.1495 20.9014 17.3622 20.7543 17.54 20.57L20.54 17.57C20.7268 17.3834 20.8748 17.1617 20.9755 16.9176C21.0762 16.6735 21.1275 16.4119 21.1266 16.1479C21.1257 15.8839 21.0725 15.6226 20.9701 15.3793C20.8677 15.1359 20.7181 14.9152 20.53 14.73ZM16.18 19.15C12.51 19.15 5.34 11.9 4.89 7.83997L7.89 4.88997L9.6 6.61997L7.37 8.83997L7.77 9.50997C9.41603 12.2561 11.7139 14.554 14.46 16.2L15.13 16.6L17.35 14.38L19.11 16.13L16.18 19.15Z" fill="#94A3B8"/></svg>
