<svg width="24" height="24" viewBox="0 0 24 24" fill="none" xmlns="http://www.w3.org/2000/svg">
<path d="M17 7.5C17 6.17392 16.4732 4.90215 15.5355 3.96447C14.5979 3.02678 13.3261 2.5 12 2.5C10.6739 2.5 9.40215 3.02678 8.46447 3.96447C7.52678 4.90215 7 6.17392 7 7.5H9C9 6.70435 9.31607 5.94129 9.87868 5.37868C10.4413 4.81607 11.2044 4.5 12 4.5C12.7956 4.5 13.5587 4.81607 14.1213 5.37868C14.6839 5.94129 15 6.70435 15 7.5C15.0003 7.67212 14.9639 7.84232 14.8932 7.99924C14.8225 8.15617 14.7191 8.2962 14.59 8.41L13.34 9.5H7V11.5H14.14L9.91 12.5H7V14.5H7.71C7.25201 15.0661 7.00147 15.7718 7 16.5C7 17.8261 7.52678 19.0979 8.46447 20.0355C9.40215 20.9732 10.6739 21.5 12 21.5C13.3261 21.5 14.5979 20.9732 15.5355 20.0355C16.4732 19.0979 17 17.8261 17 16.5H15C15 17.2956 14.6839 18.0587 14.1213 18.6213C13.5587 19.1839 12.7956 19.5 12 19.5C11.2044 19.5 10.4413 19.1839 9.87868 18.6213C9.31607 18.0587 9 17.2956 9 16.5C8.99969 16.3279 9.0361 16.1577 9.1068 16.0008C9.1775 15.8438 9.28087 15.7038 9.41 15.59L10 15.1L10.68 14.5H17V12.5H9.91L14.14 11.5H17V9.5H16.29C16.748 8.93391 16.9985 8.22816 17 7.5Z" fill="#94A3B8"/>
</svg>
