<svg xmlns="http://www.w3.org/2000/svg" width="76" height="28" viewBox="0 0 76 28">
    <g fill="none" fill-rule="evenodd">
        <path d="M0 0h76v28H0z"/>
        <path fill="#515151" fill-rule="nonzero"
              d="M22.955 6.576h.62c.28 0 .509-.076.687-.227a.74.74 0 0 0 .267-.587.69.69 0 0 0-.245-.558c-.163-.137-.386-.205-.668-.205-.284 0-.513.068-.687.205a.777.777 0 0 0-.299.564h-.556c.03-.395.183-.706.46-.933.28-.228.649-.341 1.105-.341.428 0 .781.114 1.059.344.276.227.413.518.413.874 0 .252-.078.476-.235.672a1.108 1.108 0 0 1-.617.385v.025c.305.04.546.16.722.363.176.204.264.46.264.77 0 .374-.156.69-.468.95-.311.256-.694.384-1.148.384-.483 0-.879-.119-1.186-.356a1.211 1.211 0 0 1-.493-.937h.553c.026.24.14.43.344.574.201.143.46.214.776.214.307 0 .556-.078.747-.233a.757.757 0 0 0 .287-.612c0-.261-.094-.464-.28-.61-.187-.146-.446-.22-.776-.22h-.646v-.505zm4.001 2.133c.28 0 .512-.08.697-.24a.78.78 0 0 0 .273-.609v-.274l-.897.057c-.521.031-.782.213-.782.545 0 .158.064.284.194.379.127.095.299.142.515.142zm-.118.476c-.347 0-.627-.091-.84-.274a.911.911 0 0 1-.317-.726c0-.292.11-.521.33-.688.22-.168.539-.265.955-.29l.96-.057v-.284c0-.21-.068-.372-.203-.485-.136-.114-.33-.17-.582-.17-.2 0-.367.047-.503.141a.6.6 0 0 0-.258.382h-.53c.008-.286.136-.527.384-.723.248-.193.552-.29.913-.29.405 0 .728.099.97.297.242.2.363.467.363.801v2.335h-.525v-.59h-.013c-.097.19-.246.34-.445.451-.2.114-.419.17-.659.17zm2.914-2.978v2.947h-.547V5.753h2.194v.454h-1.647zm3.87-.486c.44 0 .794.159 1.063.477.271.32.407.738.407 1.255 0 .518-.135.936-.404 1.256-.27.318-.62.476-1.053.476-.502 0-.867-.194-1.094-.583h-.013v1.688h-.553V5.753h.525v.552h.012c.1-.177.25-.319.452-.426.202-.105.421-.158.659-.158zm-.101 2.975a.89.89 0 0 0 .728-.337c.185-.227.277-.53.277-.906 0-.374-.092-.675-.277-.902a.887.887 0 0 0-.728-.34.88.88 0 0 0-.72.343c-.184.23-.276.53-.276.9s.092.67.277.898c.182.23.422.344.719.344zm2.455 1.691c-.083 0-.163-.007-.242-.022v-.463c.064.012.14.019.226.019a.556.556 0 0 0 .382-.127c.095-.086.178-.231.248-.435l.067-.202-1.27-3.404h.59l.96 2.842h.012l.961-2.842h.582l-1.342 3.61c-.146.392-.302.662-.468.807-.167.145-.403.217-.706.217zm4.11-1.176c-.374 0-.683-.084-.93-.253a.9.9 0 0 1-.416-.675h.563a.53.53 0 0 0 .255.347c.137.082.313.123.528.123.248 0 .442-.053.582-.16a.493.493 0 0 0 .203-.414c0-.377-.262-.565-.785-.565h-.519V7.16h.519c.447 0 .67-.17.67-.508a.434.434 0 0 0-.158-.357c-.115-.094-.28-.142-.497-.142a.959.959 0 0 0-.508.123.47.47 0 0 0-.236.329h-.54a.93.93 0 0 1 .4-.666c.231-.164.526-.246.884-.246.38 0 .676.085.888.255a.803.803 0 0 1 .308.663.743.743 0 0 1-.572.735v.025c.46.1.69.359.69.78a.936.936 0 0 1-.366.766c-.244.196-.565.294-.963.294zm1.936-.057V5.753h.548v2.552h.025l1.765-2.552h.547v3.4h-.547V6.602h-.025L42.57 9.154h-.548zm6.14-2.947h-1.114v2.947H46.5V6.207h-1.113v-.454h2.773v.454zm1.026 1.092v1.4h.646c.225 0 .405-.064.54-.192A.666.666 0 0 0 50.576 8a.67.67 0 0 0-.203-.511c-.134-.126-.313-.19-.538-.19h-.646zm-.547-1.546h.547v1.091h.646c.392 0 .705.104.938.313.234.208.35.489.35.842s-.116.634-.35.842c-.233.209-.546.313-.938.313h-1.193V5.753zm4.561 3.4v-3.4h.547v2.552h.026l1.765-2.552h.547v3.4h-.547V6.602h-.025l-1.766 2.553h-.547zm4.774.058c-.373 0-.683-.084-.928-.253a.9.9 0 0 1-.417-.675h.563a.53.53 0 0 0 .254.347c.138.082.314.123.528.123.248 0 .442-.053.582-.16a.493.493 0 0 0 .204-.414c0-.377-.262-.565-.786-.565h-.518V7.16h.518c.448 0 .671-.17.671-.508a.434.434 0 0 0-.159-.357c-.114-.094-.28-.142-.496-.142a.959.959 0 0 0-.509.123.47.47 0 0 0-.235.329h-.54a.93.93 0 0 1 .4-.666c.231-.164.526-.246.884-.246.38 0 .676.085.888.255a.803.803 0 0 1 .308.663.743.743 0 0 1-.572.735v.025c.46.1.69.359.69.78a.936.936 0 0 1-.366.766c-.244.196-.565.294-.964.294zM28.26 20.844l-.78-2.29h-3.256l-.781 2.29h-1.38l3.084-8.472h1.433l3.084 8.472H28.26zm-2.426-7.063l-1.273 3.716h2.581l-1.273-3.716h-.035zm7.955.622c1.64 0 2.717 1.274 2.717 3.253 0 1.973-1.071 3.252-2.687 3.252-.924 0-1.652-.405-2.036-1.11h-.024v3.13h-1.285v-8.46h1.237v1.057h.03c.361-.687 1.154-1.122 2.048-1.122zm-.326 5.425c1.042 0 1.729-.851 1.729-2.172 0-1.315-.687-2.172-1.729-2.172-1.018 0-1.71.874-1.716 2.172.006 1.303.693 2.172 1.716 2.172zm7.381-5.425c1.64 0 2.717 1.274 2.717 3.253 0 1.973-1.071 3.252-2.687 3.252-.923 0-1.651-.405-2.036-1.11h-.024v3.13H37.53v-8.46h1.237v1.057h.03c.36-.687 1.154-1.122 2.047-1.122zm-.325 5.425c1.042 0 1.728-.851 1.728-2.172 0-1.315-.686-2.172-1.728-2.172-1.018 0-1.71.874-1.717 2.172.006 1.303.693 2.172 1.717 2.172zm6.611-1.344h1.308c.095.84.918 1.391 2.042 1.391 1.078 0 1.853-.552 1.853-1.31 0-.657-.468-1.05-1.574-1.32l-1.107-.264c-1.569-.376-2.297-1.104-2.297-2.284 0-1.462 1.285-2.466 3.108-2.466 1.805 0 3.042 1.004 3.083 2.466h-1.29c-.077-.846-.781-1.356-1.811-1.356-1.03 0-1.734.516-1.734 1.268 0 .599.45.95 1.55 1.221l.942.229c1.752.41 2.48 1.11 2.48 2.348 0 1.586-1.273 2.578-3.297 2.578-1.894 0-3.173-.969-3.256-2.501zm7.997-5.449h1.278v1.433h1.231v1.004h-1.23v3.564c0 .551.248.81.787.81.136 0 .355-.018.438-.03v1.004a3.65 3.65 0 0 1-.723.065c-1.284 0-1.781-.487-1.781-1.72v-3.693h-.888v-1.004h.888v-1.433zm6.345 7.885c-1.859 0-3.042-1.256-3.042-3.264 0-2.002 1.19-3.27 3.042-3.27 1.853 0 3.036 1.262 3.036 3.27s-1.178 3.264-3.036 3.264zm0-1.057c1.089 0 1.734-.816 1.734-2.207 0-1.392-.645-2.213-1.734-2.213-1.09 0-1.74.827-1.74 2.213 0 1.391.65 2.207 1.74 2.207zm4.066.98v-6.375h1.225v1.074h.024c.201-.71.793-1.139 1.55-1.139.143 0 .326.018.427.047v1.192a2.034 2.034 0 0 0-.562-.082c-.847 0-1.38.581-1.38 1.48v3.804h-1.284zm6.748-5.418c-.923 0-1.592.67-1.663 1.65h3.261c-.03-.993-.663-1.65-1.598-1.65zm1.592 3.552h1.225c-.183 1.145-1.314 1.943-2.758 1.943-1.864 0-3.025-1.244-3.025-3.24 0-1.997 1.172-3.294 2.972-3.294 1.764 0 2.876 1.215 2.876 3.147v.446h-4.551v.076c0 1.104.698 1.832 1.752 1.832.746 0 1.331-.352 1.51-.91zM13.616 19.78c-.733 1.058-1.492 2.111-2.69 2.133-1.179.022-1.557-.69-2.902-.69-1.347 0-1.768.668-2.881.712-1.157.043-2.036-1.144-2.776-2.198-1.51-2.156-2.663-6.096-1.113-8.755.768-1.32 2.144-2.156 3.636-2.178 1.135-.021 2.208.756 2.902.756.695 0 1.997-.933 3.366-.796.573.023 2.181.228 3.214 1.72-.081.053-1.92 1.11-1.897 3.31.022 2.628 2.332 3.501 2.359 3.513-.021.062-.37 1.247-1.218 2.472zM8.586 5.876c.635-.734 1.706-1.28 2.59-1.316.113 1.019-.302 2.04-.915 2.775-.615.734-1.62 1.306-2.608 1.23-.134-.998.364-2.038.934-2.69z"/>
    </g>
</svg>
