<svg xmlns="http://www.w3.org/2000/svg" width="76" height="28" viewBox="0 0 76 28"> <g fill="none" fill-rule="evenodd"> <path d="M0 0h76v28H0z"/> <path fill="#515151" fill-rule="nonzero" d="M23.73 4.601c.682 0 1.213.2 1.594.6.382.401.573.96.573 1.675 0 .717-.19 1.277-.573 1.678-.38.4-.91.6-1.593.6h-1.575V4.6h1.575zM22.73 8.643h.964c.52 0 .919-.153 1.199-.458.28-.303.42-.737.42-1.303 0-.57-.14-1.007-.417-1.312-.28-.305-.68-.458-1.202-.458h-.964v3.53zm5.165.542c-.481 0-.865-.156-1.151-.47-.286-.313-.43-.734-.43-1.262s.144-.948.43-1.262c.286-.313.67-.47 1.151-.47.482 0 .866.157 1.152.47.286.314.43.734.43 1.262s-.144.949-.43 1.262c-.286.314-.67.47-1.152.47zm0-.489c.32 0 .57-.109.748-.328.18-.22.27-.526.27-.915 0-.391-.09-.696-.27-.915-.178-.218-.427-.328-.748-.328-.32 0-.569.11-.747.328-.18.221-.27.526-.27.915 0 .39.09.694.27.915.18.219.43.328.747.328zm5.487.458h-.56L32.04 6.51h-.013l-.782 2.644h-.56l-.96-3.401h.546l.697 2.78h.013l.785-2.78h.535l.785 2.78h.013l.697-2.78h.547l-.961 3.4zm1.377-3.401h.522v.552h.012c.219-.39.592-.584 1.12-.584.378 0 .676.113.894.338.218.223.328.528.328.915v2.18h-.554V7.068c0-.277-.07-.49-.213-.637-.144-.147-.35-.22-.62-.22-.282 0-.508.088-.678.264-.172.177-.257.411-.257.704v1.975h-.554V5.753zm3.588-1.35h.553v4.75h-.553v-4.75zm2.694 4.782c-.482 0-.865-.156-1.152-.47-.286-.313-.43-.734-.43-1.262s.144-.948.43-1.262c.287-.313.67-.47 1.152-.47.481 0 .865.157 1.151.47.287.314.43.734.43 1.262s-.143.949-.43 1.262c-.286.314-.67.47-1.151.47zm0-.489c.32 0 .57-.109.747-.328.18-.22.27-.526.27-.915 0-.391-.09-.696-.27-.915-.178-.218-.427-.328-.747-.328s-.57.11-.748.328c-.18.221-.27.526-.27.915 0 .39.09.694.27.915.18.219.43.328.748.328zm3.228.013c.28 0 .512-.08.697-.24a.78.78 0 0 0 .273-.609v-.274l-.897.057c-.521.031-.782.213-.782.545 0 .158.064.284.194.379.127.095.299.142.515.142zm-.118.476c-.347 0-.627-.091-.84-.274a.911.911 0 0 1-.317-.726c0-.292.11-.521.33-.688.22-.168.539-.265.955-.29l.96-.057v-.284c0-.21-.068-.372-.203-.485-.136-.114-.33-.17-.582-.17-.2 0-.367.047-.503.141a.6.6 0 0 0-.258.382h-.53c.008-.286.136-.527.384-.723.248-.193.552-.29.913-.29.405 0 .728.099.97.297.242.2.363.467.363.801v2.335h-.525v-.59h-.013c-.097.19-.246.34-.445.451-.2.114-.419.17-.659.17zm3.623 0c-.432 0-.786-.158-1.06-.476-.273-.32-.41-.738-.41-1.256 0-.515.137-.934.41-1.255.27-.318.62-.477 1.047-.477.511 0 .876.195 1.095.584h.012V4.402h.554v4.752h-.528V8.58h-.01c-.229.403-.599.605-1.11.605zm.099-2.975a.884.884 0 0 0-.725.34c-.185.228-.277.529-.277.903 0 .377.092.679.277.906a.887.887 0 0 0 .725.337.883.883 0 0 0 .722-.344c.184-.229.277-.529.277-.899s-.093-.67-.277-.899a.883.883 0 0 0-.722-.344zm5.194 2.975c-.482 0-.866-.156-1.152-.47-.286-.313-.43-.734-.43-1.262s.144-.948.43-1.262c.286-.313.67-.47 1.152-.47.48 0 .865.157 1.151.47.286.314.43.734.43 1.262s-.144.949-.43 1.262c-.286.314-.67.47-1.151.47zm0-.489c.32 0 .569-.109.747-.328.18-.22.27-.526.27-.915 0-.391-.09-.696-.27-.915-.178-.218-.427-.328-.747-.328s-.57.11-.748.328c-.18.221-.27.526-.27.915 0 .39.09.694.27.915.18.219.43.328.748.328zm2.108-2.943h.522v.552h.013c.218-.39.591-.584 1.12-.584.377 0 .675.113.893.338.218.223.328.528.328.915v2.18h-.554V7.068c0-.277-.07-.49-.213-.637-.144-.147-.35-.22-.62-.22-.282 0-.508.088-.678.264-.171.177-.257.411-.257.704v1.975h-.554V5.753zm5.795-.767v.767h.668v.454h-.668v2.041c0 .303.142.455.426.455.096 0 .175-.006.239-.016v.464c-.08.019-.2.028-.356.028-.31 0-.531-.07-.665-.208-.132-.141-.197-.375-.197-.7V6.206h-.477v-.454h.477v-.767h.553zm1.26-.584h.553v1.903h.013c.216-.39.59-.584 1.12-.584.375 0 .678.116.91.347.23.232.346.537.346.915v2.17h-.554V7.082c0-.271-.076-.485-.229-.64-.154-.154-.368-.23-.639-.23-.29 0-.524.09-.7.27-.178.181-.267.42-.267.717v1.956h-.553V4.402zm4.99 1.802a.903.903 0 0 0-.668.265c-.178.177-.277.409-.296.697h1.887c-.007-.288-.095-.52-.264-.697a.866.866 0 0 0-.659-.265zm1.457 1.978c-.047.292-.204.532-.47.72-.268.189-.585.283-.952.283-.481 0-.864-.154-1.148-.463-.282-.31-.423-.728-.423-1.256s.14-.95.423-1.268c.282-.318.656-.477 1.123-.477.458 0 .82.15 1.087.448.268.301.401.708.401 1.221v.215h-2.462v.031c0 .324.093.583.277.776.185.194.43.29.735.29.214 0 .4-.047.556-.141a.655.655 0 0 0 .306-.379h.547zM28.26 20.844l-.78-2.29h-3.256l-.781 2.29h-1.38l3.084-8.472h1.433l3.084 8.472H28.26zm-2.426-7.063l-1.273 3.716h2.581l-1.273-3.716h-.035zm7.955.622c1.64 0 2.717 1.274 2.717 3.253 0 1.973-1.071 3.252-2.687 3.252-.924 0-1.652-.405-2.036-1.11h-.024v3.13h-1.285v-8.46h1.237v1.057h.03c.361-.687 1.154-1.122 2.048-1.122zm-.326 5.425c1.042 0 1.729-.851 1.729-2.172 0-1.315-.687-2.172-1.729-2.172-1.018 0-1.71.874-1.716 2.172.006 1.303.693 2.172 1.716 2.172zm7.381-5.425c1.64 0 2.717 1.274 2.717 3.253 0 1.973-1.071 3.252-2.687 3.252-.923 0-1.651-.405-2.036-1.11h-.024v3.13H37.53v-8.46h1.237v1.057h.03c.36-.687 1.154-1.122 2.047-1.122zm-.325 5.425c1.042 0 1.728-.851 1.728-2.172 0-1.315-.686-2.172-1.728-2.172-1.018 0-1.71.874-1.717 2.172.006 1.303.693 2.172 1.717 2.172zm6.611-1.344h1.308c.095.84.918 1.391 2.042 1.391 1.078 0 1.853-.552 1.853-1.31 0-.657-.468-1.05-1.574-1.32l-1.107-.264c-1.569-.376-2.297-1.104-2.297-2.284 0-1.462 1.285-2.466 3.108-2.466 1.805 0 3.042 1.004 3.083 2.466h-1.29c-.077-.846-.781-1.356-1.811-1.356-1.03 0-1.734.516-1.734 1.268 0 .599.45.95 1.55 1.221l.942.229c1.752.41 2.48 1.11 2.48 2.348 0 1.586-1.273 2.578-3.297 2.578-1.894 0-3.173-.969-3.256-2.501zm7.997-5.449h1.278v1.433h1.231v1.004h-1.23v3.564c0 .551.248.81.787.81.136 0 .355-.018.438-.03v1.004a3.65 3.65 0 0 1-.723.065c-1.284 0-1.781-.487-1.781-1.72v-3.693h-.888v-1.004h.888v-1.433zm6.345 7.885c-1.859 0-3.042-1.256-3.042-3.264 0-2.002 1.19-3.27 3.042-3.27 1.853 0 3.036 1.262 3.036 3.27s-1.178 3.264-3.036 3.264zm0-1.057c1.089 0 1.734-.816 1.734-2.207 0-1.392-.645-2.213-1.734-2.213-1.09 0-1.74.827-1.74 2.213 0 1.391.65 2.207 1.74 2.207zm4.066.98v-6.375h1.225v1.074h.024c.201-.71.793-1.139 1.55-1.139.143 0 .326.018.427.047v1.192a2.034 2.034 0 0 0-.562-.082c-.847 0-1.38.581-1.38 1.48v3.804h-1.284zm6.748-5.418c-.923 0-1.592.67-1.663 1.65h3.261c-.03-.993-.663-1.65-1.598-1.65zm1.592 3.552h1.225c-.183 1.145-1.314 1.943-2.758 1.943-1.864 0-3.025-1.244-3.025-3.24 0-1.997 1.172-3.294 2.972-3.294 1.764 0 2.876 1.215 2.876 3.147v.446h-4.551v.076c0 1.104.698 1.832 1.752 1.832.746 0 1.331-.352 1.51-.91zM13.616 19.78c-.733 1.058-1.492 2.111-2.69 2.133-1.179.022-1.557-.69-2.902-.69-1.347 0-1.768.668-2.881.712-1.157.043-2.036-1.144-2.776-2.198-1.51-2.156-2.663-6.096-1.113-8.755.768-1.32 2.144-2.156 3.636-2.178 1.135-.021 2.208.756 2.902.756.695 0 1.997-.933 3.366-.796.573.023 2.181.228 3.214 1.72-.081.053-1.92 1.11-1.897 3.31.022 2.628 2.332 3.501 2.359 3.513-.021.062-.37 1.247-1.218 2.472zM8.586 5.876c.635-.734 1.706-1.28 2.59-1.316.113 1.019-.302 2.04-.915 2.775-.615.734-1.62 1.306-2.608 1.23-.134-.998.364-2.038.934-2.69z"/> </g> </svg>
