<svg width="48" height="48" viewBox="-12 -12 48 48" fill="none" xmlns="http://www.w3.org/2000/svg">
<path d="M10 5.5C10 6.32843 9.32843 7 8.5 7C7.67157 7 7 6.32843 7 5.5C7 4.67157 7.67157 4 8.5 4C9.32843 4 10 4.67157 10 5.5Z" fill="#94A3B8"/>
<path d="M10 11.5C10 12.3284 9.32843 13 8.5 13C7.67157 13 7 12.3284 7 11.5C7 10.6716 7.67157 10 8.5 10C9.32843 10 10 10.6716 10 11.5Z" fill="#94A3B8"/>
<path d="M10 17.5C10 18.3284 9.32843 19 8.5 19C7.67157 19 7 18.3284 7 17.5C7 16.6716 7.67157 16 8.5 16C9.32843 16 10 16.6716 10 17.5Z" fill="#94A3B8"/>
<path d="M16 5.5C16 6.32843 15.3284 7 14.5 7C13.6716 7 13 6.32843 13 5.5C13 4.67157 13.6716 4 14.5 4C15.3284 4 16 4.67157 16 5.5Z" fill="#94A3B8"/>
<path d="M16 11.5C16 12.3284 15.3284 13 14.5 13C13.6716 13 13 12.3284 13 11.5C13 10.6716 13.6716 10 14.5 10C15.3284 10 16 10.6716 16 11.5Z" fill="#94A3B8"/>
<path d="M16 17.5C16 18.3284 15.3284 19 14.5 19C13.6716 19 13 18.3284 13 17.5C13 16.6716 13.6716 16 14.5 16C15.3284 16 16 16.6716 16 17.5Z" fill="#94A3B8"/>
</svg>
