<svg xmlns="http://www.w3.org/2000/svg" width="76" height="28" viewBox="0 0 76 28">
    <g fill="none" fill-rule="evenodd">
        <path d="M0 0h76v28H0z"/>
        <path fill="#515151" fill-rule="nonzero"
              d="M26.214 8.551a1.41 1.41 0 0 1-.657.5c-.28.11-.608.166-.981.166-.378 0-.713-.088-1.005-.263a1.76 1.76 0 0 1-.68-.75 2.57 2.57 0 0 1-.246-1.126v-.4c0-.693.163-1.23.488-1.61.326-.38.783-.571 1.373-.571.483 0 .873.123 1.167.368.295.245.475.592.541 1.042h-.61c-.115-.608-.48-.912-1.095-.912-.41 0-.72.143-.93.428-.211.285-.318.698-.32 1.238v.376c0 .515.119.925.356 1.229.238.304.56.456.964.456.23 0 .43-.026.601-.076a.93.93 0 0 0 .427-.256V7.36h-1.072v-.493h1.68v1.685zm2.3.666c-.467 0-.847-.152-1.14-.456-.292-.304-.438-.71-.438-1.22v-.107c0-.338.065-.64.196-.907.13-.266.312-.474.547-.624.234-.15.488-.226.761-.226.448 0 .796.146 1.044.439.248.292.372.71.372 1.255v.243h-2.332c.009.337.108.609.298.816.19.207.43.31.723.31.208 0 .384-.042.528-.126.145-.084.27-.195.379-.334l.36.278c-.29.44-.722.659-1.298.659zm-.074-3.06a.788.788 0 0 0-.598.257c-.16.171-.26.411-.299.72h1.724V7.09c-.017-.296-.097-.526-.241-.689-.145-.163-.34-.244-.586-.244zm2.84-1.244v.827h.643v.451h-.642v2.117c0 .137.028.24.086.308.057.068.154.102.292.102.068 0 .161-.012.28-.037v.473a1.719 1.719 0 0 1-.452.063c-.263 0-.46-.079-.594-.237-.134-.157-.2-.381-.2-.672V6.191h-.627v-.45h.626v-.828h.589zm3.474 4.24h-.589V5.74h.589v3.414zm-.636-4.318c0-.095.029-.175.087-.24.058-.065.145-.098.26-.098.114 0 .2.033.26.098s.09.145.09.24c0 .094-.03.173-.09.236s-.146.095-.26.095c-.115 0-.202-.032-.26-.095a.335.335 0 0 1-.087-.236zm2.321.078v.827h.643v.451h-.643v2.117c0 .137.029.24.086.308.057.068.155.102.293.102.068 0 .161-.012.28-.037v.473a1.719 1.719 0 0 1-.452.063c-.263 0-.461-.079-.595-.237-.133-.157-.2-.381-.2-.672V6.191h-.627v-.45h.627v-.828h.588zm2.678 2.502c0-.334.066-.635.199-.902.132-.267.317-.473.553-.618.237-.145.507-.218.81-.218.469 0 .848.16 1.137.483.29.322.434.75.434 1.284v.04c0 .333-.064.631-.192.895-.129.264-.312.47-.55.617-.24.147-.513.22-.823.22-.466 0-.844-.16-1.134-.482-.29-.322-.434-.748-.434-1.278v-.04zm.592.07c0 .378.088.682.265.912.177.229.414.344.711.344a.847.847 0 0 0 .713-.35c.176-.232.264-.557.264-.976 0-.374-.09-.677-.269-.91a.857.857 0 0 0-.714-.348.847.847 0 0 0-.703.343c-.178.23-.267.558-.267.985zM43.49 5.74l.02.43a1.258 1.258 0 0 1 1.03-.493c.728 0 1.094.407 1.1 1.221v2.256h-.588v-2.26c-.002-.245-.059-.427-.17-.545-.111-.118-.285-.177-.52-.177-.19 0-.358.05-.503.152a1.03 1.03 0 0 0-.337.397v2.433h-.588V5.74h.556z"/>
        <path fill="#515151"
              d="M59.386 20.834h1.054v-7.115h-1.054v7.115zm9.473-4.552l-1.208 3.083h-.036l-1.249-3.083h-1.132l1.876 4.31-1.071 2.398h1.099l2.89-6.708H68.86zm-5.964 3.743c-.345 0-.823-.172-.823-.603 0-.55.597-.762 1.114-.762.462 0 .68.103.96.24a1.28 1.28 0 0 1-1.251 1.125zm.126-3.9c-.76 0-1.55.34-1.874 1.09l.933.395c.2-.395.57-.523.96-.523.545 0 1.098.33 1.106.915v.074a2.3 2.3 0 0 0-1.097-.275c-1.005 0-2.028.559-2.028 1.601 0 .953.822 1.567 1.747 1.567.707 0 1.097-.322 1.342-.697h.036v.55h1.016v-2.729c0-1.261-.933-1.967-2.14-1.967zm-6.496 1.024h-1.497v-2.44h1.497c.784 0 1.232.658 1.232 1.22 0 .55-.448 1.22-1.232 1.22zm-.027-3.43h-2.521v7.115h1.051v-2.696h1.47c1.167 0 2.311-.853 2.311-2.21 0-1.356-1.147-2.209-2.311-2.209zM42.76 20.027c-.727 0-1.334-.614-1.334-1.459 0-.853.607-1.475 1.334-1.475.716 0 1.28.622 1.28 1.475 0 .845-.564 1.46-1.28 1.46zm1.205-3.348h-.036c-.236-.283-.687-.54-1.26-.54-1.2 0-2.297 1.065-2.297 2.43 0 1.356 1.097 2.412 2.298 2.412.572 0 1.023-.259 1.26-.55h.035v.347c0 .925-.49 1.423-1.28 1.423-.643 0-1.042-.47-1.207-.865l-.916.387c.264.642.963 1.43 2.123 1.43 1.237 0 2.279-.733 2.279-2.52v-4.346h-1v.392zm1.726 4.155h1.053v-7.115h-1.053v7.115zm2.605-2.35c-.027-.932.717-1.41 1.252-1.41.418 0 .773.21.89.513l-2.142.898zm3.268-.804c-.198-.542-.809-1.54-2.053-1.54-1.232 0-2.258.98-2.258 2.42 0 1.356 1.016 2.42 2.377 2.42 1.1 0 1.736-.678 1.998-1.072l-.818-.55c-.272.403-.643.67-1.18.67-.533 0-.916-.247-1.16-.734l3.205-1.34-.111-.274zm-25.53-.798v1.028h2.433c-.071.575-.261.998-.553 1.292-.355.356-.909.751-1.88.751-1.496 0-2.668-1.22-2.668-2.732 0-1.512 1.172-2.732 2.669-2.732.809 0 1.398.32 1.832.734l.718-.725c-.608-.586-1.417-1.036-2.55-1.036-2.053 0-3.778 1.686-3.778 3.76 0 2.072 1.725 3.759 3.778 3.759 1.109 0 1.942-.367 2.597-1.056.671-.678.88-1.631.88-2.401 0-.24-.02-.46-.055-.642h-3.422zm6.244 3.145c-.727 0-1.354-.605-1.354-1.466 0-.873.627-1.468 1.354-1.468.726 0 1.351.595 1.351 1.468 0 .861-.625 1.466-1.351 1.466zm0-3.887c-1.326 0-2.405 1.017-2.405 2.42 0 1.393 1.079 2.42 2.405 2.42 1.325 0 2.404-1.027 2.404-2.42 0-1.403-1.079-2.42-2.404-2.42zm5.247 3.887c-.727 0-1.351-.605-1.351-1.466 0-.873.624-1.468 1.35-1.468.727 0 1.354.595 1.354 1.468 0 .861-.627 1.466-1.353 1.466zm0-3.887c-1.324 0-2.405 1.017-2.405 2.42a2.38 2.38 0 0 0 2.405 2.42 2.38 2.38 0 0 0 2.407-2.42c0-1.403-1.081-2.42-2.407-2.42z"/>
        <path fill="#515151" fill-rule="nonzero"
              d="M.174 20.425V6.112c0-.5.292-.932.715-1.137l8.348 8.291L.886 21.56a1.262 1.262 0 0 1-.712-1.135zm11.711-4.529L2.758 21.13l7.198-7.15 1.93 1.916zm2.837-3.631a1.258 1.258 0 0 1 .014 1.996l-1.939 1.112-2.121-2.107 2.12-2.106 1.926 1.105zM2.763 5.407l9.12 5.23-1.927 1.915-7.193-7.145z"/>
    </g>
</svg>
