<svg xmlns="http://www.w3.org/2000/svg" width="76" height="28" viewBox="0 0 76 28">
    <g fill="none" fill-rule="evenodd">
        <path d="M.003 0h75.461v28H.003z"/>
        <path fill="#515151" fill-rule="nonzero"
              d="M24.924 6.006a.683.683 0 0 0-.257-.56c-.171-.14-.412-.208-.722-.208a1 1 0 0 0-.652.214.658.658 0 0 0-.263.53h-.584c0-.235.065-.446.193-.632.13-.186.309-.332.54-.436a1.84 1.84 0 0 1 .766-.156c.495 0 .879.11 1.152.332.274.222.41.53.41.925 0 .204-.062.39-.188.559-.126.168-.3.3-.526.398.521.174.781.519.781 1.035 0 .397-.148.712-.443.945-.296.232-.691.349-1.186.349a1.99 1.99 0 0 1-.8-.157 1.289 1.289 0 0 1-.562-.445 1.172 1.172 0 0 1-.2-.686h.583c0 .233.092.427.277.582.184.155.418.232.702.232.318 0 .572-.074.762-.222a.707.707 0 0 0 .284-.586c0-.518-.321-.782-.964-.792h-.547v-.48h.544c.296-.006.52-.073.672-.2.152-.128.228-.308.228-.541zm3.572 3.234a1.18 1.18 0 0 1-.079-.346 1.255 1.255 0 0 1-.936.407c-.324 0-.59-.092-.798-.275a.889.889 0 0 1-.311-.697c0-.342.13-.608.39-.797.26-.19.627-.284 1.1-.284h.546V6.99a.63.63 0 0 0-.176-.47c-.118-.116-.29-.174-.52-.174a.82.82 0 0 0-.504.152c-.136.101-.204.224-.204.367h-.565c0-.164.058-.322.174-.475.117-.153.275-.274.475-.363.2-.089.419-.133.658-.133.379 0 .675.094.89.283.215.19.327.45.335.782v1.513c0 .301.038.541.115.72v.048h-.59zm-.933-.428a.99.99 0 0 0 .502-.137.827.827 0 0 0 .343-.355v-.674h-.44c-.69 0-1.034.201-1.034.604 0 .176.059.314.176.413.118.1.269.149.453.149zm4.622-2.393h-1.517V9.24h-.566V5.954h2.083v.465zm3.472 1.215c0 .5-.115.902-.344 1.208-.229.306-.539.459-.93.459-.4 0-.713-.127-.942-.38v1.582h-.563V5.954h.514l.028.365c.229-.284.547-.425.954-.425.395 0 .708.148.938.446.23.298.345.712.345 1.242v.052zm-.563-.064c0-.37-.079-.663-.237-.878a.764.764 0 0 0-.65-.322c-.34 0-.596.151-.766.453v1.57c.168.3.425.45.772.45a.76.76 0 0 0 .643-.321c.159-.214.238-.531.238-.952zm2.527.847l.766-2.463h.602l-1.322 3.793c-.205.547-.53.82-.976.82l-.106-.01-.21-.039v-.455l.152.012c.19 0 .339-.038.445-.115.107-.077.194-.218.263-.422l.125-.334-1.173-3.25h.614l.82 2.463zm3.886-1.564a.437.437 0 0 0-.176-.366c-.118-.09-.279-.135-.484-.135a.785.785 0 0 0-.497.155c-.132.103-.199.225-.199.364h-.559c0-.285.12-.519.359-.701.239-.182.538-.273.896-.273.385 0 .685.082.9.247.215.165.322.4.322.706a.68.68 0 0 1-.133.407.911.911 0 0 1-.38.295c.383.13.574.384.574.765a.85.85 0 0 1-.35.717c-.232.176-.543.264-.933.264-.379 0-.691-.093-.937-.278a.891.891 0 0 1-.37-.752h.56c0 .16.071.297.214.412.143.114.32.171.533.171.215 0 .389-.05.52-.149a.462.462 0 0 0 .198-.385c0-.184-.055-.316-.166-.396-.11-.08-.282-.12-.515-.12h-.562v-.474h.61c.384-.01.575-.168.575-.474zm3.688-.899h.563V9.24h-.563V6.844L43.678 9.24h-.562V5.954h.562v2.4l1.517-2.4zm4.117.456h-1.104v2.83h-.562V6.41h-1.082v-.456h2.748v.456zm1.369.677h.854c.373.004.668.101.884.291.217.19.326.449.326.775 0 .328-.112.591-.335.79-.223.198-.523.297-.9.297h-1.392V5.954h.563v1.133zm0 .459V8.78h.836c.21 0 .373-.054.489-.162a.58.58 0 0 0 .173-.445.618.618 0 0 0-.168-.448c-.113-.116-.27-.176-.473-.18h-.857zm6.85-1.592h.562V9.24h-.562V6.844L56.014 9.24h-.562V5.954h.562v2.4l1.517-2.4zm3.481.9a.437.437 0 0 0-.176-.367c-.118-.09-.279-.135-.483-.135a.785.785 0 0 0-.497.155c-.133.103-.2.225-.2.364h-.559c0-.285.12-.519.359-.701.24-.182.538-.273.897-.273.385 0 .685.082.9.247.214.165.322.4.322.706a.68.68 0 0 1-.134.407.911.911 0 0 1-.38.295c.383.13.574.384.574.765a.85.85 0 0 1-.35.717c-.232.176-.543.264-.932.264-.38 0-.692-.093-.938-.278a.891.891 0 0 1-.37-.752h.56c0 .16.071.297.214.412.143.114.32.171.534.171.214 0 .388-.05.52-.149a.462.462 0 0 0 .197-.385c0-.184-.055-.316-.166-.396-.11-.08-.282-.12-.515-.12h-.562v-.474h.61c.384-.01.575-.168.575-.474z"/>
        <path fill="#515151"
              d="M58.965 20.834h1.046v-7.115h-1.046v7.115zm9.406-4.552l-1.2 3.083h-.035l-1.24-3.083H64.77l1.863 4.31-1.064 2.398h1.091l2.87-6.708h-1.16zm-5.922 3.743c-.343 0-.818-.172-.818-.603 0-.55.593-.762 1.107-.762.459 0 .674.103.954.24a1.274 1.274 0 0 1-1.243 1.125zm.125-3.9c-.754 0-1.538.34-1.86 1.09l.925.395c.2-.395.566-.523.954-.523.54 0 1.09.33 1.099.915v.074a2.271 2.271 0 0 0-1.09-.275c-.998 0-2.014.559-2.014 1.601 0 .953.817 1.567 1.735 1.567.702 0 1.09-.322 1.333-.697h.036v.55H64.7v-2.729c0-1.261-.926-1.967-2.126-1.967zm-6.45 1.024h-1.486v-2.44h1.486c.779 0 1.224.658 1.224 1.22 0 .55-.445 1.22-1.224 1.22zm-.027-3.43h-2.503v7.115h1.044v-2.696h1.459c1.159 0 2.295-.853 2.295-2.21 0-1.356-1.14-2.209-2.295-2.209zm-13.64 6.308c-.722 0-1.325-.614-1.325-1.459 0-.853.603-1.475 1.324-1.475.711 0 1.271.622 1.271 1.475 0 .845-.56 1.46-1.27 1.46zm1.196-3.348h-.035c-.235-.283-.683-.54-1.25-.54-1.193 0-2.283 1.065-2.283 2.43 0 1.356 1.09 2.412 2.282 2.412.568 0 1.016-.259 1.25-.55h.036v.347c0 .925-.486 1.423-1.27 1.423-.639 0-1.036-.47-1.2-.865l-.909.387c.262.642.957 1.43 2.109 1.43 1.227 0 2.262-.733 2.262-2.52v-4.346h-.992v.392zm1.714 4.155h1.046v-7.115h-1.046v7.115zm2.587-2.35c-.028-.932.712-1.41 1.243-1.41.415 0 .767.21.884.513l-2.127.898zm3.244-.804c-.196-.542-.803-1.54-2.038-1.54-1.223 0-2.242.98-2.242 2.42 0 1.356 1.008 2.42 2.36 2.42a2.353 2.353 0 0 0 1.984-1.072l-.812-.55c-.27.403-.639.67-1.172.67-.53 0-.91-.247-1.153-.734l3.184-1.34-.11-.274zm-25.348-.798v1.028h2.415c-.07.575-.26.998-.55 1.292-.352.356-.901.751-1.865.751-1.486 0-2.65-1.22-2.65-2.732 0-1.512 1.164-2.732 2.65-2.732.803 0 1.388.32 1.82.734l.712-.725c-.604-.586-1.406-1.036-2.532-1.036-2.038 0-3.75 1.686-3.75 3.76 0 2.072 1.712 3.759 3.75 3.759 1.101 0 1.928-.367 2.58-1.056.666-.678.873-1.631.873-2.401 0-.24-.02-.46-.054-.642H25.85zm6.199 3.145c-.722 0-1.344-.605-1.344-1.466 0-.873.622-1.468 1.344-1.468.72 0 1.342.595 1.342 1.468 0 .861-.621 1.466-1.342 1.466zm0-3.887c-1.317 0-2.387 1.017-2.387 2.42 0 1.393 1.07 2.42 2.387 2.42 1.316 0 2.387-1.027 2.387-2.42 0-1.403-1.071-2.42-2.387-2.42zm5.21 3.887c-.722 0-1.342-.605-1.342-1.466 0-.873.62-1.468 1.341-1.468.722 0 1.344.595 1.344 1.468 0 .861-.622 1.466-1.344 1.466zm0-3.887c-1.315 0-2.388 1.017-2.388 2.42 0 1.393 1.073 2.42 2.387 2.42 1.317 0 2.39-1.027 2.39-2.42 0-1.403-1.073-2.42-2.39-2.42z"/>
        <path fill="#515151" fill-rule="nonzero"
              d="M.172 20.425V6.112c0-.5.29-.932.711-1.137l8.288 8.291L.88 21.56a1.263 1.263 0 0 1-.708-1.135zm11.629-4.529L2.738 21.13l7.148-7.15 1.915 1.916zm2.817-3.631a1.261 1.261 0 0 1 .014 1.996l-1.926 1.112-2.106-2.107 2.105-2.106 1.913 1.105zM2.743 5.407l9.056 5.23-1.913 1.915-7.143-7.145z"/>
    </g>
</svg>
