<svg xmlns="http://www.w3.org/2000/svg" width="76" height="28" viewBox="0 0 76 28">
    <g fill="none" fill-rule="evenodd">
        <path d="M0 0h76v28H0z"/>
        <path fill="#515151" fill-rule="nonzero"
              d="M25.17 5.794a.708.708 0 0 0-.268-.582c-.18-.144-.431-.217-.755-.217a1.05 1.05 0 0 0-.683.223.682.682 0 0 0-.275.55h-.61c0-.244.067-.462.201-.656.135-.193.323-.344.565-.453.242-.108.509-.162.802-.162.517 0 .919.115 1.205.345.286.23.43.551.43.961a.942.942 0 0 1-.198.58 1.322 1.322 0 0 1-.55.414c.545.18.817.54.817 1.076 0 .412-.154.74-.464.981-.31.242-.723.363-1.24.363-.308 0-.587-.054-.839-.163a1.347 1.347 0 0 1-.586-.462c-.14-.2-.21-.437-.21-.713h.61c0 .242.097.443.29.604.193.161.438.242.735.242.332 0 .598-.077.796-.23a.733.733 0 0 0 .298-.61c0-.538-.336-.812-1.009-.823h-.572v-.498h.57c.309-.007.543-.076.702-.209.16-.132.239-.32.239-.561zm3.468 3.36a1.218 1.218 0 0 1-.083-.36c-.274.282-.6.423-.98.423-.34 0-.617-.095-.835-.286a.92.92 0 0 1-.326-.724c0-.355.136-.631.409-.828.272-.197.656-.295 1.15-.295h.572v-.268a.653.653 0 0 0-.184-.487c-.123-.121-.304-.182-.544-.182a.863.863 0 0 0-.528.158c-.142.105-.213.232-.213.382h-.592c0-.17.061-.335.183-.494.122-.159.287-.285.496-.377.21-.093.439-.139.689-.139.397 0 .707.098.932.295.225.197.341.467.35.812v1.572c0 .313.04.562.12.747v.05h-.616zm-.977-.445c.185 0 .36-.047.525-.142a.862.862 0 0 0 .36-.37v-.7h-.462c-.72 0-1.081.21-1.081.628a.53.53 0 0 0 .184.43.713.713 0 0 0 .474.154zm2.395.445V5.74h1.342c.458 0 .81.08 1.055.238.245.16.367.392.367.7 0 .157-.048.3-.143.427a.887.887 0 0 1-.423.291.937.937 0 0 1 .501.284c.126.141.19.31.19.505 0 .314-.117.553-.35.72-.231.166-.56.249-.984.249h-1.555zm.588-1.499v1.029h.974c.246 0 .43-.045.552-.136a.448.448 0 0 0 .183-.382c0-.34-.253-.51-.757-.51h-.952zm0-.467h.76c.552 0 .828-.16.828-.48 0-.319-.261-.484-.783-.495h-.805v.975zm5.15 1.966a1.218 1.218 0 0 1-.083-.36c-.273.282-.6.423-.98.423-.339 0-.617-.095-.834-.286a.92.92 0 0 1-.326-.724c0-.355.136-.631.408-.828.273-.197.656-.295 1.15-.295h.573v-.268a.653.653 0 0 0-.185-.487c-.123-.121-.304-.182-.544-.182a.863.863 0 0 0-.528.158c-.142.105-.213.232-.213.382h-.591c0-.17.06-.335.182-.494.122-.159.288-.285.497-.377.209-.093.438-.139.688-.139.397 0 .708.098.932.295.225.197.342.467.35.812v1.572c0 .313.04.562.121.747v.05h-.617zm-.976-.445c.184 0 .359-.047.524-.142a.862.862 0 0 0 .36-.37v-.7h-.461c-.721 0-1.082.21-1.082.628a.53.53 0 0 0 .185.43.713.713 0 0 0 .474.154zm5.152.445h-.588V7.696H37.8v1.458h-.592V5.74h.592v1.48h1.58V5.74h.59v3.414zm3.448-2.94h-1.155v2.94h-.588v-2.94h-1.132V5.74h2.875v.473zm2.592 2.94a1.218 1.218 0 0 1-.083-.36c-.273.282-.6.423-.98.423-.339 0-.617-.095-.834-.286a.92.92 0 0 1-.326-.724c0-.355.136-.631.408-.828.273-.197.656-.295 1.15-.295h.573v-.268a.653.653 0 0 0-.185-.487c-.123-.121-.304-.182-.544-.182a.863.863 0 0 0-.528.158c-.142.105-.213.232-.213.382h-.591c0-.17.06-.335.183-.494.122-.159.287-.285.496-.377.209-.093.438-.139.688-.139.397 0 .708.098.932.295.225.197.342.467.35.812v1.572c0 .313.04.562.121.747v.05h-.617zm-.976-.445c.184 0 .359-.047.524-.142a.862.862 0 0 0 .36-.37v-.7h-.461c-.721 0-1.082.21-1.082.628a.53.53 0 0 0 .185.43.713.713 0 0 0 .474.154zm5.085-1.038h-.413v1.483h-.588V7.67h-.414l-.964 1.483h-.744l1.23-1.767-1.112-1.647h.712l.888 1.414h.404V5.74h.588v1.414h.4l.895-1.414h.712l-1.116 1.65 1.23 1.764h-.744L50.12 7.67zm4.415-1.93h.589v3.413h-.589v-2.49l-1.587 2.49h-.588V5.74h.588v2.493l1.587-2.493zm4.036.472h-1.154v2.94h-.589v-2.94h-1.132V5.74h2.875v.473zm2.745-.473h.589v3.414h-.589v-2.49l-1.587 2.49h-.588V5.74h.588v2.493l1.587-2.493zm4.93.934a.453.453 0 0 0-.184-.38c-.123-.094-.292-.14-.506-.14a.825.825 0 0 0-.52.16c-.14.108-.209.234-.209.379h-.585c0-.297.125-.54.376-.729.25-.19.563-.284.938-.284.403 0 .717.086.941.257.225.172.338.416.338.734a.703.703 0 0 1-.14.423.952.952 0 0 1-.398.306c.4.134.601.4.601.795a.882.882 0 0 1-.366.744c-.243.183-.569.275-.976.275-.397 0-.724-.096-.981-.289a.924.924 0 0 1-.387-.78h.585c0 .165.075.308.225.427.15.119.335.178.558.178.225 0 .406-.052.544-.155a.479.479 0 0 0 .207-.4c0-.192-.058-.329-.174-.412-.115-.083-.295-.125-.539-.125h-.588v-.492h.639c.4-.01.601-.174.601-.492z"/>
        <path fill="#515151"
              d="M59.386 20.834h1.054v-7.115h-1.054v7.115zm9.473-4.552l-1.208 3.083h-.036l-1.249-3.083h-1.132l1.876 4.31-1.071 2.398h1.099l2.89-6.708H68.86zm-5.964 3.743c-.345 0-.823-.172-.823-.603 0-.55.597-.762 1.114-.762.462 0 .68.103.96.24a1.28 1.28 0 0 1-1.251 1.125zm.126-3.9c-.76 0-1.55.34-1.874 1.09l.933.395c.2-.395.57-.523.96-.523.545 0 1.098.33 1.106.915v.074a2.3 2.3 0 0 0-1.097-.275c-1.005 0-2.028.559-2.028 1.601 0 .953.822 1.567 1.747 1.567.707 0 1.097-.322 1.342-.697h.036v.55h1.016v-2.729c0-1.261-.933-1.967-2.14-1.967zm-6.496 1.024h-1.497v-2.44h1.497c.784 0 1.232.658 1.232 1.22 0 .55-.448 1.22-1.232 1.22zm-.027-3.43h-2.521v7.115h1.051v-2.696h1.47c1.167 0 2.311-.853 2.311-2.21 0-1.356-1.147-2.209-2.311-2.209zM42.76 20.027c-.727 0-1.334-.614-1.334-1.459 0-.853.607-1.475 1.334-1.475.716 0 1.28.622 1.28 1.475 0 .845-.564 1.46-1.28 1.46zm1.205-3.348h-.036c-.236-.283-.687-.54-1.26-.54-1.2 0-2.297 1.065-2.297 2.43 0 1.356 1.097 2.412 2.298 2.412.572 0 1.023-.259 1.26-.55h.035v.347c0 .925-.49 1.423-1.28 1.423-.643 0-1.042-.47-1.207-.865l-.916.387c.264.642.963 1.43 2.123 1.43 1.237 0 2.279-.733 2.279-2.52v-4.346h-1v.392zm1.726 4.155h1.053v-7.115h-1.053v7.115zm2.605-2.35c-.027-.932.717-1.41 1.252-1.41.418 0 .773.21.89.513l-2.142.898zm3.268-.804c-.198-.542-.809-1.54-2.053-1.54-1.232 0-2.258.98-2.258 2.42 0 1.356 1.016 2.42 2.377 2.42 1.1 0 1.736-.678 1.998-1.072l-.818-.55c-.272.403-.643.67-1.18.67-.533 0-.916-.247-1.16-.734l3.205-1.34-.111-.274zm-25.53-.798v1.028h2.433c-.071.575-.261.998-.553 1.292-.355.356-.909.751-1.88.751-1.496 0-2.668-1.22-2.668-2.732 0-1.512 1.172-2.732 2.669-2.732.809 0 1.398.32 1.832.734l.718-.725c-.608-.586-1.417-1.036-2.55-1.036-2.053 0-3.778 1.686-3.778 3.76 0 2.072 1.725 3.759 3.778 3.759 1.109 0 1.942-.367 2.597-1.056.671-.678.88-1.631.88-2.401 0-.24-.02-.46-.055-.642h-3.422zm6.244 3.145c-.727 0-1.354-.605-1.354-1.466 0-.873.627-1.468 1.354-1.468.726 0 1.351.595 1.351 1.468 0 .861-.625 1.466-1.351 1.466zm0-3.887c-1.326 0-2.405 1.017-2.405 2.42 0 1.393 1.079 2.42 2.405 2.42 1.325 0 2.404-1.027 2.404-2.42 0-1.403-1.079-2.42-2.404-2.42zm5.247 3.887c-.727 0-1.351-.605-1.351-1.466 0-.873.624-1.468 1.35-1.468.727 0 1.354.595 1.354 1.468 0 .861-.627 1.466-1.353 1.466zm0-3.887c-1.324 0-2.405 1.017-2.405 2.42a2.38 2.38 0 0 0 2.405 2.42 2.38 2.38 0 0 0 2.407-2.42c0-1.403-1.081-2.42-2.407-2.42z"/>
        <path fill="#515151" fill-rule="nonzero"
              d="M.174 20.425V6.112c0-.5.292-.932.715-1.137l8.348 8.291L.886 21.56a1.262 1.262 0 0 1-.712-1.135zm11.711-4.529L2.758 21.13l7.198-7.15 1.93 1.916zm2.837-3.631a1.258 1.258 0 0 1 .014 1.996l-1.939 1.112-2.121-2.107 2.12-2.106 1.926 1.105zM2.763 5.407l9.12 5.23-1.927 1.915-7.193-7.145z"/>
    </g>
</svg>
