<svg xmlns="http://www.w3.org/2000/svg" viewBox="0 0 48 48"><path fill="#F16522" d="M17.803 34.764H29.52V13.712H17.803z"/><path fill="#E52523" d="M18.549 24.238c0-4.271 1.998-8.075 5.112-10.527a13.328 13.328 0 0 0-8.274-2.862C7.993 10.85 2 16.844 2 24.238c0 7.394 5.993 13.388 13.387 13.388 3.124 0 5.998-1.07 8.274-2.863a13.362 13.362 0 0 1-5.112-10.525"/><path fill="#F89E1B" d="M45.323 24.238c0 7.394-5.993 13.388-13.387 13.388-3.123 0-5.997-1.07-8.275-2.863a13.361 13.361 0 0 0 5.114-10.525c0-4.271-2-8.075-5.114-10.527a13.336 13.336 0 0 1 8.275-2.862c7.394 0 13.387 5.995 13.387 13.389"/></svg>
