<svg xmlns="http://www.w3.org/2000/svg" viewBox="0 0 24 24"><path fill="#224DBA" fill-rule="evenodd" d="M6 15.938H3.923L2.366 9.732c-.074-.286-.231-.538-.462-.657A6.564 6.564 0 0 0 0 8.418v-.24h3.346c.462 0 .808.36.866.777l.808 4.476L7.096 8.18h2.02L6 15.938zm4.27 0H8.308l1.615-7.76h1.962l-1.615 7.76zm4.153-5.61c.058-.418.404-.656.808-.656a3.52 3.52 0 0 1 1.904.357l.346-1.67A4.78 4.78 0 0 0 15.693 8c-1.904 0-3.29 1.075-3.29 2.566 0 1.135.982 1.73 1.675 2.09.749.358 1.038.596.98.954 0 .537-.577.776-1.154.776-.692 0-1.385-.179-2.019-.478l-.346 1.672a5.448 5.448 0 0 0 2.134.418c2.135.059 3.462-1.015 3.462-2.627 0-2.029-2.712-2.148-2.712-3.043zM24 15.938l-1.558-7.76H20.77a.87.87 0 0 0-.808.598l-2.884 7.162h2.02l.403-1.134h2.48l.232 1.134H24zm-2.942-5.67l.576 2.924H20.02l1.04-2.924z"/></svg>
