<svg viewBox="0 0 128 128" xmlns="http://www.w3.org/2000/svg"><path d="m30.7 95.31c-0.3112 0.0012-0.615-0.0944-0.8694-0.2736-0.2545-0.1791-0.4469-0.433-0.5506-0.7264l-15.65-47.51c-0.4333-1.3315-0.322-2.7803 0.3094-4.03s1.7317-2.1988 3.0606-2.64l26.58-8.77c0.6775-0.2261 1.4092-0.2317 2.0901-0.0161s1.276 0.6413 1.6999 1.2161c0.1552 0.151 0.276 0.3338 0.3538 0.5359 0.0779 0.2021 0.1111 0.4187 0.0973 0.6348-0.0138 0.2162-0.0742 0.4267-0.1771 0.6173s-0.2459 0.3566-0.4191 0.4866c-0.1731 0.1301-0.3724 0.2211-0.5841 0.2668-0.2117 0.0458-0.4308 0.0451-0.6422-0.0019s-0.4101-0.1392-0.5825-0.2703-0.3143-0.298-0.4161-0.4892c-0.0511-0.0642-0.1208-0.1111-0.1995-0.1343-0.0787-0.0233-0.1627-0.0218-0.2405 0.0043l-26.63 8.79c-0.2843 0.0939-0.5473 0.2429-0.7741 0.4384-0.2267 0.1956-0.4127 0.4339-0.5474 0.7013-0.1346 0.2674-0.2153 0.5588-0.2373 0.8574-0.0221 0.2986 0.0149 0.5986 0.1088 0.8829l15.65 47.46c0.0757 0.2275 0.0966 0.4697 0.0608 0.7068-0.0358 0.237-0.1271 0.4623-0.2665 0.6573-0.1395 0.1951-0.3231 0.3543-0.5359 0.4649-0.2127 0.1105-0.4486 0.1691-0.6884 0.171v-0.03z" fill="#9df"/><path d="m30.7 95.31c-0.3112 0.0012-0.615-0.0944-0.8694-0.2736-0.2545-0.1792-0.4469-0.433-0.5506-0.7264l-10.89-33.08c-0.0617-0.1871-0.086-0.3846-0.0714-0.5811s0.0678-0.3882 0.1564-0.5642c0.1791-0.3554 0.4921-0.6251 0.87-0.7497 0.3779-0.1247 0.7899-0.0941 1.1453 0.085s0.625 0.4921 0.7497 0.87l10.89 33.05c0.0757 0.2275 0.0966 0.4697 0.0608 0.7067-0.0358 0.2371-0.1271 0.4624-0.2665 0.6574-0.1395 0.195-0.3231 0.3543-0.5359 0.4648-0.2127 0.1105-0.4486 0.1692-0.6884 0.1711v-0.03z" fill="#6cf"/><path d="m34.35 96.89c-0.3405-0.0199-0.664-0.1552-0.9172-0.3837-0.2533-0.2284-0.4211-0.5363-0.4759-0.873-0.0547-0.3366 0.0069-0.6818 0.1747-0.9787 0.1678-0.297 0.4318-0.5278 0.7484-0.6546l11.56-3.82c0.1921-0.0945 0.4022-0.1468 0.6162-0.1533 0.214-0.0066 0.4269 0.0328 0.6244 0.1153 0.1975 0.0826 0.3751 0.2065 0.5208 0.3634 0.1456 0.1569 0.256 0.3431 0.3237 0.5462s0.0912 0.4184 0.0688 0.6313-0.0901 0.4186-0.1986 0.6031c-0.1085 0.1846-0.2552 0.3438-0.4303 0.467-0.1752 0.1231-0.3746 0.2073-0.585 0.247l-11.56 3.81c-0.1503 0.0556-0.3097 0.0828-0.47 0.08z" fill="#6cf"/><path d="m36.27 44.1c-0.3509-5e-3 -0.689-0.1329-0.9554-0.3614-0.2664-0.2286-0.4442-0.5433-0.5024-0.8894-0.0583-0.3461 0.0066-0.7017 0.1835-1.0048 0.1768-0.3032 0.4543-0.5347 0.7843-0.6544l9.22-3.19c0.3766-0.1326 0.7905-0.1102 1.1505 0.0624 0.3601 0.1725 0.6369 0.481 0.7695 0.8576s0.1102 0.7905-0.0624 1.1505c-0.1725 0.3601-0.481 0.6369-0.8576 0.7695l-9.24 3.16c-0.156 0.0625-0.322 0.0964-0.49 0.1z" fill="#EFF1F4"/><path d="m38 49.48c-0.3108-3e-4 -0.614-0.0964-0.8682-0.2754-0.2541-0.179-0.4468-0.432-0.5518-0.7246-0.0645-0.1858-0.0916-0.3825-0.0797-0.5788s0.0626-0.3882 0.149-0.5649c0.0865-0.1766 0.207-0.3344 0.3548-0.4642 0.1477-0.1298 0.3196-0.2291 0.5059-0.2921l7.49-2.58c0.3753-0.1326 0.7879-0.1107 1.147 0.0609s0.6354 0.4788 0.768 0.8541 0.1107 0.7879-0.0609 1.147-0.4788 0.6354-0.8541 0.768l-7.48 2.57c-0.1667 0.0593-0.3432 0.0864-0.52 0.08z" fill="#EFF1F4"/><path d="m41.54 59.89c-0.3412-0.0179-0.6661-0.1518-0.9209-0.3795-0.2547-0.2277-0.4241-0.5355-0.4801-0.8726s0.0048-0.6832 0.1723-0.981c0.1674-0.2979 0.4316-0.5296 0.7487-0.6569l5-1.71c0.1858-0.0656 0.3828-0.094 0.5796-0.0836 0.1968 0.0105 0.3896 0.0596 0.5674 0.1445 0.1778 0.085 0.3372 0.2042 0.4689 0.3507 0.1318 0.1466 0.2334 0.3176 0.2991 0.5034 0.0657 0.1859 0.0941 0.3828 0.0836 0.5796-0.0104 0.1968-0.0595 0.3896-0.1445 0.5674-0.085 0.1779-0.2041 0.3372-0.3507 0.469-0.1465 0.1318-0.3176 0.2334-0.5034 0.299l-5.06 1.68c-0.147 0.0562-0.3026 0.0867-0.46 0.09z" fill="#EFF1F4"/><path d="m38.17 67.12c-0.3115 0.0027-0.6161-0.0924-0.8708-0.2717-0.2547-0.1794-0.4468-0.4341-0.5492-0.7283-0.1278-0.3767-0.1018-0.7886 0.0723-1.1462 0.1742-0.3577 0.4824-0.6321 0.8577-0.7638l8.32-2.85c0.1858-0.0657 0.3828-0.0941 0.5796-0.0837 0.1968 0.0105 0.3896 0.0596 0.5674 0.1446 0.1778 0.0849 0.3372 0.2041 0.4689 0.3506 0.1318 0.1466 0.2334 0.3176 0.2991 0.5035 0.0657 0.1858 0.0941 0.3827 0.0836 0.5795-0.0104 0.1968-0.0595 0.3896-0.1445 0.5675-0.085 0.1778-0.2041 0.3371-0.3507 0.4689-0.1465 0.1318-0.3176 0.2334-0.5034 0.2991l-8.35 2.81c-0.1529 0.0645-0.3148 0.1049-0.48 0.12z" fill="#EFF1F4"/><path d="m45.43 70.83c-0.3108-2e-4 -0.614-0.0964-0.8682-0.2754-0.2541-0.179-0.4468-0.432-0.5518-0.7246-0.0645-0.1857-0.0916-0.3824-0.0797-0.5787s0.0626-0.3883 0.149-0.5649c0.0865-0.1767 0.207-0.3344 0.3548-0.4642 0.1477-0.1299 0.3196-0.2291 0.5059-0.2922l1-0.36c0.1858-0.0656 0.3828-0.0941 0.5796-0.0836 0.1968 0.0104 0.3896 0.0596 0.5674 0.1445 0.1778 0.085 0.3372 0.2041 0.4689 0.3507 0.1318 0.1465 0.2334 0.3176 0.2991 0.5034 0.0657 0.1859 0.0941 0.3828 0.0836 0.5796-0.0104 0.1968-0.0595 0.3896-0.1445 0.5674-0.085 0.1779-0.2041 0.3372-0.3507 0.469-0.1465 0.1317-0.3176 0.2334-0.5034 0.299l-1 0.36c-0.1642 0.0547-0.3371 0.0784-0.51 0.07z" fill="#EFF1F4"/><path d="m28.41 68.86c-0.3559 0.0016-0.7008-0.1234-0.9731-0.3527-0.2722-0.2293-0.454-0.548-0.5129-0.899s0.0089-0.7116 0.1914-1.0172c0.1824-0.3056 0.4676-0.5364 0.8046-0.6511l2.92-1c0.3753-0.1326 0.7879-0.1107 1.147 0.0609s0.6354 0.4789 0.768 0.8541c0.1326 0.3753 0.1107 0.7879-0.0609 1.147-0.1716 0.3592-0.4788 0.6354-0.8541 0.768l-2.91 1c-0.1661 0.0625-0.3425 0.093-0.52 0.09z" fill="#EFF1F4"/><path d="m30.32 74.52c-0.3559 0.0016-0.7008-0.1234-0.9731-0.3527-0.2722-0.2294-0.454-0.548-0.5129-0.899-0.0589-0.3511 0.0089-0.7116 0.1914-1.0172 0.1824-0.3056 0.4676-0.5364 0.8046-0.6511l2.91-1c0.1858-0.0657 0.3828-0.0941 0.5796-0.0836 0.1968 0.0104 0.3896 0.0595 0.5674 0.1445s0.3372 0.2041 0.4689 0.3507c0.1318 0.1465 0.2334 0.3176 0.2991 0.5034s0.0941 0.3828 0.0836 0.5796c-0.0104 0.1968-0.0595 0.3896-0.1445 0.5674s-0.2041 0.3372-0.3507 0.469c-0.1465 0.1317-0.3176 0.2333-0.5034 0.299l-2.92 1c-0.1595 0.0611-0.3292 0.0917-0.5 0.09z" fill="#EFF1F4"/><path d="m34.92 86.47c-0.3115 0.0027-0.6161-0.0924-0.8708-0.2717-0.2547-0.1794-0.4468-0.4341-0.5492-0.7283-0.1278-0.3767-0.1018-0.7886 0.0723-1.1462 0.1742-0.3577 0.4824-0.6321 0.8577-0.7638l2.91-1c0.1865-0.0657 0.3841-0.094 0.5815-0.0833s0.3908 0.0602 0.569 0.1456c0.1783 0.0855 0.338 0.2052 0.4701 0.3523 0.132 0.1472 0.2337 0.3189 0.2994 0.5054s0.094 0.384 0.0833 0.5814-0.0602 0.3908-0.1457 0.5691c-0.0854 0.1783-0.2051 0.338-0.3522 0.47-0.1472 0.1321-0.3189 0.2338-0.5054 0.2995l-2.92 1c-0.1607 0.0548-0.3304 0.0785-0.5 0.07z" fill="#EFF1F4"/><path d="m65.65 99.16h-19.83c-0.3978 0-0.7794-0.1581-1.0607-0.4394s-0.4393-0.6628-0.4393-1.0606c0-0.3979 0.158-0.7794 0.4393-1.0607s0.6629-0.4393 1.0607-0.4393h19.83c0.3978 0 0.7794 0.158 1.0607 0.4393s0.4393 0.6628 0.4393 1.0607c0 0.3978-0.158 0.7793-0.4393 1.0606s-0.6629 0.4394-1.0607 0.4394z" fill="#245E93"/><path d="m65.64 87.46h-8.2l-1.98 5.9-4.08 4.51h14.26v-10.41z" fill="#1283C5"/><path d="m102.94 109.91c-1.079 6e-3 -2.119-0.406-2.9-1.15l-3.73-3.57c-0.2284-0.208-0.5261-0.323-0.835-0.323s-0.6066 0.115-0.835 0.323l-3.71 3.56c-0.7869 0.742-1.828 1.156-2.91 1.156s-2.1231-0.414-2.91-1.156l-3.71-3.56c-0.2267-0.207-0.5228-0.322-0.83-0.322s-0.6033 0.115-0.83 0.322l-3.74 3.57c-0.7881 0.74-1.8287 1.152-2.91 1.152s-2.1219-0.412-2.91-1.152l-4.81-4.61c-0.3882-0.373-0.6972-0.82-0.9086-1.315-0.2113-0.495-0.3206-1.027-0.3214-1.565v-9.5602c0.0246-0.4439-0.0416-0.8882-0.1946-1.3057s-0.3895-0.7995-0.6951-1.1224c-0.3056-0.323-0.6739-0.5803-1.0823-0.7561s-0.8484-0.2665-1.293-0.2665-0.8846 0.0907-1.293 0.2665-0.7767 0.4331-1.0823 0.7561c-0.3056 0.3229-0.5421 0.7049-0.6951 1.1224s-0.2192 0.8618-0.1946 1.3057c3e-3 0.8396-0.1627 1.6712-0.4872 2.4456-0.3244 0.7743-0.8011 1.4756-1.4017 2.0622-0.6007 0.5867-1.313 1.0467-2.0948 1.3529-0.7817 0.3061-1.617 0.4521-2.4563 0.4293-1.6387-0.0721-3.1864-0.7735-4.3209-1.9582-1.1344-1.1848-1.7681-2.7615-1.7691-4.4018v-68.12c0.0027-1.441 0.577-2.8221 1.5969-3.8402 1.0199-1.018 2.4021-1.5898 3.8431-1.5898h34.54c1.4437 0 2.8284 0.5729 3.8502 1.5928s1.5972 2.4035 1.5998 3.8472v61.91h13.21c2.167 0 4.245 0.8608 5.777 2.393s2.393 3.6102 2.393 5.777v7.3902c-1e-3 0.606-0.123 1.207-0.36 1.765s-0.584 1.063-1.02 1.485l-4.66 4.46c-0.777 0.764-1.821 1.194-2.91 1.2zm-7.47-8c1.0735-0.021 2.1145 0.369 2.91 1.09l3.73 3.57c0.228 0.208 0.526 0.323 0.835 0.323s0.607-0.115 0.835-0.323l4.65-4.46c0.148-0.141 0.266-0.31 0.347-0.497 0.08-0.187 0.122-0.389 0.123-0.593v-7.4102c-3e-3 -1.373-0.549-2.689-1.52-3.6598-0.971-0.9709-2.287-1.5175-3.66-1.5202h-16.21v-64.9c-0.0026-0.648-0.2619-1.2686-0.7211-1.7259s-1.0809-0.7141-1.7289-0.7141h-34.54c-0.32-0.0013-0.637 0.0606-0.933 0.1821-0.296 0.1216-0.565 0.3004-0.7917 0.5261-0.2267 0.2258-0.4066 0.4941-0.5294 0.7896-0.1227 0.2955-0.1859 0.6123-0.1859 0.9322v68.08c-0.0141 0.8684 0.3097 1.7084 0.9029 2.3427 0.5933 0.6343 1.4097 1.0134 2.2771 1.0573 0.4356 0.0121 0.8692-0.0634 1.2752-0.2218s0.7761-0.3966 1.0884-0.7006c0.3123-0.3039 0.5605-0.6674 0.7299-1.0689 0.1695-0.4015 0.2567-0.8329 0.2565-1.2687 0.0647-1.6182 0.753-3.1487 1.9209-4.2708 1.1678-1.1221 2.7245-1.7488 4.3441-1.7488s3.1763 0.6267 4.3441 1.7488c1.1679 1.1221 1.8562 2.6526 1.9209 4.2708v9.5502c5e-4 0.135 0.0282 0.268 0.0815 0.391 0.0533 0.124 0.131 0.236 0.2285 0.329l4.81 4.62c0.2267 0.207 0.5228 0.322 0.83 0.322s0.6033-0.115 0.83-0.322l3.75-3.63c0.7853-0.742 1.8247-1.155 2.905-1.155s2.1197 0.413 2.905 1.155l3.71 3.56c0.2267 0.207 0.5228 0.322 0.83 0.322s0.6033-0.115 0.83-0.322l3.72-3.56c0.7862-0.733 1.8251-1.135 2.9-1.12v0.03z" fill="#6cf"/><path d="m111.89 93.61h-3c-3e-3 -1.373-0.549-2.689-1.52-3.6598-0.971-0.9709-2.287-1.5175-3.66-1.5202h-16.2v-64.9c-0.0026-0.648-0.2619-1.2686-0.7211-1.7259s-1.0809-0.7141-1.7289-0.7141h-34.54c-0.32-0.0013-0.637 0.0606-0.933 0.1821-0.296 0.1216-0.565 0.3004-0.7917 0.5261-0.2267 0.2258-0.4066 0.4941-0.5294 0.7896-0.1227 0.2955-0.1859 0.6123-0.1859 0.9322v23.19h-3v-23.19c0.0027-1.441 0.577-2.8221 1.5969-3.8402 1.0199-1.018 2.4021-1.5898 3.8431-1.5898h34.54c1.4437 0 2.8284 0.5729 3.8502 1.5928s1.5972 2.4035 1.5998 3.8472v61.91h13.21c2.167 0 4.245 0.8608 5.777 2.393s2.393 3.6102 2.393 5.777z" fill="#6cf"/><path d="m102.94 109.91c-1.079 6e-3 -2.119-0.406-2.9-1.15l-3.73-3.57c-0.2284-0.208-0.5261-0.323-0.835-0.323s-0.6066 0.115-0.835 0.323l-3.71 3.56c-0.7869 0.743-1.828 1.156-2.91 1.156s-2.1231-0.413-2.91-1.156l-3.71-3.56c-0.2267-0.207-0.5228-0.322-0.83-0.322s-0.6033 0.115-0.83 0.322l-3.74 3.57c-0.7881 0.74-1.8287 1.152-2.91 1.152s-2.1219-0.412-2.91-1.152l-4.81-4.61c-0.3882-0.373-0.6972-0.82-0.9086-1.315-0.2113-0.495-0.3206-1.027-0.3214-1.565v-9.56h3v9.56c5e-4 0.135 0.0282 0.268 0.0815 0.392 0.0533 0.123 0.131 0.235 0.2285 0.328l4.81 4.62c0.2267 0.207 0.5228 0.322 0.83 0.322s0.6033-0.115 0.83-0.322l3.75-3.61c0.7853-0.742 1.8247-1.155 2.905-1.155s2.1197 0.413 2.905 1.155l3.71 3.56c0.2267 0.207 0.5228 0.322 0.83 0.322s0.6033-0.115 0.83-0.322l3.72-3.56c0.7864-0.74 1.8254-1.152 2.905-1.152s2.1186 0.412 2.905 1.152l3.73 3.57c0.228 0.208 0.526 0.323 0.835 0.323s0.607-0.115 0.835-0.323l4.65-4.46c0.148-0.141 0.266-0.31 0.347-0.497 0.08-0.187 0.122-0.389 0.123-0.593v-7.41h3v7.39c-1e-3 0.606-0.123 1.207-0.36 1.765s-0.584 1.063-1.02 1.485l-4.66 4.46c-0.779 0.766-1.827 1.197-2.92 1.2z" fill="#6cf"/><path d="m89.01 85.44h-28.13v3h28.13v-3z" fill="#6cf"/><path d="m81.44 96.33h-8.79c-0.3978 0-0.7794-0.1581-1.0607-0.4394s-0.4393-0.6628-0.4393-1.0606 0.158-0.7794 0.4393-1.0607 0.6629-0.4393 1.0607-0.4393h8.79c0.3978 0 0.7794 0.158 1.0607 0.4393s0.4393 0.6629 0.4393 1.0607-0.158 0.7793-0.4393 1.0606-0.6629 0.4394-1.0607 0.4394z" fill="#E3E5EB"/><path d="m102.78 96.33h-2.38c-0.398 0-0.7794-0.1581-1.0607-0.4394s-0.4393-0.6628-0.4393-1.0606 0.158-0.7794 0.4393-1.0607 0.6627-0.4393 1.0607-0.4393h2.38c0.398 0 0.779 0.158 1.061 0.4393 0.281 0.2813 0.439 0.6629 0.439 1.0607s-0.158 0.7793-0.439 1.0606c-0.282 0.2813-0.663 0.4394-1.061 0.4394z" fill="#A4A8AE"/><path d="m89 58.81c-0.3978 0-0.7794-0.158-1.0607-0.4393s-0.4393-0.6628-0.4393-1.0607v-33.75c-0.0013-0.3265-0.0671-0.6495-0.1936-0.9506-0.1264-0.301-0.3111-0.5741-0.5434-0.8036-0.2322-0.2295-0.5076-0.4109-0.8101-0.5337-0.3026-0.1228-0.6264-0.1847-0.9529-0.1821h-24.12c-0.3978 0-0.7794-0.158-1.0607-0.4393s-0.4393-0.6628-0.4393-1.0607c0-0.3978 0.158-0.7793 0.4393-1.0606s0.6629-0.4394 1.0607-0.4394h24.12c1.4499 0.0027 2.8397 0.5798 3.865 1.6051 1.0252 1.0252 1.6024 2.415 1.605 3.8649v33.75c1e-4 0.3927-0.1538 0.7698-0.4287 1.0502-0.2748 0.2805-0.6487 0.442-1.0413 0.4498z" fill="#9df"/><path d="m28.16 106.84c-1.51 0-9-0.15-9-3.17v-2.32c0-0.292 0.1159-0.572 0.3222-0.778s0.4861-0.322 0.7778-0.322 0.5715 0.116 0.7778 0.322 0.3222 0.486 0.3222 0.778v2.13c0.54 0.43 3 1.16 6.83 1.16s6.29-0.73 6.84-1.16v-3c0-0.292 0.1159-0.5716 0.3222-0.7779s0.4861-0.3222 0.7778-0.3222 0.5715 0.1159 0.7778 0.3222 0.3222 0.4859 0.3222 0.7779v3.16c-0.03 3.05-7.56 3.2-9.07 3.2z" fill="#245E93"/><path d="m28.16 103.57c-3 0-6.74-0.45-8.26-1.69-0.1218-0.088-0.2243-0.2-0.3012-0.329-0.077-0.128-0.1267-0.272-0.1462-0.421-0.0196-0.148-0.0084-0.3 0.0327-0.444s0.1113-0.279 0.2063-0.395 0.2128-0.212 0.3461-0.281c0.1333-0.0685 0.2793-0.1095 0.4291-0.1199 0.1497-0.0104 0.3 0.0099 0.4415 0.0597 0.1416 0.0498 0.2715 0.1282 0.3817 0.2302 0.71 0.57 3.35 1.19 6.87 1.19 2.2108 0.087 4.4177-0.252 6.5-1-0.2115-0.155-0.3606-0.3811-0.4204-0.6365s-0.0264-0.5238 0.0943-0.7567c0.1207-0.233 0.3207-0.4151 0.5638-0.5136 0.2432-0.0984 0.5135-0.1068 0.7623-0.0234 1.24 0.62 1.5 1.39 1.5 1.9302 0.04 3.04-7.49 3.2-9 3.2z" fill="#245E93"/><path d="m26.49 102.57c-1.51 0-9-0.15-9-3.1603v-3.2701h2.2v3.0801c0.54 0.43 2.95 1.1603 6.83 1.1603s6.29-0.7303 6.84-1.1603v-3h2.2v3.1699c-0.03 3.0304-7.56 3.1804-9.07 3.1804z" fill="#6cf"/><path d="m18.56 96.5c0-0.0954 0.0379-0.187 0.1054-0.2545 0.0676-0.0675 0.1591-0.1055 0.2546-0.1055" clip-rule="evenodd" fill="#fff" fill-rule="evenodd"/><path d="m18.92 96.5h-1.36c0-0.3606 0.1433-0.7066 0.3983-0.9616 0.2551-0.2551 0.601-0.3984 0.9617-0.3984v1.36z" fill="#6cf"/><path d="m26.49 99.3c-1.51 0-9-0.15-9-3.16s7.51-3.14 9-3.14 9 0.16 9 3.17-7.49 3.13-9 3.13zm-6.49-3.16c2.0841 0.7409 4.2896 1.0802 6.5 1 2.2105 0.0824 4.4165-0.257 6.5-1-2.0818-0.7498-4.2891-1.0894-6.5-1-2.2109-0.0894-4.4182 0.2502-6.5 1z" fill="#6cf"/><path d="m103.72 88.43h-22.88c-0.3978 0-0.7794-0.158-1.0607-0.4394-0.2813-0.2813-0.4393-0.6628-0.4393-1.0606s0.158-0.7794 0.4393-1.0607 0.6629-0.4393 1.0607-0.4393h22.88c0.398 0 0.779 0.158 1.061 0.4393 0.281 0.2813 0.439 0.6629 0.439 1.0607s-0.158 0.7793-0.439 1.0606c-0.282 0.2814-0.663 0.4394-1.061 0.4394z" fill="#9df"/><path d="m105.2 82.15c-1.51 0-9-0.15-9-3.16v-3.28h2.2v3.08c0.54 0.43 2.94 1.16 6.83 1.16s6.3-0.73 6.84-1.16v-3h2.2v3.21c-0.03 3-7.56 3.15-9.07 3.15z" fill="#6cf"/><path d="m97.27 76.08c0-0.0955 0.0379-0.187 0.1054-0.2545 0.0676-0.0675 0.1591-0.1055 0.2546-0.1055" clip-rule="evenodd" fill="#fff" fill-rule="evenodd"/><path d="m97.63 76.08h-1.36c0-0.3607 0.1433-0.7066 0.3983-0.9616 0.2551-0.2551 0.601-0.3984 0.9617-0.3984v1.36z" fill="#6cf"/><path d="m105.2 78.88c-1.51 0-9-0.15-9-3.17s7.52-3.16 9-3.16 9 0.15 9 3.16-7.49 3.17-9 3.17zm-6.5-3.17c2.082 0.7498 4.289 1.0894 6.5 1 2.211 0.0894 4.418-0.2502 6.5-1-2.084-0.743-4.289-1.0824-6.5-1-2.21-0.0814-4.416 0.2579-6.5 1z" fill="#6cf"/><path d="m61.9 71.08c0.0997-0.1351 0.1867-0.279 0.26-0.43 0.1582-0.3096 0.2405-0.6524 0.24-1 0.0153-0.2031 0.0153-0.407 0-0.61-0.1069-0.6837-0.4631-1.3035-1-1.74-0.8307-0.5968-1.8382-0.8962-2.86-0.85-0.9811-0.0429-1.9476 0.2499-2.74 0.83-0.5829 0.4307-0.994 1.0544-1.16 1.76-0.0453 0.1601-0.0755 0.3242-0.09 0.49v0.34h2.1v-0.27c0.0335-0.212 0.1273-0.4098 0.27-0.57 0.0908-0.1122 0.1949-0.213 0.31-0.3 0.3835-0.2482 0.8334-0.3738 1.29-0.36 0.4855-0.0237 0.9636 0.1251 1.35 0.42 0.0943 0.0642 0.1758 0.1456 0.24 0.24 0.1585 0.2063 0.243 0.4598 0.24 0.72-0.0054 0.2453-0.0679 0.4859-0.1824 0.7029-0.1146 0.2169-0.2781 0.4043-0.4776 0.5471h-6v1.8h9.73v-1.7l-1.52-0.02z" fill="#FF001F"/><path d="m53.61 75.87h1.2c-0.1111 0.1259-0.2083 0.2634-0.29 0.41-0.1828 0.3519-0.2756 0.7436-0.27 1.14-0.0108 0.1665-0.0108 0.3335 0 0.5 0.0593 0.364 0.1907 0.7125 0.3864 1.025 0.1958 0.3125 0.452 0.5828 0.7536 0.795 0.8629 0.5935 1.8933 0.8949 2.94 0.86h0.08c1.0428 0.0525 2.0734-0.2429 2.93-0.84 0.6255-0.44 1.067-1.095 1.24-1.84 0.0439-0.161 0.0773-0.3246 0.1-0.49v-0.35h-2.04v0.25c-0.0473 0.2118-0.1356 0.4123-0.26 0.59-0.1043 0.1596-0.2405 0.2958-0.4 0.4-0.4469 0.2537-0.9567 0.3751-1.47 0.35-0.5399 0.0255-1.0734-0.1255-1.52-0.43-0.1182-0.0911-0.2226-0.1989-0.31-0.32-0.1463-0.1995-0.2203-0.4428-0.21-0.69-0.0028-0.1751 0.0313-0.3488 0.1-0.51 0.0718-0.1586 0.1699-0.3039 0.29-0.43 0.1212-0.1196 0.2593-0.2207 0.41-0.3h6.13v-1.8h-9.74l-0.05 1.68z" fill="#FF001F"/><path d="m81.69 51.42h-8.46c-0.3978 0-0.7794-0.158-1.0607-0.4393s-0.4393-0.6629-0.4393-1.0607 0.158-0.7793 0.4393-1.0606 0.6629-0.4394 1.0607-0.4394h8.46c0.3978 0 0.7794 0.1581 1.0607 0.4394s0.4393 0.6628 0.4393 1.0606-0.158 0.7794-0.4393 1.0607-0.6629 0.4393-1.0607 0.4393z" fill="#E3E5EB"/><path d="m81.69 58.75h-13.13c-0.3978 0-0.7794-0.158-1.0607-0.4393s-0.4393-0.6629-0.4393-1.0607 0.158-0.7794 0.4393-1.0607 0.6629-0.4393 1.0607-0.4393h13.13c0.3978 0 0.7794 0.158 1.0607 0.4393s0.4393 0.6629 0.4393 1.0607-0.158 0.7794-0.4393 1.0607-0.6629 0.4393-1.0607 0.4393z" fill="#E3E5EB"/><path d="m59.6 51.42h-5.15c-0.3978 0-0.7794-0.158-1.0607-0.4393s-0.4393-0.6629-0.4393-1.0607 0.158-0.7793 0.4393-1.0606 0.6629-0.4394 1.0607-0.4394h5.15c0.3978 0 0.7794 0.1581 1.0607 0.4394s0.4393 0.6628 0.4393 1.0606-0.158 0.7794-0.4393 1.0607-0.6629 0.4393-1.0607 0.4393z" fill="#E3E5EB"/><path d="m59.6 58.75h-5.15c-0.3978 0-0.7794-0.158-1.0607-0.4393s-0.4393-0.6629-0.4393-1.0607 0.158-0.7794 0.4393-1.0607 0.6629-0.4393 1.0607-0.4393h5.15c0.3978 0 0.7794 0.158 1.0607 0.4393s0.4393 0.6629 0.4393 1.0607-0.158 0.7794-0.4393 1.0607-0.6629 0.4393-1.0607 0.4393z" fill="#E3E5EB"/><path d="m81.69 65.74h-7.36c-0.3978 0-0.7794-0.158-1.0607-0.4393s-0.4393-0.6628-0.4393-1.0607c0-0.3978 0.158-0.7793 0.4393-1.0606s0.6629-0.4394 1.0607-0.4394h7.36c0.3978 0 0.7794 0.1581 1.0607 0.4394s0.4393 0.6628 0.4393 1.0606c0 0.3979-0.158 0.7794-0.4393 1.0607s-0.6629 0.4393-1.0607 0.4393z" fill="#E3E5EB"/><path d="m81.69 72.8h-4.57c-0.3978 0-0.7794-0.158-1.0607-0.4393s-0.4393-0.6629-0.4393-1.0607 0.158-0.7794 0.4393-1.0607 0.6629-0.4393 1.0607-0.4393h4.57c0.3978 0 0.7794 0.158 1.0607 0.4393s0.4393 0.6629 0.4393 1.0607-0.158 0.7794-0.4393 1.0607-0.6629 0.4393-1.0607 0.4393z" fill="#E3E5EB"/><path d="m59.6 44h-5.15c-0.3978 0-0.7794-0.158-1.0607-0.4393s-0.4393-0.6629-0.4393-1.0607 0.158-0.7794 0.4393-1.0607 0.6629-0.4393 1.0607-0.4393h5.15c0.3978 0 0.7794 0.158 1.0607 0.4393s0.4393 0.6629 0.4393 1.0607-0.158 0.7794-0.4393 1.0607-0.6629 0.4393-1.0607 0.4393z" fill="#E3E5EB"/><path d="m59.6 36.74h-5.15c-0.3978 0-0.7794-0.158-1.0607-0.4393s-0.4393-0.6628-0.4393-1.0607c0-0.3978 0.158-0.7793 0.4393-1.0606s0.6629-0.4394 1.0607-0.4394h5.15c0.3978 0 0.7794 0.1581 1.0607 0.4394s0.4393 0.6628 0.4393 1.0606c0 0.3979-0.158 0.7794-0.4393 1.0607s-0.6629 0.4393-1.0607 0.4393z" fill="#E3E5EB"/><path d="m64 29.67h-9.55c-0.3978 0-0.7794-0.158-1.0607-0.4393s-0.4393-0.6629-0.4393-1.0607 0.158-0.7793 0.4393-1.0606 0.6629-0.4394 1.0607-0.4394h9.55c0.3978 0 0.7794 0.1581 1.0607 0.4394s0.4393 0.6628 0.4393 1.0606-0.158 0.7794-0.4393 1.0607-0.6629 0.4393-1.0607 0.4393z" fill="#E3E5EB"/><path d="m73 35.86c-0.2751 4e-3 -0.5409-0.1001-0.74-0.29-0.7886-0.7124-1.3865-1.6109-1.7391-2.6135-0.3526-1.0025-0.4487-2.0774-0.2797-3.1267 0.1691-1.0492 0.598-2.0395 1.2477-2.8806 0.6496-0.8411 1.4994-1.5062 2.4719-1.9349s2.0368-0.6072 3.0959-0.5193c1.0592 0.0878 2.0795 0.4393 2.9681 1.0223 0.8885 0.5831 1.6171 1.3792 2.1193 2.3159 0.5022 0.9366 0.762 1.984 0.7559 3.0468 1e-4 0.8405-0.1679 1.6725-0.4942 2.447-0.3263 0.7746-0.8043 1.476-1.4058 2.063-0.0982 0.1165-0.2195 0.2113-0.3562 0.2785-0.1367 0.0671-0.2859 0.1052-0.4381 0.1116-0.1522 0.0065-0.3041-0.0187-0.4461-0.074-0.1419-0.0553-0.2708-0.1394-0.3786-0.2471-0.1077-0.1078-0.1919-0.2367-0.2471-0.3786-0.0553-0.142-0.0805-0.2939-0.0741-0.4461 0.0065-0.1522 0.0446-0.3014 0.1117-0.4381 0.0672-0.1367 0.162-0.258 0.2785-0.3562 0.5905-0.592 0.99-1.3475 1.1466-2.1689 0.1567-0.8214 0.0634-1.6709-0.2678-2.4387s-0.885-1.4186-1.59-1.8684c-0.7049-0.4497-1.5286-0.6777-2.3644-0.6544-0.8359 0.0232-1.6456 0.2967-2.3244 0.7849-0.6789 0.4882-1.1957 1.1689-1.4837 1.9539-0.2879 0.785-0.3339 1.6384-0.1318 2.4498s0.6429 1.5435 1.2655 2.1018c0.1445 0.1497 0.2435 0.3374 0.2857 0.5412 0.0421 0.2038 0.0255 0.4153-0.0478 0.6101-0.0733 0.1947-0.2003 0.3647-0.3663 0.4901-0.166 0.1255-0.3642 0.2013-0.5716 0.2186z" fill="#9df"/><path d="m79.35 39.49h-6.81l0.11-1.2c0.0245-1.0396-0.2055-2.0695-0.67-3-0.0657-0.1313-0.1048-0.2743-0.1152-0.4207-0.0104-0.1465 0.0081-0.2936 0.0545-0.4328 0.0465-0.1393 0.1199-0.2681 0.2161-0.379s0.2133-0.2018 0.3446-0.2675 0.2743-0.1048 0.4207-0.1152c0.1465-0.0104 0.2936 0.0081 0.4329 0.0545 0.1392 0.0465 0.268 0.1199 0.3789 0.2161 0.111 0.0962 0.2018 0.2133 0.2675 0.3446 0.4772 0.9367 0.7756 1.954 0.88 3h3.48c0.1044-1.046 0.4028-2.0633 0.88-3 0.1343-0.2582 0.3655-0.4526 0.6429-0.5407s0.5784-0.0627 0.8371 0.0707c0.2589 0.1363 0.4535 0.3693 0.5415 0.6483 0.0881 0.279 0.0623 0.5815-0.0715 0.8417-0.4696 0.9286-0.6999 1.9598-0.67 3l0.09 1.18h-1.24z" fill="#9df"/><path d="m77.89 33.08h-2.73c-0.2917 0-0.5715-0.1159-0.7778-0.3222s-0.3222-0.4861-0.3222-0.7778c0-0.2918 0.1159-0.5715 0.3222-0.7778s0.4861-0.3222 0.7778-0.3222h2.73c0.2917 0 0.5715 0.1159 0.7778 0.3222s0.3222 0.486 0.3222 0.7778c0 0.2917-0.1159 0.5715-0.3222 0.7778s-0.4861 0.3222-0.7778 0.3222z" fill="#9df"/><path d="m76.53 39.49c-0.2917 0-0.5715-0.1159-0.7778-0.3222s-0.3222-0.4861-0.3222-0.7778v-6.39c0-0.2917 0.1159-0.5715 0.3222-0.7778s0.4861-0.3222 0.7778-0.3222 0.5715 0.1159 0.7778 0.3222 0.3222 0.4861 0.3222 0.7778v6.41c-0.0078 0.2874-0.1268 0.5606-0.3319 0.7621-0.2052 0.2014-0.4806 0.3154-0.7681 0.3179z" fill="#9df"/><path d="m79.87 43.71h-6.58v-6.42h6.58v6.42zm-4.38-2.2h2.18v-2h-2.18v2z" fill="#9df"/><path d="m28.28 59.25c-1.1166-0.0126-2.2008-0.377-3.0985-1.0412-0.8976-0.6643-1.563-1.5946-1.9015-2.6588-1.08-3.39 1.27-9.23 1.54-9.88l0.51-1.23 1.11 0.74c0.61 0.39 5.93 4 6.94 7.17 0.2517 0.7948 0.3123 1.6377 0.177 2.4603s-0.4628 1.6017-0.9558 2.274c-0.493 0.6722-1.1376 1.2187-1.8815 1.595-0.7439 0.3764-1.566 0.5719-2.3997 0.5707h-0.04zm-2-11.44c-0.7 2-1.56 5.3-1 7.08 0.2506 0.7904 0.805 1.4488 1.541 1.8304 0.3645 0.189 0.7626 0.3043 1.1717 0.3394 0.409 0.0351 0.821-0.0107 1.2123-0.1348s0.7544-0.324 1.0685-0.5884c0.314-0.2644 0.5729-0.5881 0.7619-0.9526s0.3043-0.7626 0.3394-1.1716c0.0351-0.4091-0.0107-0.821-0.1348-1.2124-0.52-1.64-3.14-3.86-4.91-5.19h-0.05z" fill="#9df"/><path d="m28.38 56.19c-0.648 0.0104-1.2787-0.2093-1.78-0.62-0.2082-0.171-0.3399-0.4178-0.3662-0.686-0.0262-0.2681 0.0551-0.5358 0.2262-0.744s0.4178-0.3399 0.686-0.3661c0.2682-0.0263 0.5358 0.0551 0.744 0.2261 0.1199 0.0826 0.2581 0.1348 0.4027 0.1523 0.1446 0.0174 0.2912-5e-4 0.4273-0.0523 0.2533-0.0795 0.5278-0.0552 0.7632 0.0676 0.2353 0.1229 0.4122 0.3342 0.4918 0.5874 0.0796 0.2533 0.0553 0.5278-0.0676 0.7632-0.1228 0.2354-0.3341 0.4123-0.5874 0.4918-0.302 0.109-0.6192 0.1697-0.94 0.18z" fill="#9df"/><path d="m51.35 98h-0.18c-1.6387-0.0721-3.1864-0.7735-4.3209-1.9583-1.1344-1.1847-1.7681-2.7614-1.7691-4.4017v-25.57c0-0.3978 0.158-0.7793 0.4393-1.0606s0.6629-0.4394 1.0607-0.4394 0.7794 0.1581 1.0607 0.4394 0.4393 0.6628 0.4393 1.0606v25.53c-0.0112 0.6477 0.1702 1.2841 0.5213 1.8285 0.351 0.5444 0.8558 0.9723 1.4503 1.2294 0.5946 0.2571 1.2521 0.3318 1.8891 0.2147 0.6371-0.1171 1.2251-0.4208 1.6893-0.8726 0.3143-0.3015 0.5648-0.6632 0.7366-1.0634 0.1718-0.4003 0.2614-0.831 0.2634-1.2666 0.0647-1.6182 0.753-3.1487 1.9209-4.2708 1.1678-1.1221 2.7245-1.7488 4.3441-1.7488s3.1763 0.6267 4.3441 1.7488c1.1679 1.1221 1.8562 2.6526 1.9209 4.2708 0 0.3978-0.158 0.7794-0.4393 1.0607s-0.6629 0.4393-1.0607 0.4393-0.7794-0.158-1.0607-0.4393-0.4393-0.6629-0.4393-1.0607c-0.0462-0.8347-0.4103-1.62-1.0176-2.1945-0.6072-0.5746-1.4114-0.8947-2.2474-0.8947s-1.6402 0.3201-2.2474 0.8947c-0.6073 0.5745-0.9714 1.3598-1.0176 2.1945 0.0093 0.8297-0.1465 1.6529-0.4581 2.4218-0.3117 0.7689-0.7732 1.4682-1.3575 2.0572s-1.2799 1.0559-2.0464 1.3737c-0.7664 0.3178-1.5883 0.48-2.418 0.4773z" fill="#25AFE5"/></svg>
