<svg viewBox="0 0 128 128" xmlns="http://www.w3.org/2000/svg"><path d="m37.57 84.08h-15.66c-1.2855-0.0027-2.5176-0.5145-3.4266-1.4235-0.9089-0.909-1.4208-2.141-1.4234-3.4265v-14.92c0.0026-1.2855 0.5145-2.5176 1.4234-3.4266 0.909-0.909 2.1411-1.4208 3.4266-1.4234h16.89c0.3978 0 0.7794 0.158 1.0607 0.4393s0.4393 0.6628 0.4393 1.0607c0 0.3978-0.158 0.7793-0.4393 1.0606s-0.6629 0.4394-1.0607 0.4394h-16.89c-0.4942 0.0026-0.9673 0.2008-1.3158 0.5512-0.3486 0.3504-0.5442 0.8245-0.5442 1.3188v14.9c0 0.4942 0.1956 0.9683 0.5442 1.3187 0.3485 0.3504 0.8216 0.5486 1.3158 0.5513h15.66c0.3978 0 0.7794 0.158 1.0607 0.4393s0.4393 0.6628 0.4393 1.0607c0 0.3978-0.158 0.7793-0.4393 1.0606s-0.6629 0.4394-1.0607 0.4394v-0.02z" fill="#6cf"/><path d="m39.63 59.46h-6.66v2.98h6.66v-2.98z" fill="#25AFE5"/><path d="m37.57 81.1h-7.74v2.98h7.74v-2.98z" fill="#25AFE5"/><path d="m39.63 65.69h-19.6v3.21h19.6v-3.21z" fill="#1283C5"/><path d="m33 73.65h-9.81c-0.289 0-0.5663-0.1148-0.7707-0.3192-0.2044-0.2045-0.3193-0.4817-0.3193-0.7708s0.1149-0.5663 0.3193-0.7707 0.4817-0.3193 0.7707-0.3193h9.81c0.2891 0 0.5664 0.1149 0.7708 0.3193s0.3192 0.4816 0.3192 0.7707-0.1148 0.5663-0.3192 0.7708c-0.2044 0.2044-0.4817 0.3192-0.7708 0.3192z" fill="#E3E5EB"/><path d="m28.53 78.21h-5.22c-0.2891 0-0.5663-0.1149-0.7707-0.3193s-0.3193-0.4816-0.3193-0.7707 0.1149-0.5663 0.3193-0.7708c0.2044-0.2044 0.4816-0.3192 0.7707-0.3192h5.22c0.2891 0 0.5664 0.1148 0.7708 0.3192 0.2044 0.2045 0.3192 0.4817 0.3192 0.7708s-0.1148 0.5663-0.3192 0.7707-0.4817 0.3193-0.7708 0.3193z" fill="#245E93"/><path d="m57.89 95.12h-21.06c-0.3978 0-0.7793-0.158-1.0606-0.4393s-0.4394-0.6629-0.4394-1.0607 0.1581-0.7793 0.4394-1.0606 0.6628-0.4394 1.0606-0.4394h21.06c0.3978 0 0.7794 0.1581 1.0607 0.4394s0.4393 0.6628 0.4393 1.0606-0.158 0.7794-0.4393 1.0607-0.6629 0.4393-1.0607 0.4393z" fill="#245E93"/><path d="m57.88 82.91h-2c-1.8947-0.0064-3.737 0.6211-5.2338 1.7827-1.4968 1.1615-2.5621 2.7904-3.0262 4.6273l-0.23 0.92-3.46 3.6h14l-0.05-10.93z" fill="#1283C5"/><path d="m103.71 89.77h-3c-0.016-1.2183-0.514-2.3805-1.3861-3.2317-0.8717-0.8511-2.0456-1.3216-3.2639-1.3083h-16.91v-21.48h3v18.5h13.92c0.9955-0.0079 1.9827 0.1803 2.9054 0.554 0.9226 0.3736 1.7626 0.9253 2.4726 1.6236 0.709 0.6983 1.274 1.5295 1.662 2.4462 0.388 0.9166 0.592 1.9008 0.6 2.8962z" fill="#6cf"/><path d="m94.85 104.66c-1.0362 0.02-2.0447-0.335-2.84-1l-3.69-3.23c-0.2465-0.19-0.5489-0.293-0.86-0.293s-0.6134 0.103-0.86 0.293l-3.67 3.22c-0.7914 0.677-1.7986 1.048-2.84 1.048-1.0413 0-2.0485-0.371-2.84-1.048l-3.67-3.22c-0.2465-0.19-0.5489-0.293-0.86-0.293s-0.6134 0.103-0.86 0.293l-3.68 3.23c-0.7923 0.675-1.7991 1.045-2.84 1.045-1.0408 0-2.0476-0.37-2.84-1.045l-4.76-4.1702c-0.3916-0.3418-0.7064-0.7627-0.9235-1.235-0.2172-0.4723-0.3319-0.9852-0.3365-1.505v-8.65c-0.0979-0.7836-0.4786-1.5045-1.0707-2.0272-0.592-0.5227-1.3545-0.8111-2.1443-0.8111-0.7897 0-1.5522 0.2884-2.1443 0.8111-0.592 0.5227-0.9727 1.2436-1.0707 2.0272-0.0054 0.7496-0.1623 1.4904-0.4613 2.1778s-0.734 1.3072-1.2787 1.8222c-0.6169 0.5892-1.3448 1.05-2.1413 1.3556-0.7966 0.3056-1.6459 0.4498-2.4987 0.4244-1.5645-0.0197-3.0613-0.6419-4.1788-1.7371s-1.7698-2.579-1.8212-4.1429v-61.64c0.0599-1.3732 0.6579-2.6676 1.6647-3.6033s2.3415-1.4374 3.7153-1.3967h33.66c1.3856-0.0459 2.7328 0.4603 3.7454 1.4072 1.0125 0.947 1.6077 2.2572 1.6546 3.6428v11.27h-3v-11.31c-0.0485-0.5935-0.3284-1.1442-0.7792-1.5333s-1.0365-0.5854-1.6308-0.5467h-33.7c-0.5905-0.0386-1.1725 0.157-1.6198 0.5444-0.4474 0.3875-0.7241 0.9356-0.7702 1.5256v61.64c0.0439 0.7931 0.3935 1.5384 0.9753 2.0791 0.5818 0.5408 1.3505 0.835 2.1447 0.8209 0.4547 0.0194 0.9086-0.053 1.3346-0.2128 0.4261-0.1597 0.8156-0.4037 1.1454-0.7172 0.2561-0.249 0.4583-0.5478 0.5942-0.8781 0.1359-0.3302 0.2025-0.6848 0.1958-1.0419 0.0901-1.5861 0.7836-3.0776 1.9383-4.1686s2.6831-1.6988 4.2717-1.6988c1.5887 0 3.1171 0.6078 4.2718 1.6988s1.8482 2.5825 1.9382 4.1686v8.64c0.0036 0.0992 0.0277 0.1967 0.0707 0.2861 0.043 0.0895 0.1041 0.1692 0.1793 0.2339l4.76 4.1702c0.2444 0.195 0.5476 0.301 0.86 0.301 0.3125 0 0.6157-0.106 0.86-0.301l3.68-3.2202c0.7924-0.6749 1.7992-1.0455 2.84-1.0455 1.0409 0 2.0477 0.3706 2.84 1.0455l3.67 3.2202c0.2444 0.195 0.5476 0.301 0.86 0.301 0.3125 0 0.6157-0.106 0.86-0.301l3.67-3.2202c0.7917-0.6722 1.7965-1.0413 2.835-1.0413 1.0386 0 2.0434 0.3691 2.835 1.0413l3.7 3.2202c0.2444 0.195 0.5476 0.301 0.86 0.301 0.3125 0 0.6157-0.106 0.86-0.301l4.6-4.0002c0.126-0.1013 0.228-0.2291 0.299-0.3743s0.109-0.3042 0.111-0.4657v-6.77h3v6.73c-4e-3 0.5849-0.133 1.1622-0.377 1.6933-0.245 0.5311-0.601 1.0039-1.043 1.3867l-4.6 4.0002c-0.7756 0.681-1.7681 1.063-2.8 1.08z" fill="#6cf"/><path d="m52.85 70.24c0.0962-0.1249 0.1799-0.2589 0.25-0.4 0.1443-0.2817 0.2197-0.5936 0.22-0.91 0.0207-0.1895 0.0207-0.3806 0-0.57-0.1105-0.6439-0.4697-1.2185-1-1.6-0.7798-0.5451-1.72-0.8127-2.67-0.76-0.913-0.0422-1.8129 0.2295-2.55 0.77-0.5457 0.3806-0.9362 0.9451-1.1 1.59-0.0405 0.1511-0.0706 0.3048-0.09 0.46v0.31h2v-0.25c0.0368-0.1971 0.1267-0.3804 0.26-0.53 0.0808-0.1022 0.175-0.193 0.28-0.27 0.359-0.2337 0.7821-0.3491 1.21-0.33 0.4488-0.0278 0.8926 0.1071 1.25 0.38 0.083 0.0629 0.1571 0.1369 0.22 0.22 0.1523 0.1892 0.2305 0.4273 0.22 0.67-0.0028 0.2133-0.0526 0.4234-0.146 0.6153-0.0933 0.1919-0.2279 0.3608-0.394 0.4947h-5.62v1.66h9v-1.55h-1.34z" fill="#FF001F"/><path d="m45.16 74.66h1.11c-0.1 0.105-0.1904 0.2188-0.27 0.34-0.167 0.3283-0.2527 0.6918-0.25 1.06-0.0158 0.1496-0.0158 0.3005 0 0.45 0.0541 0.3385 0.1758 0.6626 0.3579 0.953s0.4209 0.541 0.7021 0.737c0.8044 0.5437 1.7596 0.8201 2.73 0.79h0.07c0.9697 0.048 1.9284-0.2224 2.73-0.77 0.5733-0.4163 0.9806-1.0221 1.15-1.71 0-0.14 0.07-0.29 0.09-0.44v-0.33h-2v0.23c-0.0351 0.195-0.1137 0.3796-0.23 0.54-0.0969 0.1472-0.2228 0.2731-0.37 0.37-0.4155 0.2391-0.8911 0.3537-1.37 0.33-0.5009 0.0233-0.9958-0.1171-1.41-0.4-0.1114-0.0846-0.2092-0.1857-0.29-0.3-0.1327-0.183-0.2029-0.4039-0.2-0.63-0.0027-0.1622 0.0315-0.3229 0.1-0.47 0.0615-0.1505 0.1534-0.2867 0.27-0.4 0.1095-0.112 0.2382-0.2034 0.38-0.27h5.69v-1.6h-9.05l0.06 1.52z" fill="#FF001F"/><path d="m80.64 82.25h-27.16v2.98h27.16v-2.98z" fill="#6cf"/><path d="m50.72 32.71h-4.79c-0.3979 0-0.7794-0.1581-1.0607-0.4394s-0.4393-0.6628-0.4393-1.0606c0-0.3979 0.158-0.7794 0.4393-1.0607s0.6628-0.4393 1.0607-0.4393h4.79c0.3978 0 0.7793 0.158 1.0606 0.4393s0.4394 0.6628 0.4394 1.0607c0 0.3978-0.1581 0.7793-0.4394 1.0606s-0.6628 0.4394-1.0606 0.4394z" fill="#E3E5EB"/><path d="m73.2 32.71h-14.86c-0.3978 0-0.7793-0.1581-1.0606-0.4394s-0.4394-0.6628-0.4394-1.0606c0-0.3979 0.1581-0.7794 0.4394-1.0607s0.6628-0.4393 1.0606-0.4393h14.86c0.3978 0 0.7794 0.158 1.0607 0.4393s0.4393 0.6628 0.4393 1.0607c0 0.3978-0.158 0.7793-0.4393 1.0606s-0.6629 0.4394-1.0607 0.4394z" fill="#E3E5EB"/><path d="m73.2 39.51h-11.54c-0.3978 0-0.7793-0.1581-1.0606-0.4394s-0.4394-0.6628-0.4394-1.0606c0-0.3979 0.1581-0.7794 0.4394-1.0607s0.6628-0.4393 1.0606-0.4393h11.54c0.3979 0 0.7794 0.158 1.0607 0.4393s0.4393 0.6628 0.4393 1.0607c0 0.3978-0.158 0.7793-0.4393 1.0606s-0.6628 0.4394-1.0607 0.4394z" fill="#E3E5EB"/><path d="m71.24 60.09h-13.09c-0.3978 0-0.7793-0.158-1.0606-0.4393s-0.4394-0.6628-0.4394-1.0607c0-0.3978 0.1581-0.7793 0.4394-1.0606s0.6628-0.4394 1.0606-0.4394h13.09c0.3978 0 0.7794 0.1581 1.0607 0.4394s0.4393 0.6628 0.4393 1.0606c0 0.3979-0.158 0.7794-0.4393 1.0607s-0.6629 0.4393-1.0607 0.4393z" fill="#E3E5EB"/><path d="m72.72 67h-7.13c-0.3978 0-0.7793-0.158-1.0606-0.4393s-0.4394-0.6629-0.4394-1.0607 0.1581-0.7794 0.4394-1.0607 0.6628-0.4393 1.0606-0.4393h7.13c0.3979 0 0.7794 0.158 1.0607 0.4393s0.4393 0.6629 0.4393 1.0607-0.158 0.7794-0.4393 1.0607-0.6628 0.4393-1.0607 0.4393z" fill="#E3E5EB"/><path d="m50.72 39.51h-4.79c-0.3979 0-0.7794-0.1581-1.0607-0.4394s-0.4393-0.6628-0.4393-1.0606c0-0.3979 0.158-0.7794 0.4393-1.0607s0.6628-0.4393 1.0607-0.4393h4.79c0.3978 0 0.7793 0.158 1.0606 0.4393s0.4394 0.6628 0.4394 1.0607c0 0.3978-0.1581 0.7793-0.4394 1.0606s-0.6628 0.4394-1.0606 0.4394z" fill="#E3E5EB"/><path d="m50.72 46h-4.79c-0.3979 0-0.7794-0.158-1.0607-0.4393s-0.4393-0.6629-0.4393-1.0607 0.158-0.7794 0.4393-1.0607 0.6628-0.4393 1.0607-0.4393h4.79c0.3978 0 0.7793 0.158 1.0606 0.4393s0.4394 0.6629 0.4394 1.0607-0.1581 0.7794-0.4394 1.0607-0.6628 0.4393-1.0606 0.4393z" fill="#E3E5EB"/><path d="m50.72 52.81h-4.79c-0.3979 0-0.7794-0.1581-1.0607-0.4394s-0.4393-0.6628-0.4393-1.0606c0-0.3979 0.158-0.7794 0.4393-1.0607s0.6628-0.4393 1.0607-0.4393h4.79c0.3978 0 0.7793 0.158 1.0606 0.4393s0.4394 0.6628 0.4394 1.0607c0 0.3978-0.1581 0.7793-0.4394 1.0606s-0.6628 0.4394-1.0606 0.4394z" fill="#E3E5EB"/><path d="m50.72 60.09h-4.79c-0.3979 0-0.7794-0.158-1.0607-0.4393s-0.4393-0.6628-0.4393-1.0607c0-0.3978 0.158-0.7793 0.4393-1.0606s0.6628-0.4394 1.0607-0.4394h4.79c0.3978 0 0.7793 0.1581 1.0606 0.4394s0.4394 0.6628 0.4394 1.0606c0 0.3979-0.1581 0.7794-0.4394 1.0607s-0.6628 0.4393-1.0606 0.4393z" fill="#E3E5EB"/><path d="m73.63 74h-4.78c-0.3978 0-0.7793-0.158-1.0606-0.4393s-0.4394-0.6629-0.4394-1.0607 0.1581-0.7794 0.4394-1.0607 0.6628-0.4393 1.0606-0.4393h4.78c0.3979 0 0.7794 0.158 1.0607 0.4393s0.4393 0.6629 0.4393 1.0607-0.158 0.7794-0.4393 1.0607-0.6628 0.4393-1.0607 0.4393z" fill="#E3E5EB"/><path d="m74 91.75h-9.36c-0.3978 0-0.7793-0.158-1.0606-0.4393-0.2814-0.2813-0.4394-0.6629-0.4394-1.0607s0.158-0.7794 0.4394-1.0607c0.2813-0.2813 0.6628-0.4393 1.0606-0.4393h9.36c0.3978 0 0.7794 0.158 1.0607 0.4393s0.4393 0.6629 0.4393 1.0607-0.158 0.7794-0.4393 1.0607-0.6629 0.4393-1.0607 0.4393z" fill="#E3E5EB"/><path d="m94.17 91.75h-2.52c-0.3978 0-0.7793-0.158-1.0606-0.4393s-0.4394-0.6629-0.4394-1.0607 0.1581-0.7794 0.4394-1.0607 0.6628-0.4393 1.0606-0.4393h2.52c0.3978 0 0.7794 0.158 1.0607 0.4393s0.4393 0.6629 0.4393 1.0607-0.158 0.7794-0.4393 1.0607-0.6629 0.4393-1.0607 0.4393z" fill="#FF001F"/><path d="m95 85.23h-24.34c-0.3978 0-0.7793-0.1581-1.0606-0.4394s-0.4394-0.6628-0.4394-1.0606 0.1581-0.7794 0.4394-1.0607 0.6628-0.4393 1.0606-0.4393h24.34c0.3979 0 0.7794 0.158 1.0607 0.4393s0.4393 0.6629 0.4393 1.0607-0.158 0.7793-0.4393 1.0606-0.6628 0.4394-1.0607 0.4394z" fill="#9df"/><path d="m80.61 48.81c-0.3951 0-0.7741-0.157-1.0535-0.4364-0.2795-0.2795-0.4365-0.6585-0.4365-1.0536v-20.95c-0.0485-0.5935-0.3284-1.1442-0.7792-1.5333s-1.0365-0.5854-1.6308-0.5467h-23.23c-0.1969 0-0.392-0.0388-0.574-0.1142s-0.3473-0.1859-0.4866-0.3252-0.2498-0.3046-0.3252-0.4866-0.1142-0.377-0.1142-0.574 0.0388-0.3921 0.1142-0.5741c0.0754-0.1819 0.1859-0.3473 0.3252-0.4866s0.3046-0.2498 0.4866-0.3251c0.182-0.0754 0.3771-0.1142 0.574-0.1142h23.23c1.3856-0.0459 2.7328 0.4603 3.7453 1.4072 1.0126 0.947 1.6078 2.2572 1.6547 3.6428v21c-0.0078 0.3926-0.1693 0.7664-0.4498 1.0413-0.2804 0.2748-0.6575 0.4288-1.0502 0.4287z" fill="#9df"/><path d="m105.11 65.24h-27.43c-0.9222 0-1.8068-0.365-2.4608-1.0151-0.6539-0.6502-1.0239-1.5328-1.0292-2.4549v-12.46c0.0026-0.9239 0.3715-1.809 1.0257-2.4614 0.6542-0.6523 1.5404-1.0186 2.4643-1.0186h27.43c0.924 0 1.81 0.3663 2.464 1.0186 0.654 0.6524 1.023 1.5375 1.026 2.4614v12.46c-5e-3 0.9221-0.375 1.8047-1.029 2.4549-0.654 0.6501-1.539 1.0151-2.461 1.0151zm-27.43-16.43c-0.1326 0-0.2598 0.0527-0.3536 0.1464-0.0937 0.0938-0.1464 0.221-0.1464 0.3536v12.46c0.0026 0.1318 0.0561 0.2575 0.1493 0.3507s0.2189 0.1467 0.3507 0.1493h27.43c0.132-0.0026 0.258-0.0561 0.351-0.1493s0.146-0.2189 0.149-0.3507v-12.46c0-0.1326-0.053-0.2598-0.146-0.3536-0.094-0.0937-0.221-0.1464-0.354-0.1464h-27.43z" fill="#6cf"/><path d="m107.1 56.27c-0.395 0-0.774-0.157-1.054-0.4365-0.279-0.2794-0.436-0.6584-0.436-1.0535v-5.47c0-0.1326-0.053-0.2598-0.146-0.3536-0.094-0.0938-0.221-0.1464-0.354-0.1464h-10.11c-0.197 0-0.392-0.0388-0.574-0.1142s-0.3474-0.1859-0.4867-0.3252c-0.1392-0.1393-0.2497-0.3046-0.3251-0.4866s-0.1142-0.3771-0.1142-0.574c0-0.197 0.0388-0.3921 0.1142-0.5741s0.1859-0.3473 0.3251-0.4866c0.1393-0.1393 0.3047-0.2498 0.4867-0.3252 0.182-0.0753 0.377-0.1141 0.574-0.1141h10.15c0.924 0 1.81 0.3663 2.464 1.0186 0.654 0.6524 1.023 1.5375 1.026 2.4614v5.47c1e-3 0.2012-0.038 0.4007-0.115 0.5865s-0.191 0.3541-0.335 0.495c-0.143 0.1409-0.314 0.2515-0.501 0.3251-0.188 0.0736-0.388 0.1087-0.589 0.1034z" fill="#9df"/><path d="m90.82 65.24h-13.14c-0.9222 0-1.8068-0.3649-2.4608-1.0151-0.6539-0.6502-1.0239-1.5328-1.0292-2.4549v-9.47c0-0.3978 0.158-0.7794 0.4393-1.0607s0.6629-0.4393 1.0607-0.4393 0.7794 0.158 1.0607 0.4393 0.4393 0.6629 0.4393 1.0607v9.47c0.0026 0.1318 0.0561 0.2575 0.1493 0.3507s0.2189 0.1467 0.3507 0.1493h13.13c0.3978 0 0.7794 0.158 1.0607 0.4393s0.4393 0.6629 0.4393 1.0607-0.158 0.7794-0.4393 1.0607-0.6629 0.4393-1.0607 0.4393v-0.03z" fill="#25AFE5"/><path d="m82 59.79c-0.3165 0-0.6202-0.125-0.845-0.3479-0.2247-0.2229-0.3523-0.5255-0.355-0.8421v-6.26c0-0.3182 0.1265-0.6234 0.3515-0.8485 0.2251-0.225 0.5303-0.3515 0.8485-0.3515 0.3183 0 0.6235 0.1265 0.8486 0.3515 0.225 0.2251 0.3514 0.5303 0.3514 0.8485v6.26c-0.0026 0.3166-0.1302 0.6192-0.3549 0.8421-0.2248 0.2229-0.5285 0.3479-0.8451 0.3479z" fill="#6cf"/><path d="m83.48 53.49h-2.9c-0.3156 0-0.6183-0.1254-0.8414-0.3486-0.2232-0.2231-0.3486-0.5258-0.3486-0.8414s0.1254-0.6183 0.3486-0.8415c0.2231-0.2232 0.5258-0.3485 0.8414-0.3485h2.9c0.3156 0 0.6183 0.1253 0.8415 0.3485 0.2231 0.2232 0.3485 0.5259 0.3485 0.8415s-0.1254 0.6183-0.3485 0.8414c-0.2232 0.2232-0.5259 0.3486-0.8415 0.3486z" fill="#6cf"/><path d="m83.48 60.35h-2.9c-0.3156 0-0.6183-0.1254-0.8414-0.3485-0.2232-0.2232-0.3486-0.5259-0.3486-0.8415s0.1254-0.6183 0.3486-0.8414c0.2231-0.2232 0.5258-0.3486 0.8414-0.3486h2.9c0.3156 0 0.6183 0.1254 0.8415 0.3486 0.2231 0.2231 0.3485 0.5258 0.3485 0.8414s-0.1254 0.6183-0.3485 0.8415c-0.2232 0.2231-0.5259 0.3485-0.8415 0.3485z" fill="#6cf"/><path d="m105 78.74c-1.58 0-9.47-0.16-9.47-3.26v-3.48h2.2v3.3c0.53 0.46 3.08 1.25 7.27 1.25s6.75-0.79 7.28-1.25v-3.15h2.19v3.33c-0.01 3.1-7.89 3.26-9.47 3.26z" fill="#6cf"/><path d="m96.62 72.42c-0.0056-0.0532 1e-4 -0.1069 0.0166-0.1577 0.0166-0.0509 0.0437-0.0976 0.0795-0.1372 0.0359-0.0397 0.0797-0.0713 0.1286-0.0929 0.049-0.0215 0.1019-0.0325 0.1553-0.0322" clip-rule="evenodd" fill="#fff" fill-rule="evenodd"/><path d="m97 72.43h-1.38c0-0.366 0.1454-0.717 0.4042-0.9758s0.6098-0.4042 0.9758-0.4042v1.38z" fill="#6cf"/><path d="m105 75.3c-1.58 0-9.47-0.16-9.47-3.26s7.89-3.26 9.47-3.26 9.47 0.16 9.47 3.26-7.89 3.26-9.47 3.26zm-7-3.3c0.88 0.46 3.3 1.08 7 1.08s6.13-0.62 7-1.08c-0.88-0.46-3.31-1.07-7-1.07s-6.13 0.65-7 1.07z" fill="#6cf"/><path d="m24.7 107.32c-1.58 0-9.47-0.16-9.47-3.26v-2.44c0.0261-0.272 0.1527-0.525 0.3552-0.709s0.4662-0.286 0.7398-0.286 0.5374 0.102 0.7399 0.286 0.3291 0.437 0.3551 0.709v2.27c0.54 0.45 3.09 1.24 7.28 1.24s6.74-0.79 7.28-1.24v-3.16c0.0261-0.272 0.1527-0.525 0.3552-0.709 0.2025-0.1842 0.4662-0.2861 0.7398-0.2861s0.5374 0.1019 0.7399 0.2861c0.2025 0.184 0.3291 0.437 0.3551 0.709v3.33c0 3.1-7.89 3.26-9.47 3.26z" fill="#245E93"/><path d="m24.7 103.88c-3.16 0-7.09-0.46-8.68-1.76-0.1123-0.089-0.2055-0.2-0.2741-0.326-0.0685-0.126-0.1111-0.265-0.125-0.407-0.014-0.143 8e-4 -0.287 0.0436-0.424s0.1127-0.264 0.2055-0.373c0.1837-0.224 0.4486-0.367 0.737-0.397s0.577 0.055 0.803 0.237c0.75 0.62 3.56 1.27 7.29 1.27 2.3815 0.118 4.7624-0.246 7-1.07h-0.06c-0.1281-0.066-0.2419-0.156-0.3351-0.266-0.0932-0.109-0.1638-0.236-0.2079-0.3733-0.0441-0.137-0.0608-0.2813-0.0492-0.4247 0.0117-0.1434 0.0515-0.2831 0.1171-0.4112 0.0657-0.128 0.1559-0.2419 0.2656-0.335 0.1097-0.0932 0.2366-0.1639 0.3736-0.208 0.1369-0.0441 0.2813-0.0608 0.4247-0.0491s0.2831 0.0515 0.4112 0.1171c1.28 0.63 1.55 1.4202 1.55 2.0002-0.0201 3.04-7.91 3.2-9.49 3.2z" fill="#245E93"/><path d="m22.94 102.84c-1.59 0-9.48-0.16-9.48-3.2599v-3.44h2.2v3.27c0.53 0.46 3.09 1.2499 7.28 1.2499s6.74-0.7899 7.27-1.2499v-3.16h2.2v3.33c0 3.0999-7.89 3.2599-9.47 3.2599z" fill="#6cf"/><path d="m14.56 96.53c0-0.0512 0.0101-0.1019 0.0297-0.1492s0.0483-0.0903 0.0845-0.1265c0.0362-0.0363 0.0792-0.065 0.1266-0.0846 0.0473-0.0196 0.098-0.0297 0.1492-0.0297" clip-rule="evenodd" fill="#fff" fill-rule="evenodd"/><path d="m15 96.53h-1.43c-1e-4 -0.1855 0.0372-0.3691 0.1096-0.5399 0.0725-0.1708 0.1786-0.3252 0.3121-0.454s0.2916-0.2294 0.4648-0.2957c0.1733-0.0664 0.3581-0.0971 0.5435-0.0904v1.38z" fill="#6cf"/><path d="m22.94 99.4c-1.59 0-9.48-0.15-9.48-3.26s7.89-3.25 9.48-3.25 9.47 0.15 9.47 3.25-7.89 3.26-9.47 3.26zm-7-3.26c0.88 0.46 3.3 1.08 7 1.08s6.12-0.62 7-1.08c-0.88-0.46-3.3-1.07-7-1.07s-6.13 0.61-7.01 1.07h0.01z" fill="#6cf"/><path d="m100.27 57h-11.54c-0.3978 0-0.7793-0.158-1.0606-0.4393s-0.4394-0.6629-0.4394-1.0607 0.1581-0.7794 0.4394-1.0607 0.6628-0.4393 1.0606-0.4393h11.54c0.398 0 0.779 0.158 1.061 0.4393 0.281 0.2813 0.439 0.6629 0.439 1.0607s-0.158 0.7794-0.439 1.0607c-0.282 0.2813-0.663 0.4393-1.061 0.4393z" fill="#9df"/></svg>
