<svg viewBox="0 0 128 128" xmlns="http://www.w3.org/2000/svg"><path d="m111.73 67.78h-67.34v6.19h67.34v-6.19z" fill="#25AFE5"/><path d="m105.89 100.67h-55.66c-1.6779-7e-3 -3.3034-0.585-4.6086-1.639-1.3052-1.0544-2.2122-2.522-2.5714-4.161l2.95-0.63c0.2135 0.9694 0.7507 1.8373 1.5232 2.4607 0.7724 0.6234 1.7342 0.9653 2.7268 0.9693h55.66c1.15-0.0026 2.253-0.4607 3.066-1.2741 0.813-0.8133 1.271-1.9157 1.274-3.0659v-29.24c-3e-3 -1.1502-0.461-2.2526-1.274-3.0659-0.813-0.8134-1.916-1.2715-3.066-1.2741h-55.68c-0.5699 0-1.1343 0.1123-1.6608 0.3304-0.5266 0.2181-1.005 0.5377-1.408 0.9408-0.4031 0.403-0.7227 0.8814-0.9408 1.408-0.2181 0.5265-0.3304 1.0909-0.3304 1.6608v12.85h-3v-12.85c0.0026-1.9459 0.7768-3.8113 2.1528-5.1872 1.3759-1.376 3.2413-2.1502 5.1872-2.1528h55.66c1.946 0.0026 3.811 0.7768 5.187 2.1528 1.376 1.3759 2.15 3.2413 2.153 5.1872v29.24c-3e-3 1.9459-0.777 3.8113-2.153 5.1872-1.376 1.376-3.241 2.1498-5.187 2.1528z" fill="#6cf"/><path d="m44.39 78.44c-0.3978 0-0.7794-0.158-1.0607-0.4393s-0.4393-0.6629-0.4393-1.0607v-12.85c0.0026-1.9459 0.7768-3.8113 2.1528-5.1872 1.3759-1.376 3.2413-2.1502 5.1872-2.1528h6.42c0.3978 0 0.7794 0.158 1.0607 0.4393s0.4393 0.6629 0.4393 1.0607-0.158 0.7794-0.4393 1.0607-0.6629 0.4393-1.0607 0.4393h-6.42c-0.5699 0-1.1343 0.1123-1.6608 0.3304-0.5266 0.2181-1.005 0.5377-1.408 0.9408-0.4031 0.403-0.7227 0.8814-0.9408 1.408-0.2181 0.5265-0.3304 1.0909-0.3304 1.6608v12.85c0 0.3978-0.158 0.7794-0.4393 1.0607s-0.6629 0.4393-1.0607 0.4393z" fill="#25AFE5"/><path d="m91.73 100.67h-41.5c-1.4173-2e-3 -2.8038-0.414-3.9925-1.1856-1.1888-0.7718-2.129-1.8708-2.7075-3.1647-0.0995-0.1817-0.1603-0.3821-0.1786-0.5885-0.0182-0.2063 0.0065-0.4143 0.0726-0.6106 0.0661-0.1964 0.1721-0.3769 0.3115-0.5303 0.1393-0.1533 0.3089-0.2761 0.4981-0.3607 0.1891-0.0845 0.3938-0.1289 0.601-0.1304 0.2071-0.0016 0.4124 0.0399 0.6028 0.1216s0.3618 0.202 0.5033 0.3533c0.1416 0.1513 0.2503 0.3302 0.3193 0.5256 0.3465 0.7696 0.9088 1.422 1.6189 1.8782 0.71 0.4562 1.5372 0.6965 2.3811 0.6918h41.5c0.3978 0 0.7794 0.1581 1.0607 0.4394s0.4393 0.6628 0.4393 1.0606-0.158 0.7794-0.4393 1.0603c-0.2813 0.282-0.6629 0.44-1.0607 0.44h-0.03z" fill="#25AFE5"/><path d="m111.73 74.82c-0.398 0-0.779-0.158-1.061-0.4393-0.281-0.2813-0.439-0.6629-0.439-1.0607v-9.23c-3e-3 -1.1502-0.461-2.2526-1.274-3.0659-0.813-0.8134-1.916-1.2715-3.066-1.2741h-14.16c-0.3978 0-0.7793-0.158-1.0607-0.4393-0.2813-0.2813-0.4393-0.6629-0.4393-1.0607s0.158-0.7794 0.4393-1.0607c0.2814-0.2813 0.6629-0.4393 1.0607-0.4393h14.16c1.946 0.0026 3.811 0.7768 5.187 2.1528 1.376 1.3759 2.15 3.2413 2.153 5.1872v9.23c0 0.3978-0.158 0.7794-0.439 1.0607-0.282 0.2813-0.663 0.4393-1.061 0.4393z" fill="#9df"/><path d="m55.36 83.62c-0.3978 0-0.7794-0.158-1.0607-0.4393s-0.4393-0.6628-0.4393-1.0607c0-0.3978 0.158-0.7793 0.4393-1.0606s0.6629-0.4394 1.0607-0.4394h14.74c0.3978 0 0.7794 0.1581 1.0607 0.4394s0.4393 0.6628 0.4393 1.0606c0 0.3979-0.158 0.7794-0.4393 1.0607s-0.6629 0.4393-1.0607 0.4393h-14.74z" fill="#E3E5EB"/><path d="m55.36 90.71c-0.3978 0-0.7794-0.1581-1.0607-0.4394s-0.4393-0.6628-0.4393-1.0606c0-0.3979 0.158-0.7794 0.4393-1.0607s0.6629-0.4393 1.0607-0.4393h5.78c0.3978 0 0.7794 0.158 1.0607 0.4393s0.4393 0.6628 0.4393 1.0607c0 0.3978-0.158 0.7793-0.4393 1.0606s-0.6629 0.4394-1.0607 0.4394h-5.78z" fill="#E3E5EB"/><path d="m103.38 84.4c1.259 0 2.28-1.0387 2.28-2.32s-1.021-2.32-2.28-2.32-2.28 1.0387-2.28 2.32 1.021 2.32 2.28 2.32z" fill="#FF001F"/><path d="m82.983 41.35-66.193 12.376 1.1376 6.0846 66.193-12.376-1.1376-6.0845z" fill="#6cf"/><path d="m21.49 80.33c-0.354 0.0054-0.6984-0.1154-0.9714-0.3407-0.273-0.2254-0.4569-0.5407-0.5186-0.8893l-5.36-28.73c-0.3567-1.9147 0.0611-3.8927 1.1618-5.4996 1.1006-1.6068 2.794-2.7111 4.7082-3.0704l54.71-10.23c1.9132-0.3538 3.8886 0.0655 5.4932 1.1658 1.6046 1.1004 2.7075 2.7921 3.0668 4.7042l2.88 15.34c0.0729 0.3978-0.0152 0.8084-0.2449 1.1412-0.2297 0.3329-0.5823 0.5609-0.9801 0.6338-0.3978 0.073-0.8083-0.0151-1.1412-0.2449-0.3329-0.2297-0.5609-0.5823-0.6338-0.9801l-2.83-15.33c-0.2137-1.1296-0.8659-2.1288-1.814-2.779-0.9482-0.6502-2.1152-0.8987-3.246-0.691l-54.71 10.22c-1.1305 0.216-2.1297 0.8702-2.7797 1.82s-0.8982 2.118-0.6903 3.25l5.41 28.73c0.0377 0.1931 0.0367 0.3918-0.0029 0.5845-0.0395 0.1928-0.1168 0.3758-0.2274 0.5385-0.1107 0.1627-0.2524 0.3019-0.4172 0.4095-0.1647 0.1076-0.3491 0.1815-0.5425 0.2175l-0.32 0.03z" fill="#6cf"/><path d="m22.3 84.63c-0.3491 0.0011-0.6876-0.1205-0.9562-0.3435-0.2687-0.2229-0.4505-0.5332-0.5138-0.8765l-6.19-33c-0.3567-1.9147 0.0611-3.8927 1.1618-5.4996 1.1006-1.6069 2.794-2.7112 4.7082-3.0704l6.31-1.18c0.3978-0.073 0.8083 0.0151 1.1412 0.2449 0.3329 0.2297 0.5609 0.5822 0.6338 0.9801 0.0729 0.3978-0.0151 0.8083-0.2449 1.1412-0.2297 0.3329-0.5823 0.5608-0.9801 0.6338l-6.31 1.18c-1.1305 0.216-2.1297 0.8702-2.7797 1.82-0.65 0.9497-0.8982 2.118-0.6903 3.25l6.19 33c0.0703 0.3909-0.0162 0.7937-0.2408 1.1213-0.2246 0.3275-0.5692 0.5534-0.9592 0.6287-0.0941-4e-4 -0.1879-0.0104-0.28-0.03z" fill="#25AFE5"/><path d="m84 48.28c-0.3486-9e-4 -0.686-0.1231-0.9543-0.3458-0.2683-0.2226-0.4506-0.5317-0.5157-0.8742l-1.7-9.06c-0.2137-1.1297-0.8659-2.1288-1.814-2.7791-0.9482-0.6502-2.1152-0.8986-3.246-0.6909l-13.92 2.6c-0.1997 0.0536-0.4083 0.0654-0.6128 0.0346-0.2044-0.0309-0.4003-0.1036-0.5753-0.2138-0.175-0.1101-0.3253-0.2552-0.4415-0.4262-0.1163-0.171-0.1959-0.3642-0.2339-0.5674-0.038-0.2033-0.0336-0.4122 0.0129-0.6136 0.0466-0.2015 0.1343-0.3911 0.2576-0.5571 0.1234-0.1659 0.2797-0.3046 0.4592-0.4072 0.1795-0.1027 0.3782-0.1671 0.5838-0.1893l13.92-2.61c1.9132-0.3538 3.8886 0.0655 5.4932 1.1658s2.7075 2.792 3.0668 4.7042l1.7 9.07c0.0703 0.3909-0.0162 0.7937-0.2408 1.1213-0.2246 0.3275-0.5692 0.5534-0.9592 0.6287-0.0927 0.0132-0.1866 0.0166-0.28 0.01z" fill="#9df"/><path d="m27.07 67.84c-0.197 0.0177-0.3955-0.0035-0.5843-0.0625s-0.3641-0.1546-0.5159-0.2814-0.2772-0.2822-0.369-0.4574c-0.0917-0.1752-0.1481-0.3667-0.1658-0.5637s0.0035-0.3955 0.0625-0.5843 0.1546-0.3641 0.2814-0.5159c0.1267-0.1518 0.2822-0.2772 0.4574-0.369 0.1752-0.0917 0.3667-0.1481 0.5637-0.1658l11.59-2.14c0.1997-0.0537 0.4083-0.0654 0.6128-0.0346 0.2044 0.0308 0.4003 0.1036 0.5753 0.2137 0.175 0.1102 0.3253 0.2553 0.4415 0.4263 0.1163 0.171 0.1959 0.3642 0.2339 0.5674s0.0336 0.4122-0.0129 0.6136c-0.0466 0.2015-0.1343 0.3911-0.2576 0.5571-0.1234 0.1659-0.2797 0.3046-0.4592 0.4072-0.1795 0.1027-0.3782 0.1671-0.5838 0.1893l-11.59 2.17c-0.092 0.0199-0.1859 0.0299-0.28 0.03z" fill="#E3E5EB"/><path d="m28.37 74.8c-0.3978 0.0358-0.7936-0.0879-1.1002-0.3438-0.3066-0.256-0.499-0.6233-0.5348-1.0212-0.0358-0.3978 0.0879-0.7935 0.3439-1.1002 0.256-0.3066 0.6233-0.499 1.0211-0.5348l8.81-1.65c0.3912-0.0729 0.7953 0.0126 1.1235 0.2376s0.5536 0.5712 0.6265 0.9624-0.0125 0.7954-0.2376 1.1236c-0.225 0.3281-0.5712 0.5535-0.9624 0.6264l-8.81 1.65-0.28 0.05z" fill="#E3E5EB"/><path d="m52.46 97.21h-27.69c-1.0609 0-2.0783-0.4215-2.8284-1.1716-0.7502-0.7502-1.1716-1.7676-1.1716-2.8284v-13.8c0-1.0609 0.4214-2.0783 1.1716-2.8285 0.7501-0.7501 1.7675-1.1715 2.8284-1.1715h27.69c1.0609 0 2.0783 0.4214 2.8284 1.1715 0.7502 0.7502 1.1716 1.7676 1.1716 2.8285v13.83c-0.0079 1.0556-0.4328 2.0654-1.1821 2.809-0.7493 0.7437-1.7622 1.161-2.8179 1.161zm-27.69-18.77c-0.2652 0-0.5196 0.1053-0.7071 0.2929-0.1875 0.1875-0.2929 0.4419-0.2929 0.7071v13.8c0 0.2652 0.1054 0.5195 0.2929 0.7071 0.1875 0.1875 0.4419 0.2929 0.7071 0.2929h27.69c0.2652 0 0.5196-0.1054 0.7071-0.2929 0.1875-0.1876 0.2929-0.4419 0.2929-0.7071v-13.83c0-0.2652-0.1054-0.5196-0.2929-0.7071-0.1875-0.1876-0.4419-0.2929-0.7071-0.2929l-27.69 0.03z" fill="#6cf"/><path d="m38.61 97.21h-13.84c-1.0609 0-2.0783-0.4214-2.8284-1.1716-0.7502-0.7501-1.1716-1.7675-1.1716-2.8284v-9.61c0-0.3978 0.158-0.7793 0.4393-1.0607 0.2813-0.2813 0.6629-0.4393 1.0607-0.4393s0.7794 0.158 1.0607 0.4393c0.2813 0.2814 0.4393 0.6629 0.4393 1.0607v9.64c0 0.2652 0.1054 0.5196 0.2929 0.7071 0.1875 0.1876 0.4419 0.2929 0.7071 0.2929h13.84c0.3978 0 0.7794 0.158 1.0607 0.4393 0.2813 0.2814 0.4393 0.6629 0.4393 1.0607s-0.158 0.7794-0.4393 1.0607-0.6629 0.4393-1.0607 0.4393v-0.03z" fill="#25AFE5"/><path d="m42.29 84.56h-1c0.066-0.0873 0.123-0.1811 0.17-0.28 0.0992-0.2023 0.1505-0.4247 0.15-0.65 0.015-0.294-0.0407-0.5872-0.1625-0.8552s-0.3061-0.5028-0.5375-0.6848c-0.5364-0.3964-1.1939-0.5944-1.86-0.56-0.6375-0.0281-1.2655 0.1624-1.78 0.54-0.2328 0.1738-0.425 0.3962-0.5632 0.6518-0.1381 0.2556-0.219 0.5382-0.2368 0.8282v0.22h1.36v-0.18c0.0209-0.116 0.0654-0.2264 0.1308-0.3245 0.0654-0.098 0.1502-0.1816 0.2492-0.2455 0.2501-0.1603 0.5431-0.2406 0.84-0.23 0.3144-0.0162 0.6249 0.0755 0.88 0.26 0.0975 0.0756 0.1762 0.1726 0.23 0.2837 0.0538 0.111 0.0812 0.233 0.08 0.3563-0.0052 0.1508-0.0417 0.2989-0.1071 0.4349s-0.1583 0.2569-0.2729 0.3551h-3.92v1.18h6.3l0.05-1.1z" fill="#FF001F"/><path d="m40.48 88.65c-0.0233 0.1308-0.0725 0.2556-0.1446 0.3672s-0.1657 0.2078-0.2754 0.2828c-0.3014 0.1784-0.6509 0.2588-1 0.23-0.3555 0.0236-0.7084-0.0752-1-0.28-0.1077-0.0725-0.1953-0.171-0.2548-0.2864-0.0594-0.1153-0.0887-0.2439-0.0852-0.3736-0.0018-0.1171 0.0221-0.2332 0.07-0.34 0.0536-0.0959 0.1249-0.1807 0.21-0.25 0.0789-0.0779 0.1701-0.1421 0.27-0.19h4v-1.2h-6.31v1.1h0.78c-0.0712 0.0841-0.1348 0.1745-0.19 0.27-0.1209 0.2309-0.1795 0.4894-0.17 0.75-0.0081 0.2974 0.0581 0.5921 0.1925 0.8575 0.1345 0.2653 0.333 0.493 0.5775 0.6625 0.5585 0.391 1.2285 0.591 1.91 0.57 0.6756 0.0226 1.3409-0.17 1.9-0.55 0.2443-0.1789 0.4474-0.408 0.5958-0.6719 0.1483-0.2639 0.2384-0.5565 0.2642-0.8581v-0.23h-1.29l-0.05 0.14z" fill="#FF001F"/><path d="m47.79 87.56c0.8008 0 1.45-0.6492 1.45-1.45s-0.6492-1.45-1.45-1.45-1.45 0.6492-1.45 1.45 0.6492 1.45 1.45 1.45z" fill="#E3E5EB"/><path d="m29.01 87.56c0.8008 0 1.45-0.6492 1.45-1.45s-0.6492-1.45-1.45-1.45-1.45 0.6492-1.45 1.45 0.6492 1.45 1.45 1.45z" fill="#E3E5EB"/><path d="m100.59 51.34c-0.202-7e-4 -0.401-0.0417-0.587-0.1207-0.185-0.079-0.3528-0.1944-0.493-0.3393l-5-5.06c-0.1458-0.1388-0.2621-0.3055-0.3421-0.4902s-0.1221-0.3836-0.1236-0.5848c-0.0015-0.2013 0.0375-0.4008 0.1147-0.5867s0.191-0.3543 0.3347-0.4953c0.1436-0.141 0.3142-0.2516 0.5015-0.3253s0.3875-0.1089 0.5887-0.1036c0.2012 0.0054 0.3993 0.0511 0.5825 0.1346 0.1831 0.0835 0.3476 0.2029 0.4836 0.3513l2.4 2.45v-7.17c0.0027-0.6287-0.2424-1.2332-0.6823-1.6824-0.4399-0.4493-1.0391-0.7071-1.6677-0.7176h-5.54c-0.3978 0-0.7794-0.158-1.0607-0.4393s-0.4393-0.6629-0.4393-1.0607 0.158-0.7793 0.4393-1.0606c0.2813-0.2814 0.6629-0.4394 1.0607-0.4394h5.54c1.4304 0.0027 2.8014 0.5728 3.812 1.5852 1.01 1.0124 1.578 2.3844 1.578 3.8148v7.1l2.42-2.54c0.204-0.2164 0.469-0.3671 0.759-0.4328s0.594-0.0436 0.872 0.0637c0.277 0.1072 0.517 0.2947 0.688 0.5385s0.265 0.5329 0.271 0.8306c-8e-3 0.3745-0.159 0.7318-0.42 1l-5 5.25c-0.18 0.1901-0.408 0.3283-0.66 0.4h-0.21l-0.22 0.13z" fill="#6cf"/></svg>
