<svg width="128" height="128" viewBox="0 0 128 128" fill="none" xmlns="http://www.w3.org/2000/svg">
<g clip-path="url(#clip0_150_51203)">
<path d="M109 96H94C93.4696 96 92.9609 95.7893 92.5858 95.4142C92.2107 95.0391 92 94.5304 92 94C92 93.4696 92.2107 92.9609 92.5858 92.5858C92.9609 92.2107 93.4696 92 94 92H107V23H58V56C58 56.5304 57.7893 57.0391 57.4142 57.4142C57.0391 57.7893 56.5304 58 56 58C55.4696 58 54.9609 57.7893 54.5858 57.4142C54.2107 57.0391 54 56.5304 54 56V21C54 20.4696 54.2107 19.9609 54.5858 19.5858C54.9609 19.2107 55.4696 19 56 19H109C109.53 19 110.039 19.2107 110.414 19.5858C110.789 19.9609 111 20.4696 111 21V94C111 94.5304 110.789 95.0391 110.414 95.4142C110.039 95.7893 109.53 96 109 96Z" fill="#4ADE80"/>
<path d="M52.55 76.64C52.3146 76.6443 52.0853 76.5654 51.9024 76.4172C51.7194 76.2691 51.5947 76.0611 51.55 75.83L50 67.8C49.9532 67.5707 49.8275 67.3651 49.6448 67.2189C49.4621 67.0727 49.2339 66.9953 49 67H42C41.766 66.9953 41.5378 67.0727 41.3551 67.2189C41.1724 67.3651 41.0467 67.5707 41 67.8L39.46 75.8C39.4096 76.0652 39.2559 76.2995 39.0327 76.4514C38.8096 76.6034 38.5352 76.6604 38.27 76.61C38.0048 76.5596 37.7704 76.4059 37.6185 76.1827C37.4666 75.9596 37.4096 75.6852 37.46 75.42L39.01 67.42C39.1458 66.7302 39.5196 66.11 40.0661 65.6677C40.6126 65.2254 41.297 64.9891 42 65H49.1C49.7875 65.01 50.4507 65.2558 50.9786 65.6963C51.5065 66.1369 51.8671 66.7454 52 67.42L53.55 75.42C53.5999 75.6799 53.5448 75.9489 53.3967 76.1682C53.2486 76.3875 53.0197 76.5392 52.76 76.59L52.55 76.64Z" fill="#E2E8F0"/>
<path d="M73.55 76.64C73.3146 76.6443 73.0853 76.5654 72.9024 76.4172C72.7194 76.2691 72.5947 76.0611 72.55 75.83L71 67.8C70.9532 67.5707 70.8275 67.3651 70.6448 67.2189C70.4621 67.0727 70.2339 66.9953 70 67H63C62.766 66.9953 62.5378 67.0727 62.3551 67.2189C62.1724 67.3651 62.0467 67.5707 62 67.8L60.46 75.8C60.435 75.9313 60.3844 76.0564 60.3111 76.1682C60.2378 76.28 60.1432 76.3762 60.0327 76.4514C59.9222 76.5267 59.798 76.5794 59.6671 76.6066C59.5362 76.6338 59.4013 76.6349 59.27 76.61C59.1387 76.585 59.0135 76.5345 58.9018 76.4612C58.79 76.3879 58.6937 76.2933 58.6185 76.1827C58.4666 75.9596 58.4096 75.6852 58.46 75.42L60.01 67.42C60.1458 66.7302 60.5196 66.11 61.0661 65.6677C61.6126 65.2254 62.297 64.9891 63 65H70.1C70.7875 65.01 71.4507 65.2558 71.9786 65.6963C72.5065 66.1369 72.8671 66.7454 73 67.42L74.55 75.42C74.5999 75.6799 74.5448 75.9489 74.3967 76.1682C74.2486 76.3875 74.0197 76.5392 73.76 76.59L73.55 76.64Z" fill="#E2E8F0"/>
<path d="M91.46 110H20.54C20.0095 110 19.5008 109.789 19.1258 109.414C18.7507 109.039 18.54 108.53 18.54 108C18.54 107.47 18.7507 106.961 19.1258 106.586C19.5008 106.211 20.0095 106 20.54 106H91.46C91.9904 106 92.4991 106.211 92.8742 106.586C93.2493 106.961 93.46 107.47 93.46 108C93.46 108.53 93.2493 109.039 92.8742 109.414C92.4991 109.789 91.9904 110 91.46 110Z" fill="#075985"/>
<path d="M90 100H22C20.9391 100 19.9217 99.5786 19.1716 98.8284C18.4214 98.0783 18 97.0609 18 96V84.46C18.0024 83.3492 18.3132 82.261 18.8976 81.3164C19.482 80.3718 20.3171 79.608 21.31 79.11L30.31 74.63C31.1285 74.2259 32.0272 74.0106 32.94 74H79.06C79.9897 74.003 80.9063 74.2185 81.74 74.63L90.74 79.11C91.7235 79.6149 92.5485 80.3816 93.1237 81.3257C93.699 82.2698 94.0022 83.3545 94 84.46V96C94 97.0609 93.5786 98.0783 92.8284 98.8284C92.0783 99.5786 91.0609 100 90 100ZM32.94 78C32.6311 78.0003 32.3265 78.0722 32.05 78.21L23.1 82.69C22.7717 82.8554 22.4953 83.1082 22.3012 83.4204C22.1072 83.7327 22.003 84.0924 22 84.46V96H90V84.46C89.997 84.0924 89.8928 83.7327 89.6988 83.4204C89.5047 83.1082 89.2283 82.8554 88.9 82.69L79.9 78.21C79.6235 78.0722 79.3189 78.0003 79.01 78H32.94Z" fill="#38BDF8"/>
<path d="M31.6 108H24.4C23.2864 108.052 22.1979 107.66 21.373 106.91C20.5482 106.16 20.0544 105.113 20 104V98C20 97.4696 20.2107 96.9609 20.5858 96.5858C20.9609 96.2107 21.4696 96 22 96C22.5304 96 23.0391 96.2107 23.4142 96.5858C23.7893 96.9609 24 97.4696 24 98V103.89C24.1171 103.971 24.2581 104.01 24.4 104H31.6C31.7419 104.01 31.8829 103.971 32 103.89V98C32 97.4696 32.2107 96.9609 32.5858 96.5858C32.9609 96.2107 33.4696 96 34 96C34.5304 96 35.0391 96.2107 35.4142 96.5858C35.7893 96.9609 36 97.4696 36 98V104C35.9456 105.113 35.4518 106.16 34.627 106.91C33.8021 107.66 32.7136 108.052 31.6 108Z" fill="#38BDF8"/>
<path d="M87.6 108H80.4C79.2865 108.052 78.1979 107.66 77.373 106.91C76.5482 106.16 76.0544 105.113 76 104V98C76 97.4696 76.2107 96.9609 76.5858 96.5858C76.9609 96.2107 77.4696 96 78 96C78.5304 96 79.0391 96.2107 79.4142 96.5858C79.7893 96.9609 80 97.4696 80 98V103.89C80.1171 103.971 80.2581 104.01 80.4 104H87.6C87.7419 104.01 87.8829 103.971 88 103.89V98C88 97.4696 88.2107 96.9609 88.5858 96.5858C88.9609 96.2107 89.4696 96 90 96C90.5304 96 91.0391 96.2107 91.4142 96.5858C91.7893 96.9609 92 97.4696 92 98V104C91.9456 105.113 91.4518 106.16 90.627 106.91C89.8021 107.66 88.7135 108.052 87.6 108Z" fill="#38BDF8"/>
<path d="M26 81.0001C25.7136 81.0002 25.4306 80.9388 25.17 80.8201C24.9301 80.712 24.7139 80.5577 24.5337 80.3659C24.3535 80.1742 24.213 79.9488 24.1201 79.7026C24.0272 79.4564 23.9838 79.1943 23.9923 78.9313C24.0009 78.6684 24.0613 78.4097 24.17 78.1701L32.04 60.8601C32.8353 59.1115 34.1173 57.629 35.7329 56.5898C37.3484 55.5506 39.2291 54.9987 41.15 55.0001H70.9C72.8105 54.9936 74.6829 55.5345 76.2956 56.5588C77.9082 57.5831 79.1938 59.048 80 60.7801L87.85 77.6601C88.0318 78.1333 88.0271 78.658 87.8368 79.128C87.6465 79.5979 87.2849 79.9781 86.825 80.1915C86.3651 80.4049 85.8413 80.4357 85.3595 80.2777C84.8778 80.1196 84.474 79.7845 84.23 79.3401L76.34 62.4701C75.858 61.4335 75.0899 60.5563 74.1262 59.9415C73.1624 59.3268 72.0431 59.0002 70.9 59.0001H41.15C39.998 59.0007 38.8706 59.333 37.9024 59.9572C36.9342 60.5814 36.1661 61.4711 35.69 62.5201L27.82 79.8301C27.6608 80.1791 27.4046 80.475 27.0819 80.6824C26.7592 80.8899 26.3836 81.0001 26 81.0001Z" fill="#38BDF8"/>
<path d="M27 92H18V86H27C27.5304 86 28.0391 86.2107 28.4142 86.5858C28.7893 86.9609 29 87.4696 29 88V90C29 90.5304 28.7893 91.0391 28.4142 91.4142C28.0391 91.7893 27.5304 92 27 92Z" fill="#FC3131"/>
<path d="M94 92H85C84.4696 92 83.9609 91.7893 83.5858 91.4142C83.2107 91.0391 83 90.5304 83 90V88C83 87.4696 83.2107 86.9609 83.5858 86.5858C83.9609 86.2107 84.4696 86 85 86H94V92Z" fill="#FC3131"/>
<path d="M64 84H48C47.7348 84 47.4804 83.8946 47.2929 83.7071C47.1054 83.5196 47 83.2652 47 83C47 82.7348 47.1054 82.4804 47.2929 82.2929C47.4804 82.1054 47.7348 82 48 82H64C64.2652 82 64.5196 82.1054 64.7071 82.2929C64.8946 82.4804 65 82.7348 65 83C65 83.2652 64.8946 83.5196 64.7071 83.7071C64.5196 83.8946 64.2652 84 64 84Z" fill="#E2E8F0"/>
<path d="M70 100H42C41.6966 99.9998 41.3973 99.9305 41.1246 99.7975C40.852 99.6645 40.6132 99.4712 40.4262 99.2323C40.2393 98.9933 40.1092 98.715 40.0458 98.4184C39.9823 98.1217 39.9872 97.8145 40.06 97.52L41.68 91C41.902 90.1402 42.4038 89.3787 43.1062 88.8356C43.8087 88.2924 44.672 87.9984 45.56 88H66.44C67.328 87.9984 68.1912 88.2924 68.8937 88.8356C69.5962 89.3787 70.098 90.1402 70.32 91L71.94 97.49C72.0182 97.7865 72.0271 98.097 71.9662 98.3975C71.9053 98.698 71.776 98.9805 71.5885 99.2231C71.401 99.4657 71.1602 99.6619 70.8848 99.7967C70.6093 99.9314 70.3066 100.001 70 100ZM44.56 96H67.44L66.44 92H45.56L44.56 96Z" fill="#38BDF8"/>
<path d="M101 37C100.605 36.9989 100.218 36.8806 99.89 36.66L95 33.4L90.11 36.66C89.8091 36.8608 89.4593 36.9762 89.098 36.9939C88.7367 37.0116 88.3774 36.931 88.0582 36.7607C87.7391 36.5904 87.4721 36.3366 87.2858 36.0266C87.0994 35.7165 87.0007 35.3617 87 35V21C87 20.4696 87.2107 19.9609 87.5858 19.5858C87.9609 19.2107 88.4696 19 89 19H101C101.53 19 102.039 19.2107 102.414 19.5858C102.789 19.9609 103 20.4696 103 21V35C102.999 35.3618 102.9 35.7166 102.713 36.0265C102.527 36.3365 102.259 36.5899 101.94 36.76C101.651 36.9159 101.328 36.9984 101 37ZM95 29C95.3955 29.0011 95.7818 29.1194 96.11 29.34L99 31.26V23H91V31.26L93.89 29.34C94.2182 29.1194 94.6045 29.0011 95 29Z" fill="#4ADE80"/>
<path d="M78 31H63C62.7348 31 62.4804 30.8946 62.2929 30.7071C62.1054 30.5196 62 30.2652 62 30C62 29.7348 62.1054 29.4804 62.2929 29.2929C62.4804 29.1054 62.7348 29 63 29H78C78.2652 29 78.5196 29.1054 78.7071 29.2929C78.8946 29.4804 79 29.7348 79 30C79 30.2652 78.8946 30.5196 78.7071 30.7071C78.5196 30.8946 78.2652 31 78 31Z" fill="#86EFAC"/>
<path d="M102 61H91C90.7348 61 90.4804 60.8946 90.2929 60.7071C90.1054 60.5196 90 60.2652 90 60C90 59.7348 90.1054 59.4804 90.2929 59.2929C90.4804 59.1054 90.7348 59 91 59H102C102.265 59 102.52 59.1054 102.707 59.2929C102.895 59.4804 103 59.7348 103 60C103 60.2652 102.895 60.5196 102.707 60.7071C102.52 60.8946 102.265 61 102 61Z" fill="#86EFAC"/>
<path d="M102 67H95C94.7348 67 94.4804 66.8946 94.2929 66.7071C94.1054 66.5196 94 66.2652 94 66C94 65.7348 94.1054 65.4804 94.2929 65.2929C94.4804 65.1054 94.7348 65 95 65H102C102.265 65 102.52 65.1054 102.707 65.2929C102.895 65.4804 103 65.7348 103 66C103 66.2652 102.895 66.5196 102.707 66.7071C102.52 66.8946 102.265 67 102 67Z" fill="#86EFAC"/>
<path d="M78 37H63C62.7348 37 62.4804 36.8946 62.2929 36.7071C62.1054 36.5196 62 36.2652 62 36C62 35.7348 62.1054 35.4804 62.2929 35.2929C62.4804 35.1054 62.7348 35 63 35H78C78.2652 35 78.5196 35.1054 78.7071 35.2929C78.8946 35.4804 79 35.7348 79 36C79 36.2652 78.8946 36.5196 78.7071 36.7071C78.5196 36.8946 78.2652 37 78 37Z" fill="#86EFAC"/>
<path d="M102 43H63C62.7348 43 62.4804 42.8946 62.2929 42.7071C62.1054 42.5196 62 42.2652 62 42C62 41.7348 62.1054 41.4804 62.2929 41.2929C62.4804 41.1054 62.7348 41 63 41H102C102.265 41 102.52 41.1054 102.707 41.2929C102.895 41.4804 103 41.7348 103 42C103 42.2652 102.895 42.5196 102.707 42.7071C102.52 42.8946 102.265 43 102 43Z" fill="#86EFAC"/>
<path d="M102 49H63C62.7348 49 62.4804 48.8946 62.2929 48.7071C62.1054 48.5196 62 48.2652 62 48C62 47.7348 62.1054 47.4804 62.2929 47.2929C62.4804 47.1054 62.7348 47 63 47H102C102.265 47 102.52 47.1054 102.707 47.2929C102.895 47.4804 103 47.7348 103 48C103 48.2652 102.895 48.5196 102.707 48.7071C102.52 48.8946 102.265 49 102 49Z" fill="#86EFAC"/>
<path d="M102 55H84C83.7348 55 83.4804 54.8946 83.2929 54.7071C83.1054 54.5196 83 54.2652 83 54C83 53.7348 83.1054 53.4804 83.2929 53.2929C83.4804 53.1054 83.7348 53 84 53H102C102.265 53 102.52 53.1054 102.707 53.2929C102.895 53.4804 103 53.7348 103 54C103 54.2652 102.895 54.5196 102.707 54.7071C102.52 54.8946 102.265 55 102 55Z" fill="#86EFAC"/>
</g>
<defs>
<clipPath id="clip0_150_51203">
<rect width="128" height="128" fill="white"/>
</clipPath>
</defs>
</svg>
