<svg width="24" height="24" viewBox="0 0 24 24" fill="none" xmlns="http://www.w3.org/2000/svg">
<path d="M22.5145 6.50551C22.3883 6.02123 22.1421 5.57974 21.8005 5.22498C21.4589 4.87022 21.0338 4.61458 20.5675 4.48352C18.8602 4 11.989 4 11.989 4C11.989 4 5.11752 4.01464 3.41026 4.49816C2.94391 4.62923 2.51877 4.88488 2.17716 5.23965C1.83555 5.59443 1.5894 6.03594 1.46323 6.52023C0.94682 9.67035 0.746497 14.4704 1.47741 17.4945C1.6036 17.9788 1.84975 18.4203 2.19136 18.775C2.53296 19.1298 2.9581 19.3854 3.42444 19.5165C5.1317 20 12.003 20 12.003 20C12.003 20 18.8743 20 20.5815 19.5165C21.0478 19.3854 21.473 19.1298 21.8146 18.775C22.1562 18.4203 22.4024 17.9788 22.5286 17.4945C23.0733 14.3399 23.2411 9.54291 22.5145 6.5056V6.50551Z" fill="#FF0000"/>
<path d="M9.60193 15.2034L15.8203 11.6017L9.60202 8L9.60193 15.2034Z" fill="white"/>
</svg>
