<svg width="24" height="24" viewBox="0 0 24 24" fill="none" xmlns="http://www.w3.org/2000/svg">
    <path fill-rule="evenodd" clip-rule="evenodd" d="M12 2C12.3493 2.00262 12.6835 2.14253 12.9305 2.38951C13.1775 2.63649 13.3174 2.97072 13.32 3.32V8.21C13.3174 8.55835 13.1771 8.89153 12.9299 9.13692C12.6826 9.38231 12.3484 9.52001 12 9.52C11.6516 9.52001 11.3174 9.38231 11.0701 9.13692C10.8229 8.89153 10.6826 8.55835 10.68 8.21V3.32C10.6826 2.97072 10.8225 2.63649 11.0695 2.38951C11.3165 2.14253 11.6507 2.00262 12 2Z" fill="#00A0FF"/>
    <path fill-rule="evenodd" clip-rule="evenodd" d="M2.06 9.21996C2.16993 8.88888 2.40555 8.61425 2.71606 8.45526C3.02657 8.29626 3.38712 8.26563 3.72 8.36996L8.37 9.88996C8.70033 9.99775 8.97484 10.2314 9.13397 10.5403C9.2931 10.8492 9.32401 11.2084 9.22 11.54C9.1123 11.8726 8.87702 12.1489 8.5658 12.3083C8.25458 12.4676 7.89285 12.497 7.56 12.39L2.91 10.88C2.57892 10.77 2.30429 10.5344 2.1453 10.2239C1.9863 9.91339 1.95567 9.55284 2.06 9.21996Z" fill="#00A0FF"/>
    <path fill-rule="evenodd" clip-rule="evenodd" d="M5.86 20.9001C5.71937 20.7989 5.6002 20.6709 5.5094 20.5233C5.41859 20.3758 5.35795 20.2117 5.33098 20.0406C5.30401 19.8695 5.31124 19.6947 5.35227 19.5264C5.3933 19.3581 5.4673 19.1996 5.57 19.0601L8.44 15.0601C8.64764 14.7804 8.9567 14.5934 9.30075 14.5392C9.64481 14.4849 9.99641 14.5679 10.28 14.7701C10.5618 14.9761 10.7506 15.2854 10.8049 15.6302C10.8593 15.975 10.7748 16.3274 10.57 16.6101L7.7 20.6101C7.49236 20.8897 7.1833 21.0767 6.83924 21.131C6.49519 21.1852 6.14359 21.1023 5.86 20.9001Z" fill="#00A0FF"/>
    <path fill-rule="evenodd" clip-rule="evenodd" d="M18.14 20.9001C17.8564 21.1023 17.5048 21.1852 17.1608 21.131C16.8167 21.0767 16.5076 20.8897 16.3 20.6101L13.43 16.6101C13.2252 16.3274 13.1407 15.975 13.1951 15.6302C13.2494 15.2854 13.4382 14.9761 13.72 14.7701C14.0036 14.5679 14.3552 14.4849 14.6992 14.5392C15.0433 14.5934 15.3524 14.7804 15.56 15.0601L18.43 19.0601C18.5327 19.1996 18.6067 19.3581 18.6477 19.5264C18.6888 19.6947 18.696 19.8695 18.669 20.0406C18.6421 20.2117 18.5814 20.3758 18.4906 20.5233C18.3998 20.6709 18.2806 20.7989 18.14 20.9001Z" fill="#00A0FF"/>
    <path fill-rule="evenodd" clip-rule="evenodd" d="M21.94 9.21996C22.0443 9.55284 22.0137 9.91339 21.8547 10.2239C21.6957 10.5344 21.4211 10.77 21.09 10.88L16.44 12.39C16.1071 12.497 15.7454 12.4676 15.4342 12.3083C15.123 12.1489 14.8877 11.8726 14.78 11.54C14.676 11.2084 14.7069 10.8492 14.866 10.5403C15.0252 10.2314 15.2997 9.99775 15.63 9.88996L20.28 8.36996C20.6129 8.26563 20.9734 8.29626 21.2839 8.45526C21.5945 8.61425 21.8301 8.88888 21.94 9.21996Z" fill="#00A0FF"/>
</svg>
