<svg width="24" height="24" viewBox="0 0 24 24" fill="none" xmlns="http://www.w3.org/2000/svg">
    <path fill-rule="evenodd" clip-rule="evenodd" d="M11.8134 21.0016C16.8878 21.0016 21 16.8877 21 11.8133C21 6.73889 16.8878 2.625 11.8134 2.625C6.73896 2.625 2.62507 6.73889 2.62507 11.8133C2.62507 16.8877 6.73896 21.0016 11.8134 21.0016ZM6.72377 11.3305C6.73558 14.7911 9.36226 16.9453 11.886 16.9367L11.8859 16.9366C15.0021 16.9265 16.8455 14.3674 16.8388 12.031C16.8303 9.6964 15.5609 8.0083 12.7637 7.32631C12.757 7.2976 12.752 7.23513 12.752 7.17608C12.7469 5.41201 14.0771 3.85559 15.7483 3.50953C15.5913 3.45551 15.3331 3.43529 15.0866 3.43529C13.1757 3.44204 11.0672 4.26077 9.5277 5.5336C7.95101 6.84018 6.71531 9.04315 6.72377 11.3305Z" fill="#EE3023"/>
</svg>
