<svg width="128" height="128" viewBox="0 0 128 128" fill="none" xmlns="http://www.w3.org/2000/svg">
    <path d="M34.7799 89.27H31.7799C31.2988 89.2719 30.8345 89.0931 30.479 88.769C30.1234 88.4449 29.9025 87.9992 29.8599 87.52L29.7999 86.88L29.5299 86.77L29.0399 87.18C28.6722 87.4895 28.2014 87.649 27.7214 87.6268C27.2413 87.6045 26.7873 87.4022 26.4499 87.06L24.3199 84.93C23.9742 84.592 23.7703 84.1349 23.7499 83.6518C23.7294 83.1687 23.8939 82.696 24.2099 82.33L24.6099 81.84C24.5671 81.756 24.5304 81.6691 24.4999 81.58L23.8599 81.52C23.3806 81.4753 22.935 81.2541 22.6098 80.8993C22.2845 80.5444 22.1028 80.0813 22.0999 79.6V76.6C22.098 76.1189 22.2768 75.6546 22.6008 75.2991C22.9249 74.9435 23.3707 74.7226 23.8499 74.68L24.4899 74.62C24.4899 74.53 24.5599 74.44 24.5999 74.36L24.1899 73.87C23.8797 73.5007 23.7198 73.0283 23.7421 72.5466C23.7643 72.0648 23.967 71.6091 24.3099 71.27L26.4399 69.14C26.7743 68.8053 27.2206 68.6059 27.6931 68.5801C28.1655 68.5543 28.6309 68.7038 28.9999 69L29.4899 69.41L29.7599 69.3L29.8199 68.67C29.8602 68.1899 30.0805 67.7428 30.4365 67.4183C30.7926 67.0938 31.2581 66.9158 31.7399 66.92H34.7399C35.2194 66.9179 35.6823 67.0953 36.0376 67.4173C36.393 67.7393 36.6149 68.1826 36.6599 68.66L36.7199 69.3L36.9799 69.41L37.4699 69C37.8394 68.6889 38.313 68.5293 38.7954 68.5534C39.2779 68.5776 39.7332 68.7836 40.0699 69.13L42.1999 71.25C42.5434 71.5892 42.7458 72.046 42.7662 72.5284C42.7866 73.0107 42.6235 73.483 42.3099 73.85L41.9099 74.34L42.0199 74.6L42.6499 74.66C43.1274 74.707 43.5705 74.9292 43.8937 75.2838C44.2169 75.6384 44.3972 76.1002 44.3999 76.58V79.58C44.402 80.0595 44.2246 80.5225 43.9026 80.8778C43.5806 81.2331 43.1373 81.455 42.6599 81.5L42.0199 81.56C42.0199 81.65 41.9399 81.74 41.9099 81.83L42.3099 82.32C42.6239 82.6856 42.7863 83.1574 42.764 83.6388C42.7417 84.1203 42.5363 84.575 42.1899 84.91L40.0699 87.04C39.7308 87.3829 39.275 87.5856 38.7933 87.6078C38.3116 87.63 37.8391 87.4702 37.4699 87.16L36.9999 86.77L36.7399 86.88L36.6799 87.52C36.6212 87.9892 36.3981 88.4225 36.0503 88.7429C35.7024 89.0632 35.2523 89.25 34.7799 89.27ZM32.7099 86.27H33.7999L33.8599 85.63C33.8934 85.3213 34.0206 85.0304 34.2244 84.7962C34.4282 84.562 34.6988 84.3958 34.9999 84.32C35.5324 84.1788 36.0436 83.9669 36.5199 83.69C36.7849 83.5393 37.0896 83.4729 37.3933 83.4997C37.697 83.5265 37.9853 83.6452 38.2199 83.84L38.7199 84.25L39.4599 83.5L38.9999 83C38.8058 82.7628 38.6884 82.4722 38.6634 82.1668C38.6384 81.8614 38.7069 81.5556 38.8599 81.29C39.1309 80.8143 39.3424 80.3072 39.4899 79.78C39.5669 79.4851 39.7331 79.2212 39.9658 79.0243C40.1985 78.8274 40.4863 78.7072 40.7899 78.68L41.4299 78.62V77.57L40.7999 77.51C40.4954 77.482 40.2068 77.3616 39.9727 77.165C39.7386 76.9684 39.5701 76.705 39.4899 76.41C39.3443 75.879 39.1326 75.3683 38.8599 74.89C38.7069 74.6244 38.6384 74.3186 38.6634 74.0132C38.6884 73.7077 38.8058 73.4171 38.9999 73.18L39.4099 72.69L38.6799 72L38.1899 72.4C37.9538 72.5957 37.6637 72.7148 37.3583 72.7416C37.0528 72.7684 36.7464 72.7016 36.4799 72.55C36.0147 72.2665 35.518 72.0383 34.9999 71.87C34.7049 71.7898 34.4414 71.6213 34.2448 71.3872C34.0482 71.153 33.9279 70.8644 33.8999 70.56L33.8399 69.93H32.7399L32.6799 70.56C32.6561 70.8658 32.5373 71.1566 32.34 71.3915C32.1428 71.6264 31.877 71.7937 31.5799 71.87C31.0497 72.0087 30.5414 72.2208 30.0699 72.5C29.8033 72.6516 29.4969 72.7184 29.1915 72.6916C28.886 72.6648 28.596 72.5457 28.3599 72.35L27.8699 71.94L27.1199 72.69L27.5299 73.18C27.7247 73.4145 27.8434 73.7029 27.8702 74.0066C27.897 74.3103 27.8306 74.615 27.6799 74.88C27.404 75.3568 27.1922 75.8679 27.0499 76.4C26.9722 76.6964 26.8045 76.9614 26.5699 77.1584C26.3352 77.3555 26.0452 77.4748 25.7399 77.5L25.0999 77.56V78.63L25.7399 78.68C26.0447 78.7114 26.3328 78.8342 26.5666 79.0323C26.8004 79.2304 26.9688 79.4945 27.0499 79.79C27.1895 80.3183 27.398 80.826 27.6699 81.3C27.8234 81.5636 27.8922 81.868 27.8672 82.172C27.8422 82.476 27.7244 82.765 27.5299 83L27.1199 83.49L27.8699 84.24L28.3599 83.83C28.596 83.6343 28.886 83.5152 29.1915 83.4884C29.4969 83.4616 29.8033 83.5284 30.0699 83.68C30.5438 83.9544 31.0514 84.1662 31.5799 84.31C31.8756 84.3889 32.1398 84.557 32.3366 84.7914C32.5334 85.0258 32.6533 85.3151 32.6799 85.62L32.7099 86.27Z" fill="#25AFE5"/>
    <path d="M33.27 82.3699C32.4231 82.3699 31.5952 82.1187 30.8911 81.6479C30.187 81.1772 29.6385 80.5082 29.3148 79.7255C28.9912 78.9429 28.907 78.0818 29.073 77.2513C29.2389 76.4208 29.6475 75.6582 30.2471 75.06C30.8467 74.4618 31.6102 74.055 32.4411 73.891C33.272 73.7269 34.1329 73.8131 34.9148 74.1386C35.6967 74.4641 36.3644 75.0142 36.8335 75.7194C37.3026 76.4245 37.552 77.253 37.55 78.0999C37.5473 79.2333 37.0952 80.3194 36.2929 81.1199C35.4905 81.9204 34.4034 82.3699 33.27 82.3699ZM33.27 76.8199C33.0168 76.8199 32.7693 76.895 32.5588 77.0357C32.3484 77.1763 32.1843 77.3762 32.0874 77.6101C31.9905 77.844 31.9652 78.1014 32.0146 78.3497C32.064 78.598 32.1859 78.826 32.3649 79.005C32.5439 79.184 32.772 79.306 33.0203 79.3553C33.2686 79.4047 33.5259 79.3794 33.7598 79.2825C33.9937 79.1856 34.1936 79.0216 34.3343 78.8111C34.4749 78.6006 34.55 78.3531 34.55 78.0999C34.5513 77.9315 34.5191 77.7644 34.4553 77.6085C34.3914 77.4526 34.2972 77.311 34.178 77.1919C34.0589 77.0727 33.9173 76.9785 33.7614 76.9147C33.6055 76.8508 33.4384 76.8186 33.27 76.8199Z" fill="#25AFE5"/>
    <path d="M99.67 100.43H30.5C30.1022 100.43 29.7206 100.272 29.4393 99.9906C29.158 99.7093 29 99.3278 29 98.9299C29 98.5321 29.158 98.1506 29.4393 97.8693C29.7206 97.588 30.1022 97.4299 30.5 97.4299H99.67C100.068 97.4299 100.449 97.588 100.731 97.8693C101.012 98.1506 101.17 98.5321 101.17 98.9299C101.17 99.3278 101.012 99.7093 100.731 99.9906C100.449 100.272 100.068 100.43 99.67 100.43Z" fill="#3A83C1"/>
    <path d="M33.3699 97.4299V44.1999L21.5399 47.1099L18.4399 34.8899L37.9299 29.0699H48.1099V97.4299H33.3699Z" fill="#BAE6FD"/>
    <path d="M45.0999 49.9099H48.0999V97.4299H41.5899V53.4299C41.5885 52.9681 41.6784 52.5106 41.8542 52.0836C42.03 51.6566 42.2883 51.2685 42.6144 50.9415C42.9404 50.6145 43.3278 50.3551 43.7543 50.178C44.1808 50.001 44.6381 49.9099 45.0999 49.9099Z" fill="#25AFE5"/>
    <path d="M95.27 97.52H47C46.6022 97.52 46.2206 97.362 45.9393 97.0807C45.658 96.7994 45.5 96.4178 45.5 96.02V53.57C45.5 52.5914 45.8888 51.6528 46.5808 50.9608C47.2728 50.2688 48.2113 49.88 49.19 49.88H57.7C58.0978 49.88 58.4794 50.038 58.7607 50.3193C59.042 50.6006 59.2 50.9822 59.2 51.38C59.2 51.7778 59.042 52.1594 58.7607 52.4407C58.4794 52.722 58.0978 52.88 57.7 52.88H49.21C49.027 52.88 48.8515 52.9527 48.7221 53.0821C48.5927 53.2115 48.52 53.387 48.52 53.57V94.52H95.27C95.3601 94.5213 95.4496 94.5047 95.5333 94.4711C95.617 94.4376 95.6931 94.3877 95.7573 94.3244C95.8215 94.2611 95.8725 94.1857 95.9073 94.1026C95.9421 94.0194 95.96 93.9301 95.96 93.84V68.57C95.96 68.1722 96.118 67.7906 96.3993 67.5093C96.6806 67.228 97.0622 67.07 97.46 67.07C97.8578 67.07 98.2394 67.228 98.5207 67.5093C98.802 67.7906 98.96 68.1722 98.96 68.57V93.84C98.9574 94.8169 98.5674 95.7529 97.8757 96.4428C97.184 97.1326 96.2469 97.52 95.27 97.52Z" fill="#38BDF8"/>
    <path d="M77.1699 52.88H67.1699C66.7721 52.88 66.3906 52.722 66.1093 52.4407C65.828 52.1594 65.6699 51.7778 65.6699 51.38C65.6699 50.9822 65.828 50.6006 66.1093 50.3193C66.3906 50.038 66.7721 49.88 67.1699 49.88H77.1699C77.5677 49.88 77.9493 50.038 78.2306 50.3193C78.5119 50.6006 78.6699 50.9822 78.6699 51.38C78.6699 51.7778 78.5119 52.1594 78.2306 52.4407C77.9493 52.722 77.5677 52.88 77.1699 52.88Z" fill="#38BDF8"/>
    <path d="M57.6999 52.88H52.3799C51.9821 52.88 51.6005 52.722 51.3192 52.4407C51.0379 52.1594 50.8799 51.7778 50.8799 51.38C50.8799 50.9822 51.0379 50.6006 51.3192 50.3193C51.6005 50.038 51.9821 49.88 52.3799 49.88H57.6999C58.0977 49.88 58.4792 50.038 58.7605 50.3193C59.0418 50.6006 59.1999 50.9822 59.1999 51.38C59.1999 51.7778 59.0418 52.1594 58.7605 52.4407C58.4792 52.722 58.0977 52.88 57.6999 52.88Z" fill="#25AFE5"/>
    <path d="M77.17 52.88H72.24C71.8422 52.88 71.4606 52.722 71.1793 52.4407C70.898 52.1594 70.74 51.7778 70.74 51.38C70.74 50.9822 70.898 50.6006 71.1793 50.3193C71.4606 50.038 71.8422 49.88 72.24 49.88H77.17C77.5678 49.88 77.9493 50.038 78.2307 50.3193C78.512 50.6006 78.67 50.9822 78.67 51.38C78.67 51.7778 78.512 52.1594 78.2307 52.4407C77.9493 52.722 77.5678 52.88 77.17 52.88Z" fill="#25AFE5"/>
    <path d="M65.65 58.78H58.79C58.103 58.78 57.4443 58.5071 56.9585 58.0214C56.4728 57.5357 56.2 56.8769 56.2 56.19V48.19C56.1999 47.5022 56.4725 46.8424 56.9579 46.355C57.4434 45.8677 58.1021 45.5926 58.79 45.59C59.1878 45.5356 59.5909 45.6415 59.9107 45.8844C60.2304 46.1272 60.4406 46.4872 60.4949 46.885C60.5493 47.2828 60.4434 47.686 60.2006 48.0057C59.9577 48.3255 59.5978 48.5356 59.2 48.59V55.81H65.3C65.3543 55.4122 65.5645 55.0522 65.8843 54.8094C66.204 54.5665 66.6071 54.4606 67.0049 54.515C67.4028 54.5694 67.7627 54.7795 68.0056 55.0993C68.2484 55.419 68.3543 55.8222 68.3 56.22C68.2948 56.5623 68.222 56.9002 68.0859 57.2143C67.9497 57.5284 67.7529 57.8126 67.5067 58.0504C67.2605 58.2883 66.9697 58.4752 66.6511 58.6004C66.3324 58.7256 65.9922 58.7866 65.65 58.78Z" fill="#38BDF8"/>
    <path d="M66.75 57.69C66.3522 57.69 65.9707 57.5319 65.6894 57.2506C65.4081 56.9693 65.25 56.5878 65.25 56.19V48.61H58.79C58.3922 48.61 58.0107 48.452 57.7294 48.1706C57.4481 47.8893 57.29 47.5078 57.29 47.11C57.29 46.7122 57.4481 46.3306 57.7294 46.0493C58.0107 45.768 58.3922 45.61 58.79 45.61H65.65C66.3388 45.6126 66.9986 45.8874 67.4856 46.3744C67.9726 46.8614 68.2474 47.5212 68.25 48.21V56.21C68.2448 56.6043 68.0844 56.9807 67.8037 57.2577C67.523 57.5347 67.1444 57.69 66.75 57.69Z" fill="#38BDF8"/>
    <path d="M61.93 90.61H56C55.7403 90.618 55.4815 90.5738 55.2392 90.4799C54.9968 90.386 54.7758 90.2444 54.5893 90.0634C54.4027 89.8825 54.2545 89.6659 54.1532 89.4265C54.052 89.1872 53.9999 88.9299 54 88.67V83C53.9986 82.7393 54.0497 82.4809 54.1503 82.2404C54.2509 81.9998 54.399 81.782 54.5857 81.6C54.7724 81.418 54.9938 81.2755 55.2368 81.181C55.4799 81.0865 55.7394 81.0419 56 81.05H62C62.5023 81.0707 62.9769 81.2856 63.3239 81.6493C63.6708 82.0131 63.863 82.4973 63.86 83V88.68C63.8574 89.1911 63.6532 89.6804 63.2918 90.0418C62.9305 90.4032 62.4411 90.6074 61.93 90.61ZM57.02 87.61H60.86V84.05H57L57.02 87.61Z" fill="#38BDF8"/>
    <path d="M74.43 90.6099H68.43C67.9155 90.6099 67.422 90.4055 67.0582 90.0417C66.6944 89.6779 66.49 89.1845 66.49 88.6699V82.9999C66.49 82.4854 66.6944 81.992 67.0582 81.6282C67.422 81.2643 67.9155 81.0599 68.43 81.0599H74.43C74.9445 81.0599 75.438 81.2643 75.8018 81.6282C76.1656 81.992 76.37 82.4854 76.37 82.9999V88.6799C76.3674 89.1927 76.1618 89.6836 75.7983 90.0453C75.4347 90.4069 74.9428 90.6099 74.43 90.6099ZM69.53 87.6099H73.37V84.0499H69.53V87.6099Z" fill="#38BDF8"/>
    <path d="M87.2501 90.6099H81.2501C80.7355 90.6099 80.2421 90.4055 79.8783 90.0417C79.5145 89.6779 79.3101 89.1845 79.3101 88.6699V82.9999C79.3101 82.4854 79.5145 81.992 79.8783 81.6282C80.2421 81.2643 80.7355 81.0599 81.2501 81.0599H87.2501C87.7628 81.0626 88.2537 81.2681 88.6154 81.6317C88.977 81.9952 89.1801 82.4871 89.1801 82.9999V88.6799C89.1774 89.191 88.9733 89.6804 88.6119 90.0417C88.2505 90.4031 87.7611 90.6073 87.2501 90.6099ZM82.3401 87.6099H86.1801V84.0499H82.3401V87.6099Z" fill="#38BDF8"/>
    <path d="M61.93 77.8699H56C55.7411 77.8779 55.4832 77.834 55.2415 77.7407C54.9998 77.6474 54.7792 77.5067 54.5928 77.3268C54.4064 77.1469 54.2579 76.9315 54.1561 76.6933C54.0543 76.4551 54.0012 76.1989 54 75.9399V70.2499C53.9999 69.99 54.052 69.7327 54.1532 69.4934C54.2544 69.254 54.4027 69.0374 54.5893 68.8565C54.7758 68.6755 54.9968 68.5339 55.2392 68.44C55.4815 68.3461 55.7402 68.3019 56 68.3099H62C62.5128 68.3125 63.0037 68.5181 63.3653 68.8816C63.727 69.2452 63.93 69.7371 63.93 70.2499V75.9399C63.9288 76.1989 63.8757 76.4551 63.7739 76.6933C63.6721 76.9315 63.5236 77.1469 63.3372 77.3268C63.1508 77.5067 62.9302 77.6474 62.6885 77.7407C62.4468 77.834 62.1889 77.8779 61.93 77.8699ZM57.02 74.8699H60.86V71.3099H57L57.02 74.8699Z" fill="#38BDF8"/>
    <path d="M74.43 77.8699H68.43C67.9172 77.8699 67.4253 77.6669 67.0617 77.3053C66.6982 76.9436 66.4926 76.4527 66.49 75.9399V70.2499C66.49 69.7354 66.6944 69.242 67.0582 68.8782C67.422 68.5143 67.9155 68.3099 68.43 68.3099H74.43C74.9445 68.3099 75.438 68.5143 75.8018 68.8782C76.1656 69.242 76.37 69.7354 76.37 70.2499V75.9399C76.3674 76.4527 76.1618 76.9436 75.7983 77.3053C75.4347 77.6669 74.9428 77.8699 74.43 77.8699ZM69.53 74.8699H73.37V71.3099H69.53V74.8699Z" fill="#38BDF8"/>
    <path d="M87.2501 77.8699H81.2501C80.7373 77.8699 80.2453 77.6669 79.8818 77.3053C79.5183 76.9436 79.3127 76.4527 79.3101 75.9399V70.2499C79.3101 69.7354 79.5145 69.242 79.8783 68.8782C80.2421 68.5143 80.7355 68.3099 81.2501 68.3099H87.2501C87.7628 68.3126 88.2537 68.5181 88.6154 68.8817C88.977 69.2452 89.1801 69.7371 89.1801 70.2499V75.9399C89.1774 76.451 88.9733 76.9404 88.6119 77.3018C88.2505 77.6631 87.7611 77.8673 87.2501 77.8699ZM82.3401 74.8699H86.1801V71.3099H82.3401V74.8699Z" fill="#38BDF8"/>
    <path d="M85.1299 58.78H78.2599C77.573 58.78 76.9142 58.5071 76.4285 58.0214C75.9428 57.5357 75.6699 56.8769 75.6699 56.19V48.19C75.6699 47.5021 75.9425 46.8423 76.4279 46.355C76.9133 45.8677 77.5721 45.5926 78.2599 45.59H85.1299C85.8177 45.5926 86.4765 45.8677 86.9619 46.355C87.4474 46.8423 87.7199 47.5021 87.7199 48.19V52.81C87.7199 53.2078 87.5619 53.5893 87.2806 53.8706C86.9993 54.1519 86.6177 54.31 86.2199 54.31C85.8221 54.31 85.4406 54.1519 85.1593 53.8706C84.878 53.5893 84.7199 53.2078 84.7199 52.81V48.61H78.7199V55.78H85.1799C85.5777 55.78 85.9593 55.938 86.2406 56.2193C86.5219 56.5006 86.6799 56.8821 86.6799 57.28C86.6799 57.6778 86.5219 58.0593 86.2406 58.3406C85.9593 58.6219 85.5777 58.78 85.1799 58.78H85.1299Z" fill="#38BDF8"/>
    <path d="M86.22 64.4199H57.7C57.3021 64.4199 56.9206 64.2619 56.6393 63.9806C56.358 63.6993 56.2 63.3177 56.2 62.9199C56.2 62.5221 56.358 62.1406 56.6393 61.8593C56.9206 61.578 57.3021 61.4199 57.7 61.4199H86.22C86.6178 61.4199 86.9993 61.578 87.2806 61.8593C87.5619 62.1406 87.72 62.5221 87.72 62.9199C87.72 63.3177 87.5619 63.6993 87.2806 63.9806C86.9993 64.2619 86.6178 64.4199 86.22 64.4199Z" fill="#38BDF8"/>
    <path d="M52.38 64.4199H47C46.6022 64.4199 46.2206 64.2619 45.9393 63.9806C45.658 63.6993 45.5 63.3177 45.5 62.9199C45.5 62.5221 45.658 62.1406 45.9393 61.8593C46.2206 61.578 46.6022 61.4199 47 61.4199H52.36C52.7578 61.4199 53.1394 61.578 53.4207 61.8593C53.702 62.1406 53.86 62.5221 53.86 62.9199C53.86 63.3177 53.702 63.6993 53.4207 63.9806C53.1394 64.2619 52.7578 64.4199 52.36 64.4199H52.38Z" fill="#38BDF8"/>
    <path d="M86.22 64.4199H70.22C69.8221 64.4199 69.4406 64.2619 69.1593 63.9806C68.878 63.6993 68.72 63.3177 68.72 62.9199C68.72 62.5221 68.878 62.1406 69.1593 61.8593C69.4406 61.578 69.8221 61.4199 70.22 61.4199H86.22C86.6178 61.4199 86.9993 61.578 87.2806 61.8593C87.5619 62.1406 87.72 62.5221 87.72 62.9199C87.72 63.3177 87.5619 63.6993 87.2806 63.9806C86.9993 64.2619 86.6178 64.4199 86.22 64.4199Z" fill="#25AFE5"/>
    <path d="M97.46 77.2399C97.0621 77.2399 96.6806 77.0819 96.3993 76.8006C96.118 76.5193 95.96 76.1378 95.96 75.7399V68.5699C95.96 68.1721 96.118 67.7906 96.3993 67.5093C96.6806 67.228 97.0621 67.0699 97.46 67.0699C97.8578 67.0699 98.2393 67.228 98.5206 67.5093C98.8019 67.7906 98.96 68.1721 98.96 68.5699V75.7399C98.96 76.1378 98.8019 76.5193 98.5206 76.8006C98.2393 77.0819 97.8578 77.2399 97.46 77.2399Z" fill="#25AFE5"/>
    <path d="M84.2598 58.7799H80.8398C80.442 58.7799 80.0605 58.6219 79.7792 58.3406C79.4979 58.0593 79.3398 57.6777 79.3398 57.2799C79.3398 56.8821 79.4979 56.5006 79.7792 56.2192C80.0605 55.9379 80.442 55.7799 80.8398 55.7799H84.2598C84.6577 55.7799 85.0392 55.9379 85.3205 56.2192C85.6018 56.5006 85.7598 56.8821 85.7598 57.2799C85.7598 57.6777 85.6018 58.0593 85.3205 58.3406C85.0392 58.6219 84.6577 58.7799 84.2598 58.7799Z" fill="#25AFE5"/>
    <path d="M86.2199 54.57C85.8221 54.57 85.4405 54.412 85.1592 54.1306C84.8779 53.8493 84.7199 53.4678 84.7199 53.07V48.61H82.8899C82.4921 48.61 82.1105 48.452 81.8292 48.1706C81.5479 47.8893 81.3899 47.5078 81.3899 47.11C81.3899 46.7122 81.5479 46.3306 81.8292 46.0493C82.1105 45.768 82.4921 45.61 82.8899 45.61H85.1299C85.8177 45.6126 86.4765 45.8877 86.9619 46.375C87.4473 46.8623 87.7199 47.5222 87.7199 48.21V53.07C87.7199 53.4678 87.5619 53.8493 87.2806 54.1306C86.9993 54.412 86.6177 54.57 86.2199 54.57Z" fill="#25AFE5"/>
    <path d="M66.7498 55.43C66.352 55.43 65.9705 55.272 65.6892 54.9906C65.4079 54.7093 65.2498 54.3278 65.2498 53.93V48.61H61.0698C60.672 48.61 60.2905 48.452 60.0092 48.1706C59.7279 47.8893 59.5698 47.5078 59.5698 47.11C59.5698 46.7122 59.7279 46.3306 60.0092 46.0493C60.2905 45.768 60.672 45.61 61.0698 45.61H65.6498C66.3386 45.6126 66.9984 45.8874 67.4854 46.3744C67.9724 46.8614 68.2472 47.5212 68.2498 48.21V53.93C68.2498 54.3278 68.0918 54.7093 67.8105 54.9906C67.5292 55.272 67.1476 55.43 66.7498 55.43Z" fill="#BAE6FD"/>
    <path d="M95.8999 70.07C93.4811 70.07 91.1165 69.3527 89.1053 68.0089C87.0941 66.665 85.5265 64.7549 84.6009 62.5202C83.6752 60.2855 83.433 57.8264 83.9049 55.454C84.3768 53.0816 85.5416 50.9025 87.252 49.1921C88.9624 47.4817 91.1416 46.3169 93.514 45.845C95.8864 45.3731 98.3454 45.6153 100.58 46.5409C102.815 47.4666 104.725 49.0342 106.069 51.0454C107.413 53.0566 108.13 55.4211 108.13 57.84C108.125 61.082 106.834 64.1896 104.542 66.4821C102.25 68.7745 99.1419 70.0647 95.8999 70.07ZM95.8999 48.61C94.0744 48.61 92.2899 49.1513 90.772 50.1655C89.2541 51.1797 88.0711 52.6213 87.3725 54.3078C86.6739 55.9944 86.4911 57.8502 86.8473 59.6407C87.2034 61.4311 88.0825 63.0757 89.3733 64.3666C90.6642 65.6574 92.3088 66.5365 94.0992 66.8926C95.8897 67.2488 97.7455 67.066 99.4321 66.3674C101.119 65.6688 102.56 64.4858 103.574 62.9679C104.589 61.45 105.13 59.6655 105.13 57.84C105.127 55.3929 104.154 53.0467 102.424 51.3163C100.693 49.5859 98.3471 48.6126 95.8999 48.61Z" fill="#38BDF8"/>
    <path d="M105.79 63.5199C105.542 63.5192 105.298 63.4574 105.079 63.3399C104.86 63.2223 104.674 63.0528 104.537 62.8461C104.399 62.6395 104.315 62.4022 104.291 62.1551C104.267 61.9081 104.305 61.659 104.4 61.4299C105.101 59.7608 105.295 57.9221 104.957 56.1436C104.619 54.365 103.764 52.7255 102.5 51.4299C102.221 51.1448 102.068 50.7607 102.072 50.3622C102.077 49.9637 102.24 49.5834 102.525 49.3049C102.81 49.0264 103.194 48.8726 103.593 48.8773C103.991 48.882 104.371 49.0448 104.65 49.3299C106.331 51.0554 107.467 53.2381 107.915 55.6052C108.363 57.9724 108.104 60.4192 107.17 62.6399C107.049 62.9037 106.854 63.127 106.61 63.2831C106.365 63.4392 106.08 63.5214 105.79 63.5199Z" fill="#BAE6FD"/>
    <path d="M92.67 49.11C92.3121 49.1093 91.9663 48.9807 91.6949 48.7474C91.4236 48.5141 91.2446 48.1914 91.1902 47.8377C91.1359 47.484 91.2098 47.1225 91.3987 46.8185C91.5875 46.5145 91.8788 46.288 92.22 46.18C94.616 45.4301 97.184 45.4301 99.58 46.18C99.7942 46.2135 99.9985 46.2931 100.179 46.4132C100.359 46.5333 100.512 46.6912 100.625 46.8758C100.739 47.0604 100.811 47.2675 100.837 47.4827C100.863 47.698 100.842 47.9163 100.775 48.1226C100.709 48.3289 100.598 48.5183 100.452 48.6779C100.305 48.8374 100.125 48.9631 99.9249 49.0465C99.7248 49.1299 99.509 49.1689 99.2924 49.1609C99.0757 49.1529 98.8634 49.098 98.67 49C96.8639 48.43 94.9261 48.43 93.12 49C92.9757 49.0572 92.8243 49.0942 92.67 49.11Z" fill="#BAE6FD"/>
    <path d="M95.8998 60C95.043 60 94.2054 59.7458 93.4932 59.2695C92.7809 58.7933 92.2259 58.1165 91.8985 57.3247C91.571 56.5329 91.4859 55.6618 91.6538 54.8215C91.8216 53.9813 92.235 53.2098 92.8416 52.6047C93.4482 51.9995 94.2206 51.5879 95.0612 51.422C95.9018 51.256 96.7727 51.3432 97.5638 51.6724C98.3548 52.0017 99.0304 52.5583 99.5049 53.2716C99.9795 53.985 100.232 54.8232 100.23 55.68C100.227 56.8266 99.7698 57.9254 98.9581 58.7353C98.1463 59.5451 97.0465 60 95.8998 60ZM95.8998 53.55C95.4786 53.5441 95.0651 53.6632 94.7116 53.8923C94.3581 54.1214 94.0805 54.4502 93.9138 54.8371C93.7471 55.224 93.699 55.6516 93.7753 56.0659C93.8517 56.4802 94.0492 56.8625 94.3428 57.1645C94.6365 57.4666 95.0131 57.6748 95.4251 57.7628C95.837 57.8508 96.2658 57.8146 96.6573 57.6589C97.0487 57.5033 97.3852 57.235 97.6241 56.8881C97.8631 56.5412 97.9938 56.1312 97.9998 55.71C97.9999 55.1502 97.7796 54.6129 97.3866 54.2143C96.9936 53.8157 96.4595 53.5879 95.8998 53.58V53.55Z" fill="#FC3131"/>
    <path d="M100.75 62.9C100.561 62.8989 100.376 62.8496 100.211 62.7569C100.047 62.6641 99.9086 62.531 99.8099 62.37C99.4299 61.6637 98.8657 61.0736 98.1773 60.6622C97.4889 60.2509 96.7019 60.0337 95.8999 60.0337C95.0979 60.0337 94.3109 60.2509 93.6225 60.6622C92.934 61.0736 92.3699 61.6637 91.9899 62.37C91.8336 62.6083 91.5909 62.7767 91.3129 62.8397C91.0349 62.9026 90.7433 62.8552 90.4996 62.7074C90.2559 62.5596 90.0791 62.323 90.0064 62.0474C89.9337 61.7718 89.9708 61.4787 90.1099 61.23C90.685 60.1991 91.5248 59.3405 92.5427 58.7428C93.5605 58.1451 94.7195 57.83 95.8999 57.83C97.0803 57.83 98.2393 58.1451 99.2571 58.7428C100.275 59.3405 101.115 60.1991 101.69 61.23C101.766 61.3531 101.817 61.4901 101.839 61.633C101.862 61.776 101.856 61.922 101.821 62.0625C101.787 62.2031 101.725 62.3354 101.639 62.4517C101.553 62.568 101.444 62.666 101.32 62.74C101.149 62.8459 100.951 62.9013 100.75 62.9Z" fill="#FC3131"/>
    <path d="M58.9999 75.7899C58.8424 75.7897 58.6868 75.7556 58.5436 75.6901C58.4004 75.6245 58.2729 75.529 58.1699 75.4099L55.8999 72.7599C55.8042 72.6514 55.7311 72.525 55.6848 72.388C55.6385 72.251 55.6199 72.1061 55.6302 71.9619C55.6404 71.8176 55.6793 71.6768 55.7444 71.5477C55.8096 71.4186 55.8999 71.3038 56.0099 71.2099C56.233 71.0199 56.5223 70.9258 56.8146 70.9483C57.1069 70.9708 57.3784 71.108 57.5699 71.3299L58.9999 72.9999L63.7499 66.8899C63.8385 66.7756 63.9488 66.68 64.0744 66.6083C64.2 66.5367 64.3385 66.4905 64.482 66.4724C64.6254 66.4543 64.7711 66.4646 64.9105 66.5028C65.05 66.541 65.1806 66.6063 65.2949 66.6949C65.4091 66.7835 65.5048 66.8938 65.5764 67.0194C65.6481 67.145 65.6942 67.2835 65.7123 67.427C65.7305 67.5705 65.7201 67.7161 65.6819 67.8556C65.6438 67.9951 65.5785 68.1256 65.4899 68.2399L59.9099 75.4199C59.8095 75.5476 59.6822 75.6514 59.5369 75.724C59.3917 75.7967 59.2322 75.8362 59.0699 75.8399L58.9999 75.7899Z" fill="#FC3131"/>
    <path d="M23.2 61.74L21.65 58.84L18.78 57.23L21.68 55.68L23.3 52.83L24.84 55.73L27.7 57.33L24.8 58.87L23.2 61.74ZM21.72 57.26L22.72 57.81L23.25 58.81L23.8 57.81L24.8 57.28L23.8 56.73L23.27 55.73L22.72 56.73L21.72 57.26Z" fill="#E0F2FE"/>
    <path d="M105.05 87L103.51 84.1L100.64 82.49L103.54 80.94L105.15 78.09L106.7 81L109.56 82.61L106.66 84.15L105.05 87ZM103.58 82.52L104.58 83.07L105.11 84.07L105.66 83.07L106.66 82.54L105.66 81.99L105.13 80.99L104.58 81.99L103.58 82.52Z" fill="#E0F2FE"/>
    <path d="M62 41.3099L60.41 38.3099L57.47 36.6499L60.47 35.0699L62.13 32.0699L63.71 35.0699L66.71 36.7299L63.71 38.3199L62 41.3099ZM61 36.7099L61.69 37.0999L62.06 37.7899L62.45 37.1099L63.14 36.7399L62.46 36.3499L62.09 35.6599L61.7 36.3399L61 36.7099Z" fill="#BAE6FD"/>
</svg>
