<svg width="128" height="128" viewBox="0 0 128 128" fill="none" xmlns="http://www.w3.org/2000/svg">
    <path d="M63.4399 97.8099V84.8099H33.7099L38.1799 81.3599L44.8199 76.2299C48.3923 73.5475 51.8111 70.6663 55.0599 67.5999C57.3451 65.3387 59.2226 62.7 60.6099 59.7999C62.0811 56.6746 62.8166 53.2537 62.7599 49.7999C62.7599 43.3666 60.6133 38.2166 56.3199 34.3499C52.0266 30.4833 46.3599 28.5499 39.3199 28.5499C33.5266 28.5499 28.7299 29.6866 24.9299 31.9599C20.549 34.7818 16.7726 38.4461 13.8199 42.7399L24.3499 51.2199C26.3614 48.5416 28.7416 46.1614 31.4199 44.1499C33.4384 42.7577 35.8381 42.0242 38.2899 42.0499C40.7196 41.9419 43.0964 42.7808 44.9199 44.3899C45.7839 45.2343 46.4568 46.254 46.8932 47.3805C47.3297 48.5069 47.5195 49.7139 47.4499 50.9199C47.4623 53.6192 46.5718 56.2451 44.9199 58.3799C42.1585 61.6734 39.0543 64.6636 35.6599 67.2999L18.4599 81.3999L12.9399 85.9199V97.8099H63.4399Z" fill="#BAE6FD"/>
    <path d="M56.96 96.95H64.89L62.29 84.85H56.96V96.95Z" fill="#25AFE5"/>
    <path d="M62.76 49.85C62.7961 46.99 62.287 44.1494 61.26 41.48H59C58.4696 41.48 57.9609 41.6907 57.5858 42.0658C57.2107 42.4408 57 42.9495 57 43.48V65.3H57.19C58.5497 63.6192 59.7107 61.7871 60.65 59.84C62.1059 56.7144 62.8276 53.2973 62.76 49.85Z" fill="#25AFE5"/>
    <path d="M83.7899 99.87H31.4099C31.0121 99.87 30.6306 99.712 30.3493 99.4306C30.0679 99.1493 29.9099 98.7678 29.9099 98.37C29.9099 97.9722 30.0679 97.5906 30.3493 97.3093C30.6306 97.028 31.0121 96.87 31.4099 96.87H83.7899C84.1877 96.87 84.5693 97.028 84.8506 97.3093C85.1319 97.5906 85.2899 97.9722 85.2899 98.37C85.2899 98.7678 85.1319 99.1493 84.8506 99.4306C84.5693 99.712 84.1877 99.87 83.7899 99.87Z" fill="#3A83C1"/>
    <path d="M31.4099 99.87H23.1499C22.7521 99.87 22.3705 99.712 22.0892 99.4306C21.8079 99.1493 21.6499 98.7678 21.6499 98.37C21.6499 97.9722 21.8079 97.5906 22.0892 97.3093C22.3705 97.028 22.7521 96.87 23.1499 96.87H31.4099C31.8077 96.87 32.1893 97.028 32.4706 97.3093C32.7519 97.5906 32.9099 97.9722 32.9099 98.37C32.9099 98.7678 32.7519 99.1493 32.4706 99.4306C32.1893 99.712 31.8077 99.87 31.4099 99.87Z" fill="#3A83C1"/>
    <path d="M23.15 99.87H12C11.6022 99.87 11.2206 99.712 10.9393 99.4306C10.658 99.1493 10.5 98.7678 10.5 98.37C10.5 97.9722 10.658 97.5906 10.9393 97.3093C11.2206 97.028 11.6022 96.87 12 96.87H23.15C23.5478 96.87 23.9294 97.028 24.2107 97.3093C24.492 97.5906 24.65 97.9722 24.65 98.37C24.65 98.7678 24.492 99.1493 24.2107 99.4306C23.9294 99.712 23.5478 99.87 23.15 99.87Z" fill="#3A83C1"/>
    <path d="M23.1001 67L21.5201 64L18.6001 62.36L21.6001 60.78L23.2401 57.87L24.8201 60.87L27.7401 62.51L24.7401 64.09L23.1001 67ZM21.5901 62.43L22.5901 62.99L23.1301 63.99L23.6901 62.99L24.6901 62.45L23.6901 61.89L23.1501 60.89L22.5901 61.89L21.5901 62.43Z" fill="#E0F2FE"/>
    <path d="M104.15 41.6299L102.58 38.6299L99.6499 36.9999L102.65 35.4199L104.3 32.5099L105.88 35.5099L108.79 37.1399L105.79 38.7199L104.15 41.6299ZM102.65 37.0599L103.65 37.6199L104.19 38.6199L104.75 37.6199L105.75 37.0799L104.75 36.5199L104.21 35.5199L103.65 36.5199L102.65 37.0599Z" fill="#E0F2FE"/>
    <path d="M74.7799 35.9999L73.1599 32.9999L70.1599 31.3099L73.1599 29.6899L74.8499 26.6899L76.4699 29.6899L79.4699 31.3799L76.4599 32.9999L74.7799 35.9999ZM73.7799 31.2999L74.4799 31.6999L74.8599 32.4099L75.2499 31.7099L75.9599 31.3299L75.2599 30.9299L74.8799 30.2299L74.4899 30.9299L73.7799 31.2999Z" fill="#BAE6FD"/>
    <path d="M82.1001 97.89H67.8201C65.9581 97.8741 64.1777 97.1233 62.8666 95.801C61.5556 94.4787 60.82 92.692 60.8201 90.83V80.83H63.8201V90.83C63.8174 91.8972 64.236 92.9224 64.985 93.6826C65.7341 94.4429 66.7529 94.8768 67.8201 94.89H82.1001V97.89Z" fill="#38BDF8"/>
    <path d="M100 86.2399C99.6022 86.2399 99.2206 86.0819 98.9393 85.8006C98.658 85.5193 98.5 85.1377 98.5 84.7399V79.1499C98.5 78.7521 98.658 78.3705 98.9393 78.0892C99.2206 77.8079 99.6022 77.6499 100 77.6499C100.398 77.6499 100.779 77.8079 101.061 78.0892C101.342 78.3705 101.5 78.7521 101.5 79.1499V84.7399C101.5 85.1377 101.342 85.5193 101.061 85.8006C100.779 86.0819 100.398 86.2399 100 86.2399Z" fill="#38BDF8"/>
    <path d="M101.49 60.2199H98.4901V44.9999C98.4909 44.8695 98.4406 44.7439 98.3501 44.6499C98.2547 44.5542 98.1252 44.5003 97.9901 44.4999H93.6501H65.0801V41.4999H97.9801C98.9059 41.4951 99.7965 41.8543 100.46 42.4999C100.783 42.8263 101.038 43.2136 101.209 43.6394C101.381 44.0652 101.466 44.5209 101.46 44.9799L101.49 60.2199Z" fill="#38BDF8"/>
    <path d="M83.5501 97.9H67.8201L67.5901 94.9C68.6317 94.7347 69.5828 94.2104 70.2786 93.4178C70.9744 92.6252 71.3711 91.6143 71.4001 90.56V89.43C71.3974 87.7927 72.0446 86.2212 73.1996 85.0607C74.3545 83.9001 75.9228 83.2453 77.5601 83.24H107.77V86.24H77.5601C77.143 86.2413 76.7302 86.3249 76.3454 86.4861C75.9607 86.6472 75.6115 86.8827 75.3179 87.1791C75.0244 87.4754 74.7922 87.8268 74.6347 88.2131C74.4772 88.5993 74.3975 89.0129 74.4001 89.43V90.57C74.3814 92.1312 73.8627 93.6453 72.9201 94.89H83.5501V97.9Z" fill="#38BDF8"/>
    <path d="M87.8101 102.86C87.3759 102.859 86.9528 102.723 86.6001 102.47L82.9201 99.84C82.6512 99.6477 82.432 99.3941 82.2807 99.1002C82.1294 98.8063 82.0504 98.4805 82.0501 98.15V90.59C82.0569 89.5361 81.6835 88.515 80.9984 87.7142C80.3133 86.9133 79.3623 86.3864 78.3201 86.23L78.4801 83.23H109.26C109.76 83.23 110.83 83.23 110.97 83.23H111.14C112.9 83.4591 114.516 84.3235 115.684 85.6605C116.851 86.9975 117.49 88.715 117.48 90.49V98.07C117.481 98.3745 117.415 98.6754 117.287 98.9518C117.159 99.2282 116.973 99.4733 116.74 99.67L113.74 102.25C113.404 102.533 112.987 102.702 112.549 102.734C112.111 102.767 111.674 102.66 111.3 102.43L108.09 100.43L105.34 102.37C104.985 102.632 104.556 102.774 104.115 102.774C103.674 102.774 103.245 102.632 102.89 102.37L100 100.25L97.1801 102.41C96.8227 102.67 96.3921 102.81 95.9501 102.81C95.5081 102.81 95.0774 102.67 94.7201 102.41L92.0001 100.53L89.0001 102.53C88.6457 102.757 88.2309 102.872 87.8101 102.86ZM85.0501 97.67L87.8301 99.67L90.8301 97.67C91.1698 97.4265 91.5772 97.2956 91.9951 97.2956C92.413 97.2956 92.8204 97.4265 93.1601 97.67L95.8701 99.57L98.7101 97.39C99.0729 97.1158 99.5153 96.9675 99.9701 96.9675C100.425 96.9675 100.867 97.1158 101.23 97.39L104.1 99.57L106.79 97.66C107.125 97.4236 107.522 97.2917 107.931 97.281C108.34 97.2703 108.744 97.3813 109.09 97.6L112.25 99.6L114.46 97.73V90.59C114.469 89.5259 114.081 88.4965 113.374 87.7019C112.666 86.9073 111.688 86.404 110.63 86.29C110.4 86.29 109.63 86.23 109.42 86.24H83.6601C84.5619 87.5114 85.0475 89.0311 85.0501 90.59V97.67Z" fill="#38BDF8"/>
    <path d="M116 96.07C115.602 96.07 115.221 95.9119 114.939 95.6306C114.658 95.3493 114.5 94.9678 114.5 94.57V90.57C114.509 89.5059 114.121 88.4765 113.414 87.6819C112.706 86.8873 111.728 86.384 110.67 86.27C110.45 86.27 109.67 86.21 109.45 86.22H94.45C94.0521 86.22 93.6706 86.0619 93.3893 85.7806C93.108 85.4993 92.95 85.1178 92.95 84.72C92.95 84.3221 93.108 83.9406 93.3893 83.6593C93.6706 83.378 94.0521 83.22 94.45 83.22H109.27C109.76 83.22 110.84 83.22 110.98 83.22C112.764 83.4244 114.411 84.2805 115.603 85.624C116.795 86.9675 117.449 88.7038 117.44 90.5V94.5C117.449 94.6978 117.419 94.8955 117.352 95.0818C117.285 95.268 117.181 95.439 117.047 95.585C116.913 95.731 116.752 95.849 116.572 95.9322C116.392 96.0154 116.198 96.0623 116 96.07Z" fill="#BAE6FD"/>
    <path d="M70.22 55.54C70.0376 55.5384 69.8586 55.4902 69.7 55.4L67.15 54C66.9995 53.9495 66.8616 53.8671 66.7459 53.7583C66.6302 53.6495 66.5394 53.517 66.4798 53.3698C66.4202 53.2226 66.3932 53.0643 66.4006 52.9056C66.408 52.747 66.4497 52.5919 66.5227 52.4509C66.5958 52.3099 66.6985 52.1864 66.8238 52.0889C66.9491 51.9913 67.0941 51.9221 67.2487 51.8859C67.4033 51.8497 67.5639 51.8474 67.7195 51.8792C67.8751 51.911 68.022 51.9761 68.15 52.07L70 53L74 48.13C74.187 47.9059 74.4553 47.7652 74.746 47.739C75.0367 47.7127 75.3259 47.803 75.55 47.99C75.7741 48.177 75.9148 48.4453 75.941 48.736C75.9673 49.0267 75.877 49.3159 75.69 49.54L71.09 55.1C70.9881 55.2347 70.8567 55.3444 70.7059 55.4206C70.5552 55.4969 70.389 55.5377 70.22 55.54Z" fill="#25AFE5"/>
    <path d="M91.9999 54.7099H76.9999C76.7082 54.7099 76.4284 54.594 76.2221 54.3877C76.0158 54.1814 75.8999 53.9016 75.8999 53.6099C75.8999 53.3182 76.0158 53.0384 76.2221 52.8321C76.4284 52.6258 76.7082 52.5099 76.9999 52.5099H91.9999C92.2916 52.5099 92.5714 52.6258 92.7777 52.8321C92.984 53.0384 93.0999 53.3182 93.0999 53.6099C93.0999 53.9016 92.984 54.1814 92.7777 54.3877C92.5714 54.594 92.2916 54.7099 91.9999 54.7099Z" fill="#38BDF8"/>
    <path d="M87.8501 60.2H67.9201C67.6283 60.2 67.3485 60.0841 67.1423 59.8778C66.936 59.6715 66.8201 59.3917 66.8201 59.1C66.8201 58.8083 66.936 58.5285 67.1423 58.3222C67.3485 58.1159 67.6283 58 67.9201 58H87.8501C88.1418 58 88.4216 58.1159 88.6279 58.3222C88.8342 58.5285 88.9501 58.8083 88.9501 59.1C88.9501 59.3917 88.8342 59.6715 88.6279 59.8778C88.4216 60.0841 88.1418 60.2 87.8501 60.2Z" fill="#BAE6FD"/>
    <path d="M78.4801 65.4799H67.9201C67.6283 65.4799 67.3485 65.364 67.1423 65.1577C66.936 64.9514 66.8201 64.6716 66.8201 64.3799C66.8201 64.0882 66.936 63.8084 67.1423 63.6021C67.3485 63.3958 67.6283 63.2799 67.9201 63.2799H78.4801C78.7718 63.2799 79.0516 63.3958 79.2579 63.6021C79.4642 63.8084 79.5801 64.0882 79.5801 64.3799C79.5801 64.6716 79.4642 64.9514 79.2579 65.1577C79.0516 65.364 78.7718 65.4799 78.4801 65.4799Z" fill="#BAE6FD"/>
    <path d="M85.91 71.4H77.59C77.2983 71.4 77.0185 71.2841 76.8122 71.0778C76.6059 70.8715 76.49 70.5917 76.49 70.3C76.49 70.0082 76.6059 69.7284 76.8122 69.5221C77.0185 69.3159 77.2983 69.2 77.59 69.2H85.91C86.2017 69.2 86.4815 69.3159 86.6878 69.5221C86.8941 69.7284 87.01 70.0082 87.01 70.3C87.01 70.5917 86.8941 70.8715 86.6878 71.0778C86.4815 71.2841 86.2017 71.4 85.91 71.4Z" fill="#E2E8F0"/>
    <path d="M85.91 65.4799H82.1C81.8083 65.4799 81.5285 65.364 81.3222 65.1577C81.1159 64.9514 81 64.6716 81 64.3799C81 64.0882 81.1159 63.8084 81.3222 63.6021C81.5285 63.3958 81.8083 63.2799 82.1 63.2799H85.91C86.2017 63.2799 86.4815 63.3958 86.6878 63.6021C86.8941 63.8084 87.01 64.0882 87.01 64.3799C87.01 64.6716 86.8941 64.9514 86.6878 65.1577C86.4815 65.364 86.2017 65.4799 85.91 65.4799Z" fill="#BAE6FD"/>
    <path d="M100.23 90.7599H88.65C88.3583 90.7599 88.0785 90.644 87.8722 90.4378C87.6659 90.2315 87.55 89.9517 87.55 89.6599C87.55 89.3682 87.6659 89.0884 87.8722 88.8821C88.0785 88.6758 88.3583 88.5599 88.65 88.5599H100.23C100.522 88.5599 100.802 88.6758 101.008 88.8821C101.214 89.0884 101.33 89.3682 101.33 89.6599C101.33 89.9517 101.214 90.2315 101.008 90.4378C100.802 90.644 100.522 90.7599 100.23 90.7599Z" fill="#BAE6FD"/>
    <path d="M94.3101 94.7699H88.6501C88.4975 94.7845 88.3435 94.7671 88.1981 94.7187C88.0526 94.6703 87.9189 94.5921 87.8055 94.489C87.692 94.3859 87.6014 94.2602 87.5394 94.12C87.4774 93.9798 87.4453 93.8282 87.4453 93.675C87.4453 93.5217 87.4774 93.3701 87.5394 93.2299C87.6014 93.0897 87.692 92.964 87.8055 92.8609C87.9189 92.7578 88.0526 92.6796 88.1981 92.6312C88.3435 92.5828 88.4975 92.5654 88.6501 92.58H94.3101C94.4627 92.5654 94.6166 92.5828 94.7621 92.6312C94.9075 92.6796 95.0413 92.7578 95.1547 92.8609C95.2681 92.964 95.3588 93.0897 95.4208 93.2299C95.4828 93.3701 95.5148 93.5217 95.5148 93.675C95.5148 93.8282 95.4828 93.9798 95.4208 94.12C95.3588 94.2602 95.2681 94.3859 95.1547 94.489C95.0413 94.5921 94.9075 94.6703 94.7621 94.7187C94.6166 94.7671 94.4627 94.7845 94.3101 94.7699Z" fill="#E2E8F0"/>
    <path d="M63.79 84.85H60.79V45C60.79 44.0717 61.1588 43.1815 61.8152 42.5251C62.4715 41.8688 63.3618 41.5 64.29 41.5H85.45V44.5H64.29C64.1574 44.5 64.0303 44.5527 63.9365 44.6464C63.8427 44.7402 63.79 44.8674 63.79 45V84.85Z" fill="#38BDF8"/>
    <path d="M112.6 80.2699H92.65C91.9453 80.2647 91.2713 79.981 90.7749 79.4809C90.2785 78.9807 90 78.3046 90 77.5999V61.1099C90.0026 60.4026 90.2848 59.725 90.7849 59.2249C91.2851 58.7247 91.9627 58.4426 92.67 58.4399H112.6C113.309 58.4399 113.989 58.7209 114.492 59.2214C114.994 59.7218 115.277 60.4009 115.28 61.1099V77.5999C115.28 77.9514 115.211 78.2994 115.076 78.624C114.941 78.9486 114.743 79.2434 114.494 79.4915C114.245 79.7395 113.95 79.936 113.625 80.0696C113.3 80.2032 112.951 80.2713 112.6 80.2699ZM93 77.2699H112.3V61.4399H93V77.2699Z" fill="#38BDF8"/>
    <path d="M102.41 80.2699H92.65C91.9453 80.2646 91.2713 79.981 90.7749 79.4809C90.2785 78.9807 90 78.3046 90 77.5999V72.2999C90 71.9021 90.158 71.5206 90.4393 71.2393C90.7206 70.958 91.1022 70.7999 91.5 70.7999C91.8978 70.7999 92.2794 70.958 92.5607 71.2393C92.842 71.5206 93 71.9021 93 72.2999V77.2999H102.43C102.828 77.2999 103.209 77.458 103.491 77.7393C103.772 78.0206 103.93 78.4021 103.93 78.7999C103.93 79.1978 103.772 79.5793 103.491 79.8606C103.209 80.1419 102.828 80.2999 102.43 80.2999L102.41 80.2699Z" fill="#25AFE5"/>
    <path d="M113.78 67.7999H91.48C91.0822 67.7999 90.7006 67.6419 90.4193 67.3606C90.138 67.0793 89.98 66.6978 89.98 66.2999C89.98 65.9021 90.138 65.5206 90.4193 65.2393C90.7006 64.958 91.0822 64.7999 91.48 64.7999H113.78C114.178 64.7999 114.559 64.958 114.841 65.2393C115.122 65.5206 115.28 65.9021 115.28 66.2999C115.28 66.6978 115.122 67.0793 114.841 67.3606C114.559 67.6419 114.178 67.7999 113.78 67.7999Z" fill="#38BDF8"/>
    <path d="M109.48 63.36C109.082 63.36 108.701 63.2019 108.419 62.9206C108.138 62.6393 107.98 62.2578 107.98 61.86V57.1C107.98 56.7022 108.138 56.3206 108.419 56.0393C108.701 55.758 109.082 55.6 109.48 55.6C109.878 55.6 110.259 55.758 110.541 56.0393C110.822 56.3206 110.98 56.7022 110.98 57.1V61.86C110.98 62.2578 110.822 62.6393 110.541 62.9206C110.259 63.2019 109.878 63.36 109.48 63.36Z" fill="#BAE6FD"/>
    <path d="M95.79 63.3899C95.3922 63.3899 95.0107 63.2319 94.7294 62.9506C94.4481 62.6692 94.29 62.2877 94.29 61.8899V57.1399C94.29 56.7421 94.4481 56.3605 94.7294 56.0792C95.0107 55.7979 95.3922 55.6399 95.79 55.6399C96.1879 55.6399 96.5694 55.7979 96.8507 56.0792C97.132 56.3605 97.29 56.7421 97.29 57.1399V61.8899C97.29 62.2877 97.132 62.6692 96.8507 62.9506C96.5694 63.2319 96.1879 63.3899 95.79 63.3899Z" fill="#38BDF8"/>
    <path d="M74.6399 74.72H73.6399C73.8565 74.4312 73.9756 74.081 73.9799 73.72C73.9936 73.4053 73.9329 73.0919 73.8025 72.8051C73.6722 72.5184 73.476 72.2665 73.2299 72.07C72.6494 71.6513 71.945 71.4399 71.2299 71.47C70.5491 71.4419 69.879 71.6465 69.3299 72.05C69.0824 72.237 68.8776 72.4747 68.7293 72.7471C68.581 73.0196 68.4926 73.3206 68.4699 73.63V73.87H69.9199V73.68C69.9409 73.5562 69.9873 73.4381 70.0561 73.3331C70.1249 73.2282 70.2148 73.1386 70.3199 73.07C70.5881 72.8984 70.9016 72.8113 71.2199 72.82C71.5564 72.7996 71.8894 72.8987 72.1599 73.1C72.2631 73.1807 72.3464 73.2839 72.4036 73.4018C72.4608 73.5196 72.4903 73.649 72.4899 73.78C72.4896 73.9433 72.4526 74.1045 72.3817 74.2516C72.3107 74.3988 72.2076 74.5281 72.0799 74.63H67.8899V75.89H74.6399V74.72Z" fill="#FC3131"/>
    <path d="M72.6999 79.0999C72.6748 79.2417 72.6211 79.3769 72.542 79.4973C72.4629 79.6176 72.3601 79.7206 72.2399 79.7999C71.9366 79.9753 71.5901 80.0619 71.2399 80.0499C70.8623 80.0644 70.4902 79.9556 70.1799 79.7399C70.0653 79.6635 69.9721 79.5591 69.9091 79.4366C69.8462 79.3141 69.8154 79.1776 69.8199 79.0399C69.8171 78.9163 69.8409 78.7935 69.8899 78.6799C69.9386 78.5661 70.0062 78.4613 70.0899 78.3699C70.1775 78.2911 70.275 78.2238 70.3799 78.1699H74.6299V76.9199H67.8899V78.1099H68.7199C68.639 78.1922 68.5715 78.2867 68.5199 78.3899C68.388 78.6391 68.3226 78.9181 68.3299 79.1999C68.3252 79.5172 68.3984 79.8309 68.5431 80.1133C68.6878 80.3958 68.8996 80.6384 69.1599 80.8199C69.7453 81.2295 70.4455 81.4431 71.1599 81.4299H71.2199C71.9324 81.4517 72.6333 81.245 73.2199 80.8399C73.4824 80.6482 73.7011 80.4028 73.8615 80.1201C74.0218 79.8373 74.1202 79.5236 74.1499 79.1999V78.9599H72.7499L72.6999 79.0999Z" fill="#FC3131"/>
    <path d="M98.3001 70.3899H95.2401C95.0302 70.3899 94.8601 70.56 94.8601 70.7699V73.8299C94.8601 74.0398 95.0302 74.2099 95.2401 74.2099H98.3001C98.51 74.2099 98.6801 74.0398 98.6801 73.8299V70.7699C98.6801 70.56 98.51 70.3899 98.3001 70.3899Z" fill="#E0F2FE"/>
    <path d="M104.28 70.3899H101.22C101.01 70.3899 100.84 70.56 100.84 70.7699V73.8299C100.84 74.0398 101.01 74.2099 101.22 74.2099H104.28C104.49 74.2099 104.66 74.0398 104.66 73.8299V70.7699C104.66 70.56 104.49 70.3899 104.28 70.3899Z" fill="#FC3131"/>
    <path d="M110.01 70.3899H106.95C106.74 70.3899 106.57 70.56 106.57 70.7699V73.8299C106.57 74.0398 106.74 74.2099 106.95 74.2099H110.01C110.22 74.2099 110.39 74.0398 110.39 73.8299V70.7699C110.39 70.56 110.22 70.3899 110.01 70.3899Z" fill="#E0F2FE"/>
    <path d="M100 56.5C99.6023 56.5 99.2207 56.342 98.9394 56.0607C98.6581 55.7794 98.5001 55.3978 98.5001 55V45C98.5001 44.8674 98.4474 44.7402 98.3537 44.6464C98.2599 44.5527 98.1327 44.5 98.0001 44.5H87.8501C87.4523 44.5 87.0707 44.342 86.7894 44.0607C86.5081 43.7794 86.3501 43.3978 86.3501 43C86.3501 42.6022 86.5081 42.2206 86.7894 41.9393C87.0707 41.658 87.4523 41.5 87.8501 41.5H98.0001C98.9284 41.5 99.8186 41.8688 100.475 42.5251C101.131 43.1815 101.5 44.0717 101.5 45V55C101.5 55.3978 101.342 55.7794 101.061 56.0607C100.779 56.342 100.398 56.5 100 56.5Z" fill="#BAE6FD"/>
    <path d="M113.78 65.8799C113.382 65.8799 113.001 65.7219 112.719 65.4406C112.438 65.1593 112.28 64.7778 112.28 64.3799V61.4399H105.77C105.372 61.4399 104.991 61.2819 104.709 61.0006C104.428 60.7193 104.27 60.3378 104.27 59.9399C104.27 59.5421 104.428 59.1606 104.709 58.8793C104.991 58.598 105.372 58.4399 105.77 58.4399H112.6C113.309 58.4399 113.989 58.7209 114.492 59.2214C114.994 59.7218 115.277 60.4009 115.28 61.1099V64.3799C115.28 64.7778 115.122 65.1593 114.841 65.4406C114.559 65.7219 114.178 65.8799 113.78 65.8799Z" fill="#BAE6FD"/>
</svg>
