<svg width="128" height="128" viewBox="0 0 128 128" fill="none" xmlns="http://www.w3.org/2000/svg">
    <path d="M51.93 100.62H27.2C26.8021 100.62 26.4206 100.462 26.1393 100.181C25.858 99.8993 25.7 99.5178 25.7 99.12C25.7 98.7222 25.858 98.3406 26.1393 98.0593C26.4206 97.778 26.8021 97.62 27.2 97.62H51.93C52.3278 97.62 52.7093 97.778 52.9906 98.0593C53.2719 98.3406 53.43 98.7222 53.43 99.12C53.43 99.5178 53.2719 99.8993 52.9906 100.181C52.7093 100.462 52.3278 100.62 51.93 100.62Z" fill="#3A83C1"/>
    <path d="M40.0001 98.36C29.0734 98.36 20.3501 94.4933 13.8301 86.76L24.0001 77.08C28.8001 82.4133 34.2001 85.08 40.2001 85.08C42.6845 85.1905 45.1237 84.3904 47.0601 82.83C47.9297 82.0792 48.6181 81.1413 49.0736 80.0866C49.5291 79.0319 49.7398 77.8878 49.6901 76.74C49.7346 75.4726 49.438 74.2165 48.8311 73.103C48.2242 71.9895 47.3293 71.0594 46.2401 70.41C43.9401 68.9433 40.7134 68.21 36.5601 68.21H30.4201L28.1201 58.82L44.1201 42.71H17.7701V30.11H63.1101V41.23L46.1101 57.43C49.5884 57.931 52.9426 59.0773 56.0001 60.81C57.0001 61.43 55.9201 71.23 56.7601 72C59.3901 74.39 63.7601 72.14 63.7601 72.14C64.0101 73.5495 64.1339 74.9785 64.1301 76.41C64.2337 79.3587 63.7045 82.2954 62.5782 85.0225C61.4518 87.7496 59.7543 90.2038 57.6001 92.22C53.2001 96.3133 47.3334 98.36 40.0001 98.36Z" fill="#BAE6FD"/>
    <path d="M52.3398 62.64V73.48C52.3398 73.8275 52.4089 74.1715 52.543 74.492C52.6772 74.8125 52.8738 75.1031 53.1213 75.3469C53.3689 75.5907 53.6624 75.7829 53.9849 75.9122C54.3074 76.0415 54.6524 76.1053 54.9998 76.1H64.1898C64.1898 75.1 63.9798 73.1 63.9798 73.1L58.9798 72.93L56.2298 71.23L56.3298 62.23C56.3911 61.929 56.3621 61.6165 56.2464 61.3319C56.1308 61.0472 55.9337 60.8031 55.6798 60.63C55.3733 60.3857 55.0374 60.1808 54.6798 60.02C54.0372 60.0957 53.4444 60.4039 53.0134 60.8866C52.5823 61.3692 52.3427 61.9929 52.3398 62.64Z" fill="#25AFE5"/>
    <path d="M111.79 95.07C111.393 95.0673 111.013 94.9085 110.732 94.6277C110.451 94.347 110.293 93.967 110.29 93.57V54.47C110.29 54.0022 110.105 53.5535 109.775 53.2219C109.445 52.8902 108.998 52.7026 108.53 52.7H100.89C100.492 52.7 100.111 52.5419 99.8292 52.2606C99.5479 51.9793 99.3899 51.5978 99.3899 51.2C99.3899 50.8021 99.5479 50.4206 99.8292 50.1393C100.111 49.858 100.492 49.7 100.89 49.7H108.53C109.793 49.7026 111.004 50.2063 111.896 51.1006C112.789 51.9948 113.29 53.2066 113.29 54.47V93.57C113.29 93.9678 113.132 94.3493 112.851 94.6306C112.569 94.9119 112.188 95.07 111.79 95.07Z" fill="#E0F2FE"/>
    <path d="M79.5199 102.52C79.0672 102.519 78.6263 102.376 78.2599 102.11L74.0499 99.11C73.7686 98.9084 73.5394 98.6427 73.3811 98.3349C73.2229 98.0271 73.1402 97.6861 73.1399 97.34V93.53C73.1399 93.1322 73.2979 92.7506 73.5792 92.4693C73.8605 92.188 74.2421 92.03 74.6399 92.03C75.0377 92.03 75.4192 92.188 75.7006 92.4693C75.9819 92.7506 76.1399 93.1322 76.1399 93.53V96.89L79.5399 99.34L83.1199 97C83.4782 96.7562 83.9015 96.6259 84.3349 96.6259C84.7683 96.6259 85.1916 96.7562 85.5499 97L88.7799 99.29L92.1599 96.68C92.5371 96.3905 92.9994 96.2336 93.4749 96.2336C93.9504 96.2336 94.4126 96.3905 94.7899 96.68L98.1999 99.3L101.41 97C101.758 96.7522 102.172 96.6132 102.599 96.6008C103.026 96.5883 103.448 96.7029 103.81 96.93L107.55 99.29L110.29 97V93.1C110.29 92.7022 110.448 92.3206 110.729 92.0393C111.011 91.758 111.392 91.6 111.79 91.6C112.188 91.6 112.569 91.758 112.851 92.0393C113.132 92.3206 113.29 92.7022 113.29 93.1V97.35C113.293 97.664 113.226 97.9748 113.095 98.2601C112.963 98.5453 112.77 98.798 112.53 99L109.03 102C108.681 102.3 108.244 102.48 107.785 102.513C107.325 102.545 106.868 102.428 106.48 102.18L102.69 99.79L99.4299 102.11C99.0608 102.387 98.6116 102.537 98.1499 102.537C97.6882 102.537 97.2389 102.387 96.8699 102.11L93.4799 99.51L90.1199 102.1C89.7508 102.377 89.3016 102.527 88.8399 102.527C88.3782 102.527 87.9289 102.377 87.5599 102.1L84.2899 99.79L80.7099 102.16C80.3571 102.394 79.9433 102.519 79.5199 102.52Z" fill="#E0F2FE"/>
    <path d="M106.93 86.94H103.93V56.87L90.6001 43.67L69.6801 43.79C69.3857 43.79 69.1033 43.907 68.8952 44.1151C68.687 44.3233 68.5701 44.6056 68.5701 44.9V60.05H65.5701V44.9C65.5701 43.8117 66.0017 42.7678 66.7703 41.9974C67.5389 41.2269 68.5818 40.7927 69.6701 40.79L91.8301 40.66L106.93 55.66V86.94Z" fill="#38BDF8"/>
    <path d="M68.5701 72.38H65.5701V86.93H68.5701V72.38Z" fill="#38BDF8"/>
    <path d="M72.1001 95.83C71.6477 95.8274 71.2074 95.6841 70.8401 95.42L66.4801 92.31C66.198 92.1068 65.9684 91.8394 65.8101 91.5299C65.6519 91.2204 65.5696 90.8777 65.5701 90.53V86.65H68.5701V90.11L72.1201 92.65L75.8501 90.21C76.2109 89.9632 76.6379 89.8312 77.0751 89.8312C77.5122 89.8312 77.9392 89.9632 78.3001 90.21L81.6701 92.57L85.1901 89.88C85.5711 89.5905 86.0365 89.4337 86.5151 89.4337C86.9936 89.4337 87.459 89.5905 87.8401 89.88L91.3901 92.58L94.7401 90.22C95.0893 89.9701 95.5051 89.83 95.9344 89.8175C96.3637 89.805 96.7869 89.9208 97.1501 90.15L101.06 92.59L103.93 90.16V86.16H106.93V90.52C106.93 90.8375 106.861 91.1511 106.728 91.4393C106.595 91.7276 106.401 91.9837 106.16 92.19L102.54 95.24C102.189 95.5399 101.752 95.72 101.291 95.7542C100.831 95.7883 100.372 95.6748 99.9801 95.43L96.0001 93L92.6001 95.4C92.226 95.6746 91.7741 95.8227 91.3101 95.8227C90.846 95.8227 90.3941 95.6746 90.0201 95.4L86.4901 92.72L83.0001 95.36C82.626 95.6346 82.1741 95.7827 81.7101 95.7827C81.246 95.7827 80.7941 95.6346 80.4201 95.36L77.0001 93L73.3001 95.47C72.9437 95.7043 72.5266 95.8294 72.1001 95.83Z" fill="#38BDF8"/>
    <path d="M67.0701 61.5499C66.6722 61.5499 66.2907 61.3919 66.0094 61.1106C65.7281 60.8293 65.5701 60.4478 65.5701 60.0499V51.0499C65.5701 50.6521 65.7281 50.2706 66.0094 49.9893C66.2907 49.708 66.6722 49.5499 67.0701 49.5499C67.4679 49.5499 67.8494 49.708 68.1307 49.9893C68.412 50.2706 68.5701 50.6521 68.5701 51.0499V60.0499C68.5701 60.4478 68.412 60.8293 68.1307 61.1106C67.8494 61.3919 67.4679 61.5499 67.0701 61.5499Z" fill="#25AFE5"/>
    <path d="M72.1001 95.8299C71.6477 95.8273 71.2074 95.684 70.8401 95.4199L66.4801 92.3099C66.198 92.1068 65.9684 91.8394 65.8101 91.5298C65.6519 91.2203 65.5696 90.8776 65.5701 90.5299V72.9399C65.5701 72.5421 65.7281 72.1606 66.0094 71.8793C66.2907 71.598 66.6722 71.4399 67.0701 71.4399C67.4679 71.4399 67.8494 71.598 68.1307 71.8793C68.412 72.1606 68.5701 72.5421 68.5701 72.9399V90.1099L72.1201 92.6499L75.8501 90.2099C76.2109 89.9631 76.6379 89.8311 77.0751 89.8311C77.5122 89.8311 77.9392 89.9631 78.3001 90.2099L81.6701 92.5699L85.1901 89.8799C85.5711 89.5904 86.0365 89.4336 86.5151 89.4336C86.9936 89.4336 87.459 89.5904 87.8401 89.8799L91.3901 92.5799L94.7401 90.2199C95.0893 89.97 95.5051 89.8299 95.9344 89.8174C96.3637 89.8049 96.7869 89.9207 97.1501 90.1499L101.06 92.5899L103.93 90.1599V86.1599C103.93 85.7621 104.088 85.3806 104.369 85.0993C104.651 84.818 105.032 84.6599 105.43 84.6599C105.828 84.6599 106.209 84.818 106.491 85.0993C106.772 85.3806 106.93 85.7621 106.93 86.1599V90.5199C106.93 90.8374 106.861 91.151 106.728 91.4393C106.595 91.7275 106.401 91.9836 106.16 92.1899L102.54 95.2399C102.189 95.5398 101.752 95.7199 101.291 95.7541C100.831 95.7883 100.372 95.6747 99.9801 95.4299L96.0001 92.9999L92.6001 95.3999C92.226 95.6745 91.7741 95.8226 91.3101 95.8226C90.846 95.8226 90.3941 95.6745 90.0201 95.3999L86.4901 92.7199L83.0001 95.3599C82.626 95.6345 82.1741 95.7826 81.7101 95.7826C81.246 95.7826 80.7941 95.6345 80.4201 95.3599L77.0001 92.9999L73.3001 95.4699C72.9437 95.7042 72.5266 95.8294 72.1001 95.8299Z" fill="#25AFE5"/>
    <path d="M105.3 57.7499H93.19C92.2697 57.7499 91.3871 57.3843 90.7363 56.7336C90.0856 56.0828 89.72 55.2002 89.72 54.2799V42.1599C89.7202 41.8635 89.8083 41.5737 89.9732 41.3273C90.138 41.0808 90.3722 40.8888 90.6461 40.7754C90.9201 40.6619 91.2214 40.6322 91.5122 40.69C91.803 40.7478 92.0702 40.8904 92.28 41.0999L106.36 55.1899C106.569 55.3997 106.712 55.6669 106.77 55.9577C106.828 56.2485 106.798 56.5499 106.685 56.8238C106.571 57.0977 106.379 57.3319 106.133 57.4967C105.886 57.6616 105.596 57.7497 105.3 57.7499ZM92.72 45.7499V54.2499C92.72 54.3746 92.7695 54.4941 92.8576 54.5823C92.9458 54.6704 93.0653 54.7199 93.19 54.7199H101.68L92.72 45.7499Z" fill="#38BDF8"/>
    <path d="M96.74 57.75H93.19C92.2697 57.75 91.3871 57.3844 90.7363 56.7337C90.0856 56.0829 89.72 55.2003 89.72 54.28V50.53C89.72 50.1322 89.878 49.7507 90.1593 49.4694C90.4406 49.1881 90.8221 49.03 91.22 49.03C91.6178 49.03 91.9993 49.1881 92.2806 49.4694C92.5619 49.7507 92.72 50.1322 92.72 50.53V54.28C92.72 54.4047 92.7695 54.5242 92.8576 54.6124C92.9458 54.7005 93.0653 54.75 93.19 54.75H96.74C97.1378 54.75 97.5193 54.9081 97.8006 55.1894C98.0819 55.4707 98.24 55.8522 98.24 56.25C98.24 56.6479 98.0819 57.0294 97.8006 57.3107C97.5193 57.592 97.1378 57.75 96.74 57.75Z" fill="#BAE6FD"/>
    <path d="M100.32 79.27H99.32C99.3893 79.1794 99.4496 79.0823 99.5 78.98C99.6023 78.7642 99.6569 78.5288 99.66 78.29C99.6702 77.9811 99.6086 77.6741 99.4802 77.393C99.3519 77.112 99.1601 76.8645 98.92 76.67C98.3433 76.2444 97.6352 76.0356 96.92 76.08C96.2471 76.0536 95.5849 76.2543 95.04 76.65C94.7962 76.8345 94.595 77.0693 94.4501 77.3385C94.3051 77.6077 94.2198 77.9049 94.2 78.21V78.44H95.64V78.25C95.6587 78.128 95.7032 78.0114 95.7704 77.908C95.8377 77.8046 95.9261 77.7166 96.03 77.65C96.3164 77.4609 96.6578 77.3729 97 77.4C97.3309 77.388 97.6558 77.4904 97.92 77.69C98.0241 77.7675 98.1083 77.8687 98.1657 77.9852C98.2231 78.1017 98.2519 78.2301 98.25 78.36C98.246 78.5188 98.2082 78.6749 98.1393 78.818C98.0703 78.9611 97.9717 79.0879 97.85 79.19H93.72V80.43H100.37L100.32 79.27Z" fill="#FC3131"/>
    <path d="M98.41 83.5899C98.3881 83.7277 98.3377 83.8594 98.2619 83.9765C98.1861 84.0936 98.0867 84.1935 97.97 84.2699C97.6679 84.4484 97.3205 84.5353 96.97 84.5199C96.6128 84.5315 96.2617 84.4262 95.97 84.2199C95.8561 84.142 95.7629 84.0376 95.6985 83.9156C95.634 83.7937 95.6002 83.6579 95.6 83.5199C95.6063 83.3995 95.6334 83.2811 95.68 83.1699C95.7212 83.0552 95.7899 82.9522 95.88 82.8699C95.9645 82.789 96.0585 82.7185 96.16 82.6599H100.35V81.4399H93.7V82.6099H94.52C94.4422 82.6948 94.375 82.7888 94.32 82.8899C94.196 83.1345 94.1342 83.4058 94.14 83.6799C94.131 83.993 94.2004 84.3033 94.3419 84.5827C94.4833 84.8622 94.6924 85.1018 94.95 85.2799C95.5351 85.6892 96.2362 85.8995 96.95 85.8799H97C97.712 85.9097 98.4143 85.7061 99 85.2999C99.2584 85.1128 99.4735 84.872 99.6306 84.5942C99.7876 84.3164 99.8829 84.0079 99.91 83.6899V83.4499H98.46L98.41 83.5899Z" fill="#FC3131"/>
    <path d="M78.24 50.3H73.05C72.8974 50.3146 72.7434 50.2971 72.598 50.2487C72.4525 50.2003 72.3188 50.1221 72.2054 50.019C72.0919 49.9159 72.0013 49.7902 71.9393 49.65C71.8772 49.5099 71.8452 49.3583 71.8452 49.205C71.8452 49.0517 71.8772 48.9001 71.9393 48.7599C72.0013 48.6197 72.0919 48.4941 72.2054 48.391C72.3188 48.2879 72.4525 48.2096 72.598 48.1612C72.7434 48.1128 72.8974 48.0954 73.05 48.11H78.24C78.3926 48.0954 78.5465 48.1128 78.692 48.1612C78.8374 48.2096 78.9712 48.2879 79.0846 48.391C79.198 48.4941 79.2887 48.6197 79.3507 48.7599C79.4127 48.9001 79.4447 49.0517 79.4447 49.205C79.4447 49.3583 79.4127 49.5099 79.3507 49.65C79.2887 49.7902 79.198 49.9159 79.0846 50.019C78.9712 50.1221 78.8374 50.2003 78.692 50.2487C78.5465 50.2971 78.3926 50.3146 78.24 50.3Z" fill="#BAE6FD"/>
    <path d="M83.43 55.17H73.05C72.7582 55.17 72.4784 55.0541 72.2721 54.8478C72.0659 54.6415 71.95 54.3617 71.95 54.07C71.95 53.7782 72.0659 53.4984 72.2721 53.2922C72.4784 53.0859 72.7582 52.97 73.05 52.97H83.43C83.7217 52.97 84.0015 53.0859 84.2078 53.2922C84.4141 53.4984 84.53 53.7782 84.53 54.07C84.53 54.3617 84.4141 54.6415 84.2078 54.8478C84.0015 55.0541 83.7217 55.17 83.43 55.17Z" fill="#BAE6FD"/>
    <path d="M94.9999 66.56H83.9999C83.7082 66.56 83.4284 66.4441 83.2221 66.2378C83.0158 66.0315 82.8999 65.7517 82.8999 65.46C82.8999 65.1682 83.0158 64.8885 83.2221 64.6822C83.4284 64.4759 83.7082 64.36 83.9999 64.36H94.9999C95.2916 64.36 95.5714 64.4759 95.7777 64.6822C95.984 64.8885 96.0999 65.1682 96.0999 65.46C96.0999 65.7517 95.984 66.0315 95.7777 66.2378C95.5714 66.4441 95.2916 66.56 94.9999 66.56Z" fill="#BAE6FD"/>
    <path d="M89.2799 71.46H83.9999C83.7082 71.46 83.4284 71.3441 83.2221 71.1378C83.0158 70.9315 82.8999 70.6517 82.8999 70.36C82.8999 70.0683 83.0158 69.7885 83.2221 69.5822C83.4284 69.3759 83.7082 69.26 83.9999 69.26H89.2499C89.5416 69.26 89.8214 69.3759 90.0277 69.5822C90.234 69.7885 90.3499 70.0683 90.3499 70.36C90.3499 70.6517 90.234 70.9315 90.0277 71.1378C89.8214 71.3441 89.5416 71.46 89.2499 71.46H89.2799Z" fill="#BAE6FD"/>
    <path d="M81.53 78.42H73.05C72.7582 78.42 72.4784 78.3041 72.2721 78.0978C72.0659 77.8915 71.95 77.6117 71.95 77.32C71.95 77.0282 72.0659 76.7484 72.2721 76.5422C72.4784 76.3359 72.7582 76.22 73.05 76.22H81.53C81.8217 76.22 82.1015 76.3359 82.3078 76.5422C82.5141 76.7484 82.63 77.0282 82.63 77.32C82.63 77.6117 82.5141 77.8915 82.3078 78.0978C82.1015 78.3041 81.8217 78.42 81.53 78.42Z" fill="#E2E8F0"/>
    <path d="M78.38 83.21H73.05C72.7582 83.21 72.4784 83.0941 72.2721 82.8878C72.0659 82.6815 71.95 82.4017 71.95 82.11C71.95 81.8183 72.0659 81.5385 72.2721 81.3322C72.4784 81.1259 72.7582 81.01 73.05 81.01H78.38C78.6717 81.01 78.9515 81.1259 79.1578 81.3322C79.3641 81.5385 79.48 81.8183 79.48 82.11C79.48 82.4017 79.3641 82.6815 79.1578 82.8878C78.9515 83.0941 78.6717 83.21 78.38 83.21Z" fill="#E2E8F0"/>
    <path d="M89.2801 78.42H85.6601C85.3683 78.42 85.0885 78.3041 84.8822 78.0978C84.676 77.8915 84.5601 77.6117 84.5601 77.32C84.5601 77.0282 84.676 76.7484 84.8822 76.5422C85.0885 76.3359 85.3683 76.22 85.6601 76.22H89.2801C89.5718 76.22 89.8516 76.3359 90.0579 76.5422C90.2642 76.7484 90.3801 77.0282 90.3801 77.32C90.3801 77.6117 90.2642 77.8915 90.0579 78.0978C89.8516 78.3041 89.5718 78.42 89.2801 78.42Z" fill="#E2E8F0"/>
    <path d="M17.71 63.16L16.14 60.16L13.21 58.52L16.21 56.94L17.86 54.03L19.44 57.03L22.35 58.66L19.35 60.24L17.71 63.16ZM16.21 58.6L17.21 59.16L17.75 60.16L18.31 59.16L19.31 58.62L18.31 58.05L17.77 57.05L17.21 58.05L16.21 58.6Z" fill="#E0F2FE"/>
    <path d="M79.2799 32.2L77.6599 29.15L74.6599 27.46L77.6599 25.85L79.3499 22.85L80.9699 25.85L83.9699 27.54L80.9699 29.16L79.2799 32.2ZM78.2799 27.51L78.9799 27.9L79.3599 28.61L79.7599 27.91L80.4599 27.53L79.7599 27.14L79.3899 26.43L78.9899 27.13L78.2799 27.51Z" fill="#BAE6FD"/>
    <path d="M82 73.9299H58C57.0717 73.9299 56.1815 73.5612 55.5251 72.9048C54.8688 72.2484 54.5 71.3582 54.5 70.4299V62.1699C54.5 61.2417 54.8688 60.3514 55.5251 59.695C56.1815 59.0387 57.0717 58.6699 58 58.6699H82C82.9283 58.6699 83.8185 59.0387 84.4749 59.695C85.1313 60.3514 85.5 61.2417 85.5 62.1699V70.4299C85.5 71.3582 85.1313 72.2484 84.4749 72.9048C83.8185 73.5612 82.9283 73.9299 82 73.9299ZM58 61.6699C57.8674 61.6699 57.7402 61.7226 57.6464 61.8164C57.5527 61.9101 57.5 62.0373 57.5 62.1699V70.4299C57.5 70.5625 57.5527 70.6897 57.6464 70.7835C57.7402 70.8772 57.8674 70.9299 58 70.9299H82C82.1326 70.9299 82.2598 70.8772 82.3536 70.7835C82.4473 70.6897 82.5 70.5625 82.5 70.4299V62.1699C82.5 62.0373 82.4473 61.9101 82.3536 61.8164C82.2598 61.7226 82.1326 61.6699 82 61.6699H58Z" fill="#38BDF8"/>
    <path d="M83.9999 64.71C83.6021 64.71 83.2206 64.5519 82.9392 64.2706C82.6579 63.9893 82.4999 63.6078 82.4999 63.21V62.21C82.4999 62.0774 82.4472 61.9502 82.3535 61.8564C82.2597 61.7626 82.1325 61.71 81.9999 61.71H72.9099C72.5121 61.71 72.1306 61.5519 71.8493 61.2706C71.5679 60.9893 71.4099 60.6078 71.4099 60.21C71.4099 59.8121 71.5679 59.4306 71.8493 59.1493C72.1306 58.868 72.5121 58.71 72.9099 58.71H81.9999C82.9282 58.71 83.8184 59.0787 84.4748 59.7351C85.1312 60.3915 85.4999 61.2817 85.4999 62.21V63.21C85.4999 63.6078 85.3419 63.9893 85.0606 64.2706C84.7793 64.5519 84.3977 64.71 83.9999 64.71Z" fill="#BAE6FD"/>
    <path d="M63.0999 69.16C62.8836 69.1591 62.6721 69.0967 62.4899 68.98L60.3999 67.6C60.1559 67.4396 59.9857 67.1888 59.9266 66.9028C59.8675 66.6168 59.9245 66.319 60.0849 66.075C60.2454 65.831 60.4962 65.6608 60.7822 65.6017C61.0682 65.5426 61.3659 65.5996 61.6099 65.76L62.8799 66.6L65.7499 63.14C65.9421 62.9387 66.2035 62.8177 66.4814 62.8014C66.7593 62.7852 67.033 62.8749 67.2473 63.0525C67.4617 63.23 67.6008 63.4823 67.6365 63.7583C67.6722 64.0344 67.602 64.3137 67.4399 64.54L63.9999 68.76C63.8908 68.8915 63.7528 68.9959 63.5967 69.0653C63.4406 69.1347 63.2706 69.1671 63.0999 69.16Z" fill="#FC3131"/>
    <path d="M78.89 67.4H70.31C70.0182 67.4 69.7384 67.2841 69.5321 67.0778C69.3259 66.8715 69.21 66.5917 69.21 66.3C69.21 66.0082 69.3259 65.7284 69.5321 65.5221C69.7384 65.3159 70.0182 65.2 70.31 65.2H78.89C79.1817 65.2 79.4615 65.3159 79.6678 65.5221C79.8741 65.7284 79.99 66.0082 79.99 66.3C79.99 66.5917 79.8741 66.8715 79.6678 67.0778C79.4615 67.2841 79.1817 67.4 78.89 67.4Z" fill="#BAE6FD"/>
    <path d="M102.76 41.29L101.18 38.29L98.26 36.65L101.26 35.07L102.9 32.16L104.48 35.16L107.4 36.79L104.4 38.37L102.76 41.29ZM101.25 36.72L102.25 37.28L102.79 38.28L103.35 37.28L104.35 36.74L103.35 36.18L102.81 35.18L102.25 36.18L101.25 36.72Z" fill="#E0F2FE"/>
</svg>
