<svg width="40" height="40" viewBox="0 0 40 40" fill="none" xmlns="http://www.w3.org/2000/svg">
    <path d="M5 14L19 2L33 14V36H21V26H17V36H5V14Z" stroke="#38BDF8" stroke-width="2"/>
    <rect x="9" y="26" width="4" height="6" stroke="#E2E8F0" stroke-width="2"/>
    <rect x="9" y="16" width="4" height="6" stroke="#E2E8F0" stroke-width="2"/>
    <rect x="25" y="26" width="4" height="6" stroke="#E2E8F0" stroke-width="2"/>
    <rect x="25" y="16" width="4" height="6" stroke="#E2E8F0" stroke-width="2"/>
    <rect x="17" y="16" width="4" height="6" stroke="#E2E8F0" stroke-width="2"/>
    <path d="M23 2H38V10.0226C38 12.9676 36.7019 15.7629 34.4518 17.6629L30.5 21L26.5482 17.6629C24.2981 15.7629 23 12.9676 23 10.0226V2Z" fill="white" stroke="#FC3131" stroke-width="2"/>
    <path d="M27.5 9.5L30 11.5L34 7" stroke="#FC3131" stroke-width="2"/>
</svg>
