<svg width="40" height="40" viewBox="0 0 40 40" fill="none" xmlns="http://www.w3.org/2000/svg">
    <g clip-path="url(#clip0)">
        <path d="M12.5 12H7C5.89543 12 5 12.8954 5 14V30C5 31.1046 5.89543 32 7 32H33C34.1046 32 35 31.1046 35 30V14C35 12.8954 34.1046 12 33 12H27.5" stroke="#38BDF8" stroke-width="2" stroke-linecap="round"/>
        <mask id="path-2-inside-1" fill="white">
            <rect width="36" height="6" rx="1" transform="matrix(1 0 0 -1 2 37)"/>
        </mask>
        <rect width="36" height="6" rx="1" transform="matrix(1 0 0 -1 2 37)" stroke="#38BDF8" stroke-width="4" mask="url(#path-2-inside-1)"/>
        <rect x="14" y="7" width="12" height="12" fill="white"/>
        <path d="M11.5147 7.48528C16.201 2.79899 23.799 2.79899 28.4853 7.48528" stroke="#FC3131" stroke-width="2"/>
        <path d="M14.3431 10.3137C17.4673 7.18952 22.5327 7.18952 25.6569 10.3137" stroke="#FC3131" stroke-width="2"/>
        <path d="M17.1716 13.1421C18.7337 11.5801 21.2663 11.5801 22.8284 13.1421" stroke="#FC3131" stroke-width="2"/>
        <rect x="12" y="18" width="16" height="2" fill="#E2E8F0"/>
        <rect x="9" y="22" width="4" height="4" fill="#E2E8F0"/>
        <rect x="15" y="22" width="4" height="4" fill="#E2E8F0"/>
        <rect x="21" y="22" width="4" height="4" fill="#E2E8F0"/>
        <rect x="27" y="22" width="4" height="4" fill="#E2E8F0"/>
    </g>
    <defs>
        <clipPath id="clip0">
            <rect width="40" height="40" fill="white"/>
        </clipPath>
    </defs>
</svg>
