<svg width="416" height="380" viewBox="0 0 416 380" fill="none" xmlns="http://www.w3.org/2000/svg">
<g filter="url(#filter0_d_106_6526)">
<path d="M197 133C197 120.85 206.85 111 219 111H362C374.15 111 384 120.85 384 133V243H197V133Z" fill="white"/>
<path d="M293 139H221C218.791 139 217 140.791 217 143C217 145.209 218.791 147 221 147H293C295.209 147 297 145.209 297 143C297 140.791 295.209 139 293 139Z" fill="#E2E8F0"/>
<path d="M273 159H221C218.791 159 217 160.791 217 163C217 165.209 218.791 167 221 167H273C275.209 167 277 165.209 277 163C277 160.791 275.209 159 273 159Z" fill="#E2E8F0"/>
<path d="M273 179H221C218.791 179 217 180.791 217 183C217 185.209 218.791 187 221 187H273C275.209 187 277 185.209 277 183C277 180.791 275.209 179 273 179Z" fill="#E2E8F0"/>
<path d="M340 132.855C340 120.705 349.85 110.855 362 110.855C374.15 110.855 384 120.705 384 132.855V242.855H340V132.855Z" fill="#BAE6FD"/>
<path d="M224.366 222.62C213.926 234.98 200.426 241.16 183.866 241.16C167.306 241.16 153.866 234.98 143.546 222.62C133.226 210.26 128.066 194.72 128.066 176C128.066 157.4 133.286 141.92 143.726 129.56C154.166 117.08 167.666 110.84 184.226 110.84C200.666 110.84 214.046 117.02 224.366 129.38C234.806 141.74 240.026 157.28 240.026 176C240.026 194.6 234.806 210.14 224.366 222.62ZM164.066 204.8C169.226 212.36 175.946 216.14 184.226 216.14C192.506 216.14 199.106 212.42 204.026 204.98C209.066 197.42 211.586 187.76 211.586 176C211.586 164.48 209.006 154.94 203.846 147.38C198.686 139.7 192.026 135.86 183.866 135.86C175.706 135.86 169.106 139.64 164.066 147.2C159.026 154.64 156.506 164.24 156.506 176C156.506 187.64 159.026 197.24 164.066 204.8Z" fill="#FC3131"/>
<path d="M79.6053 242V214.156H16.6053L12 194.057L82.7368 112H106.684V191.106H124V214.156H106.684V242H79.6053ZM45.3421 191.106H79.6053V150.908L45.3421 191.106Z" fill="#FC3131"/>
<path d="M280.352 108.408C277.28 111.736 273.344 113.4 268.544 113.4C263.744 113.4 259.84 111.768 256.832 108.504C253.824 105.176 252.32 101.08 252.32 96.216C252.32 91.352 253.856 87.288 256.928 84.024C260 80.696 263.936 79.032 268.736 79.032C273.536 79.032 277.44 80.696 280.448 84.024C283.456 87.288 284.96 91.352 284.96 96.216C284.96 101.016 283.424 105.08 280.352 108.408ZM259.04 147L308.096 79.8H319.52L270.464 147H259.04ZM321.632 142.776C318.56 146.104 314.624 147.768 309.824 147.768C305.024 147.768 301.12 146.136 298.112 142.872C295.104 139.544 293.6 135.448 293.6 130.584C293.6 125.72 295.136 121.656 298.208 118.392C301.28 115.064 305.216 113.4 310.016 113.4C314.816 113.4 318.72 115.064 321.728 118.392C324.736 121.656 326.24 125.72 326.24 130.584C326.24 135.384 324.704 139.448 321.632 142.776ZM268.736 104.664C270.656 104.664 272.16 103.864 273.248 102.264C274.336 100.6 274.88 98.584 274.88 96.216C274.88 93.912 274.272 91.928 273.056 90.264C271.904 88.6 270.4 87.768 268.544 87.768C266.624 87.768 265.12 88.568 264.032 90.168C262.944 91.768 262.4 93.784 262.4 96.216C262.4 98.52 262.976 100.504 264.128 102.168C265.344 103.832 266.88 104.664 268.736 104.664ZM310.016 139.032C311.936 139.032 313.44 138.232 314.528 136.632C315.616 134.968 316.16 132.952 316.16 130.584C316.16 128.28 315.552 126.296 314.336 124.632C313.184 122.968 311.68 122.136 309.824 122.136C307.904 122.136 306.4 122.936 305.312 124.536C304.224 126.136 303.68 128.152 303.68 130.584C303.68 132.888 304.256 134.872 305.408 136.536C306.624 138.2 308.16 139.032 310.016 139.032Z" fill="#FC3131"/>
<path d="M40.2414 94.336C44.6094 94.336 47.8854 90.892 47.8854 86.664C47.8854 82.464 44.6934 78.936 40.2414 78.936C37.4974 78.936 35.6494 80.112 34.3894 81.428L36.2094 83.528C37.2734 82.464 38.4494 81.792 40.2134 81.792C42.3414 81.792 44.0214 83.36 44.4134 85.376H38.6454V87.812H44.4414C44.0214 89.912 42.3134 91.508 40.0734 91.508C38.4214 91.508 37.2174 90.724 36.1254 89.604L34.1094 91.592C35.5654 93.244 37.3294 94.336 40.2414 94.336ZM51.3408 94H54.7008V90.444L57.1088 87.896L61.5888 94H65.5928L59.3768 85.432L65.1168 79.216H61.1408L54.7008 86.3V79.216H51.3408V94ZM74.9664 94.336C79.5304 94.336 82.8904 90.836 82.8904 86.636C82.8904 82.352 79.5584 78.908 75.0224 78.908C70.4864 78.908 67.1264 82.408 67.1264 86.636C67.1264 90.892 70.4584 94.336 74.9664 94.336ZM75.0224 91.396C72.3904 91.396 70.5144 89.212 70.5144 86.636C70.5144 84.004 72.2504 81.876 74.9664 81.876C77.6264 81.876 79.5024 84.032 79.5024 86.636C79.5024 89.24 77.7664 91.396 75.0224 91.396ZM86.3408 94H89.7288V88.036H96.2528V94H99.6408V79.216H96.2528V85.208H89.7288V79.216H86.3408V94ZM110.924 94.336C115.488 94.336 118.848 90.836 118.848 86.636C118.848 82.352 115.516 78.908 110.98 78.908C106.444 78.908 103.084 82.408 103.084 86.636C103.084 90.892 106.416 94.336 110.924 94.336ZM110.98 91.396C108.348 91.396 106.472 89.212 106.472 86.636C106.472 84.004 108.208 81.876 110.924 81.876C113.584 81.876 115.46 84.032 115.46 86.636C115.46 89.24 113.724 91.396 110.98 91.396ZM122.298 94H125.602V84.2L130.222 90.78L134.87 84.144V94H138.286V79.216H134.926L130.278 86.076L125.658 79.216H122.298V94ZM142.532 94H145.724L152.752 84.144V94H156.028V79.216H152.836C150.484 82.52 148.16 85.824 145.836 89.128V79.216H142.532V94ZM158.934 94H162.91L166.41 89.016H169.434V94H172.822V79.216H165.402C161.678 79.216 159.578 81.176 159.578 84.032C159.578 86.356 161.006 87.84 163.022 88.456L158.934 94ZM165.878 86.468C164.142 86.468 162.966 85.628 162.966 84.2C162.966 82.8 164.058 81.96 165.85 81.96H169.434V86.468H165.878ZM183.754 97.556H186.582L186.918 94H197.278V97.556H200.106L200.554 91.088H198.454V79.216H187.002V81.036C187.002 85.18 186.582 88.624 185.35 91.088H183.754V97.556ZM188.822 91.088C189.69 89.268 190.194 86.776 190.194 84.088V82.128H195.066V91.088H188.822ZM210.4 94.336C214.964 94.336 218.324 90.836 218.324 86.636C218.324 82.352 214.992 78.908 210.456 78.908C205.92 78.908 202.56 82.408 202.56 86.636C202.56 90.892 205.892 94.336 210.4 94.336ZM210.456 91.396C207.824 91.396 205.948 89.212 205.948 86.636C205.948 84.004 207.684 81.876 210.4 81.876C213.06 81.876 214.936 84.032 214.936 86.636C214.936 89.24 213.2 91.396 210.456 91.396Z" fill="#FC3131"/>
<g filter="url(#filter1_d_106_6526)">
<path d="M116 215C116 202.85 125.85 193 138 193H273.333C285.484 193 295.333 202.85 295.333 215V249.042H116V215Z" fill="white"/>
</g>
<path d="M116 215C116 202.85 125.85 193 138 193H252V341H116V215Z" fill="white"/>
<path d="M252 215C252 202.85 261.85 193 274 193C286.15 193 296 202.85 296 215V315.544H252V215Z" fill="#BAE6FD"/>
<path d="M252 272C252 259.85 261.85 250 274 250H318C330.15 250 340 259.85 340 272V294C340 306.15 330.15 316 318 316H274C261.85 316 252 306.15 252 294V272Z" fill="#BAE6FD"/>
<path d="M340 294C340 306.15 330.15 316 318 316C305.85 316 296 306.15 296 294V193H340V294Z" fill="white"/>
<path d="M212 221H140C137.791 221 136 222.791 136 225C136 227.209 137.791 229 140 229H212C214.209 229 216 227.209 216 225C216 222.791 214.209 221 212 221Z" fill="#E2E8F0"/>
<path d="M192 241H140C137.791 241 136 242.791 136 245C136 247.209 137.791 249 140 249H192C194.209 249 196 247.209 196 245C196 242.791 194.209 241 192 241Z" fill="#E2E8F0"/>
<path d="M182 313H140C137.791 313 136 314.791 136 317C136 319.209 137.791 321 140 321H182C184.209 321 186 319.209 186 317C186 314.791 184.209 313 182 313Z" fill="#E2E8F0"/>
<path d="M162 293H140C137.791 293 136 294.791 136 297C136 299.209 137.791 301 140 301H162C164.209 301 166 299.209 166 297C166 294.791 164.209 293 162 293Z" fill="#E2E8F0"/>
<path d="M228 313H208C205.791 313 204 314.791 204 317C204 319.209 205.791 321 208 321H228C230.209 321 232 319.209 232 317C232 314.791 230.209 313 228 313Z" fill="#38BDF8"/>
<path d="M202 261H140C137.791 261 136 262.791 136 265C136 267.209 137.791 269 140 269H202C204.209 269 206 267.209 206 265C206 262.791 204.209 261 202 261Z" fill="#E2E8F0"/>
</g>
<defs>
<filter id="filter0_d_106_6526" x="0" y="70.908" width="396" height="286.092" filterUnits="userSpaceOnUse" color-interpolation-filters="sRGB">
<feFlood flood-opacity="0" result="BackgroundImageFix"/>
<feColorMatrix in="SourceAlpha" type="matrix" values="0 0 0 0 0 0 0 0 0 0 0 0 0 0 0 0 0 0 127 0" result="hardAlpha"/>
<feOffset dy="4"/>
<feGaussianBlur stdDeviation="6"/>
<feColorMatrix type="matrix" values="0 0 0 0 0 0 0 0 0 0 0 0 0 0 0 0 0 0 0.08 0"/>
<feBlend mode="normal" in2="BackgroundImageFix" result="effect1_dropShadow_106_6526"/>
<feBlend mode="normal" in="SourceGraphic" in2="effect1_dropShadow_106_6526" result="shape"/>
</filter>
<filter id="filter1_d_106_6526" x="104" y="185" width="203.332" height="80.042" filterUnits="userSpaceOnUse" color-interpolation-filters="sRGB">
<feFlood flood-opacity="0" result="BackgroundImageFix"/>
<feColorMatrix in="SourceAlpha" type="matrix" values="0 0 0 0 0 0 0 0 0 0 0 0 0 0 0 0 0 0 127 0" result="hardAlpha"/>
<feOffset dy="4"/>
<feGaussianBlur stdDeviation="6"/>
<feColorMatrix type="matrix" values="0 0 0 0 0 0 0 0 0 0 0 0 0 0 0 0 0 0 0.08 0"/>
<feBlend mode="normal" in2="BackgroundImageFix" result="effect1_dropShadow_106_6526"/>
<feBlend mode="normal" in="SourceGraphic" in2="effect1_dropShadow_106_6526" result="shape"/>
</filter>
</defs>
</svg>
