<svg width="416" height="380" viewBox="0 0 416 380" fill="none" xmlns="http://www.w3.org/2000/svg">
<g filter="url(#filter0_d_106_6504)">
<path d="M197 133C197 120.85 206.85 111 219 111H362C374.15 111 384 120.85 384 133V243H197V133Z" fill="white"/>
<path d="M293 139H221C218.791 139 217 140.791 217 143C217 145.209 218.791 147 221 147H293C295.209 147 297 145.209 297 143C297 140.791 295.209 139 293 139Z" fill="#E2E8F0"/>
<path d="M273 159H221C218.791 159 217 160.791 217 163C217 165.209 218.791 167 221 167H273C275.209 167 277 165.209 277 163C277 160.791 275.209 159 273 159Z" fill="#E2E8F0"/>
<path d="M273 179H221C218.791 179 217 180.791 217 183C217 185.209 218.791 187 221 187H273C275.209 187 277 185.209 277 183C277 180.791 275.209 179 273 179Z" fill="#E2E8F0"/>
<path d="M340 132.855C340 120.705 349.85 110.855 362 110.855C374.15 110.855 384 120.705 384 132.855V242.855H340V132.855Z" fill="#BAE6FD"/>
<path d="M229.367 222.62C218.927 234.98 205.427 241.16 188.867 241.16C172.307 241.16 158.867 234.98 148.547 222.62C138.227 210.26 133.067 194.72 133.067 176C133.067 157.4 138.287 141.92 148.727 129.56C159.167 117.08 172.667 110.84 189.227 110.84C205.667 110.84 219.047 117.02 229.367 129.38C239.807 141.74 245.027 157.28 245.027 176C245.027 194.6 239.807 210.14 229.367 222.62ZM169.067 204.8C174.227 212.36 180.947 216.14 189.227 216.14C197.507 216.14 204.107 212.42 209.027 204.98C214.067 197.42 216.587 187.76 216.587 176C216.587 164.48 214.007 154.94 208.847 147.38C203.687 139.7 197.027 135.86 188.867 135.86C180.707 135.86 174.107 139.64 169.067 147.2C164.027 154.64 161.507 164.24 161.507 176C161.507 187.64 164.027 197.24 169.067 204.8Z" fill="#FC3131"/>
<path d="M84.6053 242V214.156H21.6053L17 194.057L87.7368 112H111.684V191.106H129V214.156H111.684V242H84.6053ZM50.3421 191.106H84.6053V150.908L50.3421 191.106Z" fill="#FC3131"/>
<path d="M280.351 108.408C277.279 111.736 273.343 113.4 268.543 113.4C263.743 113.4 259.839 111.768 256.831 108.504C253.823 105.176 252.319 101.08 252.319 96.216C252.319 91.352 253.855 87.288 256.927 84.024C259.999 80.696 263.935 79.032 268.735 79.032C273.535 79.032 277.439 80.696 280.447 84.024C283.455 87.288 284.959 91.352 284.959 96.216C284.959 101.016 283.423 105.08 280.351 108.408ZM259.039 147L308.095 79.8H319.519L270.463 147H259.039ZM321.631 142.776C318.559 146.104 314.623 147.768 309.823 147.768C305.023 147.768 301.119 146.136 298.111 142.872C295.103 139.544 293.599 135.448 293.599 130.584C293.599 125.72 295.135 121.656 298.207 118.392C301.279 115.064 305.215 113.4 310.015 113.4C314.815 113.4 318.719 115.064 321.727 118.392C324.735 121.656 326.239 125.72 326.239 130.584C326.239 135.384 324.703 139.448 321.631 142.776ZM268.735 104.664C270.655 104.664 272.159 103.864 273.247 102.264C274.335 100.6 274.879 98.584 274.879 96.216C274.879 93.912 274.271 91.928 273.055 90.264C271.903 88.6 270.399 87.768 268.543 87.768C266.623 87.768 265.119 88.568 264.031 90.168C262.943 91.768 262.399 93.784 262.399 96.216C262.399 98.52 262.975 100.504 264.127 102.168C265.343 103.832 266.879 104.664 268.735 104.664ZM310.015 139.032C311.935 139.032 313.439 138.232 314.527 136.632C315.615 134.968 316.159 132.952 316.159 130.584C316.159 128.28 315.551 126.296 314.335 124.632C313.183 122.968 311.679 122.136 309.823 122.136C307.903 122.136 306.399 122.936 305.311 124.536C304.223 126.136 303.679 128.152 303.679 130.584C303.679 132.888 304.255 134.872 305.407 136.536C306.623 138.2 308.159 139.032 310.015 139.032Z" fill="#FC3131"/>
<path d="M135.09 94.28C138.17 94.28 140.578 92.74 140.578 89.632C140.578 86.916 138.142 85.936 135.986 85.264C135.902 85.236 135.79 85.208 135.706 85.18C134.082 84.648 132.654 84.2 132.654 83.192C132.654 82.268 133.41 81.652 134.726 81.652C135.958 81.652 137.47 82.184 138.898 83.052L140.242 80.644C138.674 79.608 136.658 78.964 134.81 78.964C131.87 78.964 129.546 80.672 129.546 83.472C129.546 86.356 131.982 87.252 134.166 87.896C134.25 87.924 134.334 87.952 134.418 87.98C136.042 88.456 137.47 88.848 137.47 89.94C137.47 90.976 136.63 91.592 135.174 91.592C133.662 91.592 131.926 90.976 130.33 89.772L128.818 92.068C130.666 93.524 132.99 94.28 135.09 94.28ZM156.426 94V85.236C156.426 81.288 154.298 78.992 149.93 78.992C147.522 78.992 145.926 79.496 144.302 80.224L145.226 82.94C146.57 82.38 147.802 82.016 149.454 82.016C151.806 82.016 153.094 83.136 153.094 85.18V85.46C151.946 85.096 150.798 84.844 149.006 84.844C145.562 84.844 143.014 86.412 143.014 89.688C143.014 92.712 145.478 94.308 148.278 94.308C150.518 94.308 152.058 93.384 153.066 92.18V94H156.426ZM153.15 88.652C153.15 90.5 151.47 91.76 149.23 91.76C147.634 91.76 146.374 90.976 146.374 89.576C146.374 88.092 147.634 87.224 149.762 87.224C151.078 87.224 152.282 87.476 153.15 87.812V88.652ZM164.584 94.112H167.636L173.684 79.216H170.128L166.124 90.08L162.148 79.216H158.508L164.584 94.112ZM182.489 94.336C185.205 94.336 187.137 93.244 188.537 91.564L186.549 89.8C185.373 90.948 184.197 91.564 182.545 91.564C180.361 91.564 178.653 90.22 178.289 87.812H189.153C189.181 87.644 189.209 87.084 189.209 86.86C189.209 82.604 186.829 78.908 182.125 78.908C177.897 78.908 174.901 82.38 174.901 86.608C174.901 91.228 178.205 94.336 182.489 94.336ZM178.261 85.572C178.569 83.276 180.025 81.68 182.097 81.68C184.337 81.68 185.625 83.388 185.849 85.572H178.261ZM206.102 94.308C208.398 94.308 209.77 93.104 210.722 91.704V94H214.11V79.216H210.722V87.56C210.722 89.856 209.35 91.228 207.39 91.228C205.374 91.228 204.226 89.912 204.226 87.616V79.216H200.838V88.624C200.838 92.068 202.77 94.308 206.102 94.308ZM218.369 98.48H221.757V91.704C222.793 93.076 224.333 94.308 226.769 94.308C230.297 94.308 233.657 91.536 233.657 86.636C233.657 81.68 230.269 78.908 226.769 78.908C224.389 78.908 222.849 80.14 221.757 81.68V79.216H218.369V98.48ZM225.985 91.368C223.689 91.368 221.673 89.492 221.673 86.636C221.673 83.752 223.689 81.848 225.985 81.848C228.281 81.848 230.213 83.724 230.213 86.58C230.213 89.548 228.309 91.368 225.985 91.368Z" fill="#FC3131"/>
<g filter="url(#filter1_d_106_6504)">
<path d="M116 215C116 202.85 125.85 193 138 193H273.333C285.484 193 295.333 202.85 295.333 215V249.042H116V215Z" fill="white"/>
</g>
<path d="M116 215C116 202.85 125.85 193 138 193H252V341H116V215Z" fill="white"/>
<path d="M252 215C252 202.85 261.85 193 274 193C286.15 193 296 202.85 296 215V315.544H252V215Z" fill="#BAE6FD"/>
<path d="M252 272C252 259.85 261.85 250 274 250H318C330.15 250 340 259.85 340 272V294C340 306.15 330.15 316 318 316H274C261.85 316 252 306.15 252 294V272Z" fill="#BAE6FD"/>
<path d="M340 294C340 306.15 330.15 316 318 316C305.85 316 296 306.15 296 294V193H340V294Z" fill="white"/>
<path d="M212 221H140C137.791 221 136 222.791 136 225C136 227.209 137.791 229 140 229H212C214.209 229 216 227.209 216 225C216 222.791 214.209 221 212 221Z" fill="#E2E8F0"/>
<path d="M192 241H140C137.791 241 136 242.791 136 245C136 247.209 137.791 249 140 249H192C194.209 249 196 247.209 196 245C196 242.791 194.209 241 192 241Z" fill="#E2E8F0"/>
<path d="M182 313H140C137.791 313 136 314.791 136 317C136 319.209 137.791 321 140 321H182C184.209 321 186 319.209 186 317C186 314.791 184.209 313 182 313Z" fill="#E2E8F0"/>
<path d="M162 293H140C137.791 293 136 294.791 136 297C136 299.209 137.791 301 140 301H162C164.209 301 166 299.209 166 297C166 294.791 164.209 293 162 293Z" fill="#E2E8F0"/>
<path d="M228 313H208C205.791 313 204 314.791 204 317C204 319.209 205.791 321 208 321H228C230.209 321 232 319.209 232 317C232 314.791 230.209 313 228 313Z" fill="#38BDF8"/>
<path d="M202 261H140C137.791 261 136 262.791 136 265C136 267.209 137.791 269 140 269H202C204.209 269 206 267.209 206 265C206 262.791 204.209 261 202 261Z" fill="#E2E8F0"/>
</g>
<defs>
<filter id="filter0_d_106_6504" x="5" y="70.908" width="391" height="286.092" filterUnits="userSpaceOnUse" color-interpolation-filters="sRGB">
<feFlood flood-opacity="0" result="BackgroundImageFix"/>
<feColorMatrix in="SourceAlpha" type="matrix" values="0 0 0 0 0 0 0 0 0 0 0 0 0 0 0 0 0 0 127 0" result="hardAlpha"/>
<feOffset dy="4"/>
<feGaussianBlur stdDeviation="6"/>
<feColorMatrix type="matrix" values="0 0 0 0 0 0 0 0 0 0 0 0 0 0 0 0 0 0 0.08 0"/>
<feBlend mode="normal" in2="BackgroundImageFix" result="effect1_dropShadow_106_6504"/>
<feBlend mode="normal" in="SourceGraphic" in2="effect1_dropShadow_106_6504" result="shape"/>
</filter>
<filter id="filter1_d_106_6504" x="104" y="185" width="203.333" height="80.042" filterUnits="userSpaceOnUse" color-interpolation-filters="sRGB">
<feFlood flood-opacity="0" result="BackgroundImageFix"/>
<feColorMatrix in="SourceAlpha" type="matrix" values="0 0 0 0 0 0 0 0 0 0 0 0 0 0 0 0 0 0 127 0" result="hardAlpha"/>
<feOffset dy="4"/>
<feGaussianBlur stdDeviation="6"/>
<feColorMatrix type="matrix" values="0 0 0 0 0 0 0 0 0 0 0 0 0 0 0 0 0 0 0.08 0"/>
<feBlend mode="normal" in2="BackgroundImageFix" result="effect1_dropShadow_106_6504"/>
<feBlend mode="normal" in="SourceGraphic" in2="effect1_dropShadow_106_6504" result="shape"/>
</filter>
</defs>
</svg>
