<svg width="416" height="380" viewBox="0 0 416 380" fill="none" xmlns="http://www.w3.org/2000/svg">
<g filter="url(#filter0_d_106_6548)">
<path d="M197 133C197 120.85 206.85 111 219 111H362C374.15 111 384 120.85 384 133V243H197V133Z" fill="white"/>
<path d="M293 139H221C218.791 139 217 140.791 217 143C217 145.209 218.791 147 221 147H293C295.209 147 297 145.209 297 143C297 140.791 295.209 139 293 139Z" fill="#E2E8F0"/>
<path d="M273 159H221C218.791 159 217 160.791 217 163C217 165.209 218.791 167 221 167H273C275.209 167 277 165.209 277 163C277 160.791 275.209 159 273 159Z" fill="#E2E8F0"/>
<path d="M273 179H221C218.791 179 217 180.791 217 183C217 185.209 218.791 187 221 187H273C275.209 187 277 185.209 277 183C277 180.791 275.209 179 273 179Z" fill="#E2E8F0"/>
<path d="M340 132.855C340 120.705 349.85 110.855 362 110.855C374.15 110.855 384 120.705 384 132.855V242.855H340V132.855Z" fill="#BAE6FD"/>
<path d="M224.366 222.62C213.926 234.98 200.426 241.16 183.866 241.16C167.306 241.16 153.866 234.98 143.546 222.62C133.226 210.26 128.066 194.72 128.066 176C128.066 157.4 133.286 141.92 143.726 129.56C154.166 117.08 167.666 110.84 184.226 110.84C200.666 110.84 214.046 117.02 224.366 129.38C234.806 141.74 240.026 157.28 240.026 176C240.026 194.6 234.806 210.14 224.366 222.62ZM164.066 204.8C169.226 212.36 175.946 216.14 184.226 216.14C192.506 216.14 199.106 212.42 204.026 204.98C209.066 197.42 211.586 187.76 211.586 176C211.586 164.48 209.006 154.94 203.846 147.38C198.686 139.7 192.026 135.86 183.866 135.86C175.706 135.86 169.106 139.64 164.066 147.2C159.026 154.64 156.506 164.24 156.506 176C156.506 187.64 159.026 197.24 164.066 204.8Z" fill="#FC3131"/>
<path d="M79.6053 242V214.156H16.6053L12 194.057L82.7368 112H106.684V191.106H124V214.156H106.684V242H79.6053ZM45.3421 191.106H79.6053V150.908L45.3421 191.106Z" fill="#FC3131"/>
<path d="M280.352 108.408C277.28 111.736 273.344 113.4 268.544 113.4C263.744 113.4 259.84 111.768 256.832 108.504C253.824 105.176 252.32 101.08 252.32 96.216C252.32 91.352 253.856 87.288 256.928 84.024C260 80.696 263.936 79.032 268.736 79.032C273.536 79.032 277.44 80.696 280.448 84.024C283.456 87.288 284.96 91.352 284.96 96.216C284.96 101.016 283.424 105.08 280.352 108.408ZM259.04 147L308.096 79.8H319.52L270.464 147H259.04ZM321.632 142.776C318.56 146.104 314.624 147.768 309.824 147.768C305.024 147.768 301.12 146.136 298.112 142.872C295.104 139.544 293.6 135.448 293.6 130.584C293.6 125.72 295.136 121.656 298.208 118.392C301.28 115.064 305.216 113.4 310.016 113.4C314.816 113.4 318.72 115.064 321.728 118.392C324.736 121.656 326.24 125.72 326.24 130.584C326.24 135.384 324.704 139.448 321.632 142.776ZM268.736 104.664C270.656 104.664 272.16 103.864 273.248 102.264C274.336 100.6 274.88 98.584 274.88 96.216C274.88 93.912 274.272 91.928 273.056 90.264C271.904 88.6 270.4 87.768 268.544 87.768C266.624 87.768 265.12 88.568 264.032 90.168C262.944 91.768 262.4 93.784 262.4 96.216C262.4 98.52 262.976 100.504 264.128 102.168C265.344 103.832 266.88 104.664 268.736 104.664ZM310.016 139.032C311.936 139.032 313.44 138.232 314.528 136.632C315.616 134.968 316.16 132.952 316.16 130.584C316.16 128.28 315.552 126.296 314.336 124.632C313.184 122.968 311.68 122.136 309.824 122.136C307.904 122.136 306.4 122.936 305.312 124.536C304.224 126.136 303.68 128.152 303.68 130.584C303.68 132.888 304.256 134.872 305.408 136.536C306.624 138.2 308.16 139.032 310.016 139.032Z" fill="#FC3131"/>
<path d="M66.3067 94.336C69.0227 94.336 70.9548 93.244 72.3548 91.564L70.3668 89.8C69.1908 90.948 68.0147 91.564 66.3627 91.564C64.1787 91.564 62.4708 90.22 62.1068 87.812H72.9707C72.9987 87.644 73.0267 87.084 73.0267 86.86C73.0267 82.604 70.6467 78.908 65.9427 78.908C61.7147 78.908 58.7188 82.38 58.7188 86.608C58.7188 91.228 62.0227 94.336 66.3067 94.336ZM62.0788 85.572C62.3868 83.276 63.8427 81.68 65.9147 81.68C68.1547 81.68 69.4427 83.388 69.6667 85.572H62.0788ZM76.4293 94H79.7893V90.444L82.1973 87.896L86.6773 94H90.6813L84.4652 85.432L90.2053 79.216H86.2292L79.7893 86.3V79.216H76.4293V94ZM100.054 94.336C104.618 94.336 107.978 90.836 107.978 86.636C107.978 82.352 104.646 78.908 100.11 78.908C95.5749 78.908 92.2149 82.408 92.2149 86.636C92.2149 90.892 95.5469 94.336 100.054 94.336ZM100.11 91.396C97.4789 91.396 95.6029 89.212 95.6029 86.636C95.6029 84.004 97.3389 81.876 100.054 81.876C102.714 81.876 104.59 84.032 104.59 86.636C104.59 89.24 102.854 91.396 100.11 91.396ZM111.429 94H114.817V88.036H121.341V94H124.729V79.216H121.341V85.208H114.817V79.216H111.429V94ZM136.011 94.336C140.575 94.336 143.935 90.836 143.935 86.636C143.935 82.352 140.603 78.908 136.067 78.908C131.531 78.908 128.171 82.408 128.171 86.636C128.171 90.892 131.503 94.336 136.011 94.336ZM136.067 91.396C133.435 91.396 131.559 89.212 131.559 86.636C131.559 84.004 133.295 81.876 136.011 81.876C138.671 81.876 140.547 84.032 140.547 86.636C140.547 89.24 138.811 91.396 136.067 91.396ZM147.386 94H150.69V84.2L155.31 90.78L159.958 84.144V94H163.374V79.216H160.014L155.366 86.076L150.746 79.216H147.386V94ZM167.676 76.948H171.316V73.728H167.676V76.948ZM167.816 94H171.204V79.216H167.816V94ZM174.288 94H178.264L181.764 89.016H184.788V94H188.176V79.216H180.756C177.032 79.216 174.932 81.176 174.932 84.032C174.932 86.356 176.36 87.84 178.376 88.456L174.288 94ZM181.232 86.468C179.496 86.468 178.32 85.628 178.32 84.2C178.32 82.8 179.412 81.96 181.204 81.96H184.788V86.468H181.232ZM199.108 97.556H201.936L202.272 94H212.632V97.556H215.46L215.908 91.088H213.808V79.216H202.356V81.036C202.356 85.18 201.936 88.624 200.704 91.088H199.108V97.556ZM204.176 91.088C205.044 89.268 205.548 86.776 205.548 84.088V82.128H210.42V91.088H204.176ZM225.754 94.336C230.318 94.336 233.678 90.836 233.678 86.636C233.678 82.352 230.346 78.908 225.81 78.908C221.274 78.908 217.914 82.408 217.914 86.636C217.914 90.892 221.246 94.336 225.754 94.336ZM225.81 91.396C223.178 91.396 221.302 89.212 221.302 86.636C221.302 84.004 223.038 81.876 225.754 81.876C228.414 81.876 230.29 84.032 230.29 86.636C230.29 89.24 228.554 91.396 225.81 91.396Z" fill="#FC3131"/>
<g filter="url(#filter1_d_106_6548)">
<path d="M116 215C116 202.85 125.85 193 138 193H273.333C285.484 193 295.333 202.85 295.333 215V249.042H116V215Z" fill="white"/>
</g>
<path d="M116 215C116 202.85 125.85 193 138 193H252V341H116V215Z" fill="white"/>
<path d="M252 215C252 202.85 261.85 193 274 193C286.15 193 296 202.85 296 215V315.544H252V215Z" fill="#BAE6FD"/>
<path d="M252 272C252 259.85 261.85 250 274 250H318C330.15 250 340 259.85 340 272V294C340 306.15 330.15 316 318 316H274C261.85 316 252 306.15 252 294V272Z" fill="#BAE6FD"/>
<path d="M340 294C340 306.15 330.15 316 318 316C305.85 316 296 306.15 296 294V193H340V294Z" fill="white"/>
<path d="M212 221H140C137.791 221 136 222.791 136 225C136 227.209 137.791 229 140 229H212C214.209 229 216 227.209 216 225C216 222.791 214.209 221 212 221Z" fill="#E2E8F0"/>
<path d="M192 241H140C137.791 241 136 242.791 136 245C136 247.209 137.791 249 140 249H192C194.209 249 196 247.209 196 245C196 242.791 194.209 241 192 241Z" fill="#E2E8F0"/>
<path d="M182 313H140C137.791 313 136 314.791 136 317C136 319.209 137.791 321 140 321H182C184.209 321 186 319.209 186 317C186 314.791 184.209 313 182 313Z" fill="#E2E8F0"/>
<path d="M162 293H140C137.791 293 136 294.791 136 297C136 299.209 137.791 301 140 301H162C164.209 301 166 299.209 166 297C166 294.791 164.209 293 162 293Z" fill="#E2E8F0"/>
<path d="M228 313H208C205.791 313 204 314.791 204 317C204 319.209 205.791 321 208 321H228C230.209 321 232 319.209 232 317C232 314.791 230.209 313 228 313Z" fill="#38BDF8"/>
<path d="M202 261H140C137.791 261 136 262.791 136 265C136 267.209 137.791 269 140 269H202C204.209 269 206 267.209 206 265C206 262.791 204.209 261 202 261Z" fill="#E2E8F0"/>
</g>
<defs>
<filter id="filter0_d_106_6548" x="0" y="65.728" width="396" height="291.272" filterUnits="userSpaceOnUse" color-interpolation-filters="sRGB">
<feFlood flood-opacity="0" result="BackgroundImageFix"/>
<feColorMatrix in="SourceAlpha" type="matrix" values="0 0 0 0 0 0 0 0 0 0 0 0 0 0 0 0 0 0 127 0" result="hardAlpha"/>
<feOffset dy="4"/>
<feGaussianBlur stdDeviation="6"/>
<feColorMatrix type="matrix" values="0 0 0 0 0 0 0 0 0 0 0 0 0 0 0 0 0 0 0.08 0"/>
<feBlend mode="normal" in2="BackgroundImageFix" result="effect1_dropShadow_106_6548"/>
<feBlend mode="normal" in="SourceGraphic" in2="effect1_dropShadow_106_6548" result="shape"/>
</filter>
<filter id="filter1_d_106_6548" x="104" y="185" width="203.332" height="80.042" filterUnits="userSpaceOnUse" color-interpolation-filters="sRGB">
<feFlood flood-opacity="0" result="BackgroundImageFix"/>
<feColorMatrix in="SourceAlpha" type="matrix" values="0 0 0 0 0 0 0 0 0 0 0 0 0 0 0 0 0 0 127 0" result="hardAlpha"/>
<feOffset dy="4"/>
<feGaussianBlur stdDeviation="6"/>
<feColorMatrix type="matrix" values="0 0 0 0 0 0 0 0 0 0 0 0 0 0 0 0 0 0 0.08 0"/>
<feBlend mode="normal" in2="BackgroundImageFix" result="effect1_dropShadow_106_6548"/>
<feBlend mode="normal" in="SourceGraphic" in2="effect1_dropShadow_106_6548" result="shape"/>
</filter>
</defs>
</svg>
