<svg xmlns="http://www.w3.org/2000/svg" width="228" height="80" viewBox="0 0 228 80">
    <g fill="none" fill-rule="evenodd">
        <path fill="#F1F5F9" d="M-389-2880H977v6792H-389z"/>
        <path fill="#FFF" d="M-389-328H977v528H-389z"/>
        <path d="M0 0h228v80H0z"/>
        <path fill="#000" fill-rule="nonzero" d="M23.766 19.936c-1.524 1.817-3.961 3.25-6.399 3.045-.305-2.457.889-5.067 2.285-6.68C21.176 14.433 23.842 13.102 26 13c.254 2.56-.736 5.067-2.234 6.936zm2.209 3.531c-3.53-.204-6.551 2.022-8.227 2.022-1.701 0-4.266-1.92-7.059-1.868-3.63.051-7.007 2.124-8.86 5.425-3.81 6.603-.991 16.38 2.69 21.754 1.803 2.662 3.961 5.58 6.805 5.477 2.692-.103 3.758-1.766 7.008-1.766 3.275 0 4.215 1.766 7.059 1.715 2.945-.052 4.798-2.662 6.601-5.324 2.057-3.02 2.895-5.963 2.945-6.116-.05-.051-5.687-2.227-5.738-8.778-.05-5.477 4.444-8.088 4.647-8.241-2.54-3.788-6.5-4.197-7.871-4.3zm20.388-7.422v39.9h6.145V42.302h8.506c7.77 0 13.228-5.374 13.228-13.154s-5.357-13.104-13.025-13.104H46.363zm6.145 5.221h7.084c5.332 0 8.379 2.867 8.379 7.908 0 5.042-3.047 7.934-8.405 7.934h-7.058V21.266zm32.957 34.985c3.86 0 7.44-1.97 9.064-5.093h.127v4.786h5.688v-19.86c0-5.758-4.57-9.469-11.604-9.469-6.525 0-11.35 3.762-11.527 8.932h5.535c.457-2.457 2.717-4.07 5.814-4.07 3.758 0 5.866 1.767 5.866 5.017v2.2l-7.668.461c-7.135.436-10.994 3.379-10.994 8.497 0 5.17 3.986 8.6 9.699 8.6zm1.65-4.734c-3.275 0-5.357-1.587-5.357-4.018 0-2.508 2.006-3.967 5.84-4.198l6.83-.435v2.252c0 3.737-3.149 6.399-7.313 6.399zm20.82 15.278c5.993 0 8.811-2.303 11.274-9.29L130 27h-6.246l-7.236 23.57h-.127L109.154 27h-6.424l10.41 29.047-.558 1.766c-.94 2.995-2.463 4.146-5.18 4.146-.482 0-1.422-.05-1.802-.102v4.786c.355.102 1.879.153 2.336.153z"/>
    </g>
</svg>
