<svg xmlns="http://www.w3.org/2000/svg" xmlns:xlink="http://www.w3.org/1999/xlink" width="228" height="80" viewBox="0 0 228 80">
    <defs>
        <path id="a" d="M.13.328h25.335v37.096H.13z"/>
        <path id="c" d="M0 .112h9.35v19.404H0z"/>
    </defs>
    <g fill="none" fill-rule="evenodd">
        <path fill="#F1F5F9" d="M-95-2880h1366v6792H-95z"/>
        <path fill="#FFF" d="M-95-328h1366v528H-95z"/>
        <path d="M0 0h228v80H0z"/>
        <path fill="#FFF" d="M0 21.879h89.671v31.515H0z"/>
        <path fill="#3C4043" d="M60.966 21.631v13.156h7.982a6.172 6.172 0 0 0 4.7-1.952c2.484-2.613 2.425-6.819-.148-9.342a6.437 6.437 0 0 0-4.552-1.862h-7.982zm0 17.782v15.259h-4.76V17.005H68.83a11.215 11.215 0 0 1 8.159 3.274c4.316 4.085 4.582 10.964.532 15.379l-.532.54c-2.217 2.134-4.937 3.215-8.16 3.215h-7.863zM85.237 46.772a3.92 3.92 0 0 0 1.567 3.154 5.755 5.755 0 0 0 3.695 1.261c2.01 0 3.932-.81 5.351-2.253 1.567-1.501 2.365-3.273 2.365-5.316-1.478-1.202-3.547-1.802-6.208-1.772-1.922 0-3.548.48-4.848 1.411-1.272.932-1.922 2.103-1.922 3.515m6.15-18.713c3.517 0 6.296.961 8.336 2.854 2.04 1.892 3.045 4.535 3.045 7.87v15.889h-4.553v-3.575h-.207c-1.98 2.944-4.582 4.415-7.863 4.415-2.78 0-5.145-.84-7.007-2.522a8.022 8.022 0 0 1-2.808-6.308c0-2.674 1.005-4.776 2.985-6.368 1.981-1.592 4.642-2.373 7.953-2.373 2.838 0 5.144.54 6.976 1.562v-1.111c0-1.652-.709-3.214-1.95-4.296a6.854 6.854 0 0 0-4.583-1.772c-2.66 0-4.76 1.142-6.297 3.425l-4.198-2.674c2.247-3.334 5.647-5.016 10.17-5.016"/>
        <g transform="translate(103.436 28.571)">
            <mask id="b" fill="#fff">
                <use xlink:href="#a"/>
            </mask>
            <path fill="#3C4043" d="M25.465.328L9.561 37.424H4.653l5.913-12.975L.13.329h5.173l7.539 18.502h.089L20.292.328z" mask="url(#b)"/>
        </g>
        <path fill="#4285F4" d="M41.72 36.109a27.15 27.15 0 0 0-.354-4.386H21.293v8.32h11.5c-.473 2.674-2.01 5.077-4.257 6.579v5.406h6.858c4.02-3.754 6.327-9.311 6.327-15.92"/>
        <path fill="#34A853" d="M21.293 57.255c5.735 0 10.583-1.922 14.101-5.227l-6.858-5.406c-1.922 1.321-4.376 2.072-7.243 2.072-5.558 0-10.259-3.814-11.944-8.92H2.284v5.586c3.607 7.3 10.967 11.895 19.009 11.895"/>
        <g transform="translate(0 25.814)">
            <mask id="d" fill="#fff">
                <use xlink:href="#c"/>
            </mask>
            <path fill="#FBBC04" d="M9.35 13.96a13.248 13.248 0 0 1 0-8.29V.111H2.283a21.748 21.748 0 0 0 0 19.404l7.065-5.557z" mask="url(#d)"/>
        </g>
        <path fill="#EA4335" d="M21.293 22.562a11.357 11.357 0 0 1 8.159 3.244l6.09-6.188c-3.873-3.664-8.958-5.677-14.25-5.616-8.04 0-15.401 4.625-19.008 11.924l7.065 5.587c1.685-5.136 6.386-8.951 11.944-8.951"/>
    </g>
</svg>
