<svg xmlns="http://www.w3.org/2000/svg" width="228" height="80" viewBox="0 0 228 80">
    <g fill="none" fill-rule="evenodd">
        <path d="M0 0h228v80H0z"/>
        <path fill="#231F20" d="M85.947 40.064c0-1.914 1.249-3.482 3.296-3.482 1.956 0 3.272 1.504 3.272 3.482 0 1.977-1.316 3.481-3.272 3.481-2.047 0-3.296-1.568-3.296-3.481zm8.797 0v-5.455h-2.365v1.323a4.119 4.119 0 0 0-3.418-1.582c-3.045 0-5.446 2.391-5.446 5.714 0 3.322 2.387 5.713 5.446 5.713a4.12 4.12 0 0 0 3.431-1.595V45.5h2.365l-.013-5.436zm79.838 0c0-1.914 1.248-3.482 3.295-3.482 1.956 0 3.272 1.504 3.272 3.482 0 1.977-1.316 3.481-3.272 3.481-2.047 0-3.295-1.572-3.295-3.481zm11.433 4.918v.173h.159a.155.155 0 0 0 .086 0 .074.074 0 0 0 .032-.064.075.075 0 0 0-.032-.064.163.163 0 0 0-.086 0l-.159-.045zm.159-.118a.288.288 0 0 1 .19.054.18.18 0 0 1 .069.15.172.172 0 0 1-.055.132.257.257 0 0 1-.15.064l.21.24h-.164l-.195-.24h-.064v.24h-.136v-.636l.295-.004zm-.041.863a.507.507 0 0 0 .377-.154.541.541 0 0 0-.168-.878.515.515 0 0 0-.209-.04.537.537 0 0 0-.213.04.541.541 0 0 0-.173.878.545.545 0 0 0 .395.154h-.009zm0-1.227a.704.704 0 0 1 .495.204.68.68 0 0 1 0 .973.696.696 0 0 1-.495.205.703.703 0 0 1-.653-.423.692.692 0 0 1 .662-.96l-.009.001zm-2.764-4.436V30.25h-2.365v5.691a4.119 4.119 0 0 0-3.43-1.596c-3.047 0-5.447 2.391-5.447 5.714 0 3.323 2.387 5.714 5.446 5.714a4.12 4.12 0 0 0 3.431-1.596v1.318h2.365v-5.431zm-59.3-3.596c1.525 0 2.5.955 2.75 2.641h-5.632c.25-1.573 1.203-2.64 2.887-2.64h-.005zm.045-2.118c-3.177 0-5.41 2.323-5.41 5.714 0 3.459 2.32 5.713 5.57 5.713a6.597 6.597 0 0 0 4.456-1.527l-1.157-1.755a5.176 5.176 0 0 1-3.177 1.137c-1.525 0-2.91-.705-3.25-2.664h8.07c.023-.295.045-.59.045-.909 0-3.39-2.115-5.713-5.16-5.713l.013.004zm28.532 5.714c0-1.914 1.248-3.482 3.295-3.482 1.956 0 3.272 1.504 3.272 3.482 0 1.977-1.316 3.481-3.272 3.481-2.047 0-3.295-1.572-3.295-3.481zm8.796 0v-5.455h-2.365v1.323a4.12 4.12 0 0 0-3.431-1.596c-3.046 0-5.447 2.391-5.447 5.714 0 3.323 2.388 5.714 5.447 5.714a4.12 4.12 0 0 0 3.431-1.596v1.318h2.365v-5.422zm-22.14 0c0 3.3 2.296 5.713 5.795 5.713a5.684 5.684 0 0 0 3.908-1.3l-1.134-1.913a4.77 4.77 0 0 1-2.842.977c-1.888 0-3.272-1.391-3.272-3.482 0-2.09 1.389-3.459 3.272-3.482a4.767 4.767 0 0 1 2.842.978l1.134-1.914a5.684 5.684 0 0 0-3.908-1.3c-3.499 0-5.796 2.414-5.796 5.714v.009zm30.45-5.714a3.202 3.202 0 0 0-2.863 1.595v-1.322h-2.343v10.882h2.365v-6.1c0-1.819.772-2.8 2.32-2.8a3.852 3.852 0 0 1 1.48.272l.725-2.232a5.038 5.038 0 0 0-1.684-.295zm-63.325 1.136a8.117 8.117 0 0 0-4.435-1.136c-2.75 0-4.539 1.323-4.539 3.482 0 1.777 1.317 2.868 3.75 3.209l1.111.159c1.294.182 1.911.523 1.911 1.136 0 .841-.862 1.323-2.478 1.323a5.785 5.785 0 0 1-3.631-1.136l-1.076 1.84a7.828 7.828 0 0 0 4.707 1.414c3.136 0 4.956-1.482 4.956-3.55 0-1.913-1.434-2.913-3.794-3.254l-1.112-.16c-1.021-.136-1.843-.34-1.843-1.068 0-.795.772-1.272 2.07-1.272a6.995 6.995 0 0 1 3.386.932l1.017-1.919zm30.487-1.136a3.204 3.204 0 0 0-2.864 1.595v-1.322h-2.342v10.882h2.365v-6.1c0-1.819.771-2.8 2.319-2.8a3.852 3.852 0 0 1 1.48.272l.726-2.232a5.039 5.039 0 0 0-1.684-.295zm-20.166.273h-3.863v-3.3h-2.387v3.3h-2.206v2.163h2.206v4.96c0 2.527.976 4.031 3.772 4.031a5.547 5.547 0 0 0 2.954-.84l-.68-2.028a4.365 4.365 0 0 1-2.093.614c-1.18 0-1.57-.728-1.57-1.818v-4.919h3.862l.005-2.163zM81.422 45.505v-6.819c0-2.572-1.638-4.304-4.275-4.327a4.205 4.205 0 0 0-3.818 1.936 3.988 3.988 0 0 0-3.59-1.936 3.592 3.592 0 0 0-3.177 1.618v-1.363h-2.365v10.89h2.388v-6.031c0-1.891 1.044-2.891 2.66-2.891 1.615 0 2.364 1.023 2.364 2.868v6.055h2.374v-6.032c0-1.891 1.09-2.891 2.66-2.891s2.387 1.023 2.387 2.868v6.055h2.392z"/>
        <path fill="#FF5F00" d="M19.726 52.86h14.297V27.126H19.726z"/>
        <path fill="#EB001B" d="M20.634 40a16.346 16.346 0 0 1 6.24-12.864c-7.095-5.584-17.367-4.35-22.943 2.755-5.576 7.106-4.345 17.393 2.75 22.977a16.32 16.32 0 0 0 20.193 0A16.345 16.345 0 0 1 20.634 40"/>
        <path fill="#F79E1B" d="M53.313 40c0 9.037-7.316 16.364-16.34 16.363a16.326 16.326 0 0 1-10.099-3.5c7.096-5.583 8.327-15.87 2.751-22.977a16.358 16.358 0 0 0-2.75-2.754c7.094-5.586 17.366-4.354 22.944 2.75A16.377 16.377 0 0 1 53.313 40M52.791 50.488v-.993h-.14l-.191.71-.19-.71H52.1v.993h.096v-.744l.177.645h.122l.177-.645v.751l.118-.007zm-1.048 0v-.822h.213v-.163h-.531v.17h.213v.822l.105-.007z"/>
    </g>
</svg>
