<svg xmlns="http://www.w3.org/2000/svg" xmlns:xlink="http://www.w3.org/1999/xlink" width="228" height="80" viewBox="0 0 228 80">
    <defs>
        <path id="a" d="M0 0h228v80H0z"/>
        <path id="b" d="M0 38.571h188.707V.67H0z"/>
    </defs>
    <g fill="none" fill-rule="evenodd">
        <path fill="#F1F5F9" d="M-683-2880H683v6792H-683z"/>
        <path fill="#FFF" d="M-683-328H683v528H-683z"/>
        <path fill="#5EBA46" d="M42.703 54.143h-5.556V34.512h19.99v19.631h-5.551V38.325h-8.883z"/>
        <g transform="translate(0 20.758)">
            <path fill="#5EBA46" d="M59.827 19.137v19.434h5.119V31.92c1.714 1.861 4.508 1.996 5.181 1.996 4.879 0 7.873-3.109 7.873-7.63 0-4.709-2.956-7.682-7.772-7.682-1.211 0-3.568.199-5.521 2.246h-.101l.035-1.713h-4.814zm4.88 7.097c0-3.98 2.459-4.767 4.006-4.767 1.515 0 3.973.787 3.973 4.767 0 2.469-1.046 4.823-3.973 4.823-2.995 0-4.006-2.354-4.006-4.823zM90.688 31.672c-1.885 1.769-3.702 2.243-5.721 2.243-5.517 0-5.721-4.147-5.721-5.86v-8.917h5.115v8.247c0 2.83.976 3.671 2.865 3.671 3.225 0 3.462-2.888 3.462-3.925v-7.993h5.115v14.247h-5.115v-1.713zM103.138 27.385h3.129c2.427 0 2.926.724 2.926 1.68 0 .616-.335 1.457-2.86 1.457h-3.195v-3.137zm-5.115-8.247v14.247h10.161c3.704 0 6.263-.732 6.263-3.646 0-2.244-1.249-3.224-4.076-3.73v-.084c1.853-.25 3.467-1.402 3.467-3.336 0-3.451-4.037-3.451-5.62-3.451H98.023zM103.138 22h2.76c1.446 0 2.69.222 2.69 1.4 0 1.288-1.95 1.318-2.793 1.318h-2.657v-2.718zM120.904 23.74c0-2.108 2.219-2.273 3.131-2.273.573 0 2.692.03 2.762 1.878v.395c-.103 1.401-1.452 1.117-5.217 1.595-3.099.42-6.362 1.207-6.362 4.459 0 1.177.507 4.121 5.956 4.121 2.089 0 4.374-.53 5.721-1.934h.103l.437 1.404h5.38v-.253c-.972-.197-1.04-1.151-1.005-2.694l.1-6.506c.035-1.651-.135-5.328-7.842-5.328-1.85 0-7.804.168-8.043 5.136h4.879zm5.923 3.755c0 2.862-2.487 3.562-3.734 3.562-.94 0-2.625-.307-2.625-1.653 0-1.603 1.916-1.909 2.997-2.052 1.982-.28 1.815-.192 3.362-.751v.894zM132.483 22.001v-2.864h16.42v2.864h-5.655v11.385h-5.113V22z"/>
            <mask id="c" fill="#fff">
                <use xlink:href="#b"/>
            </mask>
            <path fill="#231F20" d="M0 33.434h12.814V20.623H0z" mask="url(#c)"/>
            <path fill="#5EBA46" d="M26.011 7.445v19.218H23.4C22.27 17.16 16.294 11.19 6.79 10.061V7.445h19.221zM.014.67v15.942h3.39c8.915 0 13.437 4.525 13.437 13.438v3.387h15.945V.67H.014z" mask="url(#c)"/>
            <path fill="#231F20" d="M181.155 25.454h-5.516l5.516-6.56v6.56zm5.024-.068V12.974h-5.057l-10.528 12.09v4.689h10.528v3.633h5.057v-3.633h2.528v-4.367h-2.528zM151.955 19.268l5.408.575s.427-4.029 4.056-2.986c1.85.531 1.958 2.671.546 4.271-1.598 1.809-4.832 3.505-6.349 4.996-2.279 2.237-3.71 4.01-4.183 7.261h17.373v-4.424h-9.034c.438-1.393 5.27-3.673 7.024-5.783.964-1.161 2.234-3.204 1.323-5.925-.659-1.975-1.903-3.816-7.546-4.109-8.406-.436-8.618 6.124-8.618 6.124" mask="url(#c)"/>
        </g>
    </g>
</svg>
