<svg width="228" height="80" viewBox="0 0 228 80" fill="none" xmlns="http://www.w3.org/2000/svg"><path d="M47.1069 24.5653L33.6221 55.5162H24.8244L18.1885 30.8159C17.7855 29.2944 17.4355 28.7374 16.2103 28.0965C14.21 27.0523 10.9063 26.073 8 25.4649L8.19742 24.5653H22.3596C24.1647 24.5653 25.7874 25.7214 26.1972 27.7213L29.7018 45.6312L38.3637 24.5653H47.1069ZM81.579 45.4108C81.6144 37.2422 69.837 36.792 69.918 33.143C69.9432 32.0324 71.0426 30.8518 73.4483 30.5501C74.6409 30.3998 77.9267 30.2851 81.6535 31.9352L83.1153 25.3721C81.1129 24.6731 78.5363 24 75.3301 24C67.1035 24 61.3143 28.2072 61.2653 34.2311C61.2123 38.6869 65.3977 41.1732 68.5508 42.6537C71.7947 44.1701 72.883 45.1442 72.8709 46.5007C72.8476 48.5771 70.2836 49.4936 67.8872 49.5295C63.7041 49.5913 61.2765 48.4404 59.3412 47.5749L57.8329 54.3555C59.7775 55.2138 63.3669 55.9626 67.0886 56C75.8326 56 81.552 51.8453 81.579 45.4108ZM103.302 55.5162H111L104.281 24.5653H97.1759C96.4169 24.5588 95.6735 24.7719 95.0419 25.1768C94.4104 25.5817 93.9198 26.1598 93.634 26.8361L81.1446 55.5162H89.8839L91.6194 50.8929H102.297L103.302 55.5162ZM94.0158 44.5493L98.3964 32.9284L100.918 44.5493H94.0158ZM58.9989 24.5653L52.1167 55.5162H43.7941L50.6789 24.5653H58.9989Z" fill="#1434CB"/></svg>
