<svg xmlns="http://www.w3.org/2000/svg" xmlns:xlink="http://www.w3.org/1999/xlink" width="228" height="80" viewBox="0 0 228 80">
    <defs>
        <path id="a" d="M0 .11h33.052v26.527H0z"/>
        <path id="c" d="M.074.147h21.234v27.337H.074z"/>
        <path id="e" d="M.092.11h11.171v10.574H.093z"/>
    </defs>
    <g fill="none" fill-rule="evenodd">
        <path d="M0 0h228v80H0z"/>
        <g transform="translate(0 28.59)">
            <mask id="b" fill="#fff">
                <use xlink:href="#a"/>
            </mask>
            <path fill="#161E6F" d="M26.46.11L20.256 12.73c-1.348 2.763-2.66 5.434-3.693 8.197h-.074c-.166-2.763-.37-5.397-.665-8.197l-.646-6.613-.59-6.005H0v.92h.499c6.758.369 8.475 4.293 8.918 6.3l-.812-6.3.849 6.485c-.019-.055-.019-.13-.037-.184l.148 1.179v-.148l2.363 18.274h6.85L33.053.11H26.46z" mask="url(#b)"/>
        </g>
        <path fill="#161E6F" d="M42.284 28.608L37.04 55.153h-5.908l5.244-26.545z"/>
        <g transform="translate(40.253 28.037)">
            <mask id="d" fill="#fff">
                <use xlink:href="#c"/>
            </mask>
            <path fill="#161E6F" d="M2.437 20.982c1.644.94 3.989 1.694 6.518 1.694 2.29 0 4.395-1.031 4.395-3.113 0-1.492-1.182-2.487-3.73-3.74-2.954-1.528-5.742-3.573-5.742-7.055 0-5.36 4.874-8.62 10.912-8.62 3.36 0 5.337.7 6.518 1.344l-2.64 4.716c-.905-.48-1.607-1.419-4.376-1.382-2.752.037-4.192 1.53-4.192 2.984 0 1.53 1.68 2.487 4.026 3.74 3.36 1.695 5.502 3.85 5.502 7 0 5.913-5.096 8.934-11.245 8.934-3.86 0-6.998-1.529-8.31-2.487l2.364-4.015z" mask="url(#d)"/>
        </g>
        <path fill="#161E6F" d="M76.167 43.934l-.535-5.71c-.13-1.456-.296-3.574-.407-5.195h-.074c-.701 1.621-1.477 3.666-2.215 5.195l-2.752 5.71h5.983zm-7.718 4.33l-3.287 6.888h-6.278l13.46-26.544h7.59l3.25 26.544h-6.205l-.572-6.889H68.45zM92.213 55.797c-1.791 0-3.158-.442-4.136-1.308-.979-.884-1.459-2.136-1.459-3.757 0-1.29.222-2.469.646-3.519a8.29 8.29 0 0 1 1.773-2.726 7.959 7.959 0 0 1 2.64-1.75 8.408 8.408 0 0 1 3.232-.627c.905 0 1.754.093 2.53.277.775.184 1.477.46 2.104.81l-.775 3.187h-.388c-.554-.608-1.126-1.05-1.68-1.326s-1.219-.424-1.957-.424c-1.311 0-2.4.535-3.269 1.584-.85 1.05-1.274 2.395-1.274 4.035 0 1.05.24 1.805.702 2.284.48.479 1.163.7 2.068.7a5.33 5.33 0 0 0 2.29-.498 9.746 9.746 0 0 0 2.03-1.252h.351l-.775 3.15c-.258.11-.572.24-.923.387-.351.147-.702.276-1.016.368-.425.129-.83.221-1.2.277-.333.11-.85.128-1.514.128M110.308 47.858c0 .147-.018.331-.037.553a4.75 4.75 0 0 1-.11.681l-1.496 6.466h-3.231l1.144-4.937c.074-.368.148-.7.203-.958.056-.258.074-.497.074-.7 0-.387-.092-.681-.295-.847-.203-.166-.554-.258-1.071-.258a2.85 2.85 0 0 0-.886.166c-.333.11-.702.276-1.108.497l-1.625 7.055h-3.213l3.176-13.779h3.213l-1.145 4.937c.646-.423 1.256-.773 1.791-1.013a4.383 4.383 0 0 1 1.791-.368c.905 0 1.607.22 2.087.663.498.405.738 1.031.738 1.842M119.19 49.313c.018-.11.037-.203.037-.295 0-.092.018-.184.018-.276 0-.46-.147-.829-.443-1.068-.295-.258-.702-.369-1.256-.369-.664 0-1.218.185-1.661.535-.444.35-.794.847-1.016 1.492h4.32v-.019zm-2.438 6.503c-1.698 0-3.01-.369-3.932-1.124-.924-.755-1.385-1.787-1.385-3.113 0-.903.147-1.732.461-2.487a5.75 5.75 0 0 1 1.311-1.99c.536-.552 1.219-.994 2.05-1.326.812-.331 1.717-.479 2.696-.479 1.477 0 2.603.295 3.36.903.757.608 1.127 1.492 1.127 2.653 0 .405-.037.792-.13 1.178-.092.387-.184.774-.314 1.143h-7.422v.22c0 .682.24 1.235.738 1.622.48.387 1.237.59 2.234.59a5.54 5.54 0 0 0 1.994-.35 8.887 8.887 0 0 0 1.626-.793h.35l-.59 2.56a8.933 8.933 0 0 1-1.958.609c-.72.129-1.44.184-2.216.184zM127.887 55.816a7.214 7.214 0 0 1-1.92-.258 3.997 3.997 0 0 1-1.552-.792 3.74 3.74 0 0 1-1.015-1.308c-.24-.516-.37-1.142-.37-1.824 0-.884.167-1.713.517-2.487a5.753 5.753 0 0 1 1.44-2.008 6.627 6.627 0 0 1 2.217-1.326c.867-.332 1.81-.497 2.825-.497a8.5 8.5 0 0 1 1.81.202 6.96 6.96 0 0 1 1.68.59l-.684 2.726h-.461c-.351-.423-.739-.737-1.182-.94a3.532 3.532 0 0 0-1.477-.312c-.997 0-1.81.35-2.42 1.068-.609.718-.922 1.603-.922 2.671 0 .737.184 1.29.572 1.658.37.368.96.553 1.754.553.61 0 1.182-.13 1.68-.369.499-.258.942-.534 1.293-.829h.462l-.684 2.726c-.646.277-1.2.48-1.68.59-.48.11-1.108.166-1.883.166M143.674 55.54h-3.36l-1.976-4.385-1.404 1.253-.738 3.15h-3.213l3.176-13.779h3.213l-1.902 8.216 4.468-4.384h3.675l-4.616 4.329z"/>
        <g transform="translate(144.948 45.168)">
            <mask id="f" fill="#fff">
                <use xlink:href="#e"/>
            </mask>
            <path fill="#161E6F" d="M7.109 7.332c.277-.406.48-.866.61-1.364.147-.497.202-1.086.202-1.787 0-.607-.129-1.068-.406-1.4-.258-.331-.683-.497-1.274-.497-.443 0-.85.11-1.182.332a3.322 3.322 0 0 0-.904.92c-.24.37-.425.83-.573 1.382a6.457 6.457 0 0 0-.203 1.695c0 .682.148 1.16.462 1.455.314.295.72.442 1.237.442.388 0 .757-.11 1.108-.313.369-.202.664-.497.923-.865m4.154-3.26c0 .938-.147 1.804-.461 2.615a6.178 6.178 0 0 1-1.33 2.1 6.24 6.24 0 0 1-2.05 1.4c-.775.331-1.698.497-2.732.497-1.477 0-2.622-.35-3.416-1.068C.48 8.916.092 7.92.092 6.668c0-.884.148-1.731.443-2.523a6.205 6.205 0 0 1 1.311-2.1C2.4 1.455 3.102.976 3.915.626 4.727.276 5.65.111 6.665.111c1.496 0 2.623.35 3.417 1.05.775.718 1.181 1.676 1.181 2.91" mask="url(#f)"/>
        </g>
        <path fill="#161E6F" d="M168.97 45.61l-2.307 9.948h-3.213l.258-1.105c-.313.202-.627.405-.941.57-.296.185-.591.332-.868.424a4.91 4.91 0 0 1-.942.295 4.413 4.413 0 0 1-.85.074c-.867 0-1.569-.203-2.067-.627-.499-.423-.758-1.031-.758-1.86 0-.221.02-.424.037-.626a4.49 4.49 0 0 1 .111-.627l1.496-6.466h3.231l-1.145 4.937c-.092.387-.147.7-.203.977-.036.276-.074.497-.074.7 0 .386.093.663.277.847.185.166.554.258 1.071.258.259 0 .554-.055.905-.166.332-.11.702-.276 1.108-.479l1.625-7.055h3.25v-.019zM173.033 55.742c-1.108 0-1.902-.184-2.364-.553-.48-.368-.701-.902-.701-1.62 0-.185.018-.369.037-.553.037-.184.074-.387.11-.627l1.09-4.715h-1.311l.48-2.1h1.311l.665-2.837h3.213l-.647 2.837h2.992l-.48 2.1h-2.992l-.83 3.592c-.056.24-.111.497-.167.755-.055.258-.074.46-.074.645 0 .35.093.608.296.737.203.147.498.202.923.202.166 0 .388-.037.646-.092.277-.055.48-.129.646-.203h.26l-.5 2.137c-.369.092-.738.166-1.144.203-.407.037-.905.092-1.46.092"/>
    </g>
</svg>
